<svg width="150" height="140" viewBox="0 0 150 140" fill="none" xmlns="http://www.w3.org/2000/svg">
<path d="M85.3203 96.4961C85.3203 101.281 84.832 105.66 83.8555 109.631C82.8789 113.602 81.5117 117.167 79.7539 120.324C78.0286 123.482 75.9616 126.249 73.5527 128.625C71.1439 131.001 68.4909 132.971 65.5938 134.533C62.7292 136.096 59.6855 137.268 56.4629 138.049C53.2402 138.83 49.9525 139.221 46.5996 139.221C43.377 139.221 40.2357 138.863 37.1758 138.146C34.1159 137.43 31.235 136.356 28.5332 134.924C25.8639 133.492 23.4062 131.701 21.1602 129.553C18.9466 127.404 17.026 124.914 15.3984 122.082C13.8034 119.25 12.5501 116.06 11.6387 112.512C10.7598 108.964 10.3203 105.057 10.3203 100.793C10.3203 96.138 10.7923 91.8737 11.7363 88C12.7129 84.1263 14.0638 80.6432 15.7891 77.5508C17.5469 74.4258 19.6139 71.7077 21.9902 69.3965C24.3991 67.0853 27.0195 65.1647 29.8516 63.6348C32.7161 62.0723 35.7435 60.9167 38.9336 60.168C42.1562 59.3867 45.444 58.9961 48.7969 58.9961C52.0195 58.9961 55.1608 59.3542 58.2207 60.0703C61.3132 60.7539 64.2103 61.8118 66.9121 63.2441C69.6139 64.6439 72.0879 66.4017 74.334 68.5176C76.6126 70.6009 78.5495 73.026 80.1445 75.793C81.7721 78.5599 83.0417 81.6849 83.9531 85.168C84.8646 88.6185 85.3203 92.3945 85.3203 96.4961ZM39.8125 93.5176C39.8125 98.6608 40.0892 103.299 40.6426 107.434C41.2285 111.535 41.9772 115.035 42.8887 117.932C43.8327 120.796 44.8743 122.993 46.0137 124.523C47.153 126.053 48.2923 126.818 49.4316 126.818C50.2454 126.818 51.0267 126.363 51.7754 125.451C52.5566 124.507 53.2402 123.075 53.8262 121.154C54.4121 119.201 54.8678 116.727 55.1934 113.732C55.5514 110.738 55.7305 107.157 55.7305 102.99C55.7305 98.1074 55.4375 93.7129 54.8516 89.8066C54.2656 85.8678 53.5169 82.5312 52.6055 79.7969C51.694 77.0625 50.6523 74.9629 49.4805 73.498C48.3411 72.0332 47.2181 71.3008 46.1113 71.3008C45.265 71.3008 44.4512 71.7402 43.6699 72.6191C42.9212 73.4655 42.2539 74.8001 41.668 76.623C41.1146 78.446 40.6589 80.7572 40.3008 83.5566C39.9753 86.3561 39.8125 89.6764 39.8125 93.5176ZM137.537 117.297C137.537 118.762 137.732 119.901 138.123 120.715C138.514 121.529 139.002 122.147 139.588 122.57C140.174 122.993 140.809 123.286 141.492 123.449C142.176 123.612 142.811 123.791 143.396 123.986C143.982 124.182 144.471 124.458 144.861 124.816C145.252 125.142 145.447 125.695 145.447 126.477C145.447 130.546 143.348 133.492 139.148 135.314C134.949 137.105 128.878 138 120.936 138C117.094 138 113.676 137.788 110.682 137.365C107.719 136.91 105.213 136.226 103.162 135.314C101.144 134.37 99.5977 133.166 98.5234 131.701C97.4818 130.236 96.9609 128.495 96.9609 126.477C96.9609 125.695 97.1562 125.142 97.5469 124.816C97.9375 124.458 98.4095 124.198 98.9629 124.035C99.5488 123.84 100.167 123.661 100.818 123.498C101.502 123.335 102.12 123.059 102.674 122.668C103.26 122.245 103.748 121.643 104.139 120.861C104.529 120.08 104.725 118.957 104.725 117.492V86.6816C104.725 85.2493 104.529 84.1426 104.139 83.3613C103.748 82.5475 103.26 81.9453 102.674 81.5547C102.12 81.1315 101.502 80.8385 100.818 80.6758C100.167 80.513 99.5488 80.3503 98.9629 80.1875C98.4095 79.9922 97.9375 79.7318 97.5469 79.4062C97.1562 79.0482 96.9609 78.4785 96.9609 77.6973C96.9609 75.6139 97.498 73.7422 98.5723 72.082C99.6465 70.4219 101.079 68.957 102.869 67.6875C104.692 66.3854 106.775 65.2786 109.119 64.3672C111.463 63.4232 113.904 62.6582 116.443 62.0723C119.015 61.4538 121.57 61.0143 124.109 60.7539C126.681 60.4609 129.09 60.3145 131.336 60.3145C132.866 60.3145 134.054 60.5911 134.9 61.1445C135.747 61.6654 136.365 62.4466 136.756 63.4883C137.179 64.5299 137.423 65.832 137.488 67.3945C137.586 68.9245 137.635 70.6823 137.635 72.668L137.537 117.297Z" fill="#F5CDC3"/>
<path d="M72.7539 114.324L71.8801 113.838L71.8764 113.845L72.7539 114.324ZM66.5527 122.625L65.8505 121.913L66.5527 122.625ZM58.5938 128.533L58.1191 127.653L58.1149 127.655L58.5938 128.533ZM21.5332 128.924L21.0604 129.805L21.0648 129.807L21.5332 128.924ZM14.1602 123.553L13.4637 124.27L13.4689 124.275L14.1602 123.553ZM8.39844 116.082L7.5271 116.573L7.53142 116.58L8.39844 116.082ZM4.63867 106.512L3.66797 106.752L3.67012 106.761L4.63867 106.512ZM4.73633 82L3.76664 81.7555L3.76476 81.7632L4.73633 82ZM8.78906 71.5508L7.91748 71.0605L7.91577 71.0636L8.78906 71.5508ZM14.9902 63.3965L14.2979 62.6749L14.293 62.6796L14.9902 63.3965ZM22.8516 57.6348L23.3269 58.5146L23.3304 58.5127L22.8516 57.6348ZM31.9336 54.168L32.1621 55.1415L32.1692 55.1398L31.9336 54.168ZM51.2207 54.0703L50.9928 55.0441L51.0049 55.0467L51.2207 54.0703ZM59.9121 57.2441L59.4437 58.1277L59.4521 58.1321L59.9121 57.2441ZM67.334 62.5176L66.6483 63.2455L66.6537 63.2506L66.6592 63.2556L67.334 62.5176ZM73.1445 69.793L72.2781 70.2924L72.2826 70.3L73.1445 69.793ZM76.9531 79.168L75.9857 79.4211L75.9863 79.4234L76.9531 79.168ZM33.6426 101.434L32.6514 101.566L32.6526 101.575L33.6426 101.434ZM35.8887 111.932L34.9347 112.232L34.9389 112.245L35.8887 111.932ZM44.7754 119.451L44.005 118.814L44.0027 118.816L44.7754 119.451ZM46.8262 115.154L47.7827 115.446L47.784 115.442L46.8262 115.154ZM48.1934 107.732L47.2004 107.614L47.1992 107.624L48.1934 107.732ZM47.8516 83.8066L46.8624 83.9538L46.8626 83.955L47.8516 83.8066ZM42.4805 67.498L41.691 68.112L41.6996 68.1227L42.4805 67.498ZM36.6699 66.6191L35.9225 65.9548L35.9209 65.9566L36.6699 66.6191ZM34.668 70.623L33.7159 70.317L33.7135 70.3248L33.7111 70.3326L34.668 70.623ZM33.3008 77.5566L32.3088 77.4298L32.3075 77.4411L33.3008 77.5566ZM77.3203 90.4961C77.3203 95.214 76.8388 99.5108 75.8844 103.392L77.8265 103.87C78.8252 99.8083 79.3203 95.3485 79.3203 90.4961H77.3203ZM75.8844 103.392C74.9264 107.288 73.5894 110.768 71.8802 113.838L73.6276 114.811C75.434 111.566 76.8315 107.916 77.8265 103.87L75.8844 103.392ZM71.8764 113.845C70.1949 116.922 68.1856 119.61 65.8505 121.913L67.255 123.337C69.7376 120.888 71.8624 118.041 73.6315 114.804L71.8764 113.845ZM65.8505 121.913C63.5072 124.225 60.9304 126.137 58.1191 127.653L59.0684 129.413C62.0514 127.805 64.7806 125.778 67.255 123.337L65.8505 121.913ZM58.1149 127.655C55.3282 129.175 52.3665 130.316 49.2273 131.077L49.6985 133.021C53.0046 132.219 56.1301 131.016 59.0726 129.411L58.1149 127.655ZM49.2273 131.077C46.0826 131.839 42.874 132.221 39.5996 132.221V134.221C43.031 134.221 46.3978 133.821 49.6985 133.021L49.2273 131.077ZM39.5996 132.221C36.4517 132.221 33.387 131.871 30.4037 131.173L29.9479 133.12C33.0844 133.854 36.3022 134.221 39.5996 134.221V132.221ZM30.4037 131.173C27.4251 130.476 24.6254 129.431 22.0016 128.04L21.0648 129.807C23.8447 131.281 26.8066 132.385 29.9479 133.12L30.4037 131.173ZM22.006 128.043C19.4184 126.654 17.0339 124.918 14.8514 122.83L13.4689 124.275C15.7786 126.485 18.3094 128.329 21.0604 129.805L22.006 128.043ZM14.8566 122.835C12.7137 120.755 10.8494 118.34 9.26545 115.584L7.53142 116.58C9.20266 119.488 11.1795 122.053 13.4637 124.27L14.8566 122.835ZM9.26975 115.591C7.72256 112.844 6.49967 109.737 5.60723 106.263L3.67012 106.761C4.60059 110.383 5.88421 113.656 7.52713 116.573L9.26975 115.591ZM5.60934 106.271C4.75283 102.814 4.32031 98.9893 4.32031 94.793H2.32031C2.32031 99.1252 2.7667 103.114 3.66801 106.752L5.60934 106.271ZM4.32031 94.793C4.32031 90.2049 4.78561 86.0213 5.70789 82.2368L3.76476 81.7632C2.79903 85.7261 2.32031 90.0712 2.32031 94.793H4.32031ZM5.70599 82.2445C6.66386 78.4449 7.98473 75.045 9.66235 72.038L7.91577 71.0636C6.14288 74.2414 4.76192 77.8077 3.76667 81.7555L5.70599 82.2445ZM9.66064 72.041C11.3753 68.9928 13.3852 66.3525 15.6875 64.1133L14.293 62.6796C11.8427 65.0628 9.71845 67.8588 7.91749 71.0605L9.66064 72.041ZM15.6826 64.1181C18.0289 61.8668 20.5769 60.0002 23.3269 58.5146L22.3763 56.7549C19.4622 58.3292 16.7692 60.3038 14.2979 62.6749L15.6826 64.1181ZM23.3304 58.5127C26.1159 56.9933 29.059 55.8698 32.1621 55.1415L31.7051 53.1944C28.428 53.9635 25.3164 55.1512 22.3727 56.7569L23.3304 58.5127ZM32.1692 55.1398C35.3139 54.3775 38.5225 53.9961 41.7969 53.9961V51.9961C38.3655 51.9961 34.9986 52.396 31.698 53.1961L32.1692 55.1398ZM41.7969 53.9961C44.9448 53.9961 48.0095 54.3458 50.9928 55.044L51.4486 53.0966C48.3121 52.3626 45.0943 51.9961 41.7969 51.9961V53.9961ZM51.0049 55.0467C54.0125 55.7116 56.8243 56.7391 59.4437 58.1277L60.3805 56.3606C57.5963 54.8846 54.6138 53.7962 51.4365 53.0939L51.0049 55.0467ZM59.4521 58.1321C62.0705 59.4886 64.4687 61.1922 66.6483 63.2455L68.0197 61.7897C65.7071 59.6112 63.1574 57.7992 60.3721 56.3562L59.4521 58.1321ZM66.6592 63.2556C68.8596 65.2673 70.7326 67.6113 72.2782 70.2924L74.0109 69.2935C72.3664 66.4408 70.3657 63.9345 68.0088 61.7795L66.6592 63.2556ZM72.2826 70.3C73.8582 72.9786 75.0948 76.0165 75.9857 79.4211L77.9205 78.9148C76.9886 75.3533 75.686 72.1412 74.0065 69.2859L72.2826 70.3ZM75.9863 79.4234C76.8727 82.7792 77.3203 86.4682 77.3203 90.4961H79.3203C79.3203 86.3209 78.8564 82.4578 77.92 78.9126L75.9863 79.4234ZM31.8125 87.5176C31.8125 92.6954 32.091 97.3794 32.6514 101.566L34.6337 101.301C34.0874 97.2195 33.8125 92.6262 33.8125 87.5176H31.8125ZM32.6526 101.575C33.2437 105.712 34.0023 109.268 34.9348 112.232L36.8426 111.632C35.9521 108.801 35.2133 105.358 34.6325 101.292L32.6526 101.575ZM34.9389 112.245C35.8994 115.159 36.982 117.469 38.2116 119.121L39.8157 117.926C38.7667 116.518 37.766 114.433 36.8384 111.619L34.9389 112.245ZM38.2116 119.121C39.4137 120.735 40.8125 121.818 42.4316 121.818V119.818C41.7721 119.818 40.8923 119.372 39.8157 117.926L38.2116 119.121ZM42.4316 121.818C43.6605 121.818 44.6978 121.121 45.5481 120.086L44.0027 118.816C43.3556 119.604 42.8304 119.818 42.4316 119.818V121.818ZM45.5458 120.089C46.4482 118.998 47.1797 117.423 47.7826 115.446L45.8697 114.862C45.3008 116.727 44.6651 118.016 44.005 118.814L45.5458 120.089ZM47.784 115.442C48.3936 113.409 48.8582 110.87 49.1875 107.84L47.1992 107.624C46.8775 110.584 46.4306 112.993 45.8683 114.867L47.784 115.442ZM49.1863 107.851C49.5505 104.805 49.7305 101.183 49.7305 96.9902H47.7305C47.7305 101.131 47.5524 104.67 47.2004 107.614L49.1863 107.851ZM49.7305 96.9902C49.7305 92.0689 49.4353 87.6235 48.8405 83.6583L46.8626 83.955C47.4397 87.8023 47.7305 92.146 47.7305 96.9902H49.7305ZM48.8407 83.6595C48.2492 79.6833 47.4894 76.2864 46.5542 73.4806L44.6568 74.1131C45.5444 76.7761 46.2821 80.0524 46.8624 83.9538L48.8407 83.6595ZM46.5542 73.4806C45.6232 70.6879 44.5354 68.466 43.2613 66.8734L41.6996 68.1227C42.7693 69.4598 43.7648 71.4371 44.6568 74.1131L46.5542 73.4806ZM43.2698 66.8841C42.0669 65.3376 40.6859 64.3008 39.1113 64.3008V66.3008C39.7503 66.3008 40.6153 66.7289 41.6911 68.112L43.2698 66.8841ZM39.1113 64.3008C37.8813 64.3008 36.8169 64.9486 35.9225 65.9548L37.4173 67.2835C38.0855 66.5319 38.6486 66.3008 39.1113 66.3008V64.3008ZM35.9209 65.9566C35.0382 66.9544 34.3188 68.4415 33.7159 70.317L35.62 70.9291C36.189 69.1588 36.8042 67.9766 37.4189 67.2817L35.9209 65.9566ZM33.7111 70.3326C33.1358 72.2278 32.671 74.5986 32.3089 77.4298L34.2927 77.6835C34.6467 74.9157 35.0934 72.6642 35.6248 70.9135L33.7111 70.3326ZM32.3075 77.4411C31.9762 80.2899 31.8125 83.6506 31.8125 87.5176H33.8125C33.8125 83.7022 33.9743 80.4224 34.2941 77.6721L32.3075 77.4411ZM130.537 111.297L129.537 111.295V111.297H130.537ZM137.861 118.816L137.186 119.554L137.203 119.57L137.221 119.585L137.861 118.816ZM132.148 129.314L132.541 130.234L132.547 130.232L132.148 129.314ZM103.682 131.365L103.53 132.354L103.542 132.355L103.682 131.365ZM96.1621 129.314L95.7384 130.22L95.7472 130.224L95.756 130.228L96.1621 129.314ZM91.5234 125.701L90.7085 126.281L90.7127 126.287L90.717 126.293L91.5234 125.701ZM90.5469 118.816L91.1871 119.585L91.2052 119.57L91.2226 119.554L90.5469 118.816ZM91.9629 118.035L92.2451 118.995L92.2622 118.989L92.2791 118.984L91.9629 118.035ZM93.8184 117.498L93.5867 116.525L93.5758 116.528L93.8184 117.498ZM95.6738 116.668L96.2505 117.485L96.2593 117.479L95.6738 116.668ZM97.1387 77.3613L96.2371 77.7941L96.2406 77.8013L96.2442 77.8085L97.1387 77.3613ZM95.6738 75.5547L95.0664 76.349L95.0921 76.3687L95.1191 76.3867L95.6738 75.5547ZM93.8184 74.6758L93.5758 75.646L93.5867 75.6486L93.8184 74.6758ZM91.9629 74.1875L91.6301 75.1305L91.6623 75.1419L91.6952 75.151L91.9629 74.1875ZM90.5469 73.4062L89.8712 74.1434L89.8886 74.1594L89.9067 74.1745L90.5469 73.4062ZM95.8691 61.6875L96.4476 62.5032L96.4504 62.5012L95.8691 61.6875ZM102.119 58.3672L102.482 59.2993L102.493 59.2948L102.119 58.3672ZM109.443 56.0723L109.668 57.0467L109.677 57.0445L109.443 56.0723ZM117.109 54.7539L117.211 55.7488L117.223 55.7475L117.109 54.7539ZM127.9 55.1445L127.353 55.9815L127.365 55.989L127.376 55.9962L127.9 55.1445ZM129.756 57.4883L128.82 57.8394L128.824 57.8521L128.829 57.8647L129.756 57.4883ZM130.488 61.3945L129.489 61.4362L129.49 61.4472L129.49 61.4582L130.488 61.3945ZM130.635 66.668L131.635 66.6702V66.668H130.635ZM129.537 111.297C129.537 112.829 129.738 114.14 130.222 115.148L132.025 114.282C131.727 113.662 131.537 112.694 131.537 111.297H129.537ZM130.222 115.148C130.667 116.075 131.252 116.839 132.002 117.381L133.173 115.76C132.752 115.456 132.361 114.982 132.025 114.282L130.222 115.148ZM132.002 117.381C132.691 117.879 133.446 118.228 134.261 118.422L134.724 116.476C134.171 116.345 133.656 116.108 133.173 115.76L132.002 117.381ZM134.261 118.422C134.919 118.579 135.526 118.75 136.08 118.935L136.713 117.038C136.095 116.832 135.432 116.645 134.724 116.476L134.261 118.422ZM136.08 118.935C136.555 119.093 136.914 119.305 137.186 119.554L138.537 118.079C138.027 117.612 137.41 117.27 136.713 117.038L136.08 118.935ZM137.221 119.585C137.284 119.637 137.447 119.832 137.447 120.477H139.447C139.447 119.559 139.22 118.647 138.502 118.048L137.221 119.585ZM137.447 120.477C137.447 122.33 136.972 123.875 136.058 125.157C135.139 126.448 133.727 127.539 131.75 128.397L132.547 130.232C134.769 129.267 136.507 127.974 137.687 126.318C138.872 124.655 139.447 122.692 139.447 120.477H137.447ZM131.756 128.395C127.741 130.107 121.829 131 113.936 131V133C121.928 133 128.158 132.103 132.541 130.234L131.756 128.395ZM113.936 131C110.129 131 106.76 130.79 103.822 130.375L103.542 132.355C106.593 132.787 110.059 133 113.936 133V131ZM103.834 130.377C100.932 129.93 98.5161 129.266 96.5682 128.401L95.756 130.228C97.9097 131.185 100.507 131.889 103.53 132.354L103.834 130.377ZM96.5858 128.409C94.6854 127.52 93.2848 126.412 92.3298 125.11L90.717 126.293C91.9105 127.92 93.6023 129.221 95.7384 130.22L96.5858 128.409ZM92.3384 125.122C91.4316 123.847 90.9609 122.314 90.9609 120.477H88.9609C88.9609 122.676 89.5319 124.626 90.7085 126.281L92.3384 125.122ZM90.9609 120.477C90.9609 119.832 91.1242 119.637 91.1871 119.585L89.9067 118.048C89.1883 118.647 88.9609 119.559 88.9609 120.477H90.9609ZM91.2226 119.554C91.491 119.308 91.8249 119.118 92.2451 118.995L91.6807 117.076C90.9941 117.278 90.384 117.609 89.8712 118.079L91.2226 119.554ZM92.2791 118.984C92.8388 118.797 93.4326 118.625 94.0609 118.468L93.5758 116.528C92.9021 116.696 92.2589 116.882 91.6467 117.086L92.2791 118.984ZM94.05 118.471C94.8528 118.28 95.5892 117.952 96.2505 117.485L95.0971 115.851C94.6517 116.165 94.1512 116.391 93.5867 116.525L94.05 118.471ZM96.2593 117.479C97.0006 116.943 97.5852 116.204 98.0331 115.309L96.2442 114.414C95.9109 115.081 95.5189 115.546 95.0883 115.857L96.2593 117.479ZM98.0331 115.309C98.5251 114.325 98.7246 113.02 98.7246 111.492H96.7246C96.7246 112.894 96.5335 113.836 96.2442 114.414L98.0331 115.309ZM98.7246 111.492V80.6816H96.7246V111.492H98.7246ZM98.7246 80.6816C98.7246 79.1818 98.5239 77.8957 98.0331 76.9141L96.2442 77.8085C96.5347 78.3894 96.7246 79.3169 96.7246 80.6816H98.7246ZM98.0402 76.9286C97.5934 75.9978 97.0004 75.2372 96.2285 74.7226L95.1191 76.3867C95.5192 76.6534 95.9027 77.0973 96.2371 77.7941L98.0402 76.9286ZM96.2813 74.7603C95.6155 74.2512 94.8688 73.8979 94.05 73.703L93.5867 75.6486C94.1352 75.7792 94.6254 76.0118 95.0664 76.349L96.2813 74.7603ZM94.0609 73.7056C93.4174 73.5448 92.8073 73.3842 92.2305 73.224L91.6952 75.151C92.2903 75.3163 92.9172 75.4813 93.5758 75.6459L94.0609 73.7056ZM92.2957 73.2445C91.8373 73.0827 91.4735 72.8768 91.1871 72.638L89.9067 74.1745C90.4015 74.5868 90.9817 74.9016 91.6301 75.1305L92.2957 73.2445ZM91.2226 72.6691C91.1202 72.5752 90.9609 72.3323 90.9609 71.6973H88.9609C88.9609 72.6247 89.1923 73.5211 89.8712 74.1434L91.2226 72.6691ZM90.9609 71.6973C90.9609 69.7958 91.4481 68.1147 92.4118 66.6253L90.7327 65.5388C89.548 67.3696 88.9609 69.432 88.9609 71.6973H90.9609ZM92.4118 66.6253C93.4099 65.0828 94.7494 63.7074 96.4476 62.5032L95.2907 60.8718C93.4082 62.2067 91.8831 63.7609 90.7327 65.5388L92.4118 66.6253ZM96.4504 62.5012C98.1979 61.253 100.206 60.1841 102.482 59.2992L101.757 57.4352C99.3447 58.3732 97.1862 59.5178 95.2879 60.8738L96.4504 62.5012ZM102.493 59.2948C104.787 58.3708 107.178 57.6213 109.668 57.0467L109.218 55.0979C106.63 55.6952 104.139 56.4755 101.746 57.4396L102.493 59.2948ZM109.677 57.0445C112.207 56.4361 114.718 56.0044 117.211 55.7487L117.007 53.7591C114.422 54.0243 111.823 54.4714 109.21 55.1L109.677 57.0445ZM117.223 55.7475C119.762 55.4582 122.133 55.3145 124.336 55.3145V53.3145C122.047 53.3145 119.6 53.4637 116.996 53.7603L117.223 55.7475ZM124.336 55.3145C125.765 55.3145 126.733 55.576 127.353 55.9815L128.448 54.3076C127.375 53.6063 125.967 53.3145 124.336 53.3145V55.3145ZM127.376 55.9962C128.011 56.3867 128.497 56.9795 128.82 57.8394L130.692 57.1372C130.233 55.9137 129.483 54.944 128.424 54.2929L127.376 55.9962ZM128.829 57.8647C129.196 58.767 129.427 59.947 129.489 61.4362L131.487 61.3529C131.419 59.717 131.162 58.2929 130.682 57.1119L128.829 57.8647ZM129.49 61.4582C129.586 62.9619 129.635 64.6977 129.635 66.668H131.635C131.635 64.6669 131.586 62.8871 131.486 61.3308L129.49 61.4582ZM129.635 66.6658L129.537 111.295L131.537 111.299L131.635 66.6702L129.635 66.6658Z" fill="#272B32"/>
</svg>
