<svg width="160" height="140" viewBox="0 0 160 140" fill="none" xmlns="http://www.w3.org/2000/svg">
<path d="M85.3203 96.4961C85.3203 101.281 84.832 105.66 83.8555 109.631C82.8789 113.602 81.5117 117.167 79.7539 120.324C78.0286 123.482 75.9616 126.249 73.5527 128.625C71.1439 131.001 68.4909 132.971 65.5938 134.533C62.7292 136.096 59.6855 137.268 56.4629 138.049C53.2402 138.83 49.9525 139.221 46.5996 139.221C43.377 139.221 40.2357 138.863 37.1758 138.146C34.1159 137.43 31.235 136.356 28.5332 134.924C25.8639 133.492 23.4062 131.701 21.1602 129.553C18.9466 127.404 17.026 124.914 15.3984 122.082C13.8034 119.25 12.5501 116.06 11.6387 112.512C10.7598 108.964 10.3203 105.057 10.3203 100.793C10.3203 96.138 10.7923 91.8737 11.7363 88C12.7129 84.1263 14.0638 80.6432 15.7891 77.5508C17.5469 74.4258 19.6139 71.7077 21.9902 69.3965C24.3991 67.0853 27.0195 65.1647 29.8516 63.6348C32.7161 62.0723 35.7435 60.9167 38.9336 60.168C42.1562 59.3867 45.444 58.9961 48.7969 58.9961C52.0195 58.9961 55.1608 59.3542 58.2207 60.0703C61.3132 60.7539 64.2103 61.8118 66.9121 63.2441C69.6139 64.6439 72.0879 66.4017 74.334 68.5176C76.6126 70.6009 78.5495 73.026 80.1445 75.793C81.7721 78.5599 83.0417 81.6849 83.9531 85.168C84.8646 88.6185 85.3203 92.3945 85.3203 96.4961ZM39.8125 93.5176C39.8125 98.6608 40.0892 103.299 40.6426 107.434C41.2285 111.535 41.9772 115.035 42.8887 117.932C43.8327 120.796 44.8743 122.993 46.0137 124.523C47.153 126.053 48.2923 126.818 49.4316 126.818C50.2454 126.818 51.0267 126.363 51.7754 125.451C52.5566 124.507 53.2402 123.075 53.8262 121.154C54.4121 119.201 54.8678 116.727 55.1934 113.732C55.5514 110.738 55.7305 107.157 55.7305 102.99C55.7305 98.1074 55.4375 93.7129 54.8516 89.8066C54.2656 85.8678 53.5169 82.5312 52.6055 79.7969C51.694 77.0625 50.6523 74.9629 49.4805 73.498C48.3411 72.0332 47.2181 71.3008 46.1113 71.3008C45.265 71.3008 44.4512 71.7402 43.6699 72.6191C42.9212 73.4655 42.2539 74.8001 41.668 76.623C41.1146 78.446 40.6589 80.7572 40.3008 83.5566C39.9753 86.3561 39.8125 89.6764 39.8125 93.5176ZM97.1562 127.014C98.6211 124.572 100.281 121.936 102.137 119.104C103.992 116.239 105.864 113.309 107.752 110.314C109.673 107.32 111.544 104.325 113.367 101.33C115.19 98.3027 116.801 95.4219 118.201 92.6875C119.633 89.9206 120.773 87.3652 121.619 85.0215C122.498 82.6452 122.938 80.6107 122.938 78.918C122.938 76.9648 122.189 75.4349 120.691 74.3281C119.227 73.1888 116.72 72.6191 113.172 72.6191C110.535 72.6191 108.126 72.9284 105.945 73.5469C103.764 74.1328 101.795 74.8815 100.037 75.793C99.6139 76.1185 99.0931 76.2812 98.4746 76.2812C98.084 76.2812 97.6934 76.1348 97.3027 75.8418C96.9447 75.5488 96.6191 75.1908 96.3262 74.7676C96.0658 74.3118 95.8542 73.8398 95.6914 73.3516C95.5286 72.8307 95.4473 72.3424 95.4473 71.8867C95.4473 71.5938 95.4961 71.3333 95.5938 71.1055C95.724 70.8451 95.8704 70.6172 96.0332 70.4219C97.6283 68.599 99.5 66.9876 101.648 65.5879C103.829 64.1556 106.157 62.9512 108.631 61.9746C111.105 60.998 113.693 60.2656 116.395 59.7773C119.096 59.2565 121.814 58.9961 124.549 58.9961C128.683 58.9961 132.312 59.5169 135.438 60.5586C138.595 61.6003 141.232 63.0488 143.348 64.9043C145.464 66.7272 147.059 68.9082 148.133 71.4473C149.207 73.9863 149.744 76.737 149.744 79.6992C149.744 82.9219 149.109 86.3398 147.84 89.9531C146.57 93.5664 144.633 97.2285 142.029 100.939C139.458 104.65 136.202 108.345 132.264 112.023C128.357 115.702 123.751 119.201 118.445 122.521C123.1 122.521 126.974 122.342 130.066 121.984C133.159 121.626 135.665 121.187 137.586 120.666C139.539 120.145 141.036 119.576 142.078 118.957C143.12 118.339 143.917 117.769 144.471 117.248C145.024 116.727 145.447 116.288 145.74 115.93C146.033 115.572 146.408 115.393 146.863 115.393C148.523 115.393 149.907 115.93 151.014 117.004C152.12 118.046 152.674 119.478 152.674 121.301C152.674 122.212 152.609 123.27 152.479 124.475C152.348 125.646 152.104 126.851 151.746 128.088C151.421 129.325 150.965 130.546 150.379 131.75C149.826 132.922 149.109 133.98 148.23 134.924C147.352 135.835 146.31 136.584 145.105 137.17C143.901 137.723 142.485 138 140.857 138H102.674C101.502 138 100.493 137.805 99.6465 137.414C98.8001 136.991 98.1003 136.454 97.5469 135.803C97.026 135.152 96.6354 134.419 96.375 133.605C96.1471 132.792 96.0332 131.962 96.0332 131.115C96.0332 130.367 96.1309 129.634 96.3262 128.918C96.5215 128.202 96.7982 127.567 97.1562 127.014Z" fill="#F5CDC3"/>
<path d="M72.7539 114.324L71.8801 113.838L71.8764 113.845L72.7539 114.324ZM66.5527 122.625L65.8505 121.913L66.5527 122.625ZM58.5938 128.533L58.1191 127.653L58.1149 127.655L58.5938 128.533ZM21.5332 128.924L21.0604 129.805L21.0648 129.807L21.5332 128.924ZM14.1602 123.553L13.4637 124.27L13.4689 124.275L14.1602 123.553ZM8.39844 116.082L7.5271 116.573L7.53142 116.58L8.39844 116.082ZM4.63867 106.512L3.66797 106.752L3.67012 106.761L4.63867 106.512ZM4.73633 82L3.76664 81.7555L3.76476 81.7632L4.73633 82ZM8.78906 71.5508L7.91748 71.0605L7.91577 71.0636L8.78906 71.5508ZM14.9902 63.3965L14.2979 62.6749L14.293 62.6796L14.9902 63.3965ZM22.8516 57.6348L23.3269 58.5146L23.3304 58.5127L22.8516 57.6348ZM31.9336 54.168L32.1621 55.1415L32.1692 55.1398L31.9336 54.168ZM51.2207 54.0703L50.9928 55.0441L51.0049 55.0467L51.2207 54.0703ZM59.9121 57.2441L59.4437 58.1277L59.4521 58.1321L59.9121 57.2441ZM67.334 62.5176L66.6483 63.2455L66.6537 63.2506L66.6592 63.2556L67.334 62.5176ZM73.1445 69.793L72.2781 70.2924L72.2826 70.3L73.1445 69.793ZM76.9531 79.168L75.9857 79.4211L75.9863 79.4234L76.9531 79.168ZM33.6426 101.434L32.6514 101.566L32.6526 101.575L33.6426 101.434ZM35.8887 111.932L34.9347 112.232L34.9389 112.245L35.8887 111.932ZM44.7754 119.451L44.005 118.814L44.0027 118.816L44.7754 119.451ZM46.8262 115.154L47.7827 115.446L47.784 115.442L46.8262 115.154ZM48.1934 107.732L47.2004 107.614L47.1992 107.624L48.1934 107.732ZM47.8516 83.8066L46.8624 83.9538L46.8626 83.955L47.8516 83.8066ZM42.4805 67.498L41.691 68.112L41.6996 68.1227L42.4805 67.498ZM36.6699 66.6191L35.9225 65.9548L35.9209 65.9566L36.6699 66.6191ZM34.668 70.623L33.7159 70.317L33.7135 70.3248L33.7111 70.3326L34.668 70.623ZM33.3008 77.5566L32.3088 77.4298L32.3075 77.4411L33.3008 77.5566ZM77.3203 90.4961C77.3203 95.214 76.8388 99.5108 75.8844 103.392L77.8265 103.87C78.8252 99.8083 79.3203 95.3485 79.3203 90.4961H77.3203ZM75.8844 103.392C74.9264 107.288 73.5894 110.768 71.8802 113.838L73.6276 114.811C75.434 111.566 76.8315 107.916 77.8265 103.87L75.8844 103.392ZM71.8764 113.845C70.1949 116.922 68.1856 119.61 65.8505 121.913L67.255 123.337C69.7376 120.888 71.8624 118.041 73.6315 114.804L71.8764 113.845ZM65.8505 121.913C63.5072 124.225 60.9304 126.137 58.1191 127.653L59.0684 129.413C62.0514 127.805 64.7806 125.778 67.255 123.337L65.8505 121.913ZM58.1149 127.655C55.3282 129.175 52.3665 130.316 49.2273 131.077L49.6985 133.021C53.0046 132.219 56.1301 131.016 59.0726 129.411L58.1149 127.655ZM49.2273 131.077C46.0826 131.839 42.874 132.221 39.5996 132.221V134.221C43.031 134.221 46.3978 133.821 49.6985 133.021L49.2273 131.077ZM39.5996 132.221C36.4517 132.221 33.387 131.871 30.4037 131.173L29.9479 133.12C33.0844 133.854 36.3022 134.221 39.5996 134.221V132.221ZM30.4037 131.173C27.4251 130.476 24.6254 129.431 22.0016 128.04L21.0648 129.807C23.8447 131.281 26.8066 132.385 29.9479 133.12L30.4037 131.173ZM22.006 128.043C19.4184 126.654 17.0339 124.918 14.8514 122.83L13.4689 124.275C15.7786 126.485 18.3094 128.329 21.0604 129.805L22.006 128.043ZM14.8566 122.835C12.7137 120.755 10.8494 118.34 9.26545 115.584L7.53142 116.58C9.20266 119.488 11.1795 122.053 13.4637 124.27L14.8566 122.835ZM9.26975 115.591C7.72256 112.844 6.49967 109.737 5.60723 106.263L3.67012 106.761C4.60059 110.383 5.88421 113.656 7.52713 116.573L9.26975 115.591ZM5.60934 106.271C4.75283 102.814 4.32031 98.9893 4.32031 94.793H2.32031C2.32031 99.1252 2.7667 103.114 3.66801 106.752L5.60934 106.271ZM4.32031 94.793C4.32031 90.2049 4.78561 86.0213 5.70789 82.2368L3.76476 81.7632C2.79903 85.7261 2.32031 90.0712 2.32031 94.793H4.32031ZM5.70599 82.2445C6.66386 78.4449 7.98473 75.045 9.66235 72.038L7.91577 71.0636C6.14288 74.2414 4.76192 77.8077 3.76667 81.7555L5.70599 82.2445ZM9.66064 72.041C11.3753 68.9928 13.3852 66.3525 15.6875 64.1133L14.293 62.6796C11.8427 65.0628 9.71845 67.8588 7.91749 71.0605L9.66064 72.041ZM15.6826 64.1181C18.0289 61.8668 20.5769 60.0002 23.3269 58.5146L22.3763 56.7549C19.4622 58.3292 16.7692 60.3038 14.2979 62.6749L15.6826 64.1181ZM23.3304 58.5127C26.1159 56.9933 29.059 55.8698 32.1621 55.1415L31.7051 53.1944C28.428 53.9635 25.3164 55.1512 22.3727 56.7569L23.3304 58.5127ZM32.1692 55.1398C35.3139 54.3775 38.5225 53.9961 41.7969 53.9961V51.9961C38.3655 51.9961 34.9986 52.396 31.698 53.1961L32.1692 55.1398ZM41.7969 53.9961C44.9448 53.9961 48.0095 54.3458 50.9928 55.044L51.4486 53.0966C48.3121 52.3626 45.0943 51.9961 41.7969 51.9961V53.9961ZM51.0049 55.0467C54.0125 55.7116 56.8243 56.7391 59.4437 58.1277L60.3805 56.3606C57.5963 54.8846 54.6138 53.7962 51.4365 53.0939L51.0049 55.0467ZM59.4521 58.1321C62.0705 59.4886 64.4687 61.1922 66.6483 63.2455L68.0197 61.7897C65.7071 59.6112 63.1574 57.7992 60.3721 56.3562L59.4521 58.1321ZM66.6592 63.2556C68.8596 65.2673 70.7326 67.6113 72.2782 70.2924L74.0109 69.2935C72.3664 66.4408 70.3657 63.9345 68.0088 61.7795L66.6592 63.2556ZM72.2826 70.3C73.8582 72.9786 75.0948 76.0165 75.9857 79.4211L77.9205 78.9148C76.9886 75.3533 75.686 72.1412 74.0065 69.2859L72.2826 70.3ZM75.9863 79.4234C76.8727 82.7792 77.3203 86.4682 77.3203 90.4961H79.3203C79.3203 86.3209 78.8564 82.4578 77.92 78.9126L75.9863 79.4234ZM31.8125 87.5176C31.8125 92.6954 32.091 97.3794 32.6514 101.566L34.6337 101.301C34.0874 97.2195 33.8125 92.6262 33.8125 87.5176H31.8125ZM32.6526 101.575C33.2437 105.712 34.0023 109.268 34.9348 112.232L36.8426 111.632C35.9521 108.801 35.2133 105.358 34.6325 101.292L32.6526 101.575ZM34.9389 112.245C35.8994 115.159 36.982 117.469 38.2116 119.121L39.8157 117.926C38.7667 116.518 37.766 114.433 36.8384 111.619L34.9389 112.245ZM38.2116 119.121C39.4137 120.735 40.8125 121.818 42.4316 121.818V119.818C41.7721 119.818 40.8923 119.372 39.8157 117.926L38.2116 119.121ZM42.4316 121.818C43.6605 121.818 44.6978 121.121 45.5481 120.086L44.0027 118.816C43.3556 119.604 42.8304 119.818 42.4316 119.818V121.818ZM45.5458 120.089C46.4482 118.998 47.1797 117.423 47.7826 115.446L45.8697 114.862C45.3008 116.727 44.6651 118.016 44.005 118.814L45.5458 120.089ZM47.784 115.442C48.3936 113.409 48.8582 110.87 49.1875 107.84L47.1992 107.624C46.8775 110.584 46.4306 112.993 45.8683 114.867L47.784 115.442ZM49.1863 107.851C49.5505 104.805 49.7305 101.183 49.7305 96.9902H47.7305C47.7305 101.131 47.5524 104.67 47.2004 107.614L49.1863 107.851ZM49.7305 96.9902C49.7305 92.0689 49.4353 87.6235 48.8405 83.6583L46.8626 83.955C47.4397 87.8023 47.7305 92.146 47.7305 96.9902H49.7305ZM48.8407 83.6595C48.2492 79.6833 47.4894 76.2864 46.5542 73.4806L44.6568 74.1131C45.5444 76.7761 46.2821 80.0524 46.8624 83.9538L48.8407 83.6595ZM46.5542 73.4806C45.6232 70.6879 44.5354 68.466 43.2613 66.8734L41.6996 68.1227C42.7693 69.4598 43.7648 71.4371 44.6568 74.1131L46.5542 73.4806ZM43.2698 66.8841C42.0669 65.3376 40.6859 64.3008 39.1113 64.3008V66.3008C39.7503 66.3008 40.6153 66.7289 41.6911 68.112L43.2698 66.8841ZM39.1113 64.3008C37.8813 64.3008 36.8169 64.9486 35.9225 65.9548L37.4173 67.2835C38.0855 66.5319 38.6486 66.3008 39.1113 66.3008V64.3008ZM35.9209 65.9566C35.0382 66.9544 34.3188 68.4415 33.7159 70.317L35.62 70.9291C36.189 69.1588 36.8042 67.9766 37.4189 67.2817L35.9209 65.9566ZM33.7111 70.3326C33.1358 72.2278 32.671 74.5986 32.3089 77.4298L34.2927 77.6835C34.6467 74.9157 35.0934 72.6642 35.6248 70.9135L33.7111 70.3326ZM32.3075 77.4411C31.9762 80.2899 31.8125 83.6506 31.8125 87.5176H33.8125C33.8125 83.7022 33.9743 80.4224 34.2941 77.6721L32.3075 77.4411ZM90.1562 121.014L90.9958 121.557L91.005 121.543L91.0137 121.528L90.1562 121.014ZM95.1367 113.104L95.9732 113.652L95.976 113.647L95.1367 113.104ZM100.752 104.314L99.9102 103.775L99.906 103.781L100.752 104.314ZM106.367 95.3301L107.221 95.85L107.224 95.8459L106.367 95.3301ZM111.201 86.6875L110.313 86.2278L110.311 86.2318L111.201 86.6875ZM114.619 79.0215L113.681 78.6746L113.679 78.6818L114.619 79.0215ZM113.691 68.3281L113.077 69.1175L113.087 69.125L113.097 69.1323L113.691 68.3281ZM98.9453 67.5469L99.2048 68.5127L99.2181 68.5089L98.9453 67.5469ZM93.0371 69.793L92.5768 68.9052L92.4979 68.9461L92.4274 69.0003L93.0371 69.793ZM90.3027 69.8418L89.6695 70.6158L89.6858 70.6291L89.7027 70.6418L90.3027 69.8418ZM89.3262 68.7676L88.4579 69.2637L88.4794 69.3012L88.504 69.3368L89.3262 68.7676ZM88.6914 67.3516L87.7369 67.6498L87.7397 67.6588L87.7427 67.6678L88.6914 67.3516ZM88.5938 65.1055L87.6993 64.6583L87.6862 64.6845L87.6746 64.7115L88.5938 65.1055ZM89.0332 64.4219L88.2806 63.7634L88.2727 63.7724L88.265 63.7817L89.0332 64.4219ZM94.6484 59.5879L95.1943 60.4258L95.1974 60.4238L94.6484 59.5879ZM101.631 55.9746L101.264 55.0445L101.631 55.9746ZM109.395 53.7773L109.572 54.7615L109.584 54.7593L109.395 53.7773ZM128.438 54.5586L128.121 55.5073L128.124 55.5083L128.438 54.5586ZM136.348 58.9043L135.688 59.6562L135.695 59.6619L136.348 58.9043ZM135.029 94.9395L134.211 94.365L134.207 94.3699L135.029 94.9395ZM125.264 106.023L124.581 105.293L124.578 105.295L125.264 106.023ZM111.445 116.521L110.915 115.674L107.962 117.521H111.445V116.521ZM123.066 115.984L122.951 114.991L123.066 115.984ZM130.586 114.666L130.328 113.7L130.324 113.701L130.586 114.666ZM144.014 111.004L143.317 111.721L143.323 111.727L143.328 111.732L144.014 111.004ZM145.479 118.475L146.472 118.585L146.473 118.582L145.479 118.475ZM144.746 122.088L143.786 121.81L143.782 121.822L143.779 121.833L144.746 122.088ZM143.379 125.75L142.48 125.313L142.475 125.323L143.379 125.75ZM141.23 128.924L141.95 129.618L141.956 129.612L141.962 129.605L141.23 128.924ZM138.105 131.17L138.523 132.079L138.533 132.074L138.543 132.069L138.105 131.17ZM92.6465 131.414L92.1993 132.308L92.2132 132.315L92.2274 132.322L92.6465 131.414ZM90.5469 129.803L89.766 130.427L89.7753 130.439L89.7849 130.45L90.5469 129.803ZM89.375 127.605L88.412 127.875L88.417 127.893L88.4226 127.91L89.375 127.605ZM91.0137 121.528C92.4707 119.1 94.1236 116.475 95.9732 113.652L94.3003 112.555C92.4389 115.397 90.7715 118.045 89.2988 120.499L91.0137 121.528ZM95.976 113.647C97.8338 110.779 99.7078 107.846 101.598 104.848L99.906 103.781C98.0201 106.773 96.1506 109.699 94.2974 112.56L95.976 113.647ZM101.594 104.854C103.518 101.853 105.394 98.8516 107.221 95.85L105.513 94.8101C103.694 97.7981 101.827 100.786 99.9102 103.775L101.594 104.854ZM107.224 95.8459C109.057 92.8018 110.68 89.9007 112.091 87.1432L110.311 86.2318C108.923 88.943 107.323 91.8037 105.511 94.8142L107.224 95.8459ZM112.089 87.1472C113.537 84.3506 114.695 81.7547 115.56 79.3611L113.679 78.6818C112.85 80.9758 111.73 83.4905 110.313 86.2278L112.089 87.1472ZM115.557 79.3684C116.459 76.9308 116.938 74.7725 116.938 72.918H114.938C114.938 74.4489 114.537 76.3596 113.681 78.6746L115.557 79.3684ZM116.938 72.918C116.938 70.6658 116.053 68.8298 114.286 67.5239L113.097 69.1323C114.325 70.04 114.938 71.2639 114.938 72.918H116.938ZM114.305 67.5388C112.565 66.1849 109.768 65.6191 106.172 65.6191V67.6191C109.672 67.6191 111.888 68.1927 113.077 69.1175L114.305 67.5388ZM106.172 65.6191C103.458 65.6191 100.955 65.9374 98.6725 66.5848L99.2181 68.5089C101.297 67.9193 103.613 67.6191 106.172 67.6191V65.6191ZM98.6859 66.5811C96.4448 67.1832 94.4067 67.9563 92.5768 68.9052L93.4974 70.6807C95.1831 69.8067 97.0838 69.0824 99.2048 68.5126L98.6859 66.5811ZM92.4274 69.0003C92.2059 69.1708 91.909 69.2812 91.4746 69.2812V71.2812C92.2772 71.2812 93.022 71.0662 93.6468 70.5856L92.4274 69.0003ZM91.4746 69.2812C91.3495 69.2812 91.1642 69.2379 90.9027 69.0418L89.7027 70.6418C90.2225 71.0316 90.8185 71.2812 91.4746 71.2812V69.2812ZM90.936 69.0678C90.6577 68.8402 90.3941 68.5533 90.1484 68.1984L88.504 69.3368C88.8442 69.8282 89.2316 70.2575 89.6695 70.6158L90.936 69.0678ZM90.1944 68.2714C89.966 67.8718 89.7816 67.4599 89.6401 67.0353L87.7427 67.6678C87.9267 68.2198 88.1655 68.7519 88.4579 69.2637L90.1944 68.2714ZM89.6459 67.0533C89.5075 66.6106 89.4473 66.2236 89.4473 65.8867H87.4473C87.4473 66.4613 87.5498 67.0509 87.7369 67.6498L89.6459 67.0533ZM89.4473 65.8867C89.4473 65.7049 89.4774 65.5823 89.5129 65.4994L87.6746 64.7115C87.5148 65.0844 87.4473 65.4826 87.4473 65.8867H89.4473ZM89.4882 65.5527C89.5888 65.3515 89.6946 65.1903 89.8014 65.0621L88.265 63.7817C88.0463 64.0441 87.8591 64.3386 87.6993 64.6583L89.4882 65.5527ZM89.7858 65.0804C91.317 63.3304 93.1182 61.7784 95.1943 60.4258L94.1026 58.75C91.8818 60.1969 89.9395 61.8676 88.2806 63.7634L89.7858 65.0804ZM95.1974 60.4238C97.3201 59.0298 99.5865 57.8567 101.998 56.9048L101.264 55.0445C98.7273 56.0457 96.3388 57.2814 94.0995 58.752L95.1974 60.4238ZM101.998 56.9048C104.409 55.9531 106.933 55.2384 109.572 54.7614L109.217 52.7933C106.452 53.2929 103.801 54.043 101.264 55.0445L101.998 56.9048ZM109.584 54.7593C112.224 54.2504 114.878 53.9961 117.549 53.9961V51.9961C114.751 51.9961 111.969 52.2626 109.205 52.7954L109.584 54.7593ZM117.549 53.9961C121.602 53.9961 125.12 54.507 128.121 55.5073L128.754 53.6099C125.505 52.5269 121.764 51.9961 117.549 51.9961V53.9961ZM128.124 55.5083C131.177 56.5154 133.69 57.9037 135.688 59.6562L137.007 58.1524C134.774 56.1939 132.013 54.6851 128.751 53.6089L128.124 55.5083ZM135.695 59.6619C137.696 61.3858 139.198 63.4414 140.212 65.8369L142.054 65.0576C140.919 62.375 139.231 60.0686 137 58.1467L135.695 59.6619ZM140.212 65.8369C141.23 68.2437 141.744 70.8608 141.744 73.6992H143.744C143.744 70.6132 143.184 67.7289 142.054 65.0576L140.212 65.8369ZM141.744 73.6992C141.744 76.79 141.135 80.0953 139.896 83.6216L141.783 84.2846C143.083 80.5844 143.744 77.0538 143.744 73.6992H141.744ZM139.896 83.6216C138.662 87.1345 136.772 90.7157 134.211 94.365L135.848 95.5139C138.495 91.7414 140.478 87.9983 141.783 84.2846L139.896 83.6216ZM134.207 94.3699C131.683 98.0123 128.478 101.654 124.581 105.293L125.946 106.754C129.927 103.036 133.232 99.2885 135.851 95.509L134.207 94.3699ZM124.578 105.295C120.727 108.922 116.174 112.383 110.915 115.674L111.976 117.369C117.328 114.02 121.988 110.481 125.949 106.751L124.578 105.295ZM111.445 117.521C116.122 117.521 120.037 117.342 123.181 116.978L122.951 114.991C119.911 115.343 116.079 115.521 111.445 115.521V117.521ZM123.181 116.978C126.299 116.617 128.86 116.17 130.848 115.631L130.324 113.701C128.471 114.204 126.019 114.636 122.951 114.991L123.181 116.978ZM130.844 115.632C132.835 115.101 134.433 114.503 135.589 113.817L134.568 112.097C133.64 112.648 132.243 113.189 130.328 113.7L130.844 115.632ZM135.589 113.817C136.661 113.18 137.528 112.568 138.156 111.976L136.785 110.52C136.307 110.97 135.579 111.497 134.568 112.097L135.589 113.817ZM138.156 111.976C138.724 111.442 139.182 110.969 139.514 110.563L137.966 109.296C137.713 109.607 137.324 110.012 136.785 110.52L138.156 111.976ZM139.514 110.563C139.621 110.433 139.713 110.393 139.863 110.393V108.393C139.102 108.393 138.446 108.71 137.966 109.296L139.514 110.563ZM139.863 110.393C141.285 110.393 142.412 110.843 143.317 111.721L144.71 110.286C143.402 109.016 141.762 108.393 139.863 108.393V110.393ZM143.328 111.732C144.195 112.548 144.674 113.694 144.674 115.301H146.674C146.674 113.262 146.046 111.544 144.699 110.276L143.328 111.732ZM144.674 115.301C144.674 116.167 144.612 117.188 144.484 118.367L146.473 118.582C146.606 117.353 146.674 116.258 146.674 115.301H144.674ZM144.485 118.364C144.361 119.474 144.129 120.623 143.786 121.81L145.707 122.366C146.079 121.079 146.335 119.819 146.472 118.585L144.485 118.364ZM143.779 121.833C143.471 123.004 143.038 124.164 142.48 125.313L144.278 126.187C144.891 124.927 145.37 123.645 145.713 122.342L143.779 121.833ZM142.475 125.323C141.965 126.402 141.307 127.374 140.499 128.242L141.962 129.605C142.912 128.585 143.686 127.442 144.283 126.177L142.475 125.323ZM140.511 128.23C139.718 129.052 138.773 129.733 137.668 130.271L138.543 132.069C139.847 131.435 140.985 130.619 141.95 129.618L140.511 128.23ZM137.688 130.261C136.641 130.742 135.373 131 133.857 131V133C135.597 133 137.161 132.704 138.523 132.079L137.688 130.261ZM133.857 131H95.6738V133H133.857V131ZM95.6738 131C94.6106 131 93.7513 130.823 93.0655 130.506L92.2274 132.322C93.2344 132.787 94.3933 133 95.6738 133V131ZM93.0937 130.52C92.3548 130.15 91.766 129.693 91.3088 129.155L89.7849 130.45C90.4345 131.215 91.2454 131.832 92.1993 132.308L93.0937 130.52ZM91.3277 129.178C90.885 128.625 90.5516 128.001 90.3274 127.301L88.4226 127.91C88.7192 128.837 89.167 129.679 89.766 130.427L91.3277 129.178ZM90.338 127.336C90.1347 126.61 90.0332 125.871 90.0332 125.115H88.0332C88.0332 126.053 88.1596 126.973 88.412 127.875L90.338 127.336ZM90.0332 125.115C90.0332 124.455 90.1192 123.811 90.2909 123.181L88.3614 122.655C88.1425 123.457 88.0332 124.278 88.0332 125.115H90.0332ZM90.2909 123.181C90.4625 122.552 90.7002 122.014 90.9958 121.557L89.3167 120.47C88.8962 121.12 88.5804 121.852 88.3614 122.655L90.2909 123.181Z" fill="#272B32"/>
</svg>
