<svg width="159" height="140" viewBox="0 0 159 140" fill="none" xmlns="http://www.w3.org/2000/svg">
<path d="M85.3203 96.4961C85.3203 101.281 84.832 105.66 83.8555 109.631C82.8789 113.602 81.5117 117.167 79.7539 120.324C78.0286 123.482 75.9616 126.249 73.5527 128.625C71.1439 131.001 68.4909 132.971 65.5938 134.533C62.7292 136.096 59.6855 137.268 56.4629 138.049C53.2402 138.83 49.9525 139.221 46.5996 139.221C43.377 139.221 40.2357 138.863 37.1758 138.146C34.1159 137.43 31.235 136.356 28.5332 134.924C25.8639 133.492 23.4062 131.701 21.1602 129.553C18.9466 127.404 17.026 124.914 15.3984 122.082C13.8034 119.25 12.5501 116.06 11.6387 112.512C10.7598 108.964 10.3203 105.057 10.3203 100.793C10.3203 96.138 10.7923 91.8737 11.7363 88C12.7129 84.1263 14.0638 80.6432 15.7891 77.5508C17.5469 74.4258 19.6139 71.7077 21.9902 69.3965C24.3991 67.0853 27.0195 65.1647 29.8516 63.6348C32.7161 62.0723 35.7435 60.9167 38.9336 60.168C42.1562 59.3867 45.444 58.9961 48.7969 58.9961C52.0195 58.9961 55.1608 59.3542 58.2207 60.0703C61.3132 60.7539 64.2103 61.8118 66.9121 63.2441C69.6139 64.6439 72.0879 66.4017 74.334 68.5176C76.6126 70.6009 78.5495 73.026 80.1445 75.793C81.7721 78.5599 83.0417 81.6849 83.9531 85.168C84.8646 88.6185 85.3203 92.3945 85.3203 96.4961ZM39.8125 93.5176C39.8125 98.6608 40.0892 103.299 40.6426 107.434C41.2285 111.535 41.9772 115.035 42.8887 117.932C43.8327 120.796 44.8743 122.993 46.0137 124.523C47.153 126.053 48.2923 126.818 49.4316 126.818C50.2454 126.818 51.0267 126.363 51.7754 125.451C52.5566 124.507 53.2402 123.075 53.8262 121.154C54.4121 119.201 54.8678 116.727 55.1934 113.732C55.5514 110.738 55.7305 107.157 55.7305 102.99C55.7305 98.1074 55.4375 93.7129 54.8516 89.8066C54.2656 85.8678 53.5169 82.5312 52.6055 79.7969C51.694 77.0625 50.6523 74.9629 49.4805 73.498C48.3411 72.0332 47.2181 71.3008 46.1113 71.3008C45.265 71.3008 44.4512 71.7402 43.6699 72.6191C42.9212 73.4655 42.2539 74.8001 41.668 76.623C41.1146 78.446 40.6589 80.7572 40.3008 83.5566C39.9753 86.3561 39.8125 89.6764 39.8125 93.5176ZM126.551 139.123C123.784 139.123 121.017 138.863 118.25 138.342C115.483 137.854 112.83 137.121 110.291 136.145C107.785 135.168 105.441 133.964 103.26 132.531C101.079 131.099 99.1745 129.455 97.5469 127.6C97.3841 127.339 97.2376 127.111 97.1074 126.916C97.0098 126.688 96.9609 126.411 96.9609 126.086C96.9609 125.63 97.0423 125.142 97.2051 124.621C97.3678 124.1 97.5794 123.612 97.8398 123.156C98.1328 122.701 98.4583 122.326 98.8164 122.033C99.207 121.74 99.6139 121.594 100.037 121.594C100.688 121.594 101.225 121.724 101.648 121.984C103.471 122.993 105.652 123.824 108.191 124.475C110.73 125.093 113.318 125.402 115.955 125.402C117.973 125.402 119.747 125.077 121.277 124.426C122.807 123.775 124.077 122.928 125.086 121.887C126.128 120.812 126.893 119.608 127.381 118.273C127.902 116.906 128.162 115.523 128.162 114.123C128.162 112.919 127.934 111.73 127.479 110.559C127.055 109.387 126.404 108.345 125.525 107.434C124.679 106.522 123.621 105.79 122.352 105.236C121.115 104.683 119.682 104.406 118.055 104.406C117.339 104.406 116.557 104.553 115.711 104.846C114.865 105.139 114.116 105.285 113.465 105.285C112.911 105.285 112.391 105.139 111.902 104.846C111.414 104.52 110.991 104.113 110.633 103.625C110.275 103.137 109.982 102.616 109.754 102.062C109.559 101.477 109.461 100.923 109.461 100.402C109.461 99.7513 109.624 99.1816 109.949 98.6934C110.275 98.1725 110.812 97.6029 111.561 96.9844C113.221 95.8776 114.637 94.7383 115.809 93.5664C116.98 92.362 117.941 91.1576 118.689 89.9531C119.438 88.7161 119.975 87.5117 120.301 86.3398C120.659 85.1354 120.838 83.9635 120.838 82.8242C120.838 81.457 120.594 80.1875 120.105 79.0156C119.617 77.8112 118.934 76.7858 118.055 75.9395C117.176 75.0931 116.118 74.4258 114.881 73.9375C113.644 73.4492 112.26 73.2051 110.73 73.2051C108.973 73.2051 107.117 73.5469 105.164 74.2305C103.211 74.9141 101.209 76.0371 99.1582 77.5996C98.8001 77.7949 98.4746 77.9251 98.1816 77.9902C97.8887 78.0553 97.612 78.0879 97.3516 78.0879C96.3424 78.0879 95.6589 77.7461 95.3008 77.0625C94.9427 76.3464 94.7637 75.5977 94.7637 74.8164C94.7637 74.4909 94.7799 74.1816 94.8125 73.8887C94.8451 73.5632 94.8939 73.3027 94.959 73.1074C95.8053 70.7637 97.14 68.7129 98.9629 66.9551C100.786 65.1973 102.918 63.7161 105.359 62.5117C107.801 61.3073 110.438 60.4121 113.27 59.8262C116.102 59.2077 118.966 58.8984 121.863 58.8984C124.956 58.8984 127.951 59.2565 130.848 59.9727C133.777 60.6562 136.365 61.7142 138.611 63.1465C140.857 64.5788 142.648 66.3691 143.982 68.5176C145.35 70.666 146.033 73.1888 146.033 76.0859C146.033 77.5833 145.854 79.097 145.496 80.627C145.171 82.1243 144.552 83.6055 143.641 85.0703C142.762 86.5026 141.541 87.8698 139.979 89.1719C138.449 90.474 136.463 91.6784 134.021 92.7852C137.57 93.7292 140.646 95.015 143.25 96.6426C145.887 98.2376 148.051 100.061 149.744 102.111C151.469 104.13 152.739 106.311 153.553 108.654C154.399 110.965 154.822 113.309 154.822 115.686C154.822 118.648 154.188 121.529 152.918 124.328C151.681 127.128 149.858 129.634 147.449 131.848C145.073 134.029 142.127 135.786 138.611 137.121C135.096 138.456 131.076 139.123 126.551 139.123Z" fill="#F5CDC3"/>
<path d="M72.7539 114.324L71.8801 113.838L71.8764 113.845L72.7539 114.324ZM66.5527 122.625L65.8505 121.913L66.5527 122.625ZM58.5938 128.533L58.1191 127.653L58.1149 127.655L58.5938 128.533ZM21.5332 128.924L21.0604 129.805L21.0648 129.807L21.5332 128.924ZM14.1602 123.553L13.4637 124.27L13.4689 124.275L14.1602 123.553ZM8.39844 116.082L7.5271 116.573L7.53142 116.58L8.39844 116.082ZM4.63867 106.512L3.66797 106.752L3.67012 106.761L4.63867 106.512ZM4.73633 82L3.76664 81.7555L3.76476 81.7632L4.73633 82ZM8.78906 71.5508L7.91748 71.0605L7.91577 71.0636L8.78906 71.5508ZM14.9902 63.3965L14.2979 62.6749L14.293 62.6796L14.9902 63.3965ZM22.8516 57.6348L23.3269 58.5146L23.3304 58.5127L22.8516 57.6348ZM31.9336 54.168L32.1621 55.1415L32.1692 55.1398L31.9336 54.168ZM51.2207 54.0703L50.9928 55.0441L51.0049 55.0467L51.2207 54.0703ZM59.9121 57.2441L59.4437 58.1277L59.4521 58.1321L59.9121 57.2441ZM67.334 62.5176L66.6483 63.2455L66.6537 63.2506L66.6592 63.2556L67.334 62.5176ZM73.1445 69.793L72.2781 70.2924L72.2826 70.3L73.1445 69.793ZM76.9531 79.168L75.9857 79.4211L75.9863 79.4234L76.9531 79.168ZM33.6426 101.434L32.6514 101.566L32.6526 101.575L33.6426 101.434ZM35.8887 111.932L34.9347 112.232L34.9389 112.245L35.8887 111.932ZM44.7754 119.451L44.005 118.814L44.0027 118.816L44.7754 119.451ZM46.8262 115.154L47.7827 115.446L47.784 115.442L46.8262 115.154ZM48.1934 107.732L47.2004 107.614L47.1992 107.624L48.1934 107.732ZM47.8516 83.8066L46.8624 83.9538L46.8626 83.955L47.8516 83.8066ZM42.4805 67.498L41.691 68.112L41.6996 68.1227L42.4805 67.498ZM36.6699 66.6191L35.9225 65.9548L35.9209 65.9566L36.6699 66.6191ZM34.668 70.623L33.7159 70.317L33.7135 70.3248L33.7111 70.3326L34.668 70.623ZM33.3008 77.5566L32.3088 77.4298L32.3075 77.4411L33.3008 77.5566ZM77.3203 90.4961C77.3203 95.214 76.8388 99.5108 75.8844 103.392L77.8265 103.87C78.8252 99.8083 79.3203 95.3485 79.3203 90.4961H77.3203ZM75.8844 103.392C74.9264 107.288 73.5894 110.768 71.8802 113.838L73.6276 114.811C75.434 111.566 76.8315 107.916 77.8265 103.87L75.8844 103.392ZM71.8764 113.845C70.1949 116.922 68.1856 119.61 65.8505 121.913L67.255 123.337C69.7376 120.888 71.8624 118.041 73.6315 114.804L71.8764 113.845ZM65.8505 121.913C63.5072 124.225 60.9304 126.137 58.1191 127.653L59.0684 129.413C62.0514 127.805 64.7806 125.778 67.255 123.337L65.8505 121.913ZM58.1149 127.655C55.3282 129.175 52.3665 130.316 49.2273 131.077L49.6985 133.021C53.0046 132.219 56.1301 131.016 59.0726 129.411L58.1149 127.655ZM49.2273 131.077C46.0826 131.839 42.874 132.221 39.5996 132.221V134.221C43.031 134.221 46.3978 133.821 49.6985 133.021L49.2273 131.077ZM39.5996 132.221C36.4517 132.221 33.387 131.871 30.4037 131.173L29.9479 133.12C33.0844 133.854 36.3022 134.221 39.5996 134.221V132.221ZM30.4037 131.173C27.4251 130.476 24.6254 129.431 22.0016 128.04L21.0648 129.807C23.8447 131.281 26.8066 132.385 29.9479 133.12L30.4037 131.173ZM22.006 128.043C19.4184 126.654 17.0339 124.918 14.8514 122.83L13.4689 124.275C15.7786 126.485 18.3094 128.329 21.0604 129.805L22.006 128.043ZM14.8566 122.835C12.7137 120.755 10.8494 118.34 9.26545 115.584L7.53142 116.58C9.20266 119.488 11.1795 122.053 13.4637 124.27L14.8566 122.835ZM9.26975 115.591C7.72256 112.844 6.49967 109.737 5.60723 106.263L3.67012 106.761C4.60059 110.383 5.88421 113.656 7.52713 116.573L9.26975 115.591ZM5.60934 106.271C4.75283 102.814 4.32031 98.9893 4.32031 94.793H2.32031C2.32031 99.1252 2.7667 103.114 3.66801 106.752L5.60934 106.271ZM4.32031 94.793C4.32031 90.2049 4.78561 86.0213 5.70789 82.2368L3.76476 81.7632C2.79903 85.7261 2.32031 90.0712 2.32031 94.793H4.32031ZM5.70599 82.2445C6.66386 78.4449 7.98473 75.045 9.66235 72.038L7.91577 71.0636C6.14288 74.2414 4.76192 77.8077 3.76667 81.7555L5.70599 82.2445ZM9.66064 72.041C11.3753 68.9928 13.3852 66.3525 15.6875 64.1133L14.293 62.6796C11.8427 65.0628 9.71845 67.8588 7.91749 71.0605L9.66064 72.041ZM15.6826 64.1181C18.0289 61.8668 20.5769 60.0002 23.3269 58.5146L22.3763 56.7549C19.4622 58.3292 16.7692 60.3038 14.2979 62.6749L15.6826 64.1181ZM23.3304 58.5127C26.1159 56.9933 29.059 55.8698 32.1621 55.1415L31.7051 53.1944C28.428 53.9635 25.3164 55.1512 22.3727 56.7569L23.3304 58.5127ZM32.1692 55.1398C35.3139 54.3775 38.5225 53.9961 41.7969 53.9961V51.9961C38.3655 51.9961 34.9986 52.396 31.698 53.1961L32.1692 55.1398ZM41.7969 53.9961C44.9448 53.9961 48.0095 54.3458 50.9928 55.044L51.4486 53.0966C48.3121 52.3626 45.0943 51.9961 41.7969 51.9961V53.9961ZM51.0049 55.0467C54.0125 55.7116 56.8243 56.7391 59.4437 58.1277L60.3805 56.3606C57.5963 54.8846 54.6138 53.7962 51.4365 53.0939L51.0049 55.0467ZM59.4521 58.1321C62.0705 59.4886 64.4687 61.1922 66.6483 63.2455L68.0197 61.7897C65.7071 59.6112 63.1574 57.7992 60.3721 56.3562L59.4521 58.1321ZM66.6592 63.2556C68.8596 65.2673 70.7326 67.6113 72.2782 70.2924L74.0109 69.2935C72.3664 66.4408 70.3657 63.9345 68.0088 61.7795L66.6592 63.2556ZM72.2826 70.3C73.8582 72.9786 75.0948 76.0165 75.9857 79.4211L77.9205 78.9148C76.9886 75.3533 75.686 72.1412 74.0065 69.2859L72.2826 70.3ZM75.9863 79.4234C76.8727 82.7792 77.3203 86.4682 77.3203 90.4961H79.3203C79.3203 86.3209 78.8564 82.4578 77.92 78.9126L75.9863 79.4234ZM31.8125 87.5176C31.8125 92.6954 32.091 97.3794 32.6514 101.566L34.6337 101.301C34.0874 97.2195 33.8125 92.6262 33.8125 87.5176H31.8125ZM32.6526 101.575C33.2437 105.712 34.0023 109.268 34.9348 112.232L36.8426 111.632C35.9521 108.801 35.2133 105.358 34.6325 101.292L32.6526 101.575ZM34.9389 112.245C35.8994 115.159 36.982 117.469 38.2116 119.121L39.8157 117.926C38.7667 116.518 37.766 114.433 36.8384 111.619L34.9389 112.245ZM38.2116 119.121C39.4137 120.735 40.8125 121.818 42.4316 121.818V119.818C41.7721 119.818 40.8923 119.372 39.8157 117.926L38.2116 119.121ZM42.4316 121.818C43.6605 121.818 44.6978 121.121 45.5481 120.086L44.0027 118.816C43.3556 119.604 42.8304 119.818 42.4316 119.818V121.818ZM45.5458 120.089C46.4482 118.998 47.1797 117.423 47.7826 115.446L45.8697 114.862C45.3008 116.727 44.6651 118.016 44.005 118.814L45.5458 120.089ZM47.784 115.442C48.3936 113.409 48.8582 110.87 49.1875 107.84L47.1992 107.624C46.8775 110.584 46.4306 112.993 45.8683 114.867L47.784 115.442ZM49.1863 107.851C49.5505 104.805 49.7305 101.183 49.7305 96.9902H47.7305C47.7305 101.131 47.5524 104.67 47.2004 107.614L49.1863 107.851ZM49.7305 96.9902C49.7305 92.0689 49.4353 87.6235 48.8405 83.6583L46.8626 83.955C47.4397 87.8023 47.7305 92.146 47.7305 96.9902H49.7305ZM48.8407 83.6595C48.2492 79.6833 47.4894 76.2864 46.5542 73.4806L44.6568 74.1131C45.5444 76.7761 46.2821 80.0524 46.8624 83.9538L48.8407 83.6595ZM46.5542 73.4806C45.6232 70.6879 44.5354 68.466 43.2613 66.8734L41.6996 68.1227C42.7693 69.4598 43.7648 71.4371 44.6568 74.1131L46.5542 73.4806ZM43.2698 66.8841C42.0669 65.3376 40.6859 64.3008 39.1113 64.3008V66.3008C39.7503 66.3008 40.6153 66.7289 41.6911 68.112L43.2698 66.8841ZM39.1113 64.3008C37.8813 64.3008 36.8169 64.9486 35.9225 65.9548L37.4173 67.2835C38.0855 66.5319 38.6486 66.3008 39.1113 66.3008V64.3008ZM35.9209 65.9566C35.0382 66.9544 34.3188 68.4415 33.7159 70.317L35.62 70.9291C36.189 69.1588 36.8042 67.9766 37.4189 67.2817L35.9209 65.9566ZM33.7111 70.3326C33.1358 72.2278 32.671 74.5986 32.3089 77.4298L34.2927 77.6835C34.6467 74.9157 35.0934 72.6642 35.6248 70.9135L33.7111 70.3326ZM32.3075 77.4411C31.9762 80.2899 31.8125 83.6506 31.8125 87.5176H33.8125C33.8125 83.7022 33.9743 80.4224 34.2941 77.6721L32.3075 77.4411ZM111.25 132.342L111.435 131.359L111.424 131.357L111.25 132.342ZM103.291 130.145L102.928 131.076L102.932 131.078L103.291 130.145ZM96.2598 126.531L96.8087 125.695L96.2598 126.531ZM90.5469 121.6L89.6989 122.13L89.7418 122.198L89.7951 122.259L90.5469 121.6ZM90.1074 120.916L89.1883 121.31L89.2244 121.394L89.2754 121.471L90.1074 120.916ZM90.8398 117.156L89.9987 116.615L89.9846 116.637L89.9716 116.66L90.8398 117.156ZM91.8164 116.033L91.2164 115.233L91.1995 115.246L91.1832 115.259L91.8164 116.033ZM94.6484 115.984L94.1243 116.836L94.144 116.848L94.1641 116.859L94.6484 115.984ZM101.191 118.475L100.943 119.443L100.955 119.446L101.191 118.475ZM118.086 115.887L117.368 115.191L117.368 115.191L118.086 115.887ZM120.381 112.273L119.446 111.917L119.442 111.93L120.381 112.273ZM120.479 104.559L119.538 104.898L119.542 104.91L119.547 104.921L120.479 104.559ZM118.525 101.434L117.793 102.114L117.799 102.121L117.806 102.128L118.525 101.434ZM115.352 99.2363L114.943 100.149L114.952 100.153L115.352 99.2363ZM104.902 98.8457L104.348 99.6778L104.367 99.691L104.388 99.7032L104.902 98.8457ZM102.754 96.0625L101.805 96.3787L101.816 96.4114L101.829 96.4432L102.754 96.0625ZM102.949 92.6934L103.781 93.2481L103.789 93.2358L103.797 93.2234L102.949 92.6934ZM104.561 90.9844L104.006 90.1523L103.963 90.1808L103.924 90.2134L104.561 90.9844ZM108.809 87.5664L109.516 88.2736L109.525 88.2638L108.809 87.5664ZM111.689 83.9531L112.539 84.4811L112.545 84.4709L111.689 83.9531ZM113.301 80.3398L112.342 80.0549L112.34 80.0635L112.337 80.0722L113.301 80.3398ZM113.105 73.0156L112.179 73.3913L112.182 73.4002L113.105 73.0156ZM92.1582 71.5996L92.6371 72.4775L92.7038 72.4411L92.7642 72.395L92.1582 71.5996ZM88.3008 71.0625L87.4064 71.5097L87.4106 71.5182L87.4149 71.5265L88.3008 71.0625ZM87.8125 67.8887L88.8064 67.9991L88.8075 67.9882L87.8125 67.8887ZM87.959 67.1074L87.0184 66.7678L87.0142 66.7794L87.0103 66.7912L87.959 67.1074ZM106.27 53.8262L106.472 54.8055L106.483 54.8031L106.27 53.8262ZM123.848 53.9727L123.608 54.9435L123.62 54.9465L123.848 53.9727ZM136.982 62.5176L136.133 63.0453L136.139 63.0545L136.982 62.5176ZM138.496 74.627L137.522 74.3991L137.521 74.4068L137.519 74.4145L138.496 74.627ZM136.641 79.0703L135.792 78.542L135.788 78.5473L136.641 79.0703ZM132.979 83.1719L132.338 82.4036L132.33 82.4103L132.979 83.1719ZM127.021 86.7852L126.609 85.8744L124.057 87.0312L126.764 87.7515L127.021 86.7852ZM136.25 90.6426L135.72 91.4906L135.726 91.4944L135.732 91.4982L136.25 90.6426ZM142.744 96.1113L141.973 96.7479L141.978 96.7545L141.984 96.7611L142.744 96.1113ZM146.553 102.654L145.608 102.982L145.611 102.99L145.614 102.998L146.553 102.654ZM145.918 118.328L145.007 117.915L145.003 117.924L145.918 118.328ZM140.449 125.848L141.125 126.584L141.126 126.584L140.449 125.848ZM119.551 132.123C116.847 132.123 114.142 131.869 111.435 131.359L111.065 133.325C113.892 133.857 116.721 134.123 119.551 134.123V132.123ZM111.424 131.357C108.718 130.88 106.127 130.164 103.65 129.211L102.932 131.078C105.533 132.078 108.248 132.828 111.076 133.327L111.424 131.357ZM103.654 129.213C101.211 128.261 98.9295 127.088 96.8087 125.695L95.7108 127.367C97.9521 128.839 100.358 130.075 102.928 131.076L103.654 129.213ZM96.8087 125.695C94.6987 124.31 92.8636 122.724 91.2986 120.94L89.7951 122.259C91.4854 124.186 93.4589 125.888 95.7108 127.367L96.8087 125.695ZM91.3949 121.07C91.2284 120.803 91.0765 120.567 90.9395 120.361L89.2754 121.471C89.3988 121.656 89.5398 121.875 89.6989 122.13L91.3949 121.07ZM91.0266 120.522C90.9961 120.451 90.9609 120.316 90.9609 120.086H88.9609C88.9609 120.507 89.0234 120.925 89.1883 121.31L91.0266 120.522ZM90.9609 120.086C90.9609 119.749 91.0212 119.362 91.1596 118.919L89.2506 118.323C89.0634 118.922 88.9609 119.511 88.9609 120.086H90.9609ZM91.1596 118.919C91.3016 118.465 91.4849 118.043 91.7081 117.652L89.9716 116.66C89.674 117.181 89.434 117.736 89.2506 118.323L91.1596 118.919ZM91.681 117.697C91.9268 117.315 92.1852 117.024 92.4496 116.807L91.1832 115.259C90.7315 115.629 90.3388 116.086 89.9987 116.615L91.681 117.697ZM92.4164 116.833C92.6617 116.649 92.8626 116.594 93.0371 116.594V114.594C92.3653 114.594 91.7524 114.831 91.2164 115.233L92.4164 116.833ZM93.0371 116.594C93.5593 116.594 93.9006 116.698 94.1243 116.836L95.1725 115.133C94.5499 114.75 93.817 114.594 93.0371 114.594V116.594ZM94.1641 116.859C96.0776 117.919 98.3418 118.776 100.943 119.443L101.44 117.506C98.9629 116.871 96.8651 116.068 95.1328 115.109L94.1641 116.859ZM100.955 119.446C103.572 120.084 106.239 120.402 108.955 120.402V118.402C106.397 118.402 103.889 118.102 101.428 117.503L100.955 119.446ZM108.955 120.402C111.08 120.402 112.992 120.06 114.669 119.346L113.886 117.506C112.503 118.094 110.867 118.402 108.955 118.402V120.402ZM114.669 119.346C116.304 118.65 117.69 117.733 118.804 116.583L117.368 115.191C116.464 116.124 115.311 116.899 113.886 117.506L114.669 119.346ZM118.804 116.583C119.938 115.413 120.781 114.09 121.32 112.617L119.442 111.93C119.004 113.126 118.317 114.212 117.368 115.191L118.804 116.583ZM121.315 112.629C121.878 111.154 122.162 109.65 122.162 108.123H120.162C120.162 109.396 119.926 110.659 119.446 111.917L121.315 112.629ZM122.162 108.123C122.162 106.789 121.909 105.478 121.411 104.196L119.547 104.921C119.959 105.983 120.162 107.048 120.162 108.123H122.162ZM121.419 104.219C120.947 102.912 120.22 101.751 119.245 100.739L117.806 102.128C118.588 102.94 119.163 103.861 119.538 104.898L121.419 104.219ZM119.258 100.753C118.308 99.73 117.132 98.9217 115.751 98.3196L114.952 100.153C116.11 100.658 117.05 101.314 117.793 102.114L119.258 100.753ZM115.76 98.3235C114.371 97.7023 112.795 97.4062 111.055 97.4062V99.4062C112.569 99.4062 113.858 99.6636 114.943 100.149L115.76 98.3235ZM111.055 97.4062C110.203 97.4062 109.31 97.5801 108.384 97.9007L109.038 99.7907C109.804 99.5254 110.474 99.4062 111.055 99.4062V97.4062ZM108.384 97.9007C107.606 98.17 106.971 98.2852 106.465 98.2852V100.285C107.26 100.285 108.123 100.107 109.038 99.7907L108.384 97.9007ZM106.465 98.2852C106.098 98.2852 105.754 98.1908 105.417 97.9882L104.388 99.7032C105.027 100.087 105.725 100.285 106.465 100.285V98.2852ZM105.457 98.0137C105.069 97.7551 104.73 97.4306 104.439 97.0336L102.826 98.2164C103.251 98.7959 103.759 99.2853 104.348 99.6778L105.457 98.0137ZM104.439 97.0336C104.128 96.6097 103.875 96.1595 103.679 95.6818L101.829 96.4432C102.088 97.0722 102.421 97.6637 102.826 98.2164L104.439 97.0336ZM103.703 95.7463C103.535 95.2439 103.461 94.7979 103.461 94.4023H101.461C101.461 95.0485 101.582 95.7093 101.805 96.3787L103.703 95.7463ZM103.461 94.4023C103.461 93.9263 103.577 93.5543 103.781 93.2481L102.117 92.1387C101.67 92.8089 101.461 93.5763 101.461 94.4023H103.461ZM103.797 93.2234C104.043 92.8308 104.489 92.3403 105.197 91.7553L103.924 90.2134C103.134 90.8654 102.507 91.5143 102.101 92.1634L103.797 93.2234ZM105.115 91.8164C106.82 90.6803 108.289 89.5002 109.516 88.2735L108.101 86.8593C106.984 87.9763 105.622 89.075 104.006 90.1523L105.115 91.8164ZM109.525 88.2638C110.738 87.017 111.746 85.7566 112.539 84.4811L110.84 83.4252C110.136 84.5586 109.223 85.707 108.092 86.8691L109.525 88.2638ZM112.545 84.4709C113.332 83.1701 113.91 81.882 114.264 80.6075L112.337 80.0722C112.04 81.1414 111.544 82.2622 110.834 83.4353L112.545 84.4709ZM114.259 80.6248C114.642 79.3373 114.838 78.0694 114.838 76.8242H112.838C112.838 77.8577 112.676 78.9335 112.342 80.0549L114.259 80.6248ZM114.838 76.8242C114.838 75.3353 114.571 73.9339 114.029 72.631L112.182 73.4002C112.616 74.4411 112.838 75.5788 112.838 76.8242H114.838ZM114.032 72.6399C113.495 71.3142 112.735 70.169 111.748 69.2191L110.361 70.6598C111.132 71.4026 111.74 72.3082 112.179 73.3913L114.032 72.6399ZM111.748 69.2191C110.767 68.2743 109.595 67.5392 108.248 67.0073L107.514 68.8677C108.64 69.3123 109.584 69.9119 110.361 70.6598L111.748 69.2191ZM108.248 67.0073C106.878 66.4665 105.367 66.2051 103.73 66.2051V68.2051C105.153 68.2051 106.41 68.4319 107.514 68.8677L108.248 67.0073ZM103.73 66.2051C101.842 66.2051 99.8746 66.5723 97.8337 67.2866L98.4944 69.1743C100.36 68.5215 102.103 68.2051 103.73 68.2051V66.2051ZM97.8337 67.2866C95.7606 68.0122 93.6668 69.193 91.5522 70.8042L92.7642 72.395C94.7511 70.8812 96.6613 69.8159 98.4944 69.1743L97.8337 67.2866ZM91.6794 70.7217C91.3762 70.8871 91.1401 70.9751 90.9647 71.014L91.3986 72.9664C91.8091 72.8752 92.2241 72.7028 92.6371 72.4775L91.6794 70.7217ZM90.9647 71.014C90.7324 71.0657 90.529 71.0879 90.3516 71.0879V73.0879C90.695 73.0879 91.0449 73.045 91.3986 72.9664L90.9647 71.014ZM90.3516 71.0879C89.5808 71.0879 89.3178 70.849 89.1866 70.5985L87.4149 71.5265C87.9999 72.6432 89.1041 73.0879 90.3516 73.0879V71.0879ZM89.1952 70.6153C88.9048 70.0344 88.7637 69.4385 88.7637 68.8164H86.7637C86.7637 69.7568 86.9806 70.6583 87.4064 71.5097L89.1952 70.6153ZM88.7637 68.8164C88.7637 68.524 88.7783 68.2518 88.8064 67.9991L86.8186 67.7782C86.7816 68.1114 86.7637 68.4577 86.7637 68.8164H88.7637ZM88.8075 67.9882C88.8365 67.6987 88.8755 67.5201 88.9077 67.4236L87.0103 66.7912C86.9122 67.0854 86.8536 67.4276 86.8175 67.7892L88.8075 67.9882ZM88.8995 67.4471C89.6931 65.2496 90.9424 63.3283 92.657 61.6749L91.2688 60.2352C89.3375 62.0975 87.9176 64.2777 87.0184 66.7678L88.8995 67.4471ZM92.657 61.6749C94.4003 59.9939 96.446 58.5707 98.8018 57.4085L97.917 55.6149C95.3899 56.8616 93.1713 58.4006 91.2688 60.2352L92.657 61.6749ZM98.8018 57.4085C101.163 56.2439 103.718 55.3752 106.472 54.8054L106.067 52.8469C103.157 53.449 100.439 54.3707 97.917 55.6149L98.8018 57.4085ZM106.483 54.8031C109.245 54.2 112.038 53.8984 114.863 53.8984V51.8984C111.894 51.8984 108.958 52.2154 106.056 52.8492L106.483 54.8031ZM114.863 53.8984C117.878 53.8984 120.792 54.2474 123.608 54.9434L124.088 53.0019C121.109 52.2656 118.034 51.8984 114.863 51.8984V53.8984ZM123.62 54.9465C126.454 55.6077 128.934 56.6255 131.074 57.9896L132.149 56.3033C129.796 54.8029 127.101 53.7048 124.075 52.9988L123.62 54.9465ZM131.074 57.9896C133.2 59.3458 134.882 61.0308 136.133 63.0453L137.832 61.9899C136.414 59.7075 134.514 57.8117 132.149 56.3033L131.074 57.9896ZM136.139 63.0545C137.39 65.0212 138.033 67.3521 138.033 70.0859H140.033C140.033 67.0255 139.309 64.3109 137.826 61.9807L136.139 63.0545ZM138.033 70.0859C138.033 71.5029 137.864 72.9401 137.522 74.3991L139.47 74.8548C139.844 73.2539 140.033 71.6637 140.033 70.0859H138.033ZM137.519 74.4145C137.221 75.7869 136.65 77.1622 135.792 78.542L137.49 79.5986C138.454 78.0487 139.121 76.4618 139.473 74.8394L137.519 74.4145ZM135.788 78.5473C134.977 79.8697 133.834 81.1571 132.338 82.4037L133.619 83.9401C135.248 82.5825 136.547 81.1355 137.493 79.5933L135.788 78.5473ZM132.33 82.4103C130.891 83.6356 128.991 84.7941 126.609 85.8744L127.434 87.6959C129.934 86.5626 132.006 85.3123 133.627 83.9334L132.33 82.4103ZM126.764 87.7515C130.234 88.6748 133.215 89.925 135.72 91.4906L136.78 89.7946C134.077 88.105 130.905 86.7836 127.279 85.8188L126.764 87.7515ZM135.732 91.4982C138.288 93.0441 140.362 94.7964 141.973 96.7479L143.515 95.4748C141.741 93.3246 139.486 91.4312 136.768 89.787L135.732 91.4982ZM141.984 96.7611C143.634 98.6912 144.838 100.764 145.608 102.982L147.497 102.326C146.64 99.8566 145.305 97.5679 143.504 95.4615L141.984 96.7611ZM145.614 102.998C146.421 105.203 146.822 107.431 146.822 109.686H148.822C148.822 107.188 148.377 104.728 147.492 102.31L145.614 102.998ZM146.822 109.686C146.822 112.5 146.22 115.24 145.007 117.915L146.829 118.741C148.155 115.817 148.822 112.796 148.822 109.686H146.822ZM145.003 117.924C143.826 120.589 142.087 122.984 139.773 125.111L141.126 126.584C143.629 124.284 145.536 121.666 146.833 118.732L145.003 117.924ZM139.773 125.111C137.504 127.193 134.673 128.889 131.256 130.186L131.966 132.056C135.581 130.684 138.641 128.864 141.125 126.584L139.773 125.111ZM131.256 130.186C127.875 131.47 123.978 132.123 119.551 132.123V134.123C124.173 134.123 128.317 133.441 131.966 132.056L131.256 130.186Z" fill="#272B32"/>
</svg>
