<svg width="168" height="140" viewBox="0 0 168 140" fill="none" xmlns="http://www.w3.org/2000/svg">
<path d="M85.3203 96.4961C85.3203 101.281 84.832 105.66 83.8555 109.631C82.8789 113.602 81.5117 117.167 79.7539 120.324C78.0286 123.482 75.9616 126.249 73.5527 128.625C71.1439 131.001 68.4909 132.971 65.5938 134.533C62.7292 136.096 59.6855 137.268 56.4629 138.049C53.2402 138.83 49.9525 139.221 46.5996 139.221C43.377 139.221 40.2357 138.863 37.1758 138.146C34.1159 137.43 31.235 136.356 28.5332 134.924C25.8639 133.492 23.4062 131.701 21.1602 129.553C18.9466 127.404 17.026 124.914 15.3984 122.082C13.8034 119.25 12.5501 116.06 11.6387 112.512C10.7598 108.964 10.3203 105.057 10.3203 100.793C10.3203 96.138 10.7923 91.8737 11.7363 88C12.7129 84.1263 14.0638 80.6432 15.7891 77.5508C17.5469 74.4258 19.6139 71.7077 21.9902 69.3965C24.3991 67.0853 27.0195 65.1647 29.8516 63.6348C32.7161 62.0723 35.7435 60.9167 38.9336 60.168C42.1562 59.3867 45.444 58.9961 48.7969 58.9961C52.0195 58.9961 55.1608 59.3542 58.2207 60.0703C61.3132 60.7539 64.2103 61.8118 66.9121 63.2441C69.6139 64.6439 72.0879 66.4017 74.334 68.5176C76.6126 70.6009 78.5495 73.026 80.1445 75.793C81.7721 78.5599 83.0417 81.6849 83.9531 85.168C84.8646 88.6185 85.3203 92.3945 85.3203 96.4961ZM39.8125 93.5176C39.8125 98.6608 40.0892 103.299 40.6426 107.434C41.2285 111.535 41.9772 115.035 42.8887 117.932C43.8327 120.796 44.8743 122.993 46.0137 124.523C47.153 126.053 48.2923 126.818 49.4316 126.818C50.2454 126.818 51.0267 126.363 51.7754 125.451C52.5566 124.507 53.2402 123.075 53.8262 121.154C54.4121 119.201 54.8678 116.727 55.1934 113.732C55.5514 110.738 55.7305 107.157 55.7305 102.99C55.7305 98.1074 55.4375 93.7129 54.8516 89.8066C54.2656 85.8678 53.5169 82.5312 52.6055 79.7969C51.694 77.0625 50.6523 74.9629 49.4805 73.498C48.3411 72.0332 47.2181 71.3008 46.1113 71.3008C45.265 71.3008 44.4512 71.7402 43.6699 72.6191C42.9212 73.4655 42.2539 74.8001 41.668 76.623C41.1146 78.446 40.6589 80.7572 40.3008 83.5566C39.9753 86.3561 39.8125 89.6764 39.8125 93.5176ZM152.82 100.305H153.211C155.424 100.305 157.345 100.354 158.973 100.451C160.6 100.549 161.935 100.874 162.977 101.428C164.051 101.981 164.832 102.86 165.32 104.064C165.841 105.269 166.102 106.978 166.102 109.191C166.102 111.21 165.841 112.772 165.32 113.879C164.799 114.986 164.002 115.799 162.928 116.32C161.886 116.809 160.551 117.102 158.924 117.199C157.296 117.264 155.392 117.297 153.211 117.297H152.82V118.908C152.82 120.275 152.999 121.333 153.357 122.082C153.715 122.831 154.155 123.4 154.676 123.791C155.229 124.182 155.815 124.458 156.434 124.621C157.085 124.784 157.671 124.947 158.191 125.109C158.745 125.272 159.201 125.516 159.559 125.842C159.917 126.167 160.096 126.688 160.096 127.404C160.096 129.162 159.477 130.708 158.24 132.043C157.036 133.378 155.441 134.484 153.455 135.363C151.469 136.242 149.207 136.91 146.668 137.365C144.129 137.788 141.541 138 138.904 138C136.268 138 133.696 137.788 131.189 137.365C128.715 136.942 126.502 136.291 124.549 135.412C122.628 134.533 121.066 133.426 119.861 132.092C118.689 130.757 118.104 129.195 118.104 127.404C118.104 126.688 118.283 126.167 118.641 125.842C118.999 125.516 119.438 125.272 119.959 125.109C120.512 124.947 121.098 124.8 121.717 124.67C122.335 124.507 122.905 124.247 123.426 123.889C123.979 123.498 124.435 122.945 124.793 122.229C125.151 121.48 125.33 120.438 125.33 119.104V117.297H109.217C106.417 117.297 104.057 117.248 102.137 117.15C100.249 117.02 98.7188 116.76 97.5469 116.369C96.375 115.979 95.5286 115.409 95.0078 114.66C94.487 113.879 94.2266 112.821 94.2266 111.486C94.2266 111.128 94.2103 110.738 94.1777 110.314C94.1777 109.891 94.1777 109.436 94.1777 108.947C94.1777 108.231 94.2103 107.45 94.2754 106.604C94.3405 105.757 94.4707 104.895 94.666 104.016C94.8939 103.104 95.2031 102.176 95.5938 101.232C95.9844 100.288 96.5215 99.3444 97.2051 98.4004L125.33 58.9961C130.766 58.9961 135.258 59.2728 138.807 59.8262C142.355 60.347 145.171 61.2096 147.254 62.4141C149.37 63.6185 150.835 65.181 151.648 67.1016C152.495 69.0221 152.918 71.3496 152.918 74.084L152.82 100.305ZM125.33 78.3809C123.67 80.6921 121.993 83.1335 120.301 85.7051C118.608 88.2441 117.046 90.6042 115.613 92.7852C113.953 95.3242 112.326 97.8307 110.73 100.305H125.33V78.3809Z" fill="#F5CDC3"/>
<path d="M72.7539 114.324L71.8801 113.838L71.8764 113.845L72.7539 114.324ZM66.5527 122.625L65.8505 121.913L66.5527 122.625ZM58.5938 128.533L58.1191 127.653L58.1149 127.655L58.5938 128.533ZM21.5332 128.924L21.0604 129.805L21.0648 129.807L21.5332 128.924ZM14.1602 123.553L13.4637 124.27L13.4689 124.275L14.1602 123.553ZM8.39844 116.082L7.5271 116.573L7.53142 116.58L8.39844 116.082ZM4.63867 106.512L3.66797 106.752L3.67012 106.761L4.63867 106.512ZM4.73633 82L3.76664 81.7555L3.76476 81.7632L4.73633 82ZM8.78906 71.5508L7.91748 71.0605L7.91577 71.0636L8.78906 71.5508ZM14.9902 63.3965L14.2979 62.6749L14.293 62.6796L14.9902 63.3965ZM22.8516 57.6348L23.3269 58.5146L23.3304 58.5127L22.8516 57.6348ZM31.9336 54.168L32.1621 55.1415L32.1692 55.1398L31.9336 54.168ZM51.2207 54.0703L50.9928 55.0441L51.0049 55.0467L51.2207 54.0703ZM59.9121 57.2441L59.4437 58.1277L59.4521 58.1321L59.9121 57.2441ZM67.334 62.5176L66.6483 63.2455L66.6537 63.2506L66.6592 63.2556L67.334 62.5176ZM73.1445 69.793L72.2781 70.2924L72.2826 70.3L73.1445 69.793ZM76.9531 79.168L75.9857 79.4211L75.9863 79.4234L76.9531 79.168ZM33.6426 101.434L32.6514 101.566L32.6526 101.575L33.6426 101.434ZM35.8887 111.932L34.9347 112.232L34.9389 112.245L35.8887 111.932ZM44.7754 119.451L44.005 118.814L44.0027 118.816L44.7754 119.451ZM46.8262 115.154L47.7827 115.446L47.784 115.442L46.8262 115.154ZM48.1934 107.732L47.2004 107.614L47.1992 107.624L48.1934 107.732ZM47.8516 83.8066L46.8624 83.9538L46.8626 83.955L47.8516 83.8066ZM42.4805 67.498L41.691 68.112L41.6996 68.1227L42.4805 67.498ZM36.6699 66.6191L35.9225 65.9548L35.9209 65.9566L36.6699 66.6191ZM34.668 70.623L33.7159 70.317L33.7135 70.3248L33.7111 70.3326L34.668 70.623ZM33.3008 77.5566L32.3088 77.4298L32.3075 77.4411L33.3008 77.5566ZM77.3203 90.4961C77.3203 95.214 76.8388 99.5108 75.8844 103.392L77.8265 103.87C78.8252 99.8083 79.3203 95.3485 79.3203 90.4961H77.3203ZM75.8844 103.392C74.9264 107.288 73.5894 110.768 71.8802 113.838L73.6276 114.811C75.434 111.566 76.8315 107.916 77.8265 103.87L75.8844 103.392ZM71.8764 113.845C70.1949 116.922 68.1856 119.61 65.8505 121.913L67.255 123.337C69.7376 120.888 71.8624 118.041 73.6315 114.804L71.8764 113.845ZM65.8505 121.913C63.5072 124.225 60.9304 126.137 58.1191 127.653L59.0684 129.413C62.0514 127.805 64.7806 125.778 67.255 123.337L65.8505 121.913ZM58.1149 127.655C55.3282 129.175 52.3665 130.316 49.2273 131.077L49.6985 133.021C53.0046 132.219 56.1301 131.016 59.0726 129.411L58.1149 127.655ZM49.2273 131.077C46.0826 131.839 42.874 132.221 39.5996 132.221V134.221C43.031 134.221 46.3978 133.821 49.6985 133.021L49.2273 131.077ZM39.5996 132.221C36.4517 132.221 33.387 131.871 30.4037 131.173L29.9479 133.12C33.0844 133.854 36.3022 134.221 39.5996 134.221V132.221ZM30.4037 131.173C27.4251 130.476 24.6254 129.431 22.0016 128.04L21.0648 129.807C23.8447 131.281 26.8066 132.385 29.9479 133.12L30.4037 131.173ZM22.006 128.043C19.4184 126.654 17.0339 124.918 14.8514 122.83L13.4689 124.275C15.7786 126.485 18.3094 128.329 21.0604 129.805L22.006 128.043ZM14.8566 122.835C12.7137 120.755 10.8494 118.34 9.26545 115.584L7.53142 116.58C9.20266 119.488 11.1795 122.053 13.4637 124.27L14.8566 122.835ZM9.26975 115.591C7.72256 112.844 6.49967 109.737 5.60723 106.263L3.67012 106.761C4.60059 110.383 5.88421 113.656 7.52713 116.573L9.26975 115.591ZM5.60934 106.271C4.75283 102.814 4.32031 98.9893 4.32031 94.793H2.32031C2.32031 99.1252 2.7667 103.114 3.66801 106.752L5.60934 106.271ZM4.32031 94.793C4.32031 90.2049 4.78561 86.0213 5.70789 82.2368L3.76476 81.7632C2.79903 85.7261 2.32031 90.0712 2.32031 94.793H4.32031ZM5.70599 82.2445C6.66386 78.4449 7.98473 75.045 9.66235 72.038L7.91577 71.0636C6.14288 74.2414 4.76192 77.8077 3.76667 81.7555L5.70599 82.2445ZM9.66064 72.041C11.3753 68.9928 13.3852 66.3525 15.6875 64.1133L14.293 62.6796C11.8427 65.0628 9.71845 67.8588 7.91749 71.0605L9.66064 72.041ZM15.6826 64.1181C18.0289 61.8668 20.5769 60.0002 23.3269 58.5146L22.3763 56.7549C19.4622 58.3292 16.7692 60.3038 14.2979 62.6749L15.6826 64.1181ZM23.3304 58.5127C26.1159 56.9933 29.059 55.8698 32.1621 55.1415L31.7051 53.1944C28.428 53.9635 25.3164 55.1512 22.3727 56.7569L23.3304 58.5127ZM32.1692 55.1398C35.3139 54.3775 38.5225 53.9961 41.7969 53.9961V51.9961C38.3655 51.9961 34.9986 52.396 31.698 53.1961L32.1692 55.1398ZM41.7969 53.9961C44.9448 53.9961 48.0095 54.3458 50.9928 55.044L51.4486 53.0966C48.3121 52.3626 45.0943 51.9961 41.7969 51.9961V53.9961ZM51.0049 55.0467C54.0125 55.7116 56.8243 56.7391 59.4437 58.1277L60.3805 56.3606C57.5963 54.8846 54.6138 53.7962 51.4365 53.0939L51.0049 55.0467ZM59.4521 58.1321C62.0705 59.4886 64.4687 61.1922 66.6483 63.2455L68.0197 61.7897C65.7071 59.6112 63.1574 57.7992 60.3721 56.3562L59.4521 58.1321ZM66.6592 63.2556C68.8596 65.2673 70.7326 67.6113 72.2782 70.2924L74.0109 69.2935C72.3664 66.4408 70.3657 63.9345 68.0088 61.7795L66.6592 63.2556ZM72.2826 70.3C73.8582 72.9786 75.0948 76.0165 75.9857 79.4211L77.9205 78.9148C76.9886 75.3533 75.686 72.1412 74.0065 69.2859L72.2826 70.3ZM75.9863 79.4234C76.8727 82.7792 77.3203 86.4682 77.3203 90.4961H79.3203C79.3203 86.3209 78.8564 82.4578 77.92 78.9126L75.9863 79.4234ZM31.8125 87.5176C31.8125 92.6954 32.091 97.3794 32.6514 101.566L34.6337 101.301C34.0874 97.2195 33.8125 92.6262 33.8125 87.5176H31.8125ZM32.6526 101.575C33.2437 105.712 34.0023 109.268 34.9348 112.232L36.8426 111.632C35.9521 108.801 35.2133 105.358 34.6325 101.292L32.6526 101.575ZM34.9389 112.245C35.8994 115.159 36.982 117.469 38.2116 119.121L39.8157 117.926C38.7667 116.518 37.766 114.433 36.8384 111.619L34.9389 112.245ZM38.2116 119.121C39.4137 120.735 40.8125 121.818 42.4316 121.818V119.818C41.7721 119.818 40.8923 119.372 39.8157 117.926L38.2116 119.121ZM42.4316 121.818C43.6605 121.818 44.6978 121.121 45.5481 120.086L44.0027 118.816C43.3556 119.604 42.8304 119.818 42.4316 119.818V121.818ZM45.5458 120.089C46.4482 118.998 47.1797 117.423 47.7826 115.446L45.8697 114.862C45.3008 116.727 44.6651 118.016 44.005 118.814L45.5458 120.089ZM47.784 115.442C48.3936 113.409 48.8582 110.87 49.1875 107.84L47.1992 107.624C46.8775 110.584 46.4306 112.993 45.8683 114.867L47.784 115.442ZM49.1863 107.851C49.5505 104.805 49.7305 101.183 49.7305 96.9902H47.7305C47.7305 101.131 47.5524 104.67 47.2004 107.614L49.1863 107.851ZM49.7305 96.9902C49.7305 92.0689 49.4353 87.6235 48.8405 83.6583L46.8626 83.955C47.4397 87.8023 47.7305 92.146 47.7305 96.9902H49.7305ZM48.8407 83.6595C48.2492 79.6833 47.4894 76.2864 46.5542 73.4806L44.6568 74.1131C45.5444 76.7761 46.2821 80.0524 46.8624 83.9538L48.8407 83.6595ZM46.5542 73.4806C45.6232 70.6879 44.5354 68.466 43.2613 66.8734L41.6996 68.1227C42.7693 69.4598 43.7648 71.4371 44.6568 74.1131L46.5542 73.4806ZM43.2698 66.8841C42.0669 65.3376 40.6859 64.3008 39.1113 64.3008V66.3008C39.7503 66.3008 40.6153 66.7289 41.6911 68.112L43.2698 66.8841ZM39.1113 64.3008C37.8813 64.3008 36.8169 64.9486 35.9225 65.9548L37.4173 67.2835C38.0855 66.5319 38.6486 66.3008 39.1113 66.3008V64.3008ZM35.9209 65.9566C35.0382 66.9544 34.3188 68.4415 33.7159 70.317L35.62 70.9291C36.189 69.1588 36.8042 67.9766 37.4189 67.2817L35.9209 65.9566ZM33.7111 70.3326C33.1358 72.2278 32.671 74.5986 32.3089 77.4298L34.2927 77.6835C34.6467 74.9157 35.0934 72.6642 35.6248 70.9135L33.7111 70.3326ZM32.3075 77.4411C31.9762 80.2899 31.8125 83.6506 31.8125 87.5176H33.8125C33.8125 83.7022 33.9743 80.4224 34.2941 77.6721L32.3075 77.4411ZM145.82 94.3047L144.82 94.301L144.817 95.3047H145.82V94.3047ZM155.977 95.4277L155.507 96.3109L155.519 96.3167L155.977 95.4277ZM158.32 98.0645L157.394 98.4402L157.398 98.4508L157.402 98.4614L158.32 98.0645ZM158.32 107.879L157.415 107.453L158.32 107.879ZM155.928 110.32L156.352 111.226L156.364 111.22L155.928 110.32ZM151.924 111.199L151.964 112.198L151.974 112.198L151.984 112.197L151.924 111.199ZM145.82 111.297V110.297H144.82V111.297H145.82ZM146.357 116.082L147.26 115.651L146.357 116.082ZM147.676 117.791L147.076 118.591L147.087 118.6L147.099 118.608L147.676 117.791ZM149.434 118.621L149.179 119.588L149.191 119.591L149.434 118.621ZM151.191 119.109L150.893 120.064L150.901 120.066L150.909 120.069L151.191 119.109ZM151.24 126.043L150.507 125.363L150.498 125.373L151.24 126.043ZM139.668 131.365L139.832 132.352L139.845 132.35L139.668 131.365ZM124.189 131.365L124.021 132.351L124.023 132.351L124.189 131.365ZM117.549 129.412L117.133 130.321L117.138 130.324L117.549 129.412ZM112.861 126.092L112.11 126.752L112.119 126.762L112.861 126.092ZM111.641 119.842L110.968 119.102L111.641 119.842ZM112.959 119.109L112.677 118.15L112.669 118.152L112.661 118.155L112.959 119.109ZM114.717 118.67L114.923 119.648L114.947 119.643L114.971 119.637L114.717 118.67ZM116.426 117.889L116.992 118.713L117.002 118.706L116.426 117.889ZM117.793 116.229L118.687 116.676L118.691 116.668L118.695 116.66L117.793 116.229ZM118.33 111.297H119.33V110.297H118.33V111.297ZM95.1367 111.15L95.0679 112.148L95.0769 112.149L95.0859 112.149L95.1367 111.15ZM88.0078 108.66L87.1758 109.215L87.1813 109.223L87.1869 109.231L88.0078 108.66ZM87.1777 104.314H86.1777V104.353L86.1807 104.391L87.1777 104.314ZM87.666 98.0156L86.6959 97.7731L86.6927 97.7859L86.6898 97.7987L87.666 98.0156ZM90.2051 92.4004L91.015 92.9869L91.019 92.9813L90.2051 92.4004ZM118.33 52.9961V51.9961H117.815L117.516 52.4151L118.33 52.9961ZM131.807 53.8262L131.653 54.8143L131.661 54.8156L131.807 53.8262ZM140.254 56.4141L139.753 57.2798L139.759 57.2831L140.254 56.4141ZM144.648 61.1016L143.728 61.4917L143.73 61.4983L143.733 61.5048L144.648 61.1016ZM145.918 68.084L146.918 68.0877V68.084H145.918ZM118.33 72.3809H119.33V69.2746L117.518 71.7975L118.33 72.3809ZM113.301 79.7051L114.133 80.2598L114.136 80.2549L113.301 79.7051ZM108.613 86.7852L107.777 86.2362L107.776 86.2379L108.613 86.7852ZM103.73 94.3047L102.89 93.7628L101.896 95.3047H103.73V94.3047ZM118.33 94.3047V95.3047H119.33V94.3047H118.33ZM145.82 95.3047H146.211V93.3047H145.82V95.3047ZM146.211 95.3047C148.411 95.3047 150.311 95.3533 151.913 95.4494L152.033 93.453C150.379 93.3538 148.438 93.3047 146.211 93.3047V95.3047ZM151.913 95.4494C153.449 95.5415 154.631 95.8453 155.507 96.3109L156.446 94.5446C155.239 93.9034 153.752 93.5561 152.033 93.453L151.913 95.4494ZM155.519 96.3167C156.363 96.7519 156.988 97.4393 157.394 98.4402L159.247 97.6887C158.676 96.2808 157.738 95.2103 156.435 94.5388L155.519 96.3167ZM157.402 98.4614C157.844 99.4829 158.102 101.033 158.102 103.191H160.102C160.102 100.922 159.838 99.0549 159.238 97.6675L157.402 98.4614ZM158.102 103.191C158.102 105.146 157.846 106.539 157.415 107.453L159.225 108.305C159.837 107.005 160.102 105.273 160.102 103.191H158.102ZM157.415 107.453C156.989 108.358 156.354 109.002 155.491 109.42L156.364 111.22C157.649 110.597 158.61 109.613 159.225 108.305L157.415 107.453ZM155.503 109.415C154.613 109.832 153.414 110.108 151.864 110.201L151.984 112.197C153.689 112.095 155.159 111.785 156.352 111.226L155.503 109.415ZM151.884 110.2C150.273 110.264 148.383 110.297 146.211 110.297V112.297C148.401 112.297 150.319 112.264 151.964 112.198L151.884 110.2ZM146.211 110.297H145.82V112.297H146.211V110.297ZM144.82 111.297V112.908H146.82V111.297H144.82ZM144.82 112.908C144.82 114.34 145.004 115.57 145.455 116.513L147.26 115.651C146.995 115.097 146.82 114.211 146.82 112.908H144.82ZM145.455 116.513C145.864 117.369 146.395 118.081 147.076 118.591L148.276 116.991C147.914 116.72 147.567 116.293 147.26 115.651L145.455 116.513ZM147.099 118.608C147.744 119.063 148.438 119.393 149.179 119.588L149.688 117.654C149.192 117.523 148.714 117.3 148.252 116.974L147.099 118.608ZM149.191 119.591C149.827 119.75 150.394 119.908 150.893 120.064L151.49 118.155C150.947 117.985 150.342 117.817 149.676 117.651L149.191 119.591ZM150.909 120.069C151.345 120.197 151.659 120.376 151.886 120.582L153.231 119.102C152.742 118.657 152.144 118.347 151.474 118.15L150.909 120.069ZM151.886 120.582C151.952 120.642 152.096 120.834 152.096 121.404H154.096C154.096 120.543 153.881 119.692 153.231 119.102L151.886 120.582ZM152.096 121.404C152.096 122.9 151.579 124.206 150.507 125.363L151.974 126.723C153.375 125.21 154.096 123.424 154.096 121.404H152.096ZM150.498 125.373C149.405 126.584 147.934 127.615 146.05 128.449L146.86 130.278C148.948 129.354 150.667 128.171 151.983 126.713L150.498 125.373ZM146.05 128.449C144.15 129.29 141.966 129.937 139.491 130.381L139.845 132.35C142.448 131.882 144.789 131.194 146.86 130.278L146.05 128.449ZM139.504 130.379C137.02 130.793 134.487 131 131.904 131V133C134.595 133 137.238 132.784 139.832 132.352L139.504 130.379ZM131.904 131C129.321 131 126.805 130.793 124.356 130.379L124.023 132.351C126.586 132.784 129.214 133 131.904 133V131ZM124.358 130.38C121.954 129.968 119.823 129.339 117.959 128.5L117.138 130.324C119.181 131.243 121.477 131.916 124.021 132.351L124.358 130.38ZM117.965 128.503C116.147 127.671 114.702 126.639 113.604 125.422L112.119 126.762C113.429 128.214 115.11 129.396 117.133 130.321L117.965 128.503ZM113.613 125.432C112.603 124.281 112.104 122.954 112.104 121.404H110.104C110.104 123.435 110.776 125.233 112.11 126.752L113.613 125.432ZM112.104 121.404C112.104 120.834 112.247 120.642 112.313 120.582L110.968 119.102C110.318 119.692 110.104 120.543 110.104 121.404H112.104ZM112.313 120.582C112.551 120.366 112.858 120.189 113.257 120.064L112.661 118.155C112.019 118.356 111.447 118.667 110.968 119.102L112.313 120.582ZM113.241 120.069C113.767 119.914 114.328 119.774 114.923 119.648L114.511 117.691C113.869 117.826 113.258 117.979 112.677 118.15L113.241 120.069ZM114.971 119.637C115.7 119.445 116.375 119.137 116.992 118.713L115.859 117.065C115.435 117.357 114.971 117.569 114.462 117.703L114.971 119.637ZM117.002 118.706C117.713 118.204 118.269 117.513 118.687 116.676L116.899 115.781C116.601 116.377 116.245 116.792 115.849 117.072L117.002 118.706ZM118.695 116.66C119.145 115.719 119.33 114.507 119.33 113.104H117.33C117.33 114.369 117.157 115.241 116.891 115.797L118.695 116.66ZM119.33 113.104V111.297H117.33V113.104H119.33ZM118.33 110.297H102.217V112.297H118.33V110.297ZM102.217 110.297C99.4274 110.297 97.0855 110.248 95.1875 110.152L95.0859 112.149C97.0291 112.248 99.4073 112.297 102.217 112.297V110.297ZM95.2055 110.153C93.3621 110.026 91.9244 109.774 90.8631 109.42L90.2306 111.318C91.5131 111.745 93.1353 112.015 95.0679 112.148L95.2055 110.153ZM90.8631 109.42C89.8242 109.074 89.1894 108.608 88.8287 108.089L87.1869 109.231C87.8679 110.21 88.9258 110.883 90.2306 111.318L90.8631 109.42ZM88.8399 108.105C88.4657 107.544 88.2266 106.703 88.2266 105.486H86.2266C86.2266 106.939 86.5083 108.214 87.1758 109.215L88.8399 108.105ZM88.2266 105.486C88.2266 105.099 88.209 104.682 88.1748 104.238L86.1807 104.391C86.2116 104.793 86.2266 105.158 86.2266 105.486H88.2266ZM88.1777 104.314C88.1777 104.314 88.1777 104.313 88.1777 104.312C88.1777 104.311 88.1777 104.31 88.1777 104.309C88.1777 104.309 88.1777 104.308 88.1777 104.307C88.1777 104.306 88.1777 104.305 88.1777 104.305C88.1777 104.304 88.1777 104.303 88.1777 104.302C88.1777 104.301 88.1777 104.3 88.1777 104.3C88.1777 104.299 88.1777 104.298 88.1777 104.297C88.1777 104.296 88.1777 104.295 88.1777 104.295C88.1777 104.294 88.1777 104.293 88.1777 104.292C88.1777 104.291 88.1777 104.29 88.1777 104.29C88.1777 104.289 88.1777 104.288 88.1777 104.287C88.1777 104.286 88.1777 104.285 88.1777 104.285C88.1777 104.284 88.1777 104.283 88.1777 104.282C88.1777 104.281 88.1777 104.28 88.1777 104.28C88.1777 104.279 88.1777 104.278 88.1777 104.277C88.1777 104.276 88.1777 104.276 88.1777 104.275C88.1777 104.274 88.1777 104.273 88.1777 104.272C88.1777 104.271 88.1777 104.271 88.1777 104.27C88.1777 104.269 88.1777 104.268 88.1777 104.267C88.1777 104.266 88.1777 104.266 88.1777 104.265C88.1777 104.264 88.1777 104.263 88.1777 104.262C88.1777 104.261 88.1777 104.261 88.1777 104.26C88.1777 104.259 88.1777 104.258 88.1777 104.257C88.1777 104.256 88.1777 104.256 88.1777 104.255C88.1777 104.254 88.1777 104.253 88.1777 104.252C88.1777 104.251 88.1777 104.251 88.1777 104.25C88.1777 104.249 88.1777 104.248 88.1777 104.247C88.1777 104.246 88.1777 104.246 88.1777 104.245C88.1777 104.244 88.1777 104.243 88.1777 104.242C88.1777 104.241 88.1777 104.241 88.1777 104.24C88.1777 104.239 88.1777 104.238 88.1777 104.237C88.1777 104.236 88.1777 104.236 88.1777 104.235C88.1777 104.234 88.1777 104.233 88.1777 104.232C88.1777 104.231 88.1777 104.231 88.1777 104.23C88.1777 104.229 88.1777 104.228 88.1777 104.227C88.1777 104.226 88.1777 104.226 88.1777 104.225C88.1777 104.224 88.1777 104.223 88.1777 104.222C88.1777 104.221 88.1777 104.221 88.1777 104.22C88.1777 104.219 88.1777 104.218 88.1777 104.217C88.1777 104.216 88.1777 104.216 88.1777 104.215C88.1777 104.214 88.1777 104.213 88.1777 104.212C88.1777 104.211 88.1777 104.21 88.1777 104.21C88.1777 104.209 88.1777 104.208 88.1777 104.207C88.1777 104.206 88.1777 104.205 88.1777 104.205C88.1777 104.204 88.1777 104.203 88.1777 104.202C88.1777 104.201 88.1777 104.2 88.1777 104.2C88.1777 104.199 88.1777 104.198 88.1777 104.197C88.1777 104.196 88.1777 104.195 88.1777 104.195C88.1777 104.194 88.1777 104.193 88.1777 104.192C88.1777 104.191 88.1777 104.19 88.1777 104.19C88.1777 104.189 88.1777 104.188 88.1777 104.187C88.1777 104.186 88.1777 104.185 88.1777 104.185C88.1777 104.184 88.1777 104.183 88.1777 104.182C88.1777 104.181 88.1777 104.18 88.1777 104.179C88.1777 104.179 88.1777 104.178 88.1777 104.177C88.1777 104.176 88.1777 104.175 88.1777 104.174C88.1777 104.174 88.1777 104.173 88.1777 104.172C88.1777 104.171 88.1777 104.17 88.1777 104.169C88.1777 104.169 88.1777 104.168 88.1777 104.167C88.1777 104.166 88.1777 104.165 88.1777 104.164C88.1777 104.163 88.1777 104.163 88.1777 104.162C88.1777 104.161 88.1777 104.16 88.1777 104.159C88.1777 104.158 88.1777 104.158 88.1777 104.157C88.1777 104.156 88.1777 104.155 88.1777 104.154C88.1777 104.153 88.1777 104.153 88.1777 104.152C88.1777 104.151 88.1777 104.15 88.1777 104.149C88.1777 104.148 88.1777 104.147 88.1777 104.147C88.1777 104.146 88.1777 104.145 88.1777 104.144C88.1777 104.143 88.1777 104.142 88.1777 104.142C88.1777 104.141 88.1777 104.14 88.1777 104.139C88.1777 104.138 88.1777 104.137 88.1777 104.137C88.1777 104.136 88.1777 104.135 88.1777 104.134C88.1777 104.133 88.1777 104.132 88.1777 104.131C88.1777 104.131 88.1777 104.13 88.1777 104.129C88.1777 104.128 88.1777 104.127 88.1777 104.126C88.1777 104.126 88.1777 104.125 88.1777 104.124C88.1777 104.123 88.1777 104.122 88.1777 104.121C88.1777 104.12 88.1777 104.12 88.1777 104.119C88.1777 104.118 88.1777 104.117 88.1777 104.116C88.1777 104.115 88.1777 104.115 88.1777 104.114C88.1777 104.113 88.1777 104.112 88.1777 104.111C88.1777 104.11 88.1777 104.109 88.1777 104.109C88.1777 104.108 88.1777 104.107 88.1777 104.106C88.1777 104.105 88.1777 104.104 88.1777 104.104C88.1777 104.103 88.1777 104.102 88.1777 104.101C88.1777 104.1 88.1777 104.099 88.1777 104.098C88.1777 104.098 88.1777 104.097 88.1777 104.096C88.1777 104.095 88.1777 104.094 88.1777 104.093C88.1777 104.093 88.1777 104.092 88.1777 104.091C88.1777 104.09 88.1777 104.089 88.1777 104.088C88.1777 104.087 88.1777 104.087 88.1777 104.086C88.1777 104.085 88.1777 104.084 88.1777 104.083C88.1777 104.082 88.1777 104.081 88.1777 104.081C88.1777 104.08 88.1777 104.079 88.1777 104.078C88.1777 104.077 88.1777 104.076 88.1777 104.076C88.1777 104.075 88.1777 104.074 88.1777 104.073C88.1777 104.072 88.1777 104.071 88.1777 104.07C88.1777 104.07 88.1777 104.069 88.1777 104.068C88.1777 104.067 88.1777 104.066 88.1777 104.065C88.1777 104.064 88.1777 104.064 88.1777 104.063C88.1777 104.062 88.1777 104.061 88.1777 104.06C88.1777 104.059 88.1777 104.059 88.1777 104.058C88.1777 104.057 88.1777 104.056 88.1777 104.055C88.1777 104.054 88.1777 104.053 88.1777 104.053C88.1777 104.052 88.1777 104.051 88.1777 104.05C88.1777 104.049 88.1777 104.048 88.1777 104.047C88.1777 104.047 88.1777 104.046 88.1777 104.045C88.1777 104.044 88.1777 104.043 88.1777 104.042C88.1777 104.041 88.1777 104.041 88.1777 104.04C88.1777 104.039 88.1777 104.038 88.1777 104.037C88.1777 104.036 88.1777 104.035 88.1777 104.035C88.1777 104.034 88.1777 104.033 88.1777 104.032C88.1777 104.031 88.1777 104.03 88.1777 104.03C88.1777 104.029 88.1777 104.028 88.1777 104.027C88.1777 104.026 88.1777 104.025 88.1777 104.024C88.1777 104.024 88.1777 104.023 88.1777 104.022C88.1777 104.021 88.1777 104.02 88.1777 104.019C88.1777 104.018 88.1777 104.018 88.1777 104.017C88.1777 104.016 88.1777 104.015 88.1777 104.014C88.1777 104.013 88.1777 104.012 88.1777 104.012C88.1777 104.011 88.1777 104.01 88.1777 104.009C88.1777 104.008 88.1777 104.007 88.1777 104.006C88.1777 104.006 88.1777 104.005 88.1777 104.004C88.1777 104.003 88.1777 104.002 88.1777 104.001C88.1777 104 88.1777 104 88.1777 103.999C88.1777 103.998 88.1777 103.997 88.1777 103.996C88.1777 103.995 88.1777 103.994 88.1777 103.994C88.1777 103.993 88.1777 103.992 88.1777 103.991C88.1777 103.99 88.1777 103.989 88.1777 103.988C88.1777 103.988 88.1777 103.987 88.1777 103.986C88.1777 103.985 88.1777 103.984 88.1777 103.983C88.1777 103.982 88.1777 103.982 88.1777 103.981C88.1777 103.98 88.1777 103.979 88.1777 103.978C88.1777 103.977 88.1777 103.976 88.1777 103.976C88.1777 103.975 88.1777 103.974 88.1777 103.973C88.1777 103.972 88.1777 103.971 88.1777 103.97C88.1777 103.969 88.1777 103.969 88.1777 103.968C88.1777 103.967 88.1777 103.966 88.1777 103.965C88.1777 103.964 88.1777 103.963 88.1777 103.963C88.1777 103.962 88.1777 103.961 88.1777 103.96C88.1777 103.959 88.1777 103.958 88.1777 103.957C88.1777 103.957 88.1777 103.956 88.1777 103.955C88.1777 103.954 88.1777 103.953 88.1777 103.952C88.1777 103.951 88.1777 103.951 88.1777 103.95C88.1777 103.949 88.1777 103.948 88.1777 103.947C88.1777 103.946 88.1777 103.945 88.1777 103.944C88.1777 103.944 88.1777 103.943 88.1777 103.942C88.1777 103.941 88.1777 103.94 88.1777 103.939C88.1777 103.938 88.1777 103.938 88.1777 103.937C88.1777 103.936 88.1777 103.935 88.1777 103.934C88.1777 103.933 88.1777 103.932 88.1777 103.932C88.1777 103.931 88.1777 103.93 88.1777 103.929C88.1777 103.928 88.1777 103.927 88.1777 103.926C88.1777 103.925 88.1777 103.925 88.1777 103.924C88.1777 103.923 88.1777 103.922 88.1777 103.921C88.1777 103.92 88.1777 103.919 88.1777 103.919C88.1777 103.918 88.1777 103.917 88.1777 103.916C88.1777 103.915 88.1777 103.914 88.1777 103.913C88.1777 103.913 88.1777 103.912 88.1777 103.911C88.1777 103.91 88.1777 103.909 88.1777 103.908C88.1777 103.907 88.1777 103.906 88.1777 103.906C88.1777 103.905 88.1777 103.904 88.1777 103.903C88.1777 103.902 88.1777 103.901 88.1777 103.9C88.1777 103.9 88.1777 103.899 88.1777 103.898C88.1777 103.897 88.1777 103.896 88.1777 103.895C88.1777 103.894 88.1777 103.893 88.1777 103.893C88.1777 103.892 88.1777 103.891 88.1777 103.89C88.1777 103.889 88.1777 103.888 88.1777 103.887C88.1777 103.887 88.1777 103.886 88.1777 103.885C88.1777 103.884 88.1777 103.883 88.1777 103.882C88.1777 103.881 88.1777 103.88 88.1777 103.88C88.1777 103.879 88.1777 103.878 88.1777 103.877C88.1777 103.876 88.1777 103.875 88.1777 103.874C88.1777 103.873 88.1777 103.873 88.1777 103.872C88.1777 103.871 88.1777 103.87 88.1777 103.869C88.1777 103.868 88.1777 103.867 88.1777 103.867C88.1777 103.866 88.1777 103.865 88.1777 103.864C88.1777 103.863 88.1777 103.862 88.1777 103.861C88.1777 103.86 88.1777 103.86 88.1777 103.859C88.1777 103.858 88.1777 103.857 88.1777 103.856C88.1777 103.855 88.1777 103.854 88.1777 103.853C88.1777 103.853 88.1777 103.852 88.1777 103.851C88.1777 103.85 88.1777 103.849 88.1777 103.848C88.1777 103.847 88.1777 103.846 88.1777 103.846C88.1777 103.845 88.1777 103.844 88.1777 103.843C88.1777 103.842 88.1777 103.841 88.1777 103.84C88.1777 103.839 88.1777 103.839 88.1777 103.838C88.1777 103.837 88.1777 103.836 88.1777 103.835C88.1777 103.834 88.1777 103.833 88.1777 103.833C88.1777 103.832 88.1777 103.831 88.1777 103.83C88.1777 103.829 88.1777 103.828 88.1777 103.827C88.1777 103.826 88.1777 103.826 88.1777 103.825C88.1777 103.824 88.1777 103.823 88.1777 103.822C88.1777 103.821 88.1777 103.82 88.1777 103.819C88.1777 103.819 88.1777 103.818 88.1777 103.817C88.1777 103.816 88.1777 103.815 88.1777 103.814C88.1777 103.813 88.1777 103.812 88.1777 103.812C88.1777 103.811 88.1777 103.81 88.1777 103.809C88.1777 103.808 88.1777 103.807 88.1777 103.806C88.1777 103.805 88.1777 103.805 88.1777 103.804C88.1777 103.803 88.1777 103.802 88.1777 103.801C88.1777 103.8 88.1777 103.799 88.1777 103.798C88.1777 103.798 88.1777 103.797 88.1777 103.796C88.1777 103.795 88.1777 103.794 88.1777 103.793C88.1777 103.792 88.1777 103.791 88.1777 103.79C88.1777 103.79 88.1777 103.789 88.1777 103.788C88.1777 103.787 88.1777 103.786 88.1777 103.785C88.1777 103.784 88.1777 103.783 88.1777 103.783C88.1777 103.782 88.1777 103.781 88.1777 103.78C88.1777 103.779 88.1777 103.778 88.1777 103.777C88.1777 103.776 88.1777 103.776 88.1777 103.775C88.1777 103.774 88.1777 103.773 88.1777 103.772C88.1777 103.771 88.1777 103.77 88.1777 103.769C88.1777 103.769 88.1777 103.768 88.1777 103.767C88.1777 103.766 88.1777 103.765 88.1777 103.764C88.1777 103.763 88.1777 103.762 88.1777 103.761C88.1777 103.761 88.1777 103.76 88.1777 103.759C88.1777 103.758 88.1777 103.757 88.1777 103.756C88.1777 103.755 88.1777 103.754 88.1777 103.754C88.1777 103.753 88.1777 103.752 88.1777 103.751C88.1777 103.75 88.1777 103.749 88.1777 103.748C88.1777 103.747 88.1777 103.747 88.1777 103.746C88.1777 103.745 88.1777 103.744 88.1777 103.743C88.1777 103.742 88.1777 103.741 88.1777 103.74C88.1777 103.739 88.1777 103.739 88.1777 103.738C88.1777 103.737 88.1777 103.736 88.1777 103.735C88.1777 103.734 88.1777 103.733 88.1777 103.732C88.1777 103.732 88.1777 103.731 88.1777 103.73C88.1777 103.729 88.1777 103.728 88.1777 103.727C88.1777 103.726 88.1777 103.725 88.1777 103.724C88.1777 103.724 88.1777 103.723 88.1777 103.722C88.1777 103.721 88.1777 103.72 88.1777 103.719C88.1777 103.718 88.1777 103.717 88.1777 103.716C88.1777 103.716 88.1777 103.715 88.1777 103.714C88.1777 103.713 88.1777 103.712 88.1777 103.711C88.1777 103.71 88.1777 103.709 88.1777 103.709C88.1777 103.708 88.1777 103.707 88.1777 103.706C88.1777 103.705 88.1777 103.704 88.1777 103.703C88.1777 103.702 88.1777 103.701 88.1777 103.701C88.1777 103.7 88.1777 103.699 88.1777 103.698C88.1777 103.697 88.1777 103.696 88.1777 103.695C88.1777 103.694 88.1777 103.693 88.1777 103.693C88.1777 103.692 88.1777 103.691 88.1777 103.69C88.1777 103.689 88.1777 103.688 88.1777 103.687C88.1777 103.686 88.1777 103.685 88.1777 103.685C88.1777 103.684 88.1777 103.683 88.1777 103.682C88.1777 103.681 88.1777 103.68 88.1777 103.679C88.1777 103.678 88.1777 103.678 88.1777 103.677C88.1777 103.676 88.1777 103.675 88.1777 103.674C88.1777 103.673 88.1777 103.672 88.1777 103.671C88.1777 103.67 88.1777 103.67 88.1777 103.669C88.1777 103.668 88.1777 103.667 88.1777 103.666C88.1777 103.665 88.1777 103.664 88.1777 103.663C88.1777 103.662 88.1777 103.662 88.1777 103.661C88.1777 103.66 88.1777 103.659 88.1777 103.658C88.1777 103.657 88.1777 103.656 88.1777 103.655C88.1777 103.654 88.1777 103.653 88.1777 103.653C88.1777 103.652 88.1777 103.651 88.1777 103.65C88.1777 103.649 88.1777 103.648 88.1777 103.647C88.1777 103.646 88.1777 103.645 88.1777 103.645C88.1777 103.644 88.1777 103.643 88.1777 103.642C88.1777 103.641 88.1777 103.64 88.1777 103.639C88.1777 103.638 88.1777 103.637 88.1777 103.637C88.1777 103.636 88.1777 103.635 88.1777 103.634C88.1777 103.633 88.1777 103.632 88.1777 103.631C88.1777 103.63 88.1777 103.629 88.1777 103.629C88.1777 103.628 88.1777 103.627 88.1777 103.626C88.1777 103.625 88.1777 103.624 88.1777 103.623C88.1777 103.622 88.1777 103.621 88.1777 103.62C88.1777 103.62 88.1777 103.619 88.1777 103.618C88.1777 103.617 88.1777 103.616 88.1777 103.615C88.1777 103.614 88.1777 103.613 88.1777 103.612C88.1777 103.612 88.1777 103.611 88.1777 103.61C88.1777 103.609 88.1777 103.608 88.1777 103.607C88.1777 103.606 88.1777 103.605 88.1777 103.604C88.1777 103.604 88.1777 103.603 88.1777 103.602C88.1777 103.601 88.1777 103.6 88.1777 103.599C88.1777 103.598 88.1777 103.597 88.1777 103.596C88.1777 103.595 88.1777 103.595 88.1777 103.594C88.1777 103.593 88.1777 103.592 88.1777 103.591C88.1777 103.59 88.1777 103.589 88.1777 103.588C88.1777 103.587 88.1777 103.586 88.1777 103.586C88.1777 103.585 88.1777 103.584 88.1777 103.583C88.1777 103.582 88.1777 103.581 88.1777 103.58C88.1777 103.579 88.1777 103.578 88.1777 103.578C88.1777 103.577 88.1777 103.576 88.1777 103.575C88.1777 103.574 88.1777 103.573 88.1777 103.572C88.1777 103.571 88.1777 103.57 88.1777 103.569C88.1777 103.569 88.1777 103.568 88.1777 103.567C88.1777 103.566 88.1777 103.565 88.1777 103.564C88.1777 103.563 88.1777 103.562 88.1777 103.561C88.1777 103.56 88.1777 103.56 88.1777 103.559C88.1777 103.558 88.1777 103.557 88.1777 103.556C88.1777 103.555 88.1777 103.554 88.1777 103.553C88.1777 103.552 88.1777 103.551 88.1777 103.551C88.1777 103.55 88.1777 103.549 88.1777 103.548C88.1777 103.547 88.1777 103.546 88.1777 103.545C88.1777 103.544 88.1777 103.543 88.1777 103.542C88.1777 103.542 88.1777 103.541 88.1777 103.54C88.1777 103.539 88.1777 103.538 88.1777 103.537C88.1777 103.536 88.1777 103.535 88.1777 103.534C88.1777 103.533 88.1777 103.533 88.1777 103.532C88.1777 103.531 88.1777 103.53 88.1777 103.529C88.1777 103.528 88.1777 103.527 88.1777 103.526C88.1777 103.525 88.1777 103.524 88.1777 103.524C88.1777 103.523 88.1777 103.522 88.1777 103.521C88.1777 103.52 88.1777 103.519 88.1777 103.518C88.1777 103.517 88.1777 103.516 88.1777 103.515C88.1777 103.515 88.1777 103.514 88.1777 103.513C88.1777 103.512 88.1777 103.511 88.1777 103.51C88.1777 103.509 88.1777 103.508 88.1777 103.507C88.1777 103.506 88.1777 103.505 88.1777 103.505C88.1777 103.504 88.1777 103.503 88.1777 103.502C88.1777 103.501 88.1777 103.5 88.1777 103.499C88.1777 103.498 88.1777 103.497 88.1777 103.496C88.1777 103.496 88.1777 103.495 88.1777 103.494C88.1777 103.493 88.1777 103.492 88.1777 103.491C88.1777 103.49 88.1777 103.489 88.1777 103.488C88.1777 103.487 88.1777 103.486 88.1777 103.486C88.1777 103.485 88.1777 103.484 88.1777 103.483C88.1777 103.482 88.1777 103.481 88.1777 103.48C88.1777 103.479 88.1777 103.478 88.1777 103.477C88.1777 103.477 88.1777 103.476 88.1777 103.475C88.1777 103.474 88.1777 103.473 88.1777 103.472C88.1777 103.471 88.1777 103.47 88.1777 103.469C88.1777 103.468 88.1777 103.467 88.1777 103.467C88.1777 103.466 88.1777 103.465 88.1777 103.464C88.1777 103.463 88.1777 103.462 88.1777 103.461C88.1777 103.46 88.1777 103.459 88.1777 103.458C88.1777 103.457 88.1777 103.457 88.1777 103.456C88.1777 103.455 88.1777 103.454 88.1777 103.453C88.1777 103.452 88.1777 103.451 88.1777 103.45C88.1777 103.449 88.1777 103.448 88.1777 103.447C88.1777 103.447 88.1777 103.446 88.1777 103.445C88.1777 103.444 88.1777 103.443 88.1777 103.442C88.1777 103.441 88.1777 103.44 88.1777 103.439C88.1777 103.438 88.1777 103.437 88.1777 103.437C88.1777 103.436 88.1777 103.435 88.1777 103.434C88.1777 103.433 88.1777 103.432 88.1777 103.431C88.1777 103.43 88.1777 103.429 88.1777 103.428C88.1777 103.427 88.1777 103.427 88.1777 103.426C88.1777 103.425 88.1777 103.424 88.1777 103.423C88.1777 103.422 88.1777 103.421 88.1777 103.42C88.1777 103.419 88.1777 103.418 88.1777 103.417C88.1777 103.416 88.1777 103.416 88.1777 103.415C88.1777 103.414 88.1777 103.413 88.1777 103.412C88.1777 103.411 88.1777 103.41 88.1777 103.409C88.1777 103.408 88.1777 103.407 88.1777 103.406C88.1777 103.406 88.1777 103.405 88.1777 103.404C88.1777 103.403 88.1777 103.402 88.1777 103.401C88.1777 103.4 88.1777 103.399 88.1777 103.398C88.1777 103.397 88.1777 103.396 88.1777 103.395C88.1777 103.395 88.1777 103.394 88.1777 103.393C88.1777 103.392 88.1777 103.391 88.1777 103.39C88.1777 103.389 88.1777 103.388 88.1777 103.387C88.1777 103.386 88.1777 103.385 88.1777 103.385C88.1777 103.384 88.1777 103.383 88.1777 103.382C88.1777 103.381 88.1777 103.38 88.1777 103.379C88.1777 103.378 88.1777 103.377 88.1777 103.376C88.1777 103.375 88.1777 103.374 88.1777 103.374C88.1777 103.373 88.1777 103.372 88.1777 103.371C88.1777 103.37 88.1777 103.369 88.1777 103.368C88.1777 103.367 88.1777 103.366 88.1777 103.365C88.1777 103.364 88.1777 103.363 88.1777 103.363C88.1777 103.362 88.1777 103.361 88.1777 103.36C88.1777 103.359 88.1777 103.358 88.1777 103.357C88.1777 103.356 88.1777 103.355 88.1777 103.354C88.1777 103.353 88.1777 103.352 88.1777 103.352C88.1777 103.351 88.1777 103.35 88.1777 103.349C88.1777 103.348 88.1777 103.347 88.1777 103.346C88.1777 103.345 88.1777 103.344 88.1777 103.343C88.1777 103.342 88.1777 103.341 88.1777 103.341C88.1777 103.34 88.1777 103.339 88.1777 103.338C88.1777 103.337 88.1777 103.336 88.1777 103.335C88.1777 103.334 88.1777 103.333 88.1777 103.332C88.1777 103.331 88.1777 103.33 88.1777 103.329C88.1777 103.329 88.1777 103.328 88.1777 103.327C88.1777 103.326 88.1777 103.325 88.1777 103.324C88.1777 103.323 88.1777 103.322 88.1777 103.321C88.1777 103.32 88.1777 103.319 88.1777 103.318C88.1777 103.318 88.1777 103.317 88.1777 103.316C88.1777 103.315 88.1777 103.314 88.1777 103.313C88.1777 103.312 88.1777 103.311 88.1777 103.31C88.1777 103.309 88.1777 103.308 88.1777 103.307C88.1777 103.306 88.1777 103.306 88.1777 103.305C88.1777 103.304 88.1777 103.303 88.1777 103.302C88.1777 103.301 88.1777 103.3 88.1777 103.299C88.1777 103.298 88.1777 103.297 88.1777 103.296C88.1777 103.295 88.1777 103.294 88.1777 103.294C88.1777 103.293 88.1777 103.292 88.1777 103.291C88.1777 103.29 88.1777 103.289 88.1777 103.288C88.1777 103.287 88.1777 103.286 88.1777 103.285C88.1777 103.284 88.1777 103.283 88.1777 103.282C88.1777 103.282 88.1777 103.281 88.1777 103.28C88.1777 103.279 88.1777 103.278 88.1777 103.277C88.1777 103.276 88.1777 103.275 88.1777 103.274C88.1777 103.273 88.1777 103.272 88.1777 103.271C88.1777 103.27 88.1777 103.27 88.1777 103.269C88.1777 103.268 88.1777 103.267 88.1777 103.266C88.1777 103.265 88.1777 103.264 88.1777 103.263C88.1777 103.262 88.1777 103.261 88.1777 103.26C88.1777 103.259 88.1777 103.258 88.1777 103.257C88.1777 103.257 88.1777 103.256 88.1777 103.255C88.1777 103.254 88.1777 103.253 88.1777 103.252C88.1777 103.251 88.1777 103.25 88.1777 103.249C88.1777 103.248 88.1777 103.247 88.1777 103.246C88.1777 103.245 88.1777 103.244 88.1777 103.244C88.1777 103.243 88.1777 103.242 88.1777 103.241C88.1777 103.24 88.1777 103.239 88.1777 103.238C88.1777 103.237 88.1777 103.236 88.1777 103.235C88.1777 103.234 88.1777 103.233 88.1777 103.232C88.1777 103.232 88.1777 103.231 88.1777 103.23C88.1777 103.229 88.1777 103.228 88.1777 103.227C88.1777 103.226 88.1777 103.225 88.1777 103.224C88.1777 103.223 88.1777 103.222 88.1777 103.221C88.1777 103.22 88.1777 103.219 88.1777 103.218C88.1777 103.218 88.1777 103.217 88.1777 103.216C88.1777 103.215 88.1777 103.214 88.1777 103.213C88.1777 103.212 88.1777 103.211 88.1777 103.21C88.1777 103.209 88.1777 103.208 88.1777 103.207C88.1777 103.206 88.1777 103.205 88.1777 103.205C88.1777 103.204 88.1777 103.203 88.1777 103.202C88.1777 103.201 88.1777 103.2 88.1777 103.199C88.1777 103.198 88.1777 103.197 88.1777 103.196C88.1777 103.195 88.1777 103.194 88.1777 103.193C88.1777 103.192 88.1777 103.191 88.1777 103.191C88.1777 103.19 88.1777 103.189 88.1777 103.188C88.1777 103.187 88.1777 103.186 88.1777 103.185C88.1777 103.184 88.1777 103.183 88.1777 103.182C88.1777 103.181 88.1777 103.18 88.1777 103.179C88.1777 103.178 88.1777 103.177 88.1777 103.177C88.1777 103.176 88.1777 103.175 88.1777 103.174C88.1777 103.173 88.1777 103.172 88.1777 103.171C88.1777 103.17 88.1777 103.169 88.1777 103.168C88.1777 103.167 88.1777 103.166 88.1777 103.165C88.1777 103.164 88.1777 103.163 88.1777 103.163C88.1777 103.162 88.1777 103.161 88.1777 103.16C88.1777 103.159 88.1777 103.158 88.1777 103.157C88.1777 103.156 88.1777 103.155 88.1777 103.154C88.1777 103.153 88.1777 103.152 88.1777 103.151C88.1777 103.15 88.1777 103.149 88.1777 103.149C88.1777 103.148 88.1777 103.147 88.1777 103.146C88.1777 103.145 88.1777 103.144 88.1777 103.143C88.1777 103.142 88.1777 103.141 88.1777 103.14C88.1777 103.139 88.1777 103.138 88.1777 103.137C88.1777 103.136 88.1777 103.135 88.1777 103.134C88.1777 103.134 88.1777 103.133 88.1777 103.132C88.1777 103.131 88.1777 103.13 88.1777 103.129C88.1777 103.128 88.1777 103.127 88.1777 103.126C88.1777 103.125 88.1777 103.124 88.1777 103.123C88.1777 103.122 88.1777 103.121 88.1777 103.12C88.1777 103.119 88.1777 103.119 88.1777 103.118C88.1777 103.117 88.1777 103.116 88.1777 103.115C88.1777 103.114 88.1777 103.113 88.1777 103.112C88.1777 103.111 88.1777 103.11 88.1777 103.109C88.1777 103.108 88.1777 103.107 88.1777 103.106C88.1777 103.105 88.1777 103.104 88.1777 103.103C88.1777 103.103 88.1777 103.102 88.1777 103.101C88.1777 103.1 88.1777 103.099 88.1777 103.098C88.1777 103.097 88.1777 103.096 88.1777 103.095C88.1777 103.094 88.1777 103.093 88.1777 103.092C88.1777 103.091 88.1777 103.09 88.1777 103.089C88.1777 103.088 88.1777 103.088 88.1777 103.087C88.1777 103.086 88.1777 103.085 88.1777 103.084C88.1777 103.083 88.1777 103.082 88.1777 103.081C88.1777 103.08 88.1777 103.079 88.1777 103.078C88.1777 103.077 88.1777 103.076 88.1777 103.075C88.1777 103.074 88.1777 103.073 88.1777 103.072C88.1777 103.071 88.1777 103.071 88.1777 103.07C88.1777 103.069 88.1777 103.068 88.1777 103.067C88.1777 103.066 88.1777 103.065 88.1777 103.064C88.1777 103.063 88.1777 103.062 88.1777 103.061C88.1777 103.06 88.1777 103.059 88.1777 103.058C88.1777 103.057 88.1777 103.056 88.1777 103.055C88.1777 103.055 88.1777 103.054 88.1777 103.053C88.1777 103.052 88.1777 103.051 88.1777 103.05C88.1777 103.049 88.1777 103.048 88.1777 103.047C88.1777 103.046 88.1777 103.045 88.1777 103.044C88.1777 103.043 88.1777 103.042 88.1777 103.041C88.1777 103.04 88.1777 103.039 88.1777 103.038C88.1777 103.037 88.1777 103.037 88.1777 103.036C88.1777 103.035 88.1777 103.034 88.1777 103.033C88.1777 103.032 88.1777 103.031 88.1777 103.03C88.1777 103.029 88.1777 103.028 88.1777 103.027C88.1777 103.026 88.1777 103.025 88.1777 103.024C88.1777 103.023 88.1777 103.022 88.1777 103.021C88.1777 103.02 88.1777 103.02 88.1777 103.019C88.1777 103.018 88.1777 103.017 88.1777 103.016C88.1777 103.015 88.1777 103.014 88.1777 103.013C88.1777 103.012 88.1777 103.011 88.1777 103.01C88.1777 103.009 88.1777 103.008 88.1777 103.007C88.1777 103.006 88.1777 103.005 88.1777 103.004C88.1777 103.003 88.1777 103.002 88.1777 103.001C88.1777 103.001 88.1777 103 88.1777 102.999C88.1777 102.998 88.1777 102.997 88.1777 102.996C88.1777 102.995 88.1777 102.994 88.1777 102.993C88.1777 102.992 88.1777 102.991 88.1777 102.99C88.1777 102.989 88.1777 102.988 88.1777 102.987C88.1777 102.986 88.1777 102.985 88.1777 102.984C88.1777 102.983 88.1777 102.982 88.1777 102.982C88.1777 102.981 88.1777 102.98 88.1777 102.979C88.1777 102.978 88.1777 102.977 88.1777 102.976C88.1777 102.975 88.1777 102.974 88.1777 102.973C88.1777 102.972 88.1777 102.971 88.1777 102.97C88.1777 102.969 88.1777 102.968 88.1777 102.967C88.1777 102.966 88.1777 102.965 88.1777 102.964C88.1777 102.963 88.1777 102.963 88.1777 102.962C88.1777 102.961 88.1777 102.96 88.1777 102.959C88.1777 102.958 88.1777 102.957 88.1777 102.956C88.1777 102.955 88.1777 102.954 88.1777 102.953C88.1777 102.952 88.1777 102.951 88.1777 102.95C88.1777 102.949 88.1777 102.948 88.1777 102.947H86.1777C86.1777 102.948 86.1777 102.949 86.1777 102.95C86.1777 102.951 86.1777 102.952 86.1777 102.953C86.1777 102.954 86.1777 102.955 86.1777 102.956C86.1777 102.957 86.1777 102.958 86.1777 102.959C86.1777 102.96 86.1777 102.961 86.1777 102.962C86.1777 102.963 86.1777 102.963 86.1777 102.964C86.1777 102.965 86.1777 102.966 86.1777 102.967C86.1777 102.968 86.1777 102.969 86.1777 102.97C86.1777 102.971 86.1777 102.972 86.1777 102.973C86.1777 102.974 86.1777 102.975 86.1777 102.976C86.1777 102.977 86.1777 102.978 86.1777 102.979C86.1777 102.98 86.1777 102.981 86.1777 102.982C86.1777 102.982 86.1777 102.983 86.1777 102.984C86.1777 102.985 86.1777 102.986 86.1777 102.987C86.1777 102.988 86.1777 102.989 86.1777 102.99C86.1777 102.991 86.1777 102.992 86.1777 102.993C86.1777 102.994 86.1777 102.995 86.1777 102.996C86.1777 102.997 86.1777 102.998 86.1777 102.999C86.1777 103 86.1777 103.001 86.1777 103.001C86.1777 103.002 86.1777 103.003 86.1777 103.004C86.1777 103.005 86.1777 103.006 86.1777 103.007C86.1777 103.008 86.1777 103.009 86.1777 103.01C86.1777 103.011 86.1777 103.012 86.1777 103.013C86.1777 103.014 86.1777 103.015 86.1777 103.016C86.1777 103.017 86.1777 103.018 86.1777 103.019C86.1777 103.02 86.1777 103.02 86.1777 103.021C86.1777 103.022 86.1777 103.023 86.1777 103.024C86.1777 103.025 86.1777 103.026 86.1777 103.027C86.1777 103.028 86.1777 103.029 86.1777 103.03C86.1777 103.031 86.1777 103.032 86.1777 103.033C86.1777 103.034 86.1777 103.035 86.1777 103.036C86.1777 103.037 86.1777 103.037 86.1777 103.038C86.1777 103.039 86.1777 103.04 86.1777 103.041C86.1777 103.042 86.1777 103.043 86.1777 103.044C86.1777 103.045 86.1777 103.046 86.1777 103.047C86.1777 103.048 86.1777 103.049 86.1777 103.05C86.1777 103.051 86.1777 103.052 86.1777 103.053C86.1777 103.054 86.1777 103.055 86.1777 103.055C86.1777 103.056 86.1777 103.057 86.1777 103.058C86.1777 103.059 86.1777 103.06 86.1777 103.061C86.1777 103.062 86.1777 103.063 86.1777 103.064C86.1777 103.065 86.1777 103.066 86.1777 103.067C86.1777 103.068 86.1777 103.069 86.1777 103.07C86.1777 103.071 86.1777 103.071 86.1777 103.072C86.1777 103.073 86.1777 103.074 86.1777 103.075C86.1777 103.076 86.1777 103.077 86.1777 103.078C86.1777 103.079 86.1777 103.08 86.1777 103.081C86.1777 103.082 86.1777 103.083 86.1777 103.084C86.1777 103.085 86.1777 103.086 86.1777 103.087C86.1777 103.088 86.1777 103.088 86.1777 103.089C86.1777 103.09 86.1777 103.091 86.1777 103.092C86.1777 103.093 86.1777 103.094 86.1777 103.095C86.1777 103.096 86.1777 103.097 86.1777 103.098C86.1777 103.099 86.1777 103.1 86.1777 103.101C86.1777 103.102 86.1777 103.103 86.1777 103.103C86.1777 103.104 86.1777 103.105 86.1777 103.106C86.1777 103.107 86.1777 103.108 86.1777 103.109C86.1777 103.11 86.1777 103.111 86.1777 103.112C86.1777 103.113 86.1777 103.114 86.1777 103.115C86.1777 103.116 86.1777 103.117 86.1777 103.118C86.1777 103.119 86.1777 103.119 86.1777 103.12C86.1777 103.121 86.1777 103.122 86.1777 103.123C86.1777 103.124 86.1777 103.125 86.1777 103.126C86.1777 103.127 86.1777 103.128 86.1777 103.129C86.1777 103.13 86.1777 103.131 86.1777 103.132C86.1777 103.133 86.1777 103.134 86.1777 103.134C86.1777 103.135 86.1777 103.136 86.1777 103.137C86.1777 103.138 86.1777 103.139 86.1777 103.14C86.1777 103.141 86.1777 103.142 86.1777 103.143C86.1777 103.144 86.1777 103.145 86.1777 103.146C86.1777 103.147 86.1777 103.148 86.1777 103.149C86.1777 103.149 86.1777 103.15 86.1777 103.151C86.1777 103.152 86.1777 103.153 86.1777 103.154C86.1777 103.155 86.1777 103.156 86.1777 103.157C86.1777 103.158 86.1777 103.159 86.1777 103.16C86.1777 103.161 86.1777 103.162 86.1777 103.163C86.1777 103.163 86.1777 103.164 86.1777 103.165C86.1777 103.166 86.1777 103.167 86.1777 103.168C86.1777 103.169 86.1777 103.17 86.1777 103.171C86.1777 103.172 86.1777 103.173 86.1777 103.174C86.1777 103.175 86.1777 103.176 86.1777 103.177C86.1777 103.177 86.1777 103.178 86.1777 103.179C86.1777 103.18 86.1777 103.181 86.1777 103.182C86.1777 103.183 86.1777 103.184 86.1777 103.185C86.1777 103.186 86.1777 103.187 86.1777 103.188C86.1777 103.189 86.1777 103.19 86.1777 103.191C86.1777 103.191 86.1777 103.192 86.1777 103.193C86.1777 103.194 86.1777 103.195 86.1777 103.196C86.1777 103.197 86.1777 103.198 86.1777 103.199C86.1777 103.2 86.1777 103.201 86.1777 103.202C86.1777 103.203 86.1777 103.204 86.1777 103.205C86.1777 103.205 86.1777 103.206 86.1777 103.207C86.1777 103.208 86.1777 103.209 86.1777 103.21C86.1777 103.211 86.1777 103.212 86.1777 103.213C86.1777 103.214 86.1777 103.215 86.1777 103.216C86.1777 103.217 86.1777 103.218 86.1777 103.218C86.1777 103.219 86.1777 103.22 86.1777 103.221C86.1777 103.222 86.1777 103.223 86.1777 103.224C86.1777 103.225 86.1777 103.226 86.1777 103.227C86.1777 103.228 86.1777 103.229 86.1777 103.23C86.1777 103.231 86.1777 103.232 86.1777 103.232C86.1777 103.233 86.1777 103.234 86.1777 103.235C86.1777 103.236 86.1777 103.237 86.1777 103.238C86.1777 103.239 86.1777 103.24 86.1777 103.241C86.1777 103.242 86.1777 103.243 86.1777 103.244C86.1777 103.244 86.1777 103.245 86.1777 103.246C86.1777 103.247 86.1777 103.248 86.1777 103.249C86.1777 103.25 86.1777 103.251 86.1777 103.252C86.1777 103.253 86.1777 103.254 86.1777 103.255C86.1777 103.256 86.1777 103.257 86.1777 103.257C86.1777 103.258 86.1777 103.259 86.1777 103.26C86.1777 103.261 86.1777 103.262 86.1777 103.263C86.1777 103.264 86.1777 103.265 86.1777 103.266C86.1777 103.267 86.1777 103.268 86.1777 103.269C86.1777 103.27 86.1777 103.27 86.1777 103.271C86.1777 103.272 86.1777 103.273 86.1777 103.274C86.1777 103.275 86.1777 103.276 86.1777 103.277C86.1777 103.278 86.1777 103.279 86.1777 103.28C86.1777 103.281 86.1777 103.282 86.1777 103.282C86.1777 103.283 86.1777 103.284 86.1777 103.285C86.1777 103.286 86.1777 103.287 86.1777 103.288C86.1777 103.289 86.1777 103.29 86.1777 103.291C86.1777 103.292 86.1777 103.293 86.1777 103.294C86.1777 103.294 86.1777 103.295 86.1777 103.296C86.1777 103.297 86.1777 103.298 86.1777 103.299C86.1777 103.3 86.1777 103.301 86.1777 103.302C86.1777 103.303 86.1777 103.304 86.1777 103.305C86.1777 103.306 86.1777 103.306 86.1777 103.307C86.1777 103.308 86.1777 103.309 86.1777 103.31C86.1777 103.311 86.1777 103.312 86.1777 103.313C86.1777 103.314 86.1777 103.315 86.1777 103.316C86.1777 103.317 86.1777 103.318 86.1777 103.318C86.1777 103.319 86.1777 103.32 86.1777 103.321C86.1777 103.322 86.1777 103.323 86.1777 103.324C86.1777 103.325 86.1777 103.326 86.1777 103.327C86.1777 103.328 86.1777 103.329 86.1777 103.329C86.1777 103.33 86.1777 103.331 86.1777 103.332C86.1777 103.333 86.1777 103.334 86.1777 103.335C86.1777 103.336 86.1777 103.337 86.1777 103.338C86.1777 103.339 86.1777 103.34 86.1777 103.341C86.1777 103.341 86.1777 103.342 86.1777 103.343C86.1777 103.344 86.1777 103.345 86.1777 103.346C86.1777 103.347 86.1777 103.348 86.1777 103.349C86.1777 103.35 86.1777 103.351 86.1777 103.352C86.1777 103.352 86.1777 103.353 86.1777 103.354C86.1777 103.355 86.1777 103.356 86.1777 103.357C86.1777 103.358 86.1777 103.359 86.1777 103.36C86.1777 103.361 86.1777 103.362 86.1777 103.363C86.1777 103.363 86.1777 103.364 86.1777 103.365C86.1777 103.366 86.1777 103.367 86.1777 103.368C86.1777 103.369 86.1777 103.37 86.1777 103.371C86.1777 103.372 86.1777 103.373 86.1777 103.374C86.1777 103.374 86.1777 103.375 86.1777 103.376C86.1777 103.377 86.1777 103.378 86.1777 103.379C86.1777 103.38 86.1777 103.381 86.1777 103.382C86.1777 103.383 86.1777 103.384 86.1777 103.385C86.1777 103.385 86.1777 103.386 86.1777 103.387C86.1777 103.388 86.1777 103.389 86.1777 103.39C86.1777 103.391 86.1777 103.392 86.1777 103.393C86.1777 103.394 86.1777 103.395 86.1777 103.395C86.1777 103.396 86.1777 103.397 86.1777 103.398C86.1777 103.399 86.1777 103.4 86.1777 103.401C86.1777 103.402 86.1777 103.403 86.1777 103.404C86.1777 103.405 86.1777 103.406 86.1777 103.406C86.1777 103.407 86.1777 103.408 86.1777 103.409C86.1777 103.41 86.1777 103.411 86.1777 103.412C86.1777 103.413 86.1777 103.414 86.1777 103.415C86.1777 103.416 86.1777 103.416 86.1777 103.417C86.1777 103.418 86.1777 103.419 86.1777 103.42C86.1777 103.421 86.1777 103.422 86.1777 103.423C86.1777 103.424 86.1777 103.425 86.1777 103.426C86.1777 103.427 86.1777 103.427 86.1777 103.428C86.1777 103.429 86.1777 103.43 86.1777 103.431C86.1777 103.432 86.1777 103.433 86.1777 103.434C86.1777 103.435 86.1777 103.436 86.1777 103.437C86.1777 103.437 86.1777 103.438 86.1777 103.439C86.1777 103.44 86.1777 103.441 86.1777 103.442C86.1777 103.443 86.1777 103.444 86.1777 103.445C86.1777 103.446 86.1777 103.447 86.1777 103.447C86.1777 103.448 86.1777 103.449 86.1777 103.45C86.1777 103.451 86.1777 103.452 86.1777 103.453C86.1777 103.454 86.1777 103.455 86.1777 103.456C86.1777 103.457 86.1777 103.457 86.1777 103.458C86.1777 103.459 86.1777 103.46 86.1777 103.461C86.1777 103.462 86.1777 103.463 86.1777 103.464C86.1777 103.465 86.1777 103.466 86.1777 103.467C86.1777 103.467 86.1777 103.468 86.1777 103.469C86.1777 103.47 86.1777 103.471 86.1777 103.472C86.1777 103.473 86.1777 103.474 86.1777 103.475C86.1777 103.476 86.1777 103.477 86.1777 103.477C86.1777 103.478 86.1777 103.479 86.1777 103.48C86.1777 103.481 86.1777 103.482 86.1777 103.483C86.1777 103.484 86.1777 103.485 86.1777 103.486C86.1777 103.486 86.1777 103.487 86.1777 103.488C86.1777 103.489 86.1777 103.49 86.1777 103.491C86.1777 103.492 86.1777 103.493 86.1777 103.494C86.1777 103.495 86.1777 103.496 86.1777 103.496C86.1777 103.497 86.1777 103.498 86.1777 103.499C86.1777 103.5 86.1777 103.501 86.1777 103.502C86.1777 103.503 86.1777 103.504 86.1777 103.505C86.1777 103.505 86.1777 103.506 86.1777 103.507C86.1777 103.508 86.1777 103.509 86.1777 103.51C86.1777 103.511 86.1777 103.512 86.1777 103.513C86.1777 103.514 86.1777 103.515 86.1777 103.515C86.1777 103.516 86.1777 103.517 86.1777 103.518C86.1777 103.519 86.1777 103.52 86.1777 103.521C86.1777 103.522 86.1777 103.523 86.1777 103.524C86.1777 103.524 86.1777 103.525 86.1777 103.526C86.1777 103.527 86.1777 103.528 86.1777 103.529C86.1777 103.53 86.1777 103.531 86.1777 103.532C86.1777 103.533 86.1777 103.533 86.1777 103.534C86.1777 103.535 86.1777 103.536 86.1777 103.537C86.1777 103.538 86.1777 103.539 86.1777 103.54C86.1777 103.541 86.1777 103.542 86.1777 103.542C86.1777 103.543 86.1777 103.544 86.1777 103.545C86.1777 103.546 86.1777 103.547 86.1777 103.548C86.1777 103.549 86.1777 103.55 86.1777 103.551C86.1777 103.551 86.1777 103.552 86.1777 103.553C86.1777 103.554 86.1777 103.555 86.1777 103.556C86.1777 103.557 86.1777 103.558 86.1777 103.559C86.1777 103.56 86.1777 103.56 86.1777 103.561C86.1777 103.562 86.1777 103.563 86.1777 103.564C86.1777 103.565 86.1777 103.566 86.1777 103.567C86.1777 103.568 86.1777 103.569 86.1777 103.569C86.1777 103.57 86.1777 103.571 86.1777 103.572C86.1777 103.573 86.1777 103.574 86.1777 103.575C86.1777 103.576 86.1777 103.577 86.1777 103.578C86.1777 103.578 86.1777 103.579 86.1777 103.58C86.1777 103.581 86.1777 103.582 86.1777 103.583C86.1777 103.584 86.1777 103.585 86.1777 103.586C86.1777 103.586 86.1777 103.587 86.1777 103.588C86.1777 103.589 86.1777 103.59 86.1777 103.591C86.1777 103.592 86.1777 103.593 86.1777 103.594C86.1777 103.595 86.1777 103.595 86.1777 103.596C86.1777 103.597 86.1777 103.598 86.1777 103.599C86.1777 103.6 86.1777 103.601 86.1777 103.602C86.1777 103.603 86.1777 103.604 86.1777 103.604C86.1777 103.605 86.1777 103.606 86.1777 103.607C86.1777 103.608 86.1777 103.609 86.1777 103.61C86.1777 103.611 86.1777 103.612 86.1777 103.612C86.1777 103.613 86.1777 103.614 86.1777 103.615C86.1777 103.616 86.1777 103.617 86.1777 103.618C86.1777 103.619 86.1777 103.62 86.1777 103.62C86.1777 103.621 86.1777 103.622 86.1777 103.623C86.1777 103.624 86.1777 103.625 86.1777 103.626C86.1777 103.627 86.1777 103.628 86.1777 103.629C86.1777 103.629 86.1777 103.63 86.1777 103.631C86.1777 103.632 86.1777 103.633 86.1777 103.634C86.1777 103.635 86.1777 103.636 86.1777 103.637C86.1777 103.637 86.1777 103.638 86.1777 103.639C86.1777 103.64 86.1777 103.641 86.1777 103.642C86.1777 103.643 86.1777 103.644 86.1777 103.645C86.1777 103.645 86.1777 103.646 86.1777 103.647C86.1777 103.648 86.1777 103.649 86.1777 103.65C86.1777 103.651 86.1777 103.652 86.1777 103.653C86.1777 103.653 86.1777 103.654 86.1777 103.655C86.1777 103.656 86.1777 103.657 86.1777 103.658C86.1777 103.659 86.1777 103.66 86.1777 103.661C86.1777 103.662 86.1777 103.662 86.1777 103.663C86.1777 103.664 86.1777 103.665 86.1777 103.666C86.1777 103.667 86.1777 103.668 86.1777 103.669C86.1777 103.67 86.1777 103.67 86.1777 103.671C86.1777 103.672 86.1777 103.673 86.1777 103.674C86.1777 103.675 86.1777 103.676 86.1777 103.677C86.1777 103.678 86.1777 103.678 86.1777 103.679C86.1777 103.68 86.1777 103.681 86.1777 103.682C86.1777 103.683 86.1777 103.684 86.1777 103.685C86.1777 103.685 86.1777 103.686 86.1777 103.687C86.1777 103.688 86.1777 103.689 86.1777 103.69C86.1777 103.691 86.1777 103.692 86.1777 103.693C86.1777 103.693 86.1777 103.694 86.1777 103.695C86.1777 103.696 86.1777 103.697 86.1777 103.698C86.1777 103.699 86.1777 103.7 86.1777 103.701C86.1777 103.701 86.1777 103.702 86.1777 103.703C86.1777 103.704 86.1777 103.705 86.1777 103.706C86.1777 103.707 86.1777 103.708 86.1777 103.709C86.1777 103.709 86.1777 103.71 86.1777 103.711C86.1777 103.712 86.1777 103.713 86.1777 103.714C86.1777 103.715 86.1777 103.716 86.1777 103.716C86.1777 103.717 86.1777 103.718 86.1777 103.719C86.1777 103.72 86.1777 103.721 86.1777 103.722C86.1777 103.723 86.1777 103.724 86.1777 103.724C86.1777 103.725 86.1777 103.726 86.1777 103.727C86.1777 103.728 86.1777 103.729 86.1777 103.73C86.1777 103.731 86.1777 103.732 86.1777 103.732C86.1777 103.733 86.1777 103.734 86.1777 103.735C86.1777 103.736 86.1777 103.737 86.1777 103.738C86.1777 103.739 86.1777 103.739 86.1777 103.74C86.1777 103.741 86.1777 103.742 86.1777 103.743C86.1777 103.744 86.1777 103.745 86.1777 103.746C86.1777 103.747 86.1777 103.747 86.1777 103.748C86.1777 103.749 86.1777 103.75 86.1777 103.751C86.1777 103.752 86.1777 103.753 86.1777 103.754C86.1777 103.754 86.1777 103.755 86.1777 103.756C86.1777 103.757 86.1777 103.758 86.1777 103.759C86.1777 103.76 86.1777 103.761 86.1777 103.761C86.1777 103.762 86.1777 103.763 86.1777 103.764C86.1777 103.765 86.1777 103.766 86.1777 103.767C86.1777 103.768 86.1777 103.769 86.1777 103.769C86.1777 103.77 86.1777 103.771 86.1777 103.772C86.1777 103.773 86.1777 103.774 86.1777 103.775C86.1777 103.776 86.1777 103.776 86.1777 103.777C86.1777 103.778 86.1777 103.779 86.1777 103.78C86.1777 103.781 86.1777 103.782 86.1777 103.783C86.1777 103.783 86.1777 103.784 86.1777 103.785C86.1777 103.786 86.1777 103.787 86.1777 103.788C86.1777 103.789 86.1777 103.79 86.1777 103.79C86.1777 103.791 86.1777 103.792 86.1777 103.793C86.1777 103.794 86.1777 103.795 86.1777 103.796C86.1777 103.797 86.1777 103.798 86.1777 103.798C86.1777 103.799 86.1777 103.8 86.1777 103.801C86.1777 103.802 86.1777 103.803 86.1777 103.804C86.1777 103.805 86.1777 103.805 86.1777 103.806C86.1777 103.807 86.1777 103.808 86.1777 103.809C86.1777 103.81 86.1777 103.811 86.1777 103.812C86.1777 103.812 86.1777 103.813 86.1777 103.814C86.1777 103.815 86.1777 103.816 86.1777 103.817C86.1777 103.818 86.1777 103.819 86.1777 103.819C86.1777 103.82 86.1777 103.821 86.1777 103.822C86.1777 103.823 86.1777 103.824 86.1777 103.825C86.1777 103.826 86.1777 103.826 86.1777 103.827C86.1777 103.828 86.1777 103.829 86.1777 103.83C86.1777 103.831 86.1777 103.832 86.1777 103.833C86.1777 103.833 86.1777 103.834 86.1777 103.835C86.1777 103.836 86.1777 103.837 86.1777 103.838C86.1777 103.839 86.1777 103.839 86.1777 103.84C86.1777 103.841 86.1777 103.842 86.1777 103.843C86.1777 103.844 86.1777 103.845 86.1777 103.846C86.1777 103.846 86.1777 103.847 86.1777 103.848C86.1777 103.849 86.1777 103.85 86.1777 103.851C86.1777 103.852 86.1777 103.853 86.1777 103.853C86.1777 103.854 86.1777 103.855 86.1777 103.856C86.1777 103.857 86.1777 103.858 86.1777 103.859C86.1777 103.86 86.1777 103.86 86.1777 103.861C86.1777 103.862 86.1777 103.863 86.1777 103.864C86.1777 103.865 86.1777 103.866 86.1777 103.867C86.1777 103.867 86.1777 103.868 86.1777 103.869C86.1777 103.87 86.1777 103.871 86.1777 103.872C86.1777 103.873 86.1777 103.873 86.1777 103.874C86.1777 103.875 86.1777 103.876 86.1777 103.877C86.1777 103.878 86.1777 103.879 86.1777 103.88C86.1777 103.88 86.1777 103.881 86.1777 103.882C86.1777 103.883 86.1777 103.884 86.1777 103.885C86.1777 103.886 86.1777 103.887 86.1777 103.887C86.1777 103.888 86.1777 103.889 86.1777 103.89C86.1777 103.891 86.1777 103.892 86.1777 103.893C86.1777 103.893 86.1777 103.894 86.1777 103.895C86.1777 103.896 86.1777 103.897 86.1777 103.898C86.1777 103.899 86.1777 103.9 86.1777 103.9C86.1777 103.901 86.1777 103.902 86.1777 103.903C86.1777 103.904 86.1777 103.905 86.1777 103.906C86.1777 103.906 86.1777 103.907 86.1777 103.908C86.1777 103.909 86.1777 103.91 86.1777 103.911C86.1777 103.912 86.1777 103.913 86.1777 103.913C86.1777 103.914 86.1777 103.915 86.1777 103.916C86.1777 103.917 86.1777 103.918 86.1777 103.919C86.1777 103.919 86.1777 103.92 86.1777 103.921C86.1777 103.922 86.1777 103.923 86.1777 103.924C86.1777 103.925 86.1777 103.925 86.1777 103.926C86.1777 103.927 86.1777 103.928 86.1777 103.929C86.1777 103.93 86.1777 103.931 86.1777 103.932C86.1777 103.932 86.1777 103.933 86.1777 103.934C86.1777 103.935 86.1777 103.936 86.1777 103.937C86.1777 103.938 86.1777 103.938 86.1777 103.939C86.1777 103.94 86.1777 103.941 86.1777 103.942C86.1777 103.943 86.1777 103.944 86.1777 103.944C86.1777 103.945 86.1777 103.946 86.1777 103.947C86.1777 103.948 86.1777 103.949 86.1777 103.95C86.1777 103.951 86.1777 103.951 86.1777 103.952C86.1777 103.953 86.1777 103.954 86.1777 103.955C86.1777 103.956 86.1777 103.957 86.1777 103.957C86.1777 103.958 86.1777 103.959 86.1777 103.96C86.1777 103.961 86.1777 103.962 86.1777 103.963C86.1777 103.963 86.1777 103.964 86.1777 103.965C86.1777 103.966 86.1777 103.967 86.1777 103.968C86.1777 103.969 86.1777 103.969 86.1777 103.97C86.1777 103.971 86.1777 103.972 86.1777 103.973C86.1777 103.974 86.1777 103.975 86.1777 103.976C86.1777 103.976 86.1777 103.977 86.1777 103.978C86.1777 103.979 86.1777 103.98 86.1777 103.981C86.1777 103.982 86.1777 103.982 86.1777 103.983C86.1777 103.984 86.1777 103.985 86.1777 103.986C86.1777 103.987 86.1777 103.988 86.1777 103.988C86.1777 103.989 86.1777 103.99 86.1777 103.991C86.1777 103.992 86.1777 103.993 86.1777 103.994C86.1777 103.994 86.1777 103.995 86.1777 103.996C86.1777 103.997 86.1777 103.998 86.1777 103.999C86.1777 104 86.1777 104 86.1777 104.001C86.1777 104.002 86.1777 104.003 86.1777 104.004C86.1777 104.005 86.1777 104.006 86.1777 104.006C86.1777 104.007 86.1777 104.008 86.1777 104.009C86.1777 104.01 86.1777 104.011 86.1777 104.012C86.1777 104.012 86.1777 104.013 86.1777 104.014C86.1777 104.015 86.1777 104.016 86.1777 104.017C86.1777 104.018 86.1777 104.018 86.1777 104.019C86.1777 104.02 86.1777 104.021 86.1777 104.022C86.1777 104.023 86.1777 104.024 86.1777 104.024C86.1777 104.025 86.1777 104.026 86.1777 104.027C86.1777 104.028 86.1777 104.029 86.1777 104.03C86.1777 104.03 86.1777 104.031 86.1777 104.032C86.1777 104.033 86.1777 104.034 86.1777 104.035C86.1777 104.035 86.1777 104.036 86.1777 104.037C86.1777 104.038 86.1777 104.039 86.1777 104.04C86.1777 104.041 86.1777 104.041 86.1777 104.042C86.1777 104.043 86.1777 104.044 86.1777 104.045C86.1777 104.046 86.1777 104.047 86.1777 104.047C86.1777 104.048 86.1777 104.049 86.1777 104.05C86.1777 104.051 86.1777 104.052 86.1777 104.053C86.1777 104.053 86.1777 104.054 86.1777 104.055C86.1777 104.056 86.1777 104.057 86.1777 104.058C86.1777 104.059 86.1777 104.059 86.1777 104.06C86.1777 104.061 86.1777 104.062 86.1777 104.063C86.1777 104.064 86.1777 104.064 86.1777 104.065C86.1777 104.066 86.1777 104.067 86.1777 104.068C86.1777 104.069 86.1777 104.07 86.1777 104.07C86.1777 104.071 86.1777 104.072 86.1777 104.073C86.1777 104.074 86.1777 104.075 86.1777 104.076C86.1777 104.076 86.1777 104.077 86.1777 104.078C86.1777 104.079 86.1777 104.08 86.1777 104.081C86.1777 104.081 86.1777 104.082 86.1777 104.083C86.1777 104.084 86.1777 104.085 86.1777 104.086C86.1777 104.087 86.1777 104.087 86.1777 104.088C86.1777 104.089 86.1777 104.09 86.1777 104.091C86.1777 104.092 86.1777 104.093 86.1777 104.093C86.1777 104.094 86.1777 104.095 86.1777 104.096C86.1777 104.097 86.1777 104.098 86.1777 104.098C86.1777 104.099 86.1777 104.1 86.1777 104.101C86.1777 104.102 86.1777 104.103 86.1777 104.104C86.1777 104.104 86.1777 104.105 86.1777 104.106C86.1777 104.107 86.1777 104.108 86.1777 104.109C86.1777 104.109 86.1777 104.11 86.1777 104.111C86.1777 104.112 86.1777 104.113 86.1777 104.114C86.1777 104.115 86.1777 104.115 86.1777 104.116C86.1777 104.117 86.1777 104.118 86.1777 104.119C86.1777 104.12 86.1777 104.12 86.1777 104.121C86.1777 104.122 86.1777 104.123 86.1777 104.124C86.1777 104.125 86.1777 104.126 86.1777 104.126C86.1777 104.127 86.1777 104.128 86.1777 104.129C86.1777 104.13 86.1777 104.131 86.1777 104.131C86.1777 104.132 86.1777 104.133 86.1777 104.134C86.1777 104.135 86.1777 104.136 86.1777 104.137C86.1777 104.137 86.1777 104.138 86.1777 104.139C86.1777 104.14 86.1777 104.141 86.1777 104.142C86.1777 104.142 86.1777 104.143 86.1777 104.144C86.1777 104.145 86.1777 104.146 86.1777 104.147C86.1777 104.147 86.1777 104.148 86.1777 104.149C86.1777 104.15 86.1777 104.151 86.1777 104.152C86.1777 104.153 86.1777 104.153 86.1777 104.154C86.1777 104.155 86.1777 104.156 86.1777 104.157C86.1777 104.158 86.1777 104.158 86.1777 104.159C86.1777 104.16 86.1777 104.161 86.1777 104.162C86.1777 104.163 86.1777 104.163 86.1777 104.164C86.1777 104.165 86.1777 104.166 86.1777 104.167C86.1777 104.168 86.1777 104.169 86.1777 104.169C86.1777 104.17 86.1777 104.171 86.1777 104.172C86.1777 104.173 86.1777 104.174 86.1777 104.174C86.1777 104.175 86.1777 104.176 86.1777 104.177C86.1777 104.178 86.1777 104.179 86.1777 104.179C86.1777 104.18 86.1777 104.181 86.1777 104.182C86.1777 104.183 86.1777 104.184 86.1777 104.185C86.1777 104.185 86.1777 104.186 86.1777 104.187C86.1777 104.188 86.1777 104.189 86.1777 104.19C86.1777 104.19 86.1777 104.191 86.1777 104.192C86.1777 104.193 86.1777 104.194 86.1777 104.195C86.1777 104.195 86.1777 104.196 86.1777 104.197C86.1777 104.198 86.1777 104.199 86.1777 104.2C86.1777 104.2 86.1777 104.201 86.1777 104.202C86.1777 104.203 86.1777 104.204 86.1777 104.205C86.1777 104.205 86.1777 104.206 86.1777 104.207C86.1777 104.208 86.1777 104.209 86.1777 104.21C86.1777 104.21 86.1777 104.211 86.1777 104.212C86.1777 104.213 86.1777 104.214 86.1777 104.215C86.1777 104.216 86.1777 104.216 86.1777 104.217C86.1777 104.218 86.1777 104.219 86.1777 104.22C86.1777 104.221 86.1777 104.221 86.1777 104.222C86.1777 104.223 86.1777 104.224 86.1777 104.225C86.1777 104.226 86.1777 104.226 86.1777 104.227C86.1777 104.228 86.1777 104.229 86.1777 104.23C86.1777 104.231 86.1777 104.231 86.1777 104.232C86.1777 104.233 86.1777 104.234 86.1777 104.235C86.1777 104.236 86.1777 104.236 86.1777 104.237C86.1777 104.238 86.1777 104.239 86.1777 104.24C86.1777 104.241 86.1777 104.241 86.1777 104.242C86.1777 104.243 86.1777 104.244 86.1777 104.245C86.1777 104.246 86.1777 104.246 86.1777 104.247C86.1777 104.248 86.1777 104.249 86.1777 104.25C86.1777 104.251 86.1777 104.251 86.1777 104.252C86.1777 104.253 86.1777 104.254 86.1777 104.255C86.1777 104.256 86.1777 104.256 86.1777 104.257C86.1777 104.258 86.1777 104.259 86.1777 104.26C86.1777 104.261 86.1777 104.261 86.1777 104.262C86.1777 104.263 86.1777 104.264 86.1777 104.265C86.1777 104.266 86.1777 104.266 86.1777 104.267C86.1777 104.268 86.1777 104.269 86.1777 104.27C86.1777 104.271 86.1777 104.271 86.1777 104.272C86.1777 104.273 86.1777 104.274 86.1777 104.275C86.1777 104.276 86.1777 104.276 86.1777 104.277C86.1777 104.278 86.1777 104.279 86.1777 104.28C86.1777 104.28 86.1777 104.281 86.1777 104.282C86.1777 104.283 86.1777 104.284 86.1777 104.285C86.1777 104.285 86.1777 104.286 86.1777 104.287C86.1777 104.288 86.1777 104.289 86.1777 104.29C86.1777 104.29 86.1777 104.291 86.1777 104.292C86.1777 104.293 86.1777 104.294 86.1777 104.295C86.1777 104.295 86.1777 104.296 86.1777 104.297C86.1777 104.298 86.1777 104.299 86.1777 104.3C86.1777 104.3 86.1777 104.301 86.1777 104.302C86.1777 104.303 86.1777 104.304 86.1777 104.305C86.1777 104.305 86.1777 104.306 86.1777 104.307C86.1777 104.308 86.1777 104.309 86.1777 104.309C86.1777 104.31 86.1777 104.311 86.1777 104.312C86.1777 104.313 86.1777 104.314 86.1777 104.314H88.1777ZM88.1777 102.947C88.1777 102.261 88.209 101.506 88.2724 100.68L86.2783 100.527C86.2116 101.394 86.1777 102.201 86.1777 102.947H88.1777ZM88.2724 100.68C88.3337 99.8838 88.4565 99.068 88.6422 98.2326L86.6898 97.7987C86.4849 98.721 86.3473 99.6305 86.2783 100.527L88.2724 100.68ZM88.6362 98.2582C88.8511 97.3983 89.1443 96.5173 89.5178 95.6148L87.6697 94.8501C87.2619 95.8356 86.9366 96.81 86.6959 97.7731L88.6362 98.2582ZM89.5178 95.6148C89.8746 94.7523 90.371 93.8763 91.015 92.9869L89.3951 91.8139C88.672 92.8125 88.0941 93.8245 87.6697 94.8501L89.5178 95.6148ZM91.019 92.9813L119.144 53.577L117.516 52.4151L89.3911 91.8194L91.019 92.9813ZM118.33 53.9961C123.738 53.9961 128.174 54.2717 131.653 54.8142L131.961 52.8381C128.343 52.2738 123.795 51.9961 118.33 51.9961V53.9961ZM131.661 54.8156C135.14 55.3262 137.82 56.1618 139.753 57.2798L140.754 55.5483C138.522 54.2575 135.57 53.3678 131.952 52.8368L131.661 54.8156ZM139.759 57.2831C141.718 58.3979 143.013 59.8057 143.728 61.4917L145.569 60.7114C144.656 58.5563 143.022 56.8391 140.749 55.545L139.759 57.2831ZM143.733 61.5048C144.51 63.2661 144.918 65.4483 144.918 68.084H146.918C146.918 65.2509 146.48 62.7782 145.564 60.6983L143.733 61.5048ZM144.918 68.0803L144.82 94.301L146.82 94.3084L146.918 68.0877L144.918 68.0803ZM117.518 71.7975C115.849 74.1205 114.165 76.5732 112.465 79.1553L114.136 80.2549C115.822 77.6937 117.491 75.2636 119.142 72.9643L117.518 71.7975ZM112.469 79.1504C110.775 81.691 109.211 84.053 107.777 86.2362L109.449 87.3341C110.88 85.1553 112.441 82.7972 114.133 80.2598L112.469 79.1504ZM107.776 86.2379C106.115 88.7787 104.486 91.287 102.89 93.7628L104.571 94.8466C106.165 92.3745 107.791 89.8697 109.45 87.3324L107.776 86.2379ZM103.73 95.3047H118.33V93.3047H103.73V95.3047ZM119.33 94.3047V72.3809H117.33V94.3047H119.33Z" fill="#272B32"/>
</svg>
