<svg width="40" height="40" viewBox="0 0 40 40" fill="none" xmlns="http://www.w3.org/2000/svg">
<g clip-path="url(#clip0)">
<path d="M7.59543 0H21.4457C22.9115 0.0730667 23.9699 1.2596 23.9875 2.56327V8.7668C25.3493 10.54 27.2392 11.7967 28.6078 13.5056C29.0889 14.1088 29.6238 14.5755 30.2126 14.9057C32.3219 15.9795 34.7777 15.3289 36.4592 16.8551C37.7752 19.922 35.9341 23.5961 33.0451 24.6311C30.6857 25.4445 28.3329 24.8994 26.2491 23.8879C26.2552 27.5498 26.2255 31.2116 26.2061 34.8734C25.9835 37.8545 23.9763 39.9801 21.1226 39.9999C18.2468 39.9918 16.1554 37.5125 16.1038 34.8734V30.5654C15.2565 30.4218 14.4883 30.1417 13.799 29.7253C12.0275 29.9666 10.2907 29.4144 9.0386 28.3468C-1.18644 27.7609 4.8799 14.3653 5.03213 9.34837V2.56327C5.10203 1.08723 6.28516 0.0176 7.59543 0ZM7.59543 9.2407C7.50906 13.2549 1.44016 26.971 10.1372 25.6543C10.9195 27.1058 13.0134 27.6643 14.3375 26.7744C15.671 28.1266 17.3463 28.5116 18.6671 27.2052C18.6671 28.4976 18.6742 29.7756 18.6886 31.0393C18.703 32.303 18.7101 33.5811 18.7101 34.8734C18.7412 36.3525 19.8264 37.3775 21.1226 37.3936C22.6552 37.3598 23.6272 36.1965 23.6428 34.8734C23.6431 29.8606 23.6853 24.919 23.6859 20.2692C27.0446 20.6877 31.6054 24.6949 34.2513 20.6031C34.573 19.9481 34.7096 19.4242 34.5852 18.7399C34.5277 18.6251 34.4703 18.5604 34.4129 18.5461C34.3554 18.5317 34.2621 18.5102 34.1329 18.4815C31.4705 18.0467 28.8085 17.6408 27.0462 15.5736C25.3014 13.2981 22.5545 11.9564 21.4457 9.3485V9.2408L7.59543 9.2407Z" fill="#272B32"/>
</g>
<defs>
<clipPath id="clip0">
<rect width="40" height="40" fill="white"/>
</clipPath>
</defs>
</svg>
