<svg width="32" height="45" viewBox="0 0 32 45" fill="none" xmlns="http://www.w3.org/2000/svg">
<path d="M15.921 45L2.90141 41.3856L0 8.84357H31.8809L28.9765 41.3806L15.921 45Z" fill="#264DE4"/>
<path d="M26.4901 39.3087L28.972 11.5043H15.9406V42.2334L26.4901 39.3087Z" fill="#2965F1"/>
<path d="M6.65137 23.5737L7.00903 27.5649H15.9405V23.5737H6.65137Z" fill="#EBEBEB"/>
<path d="M5.93256 15.4956L6.29534 19.4868H15.9405V15.4956H5.93256Z" fill="#EBEBEB"/>
<path d="M15.9405 33.9392L15.923 33.9438L11.4781 32.7436L11.194 29.5605H7.18744L7.74655 35.8273L15.9222 38.0967L15.9405 38.0917V33.9392Z" fill="#EBEBEB"/>
<path d="M7.50305 0H12.3369V2.0215H9.52456V4.04301H12.3371V6.06439H7.50305V0Z" fill="#272B32"/>
<path d="M13.3038 0H18.1377V1.75782H15.3253V2.10936H18.1377V6.15237H13.3039V4.30645H16.1163V3.95491H13.3036V0H13.3038Z" fill="#272B32"/>
<path d="M19.1046 0H23.9386V1.75782H21.1261V2.10936H23.9386V6.15237H19.1046V4.30645H21.9171V3.95491H19.1047V0H19.1046Z" fill="#272B32"/>
<path d="M25.2041 23.5738L25.9246 15.4956H15.9268V19.4868H21.5506L21.1875 23.5738H15.9268V27.5649H20.8414L20.378 32.7411L15.9266 33.9426V38.0948L24.1088 35.8272L24.1687 35.1529L25.1068 24.6455L25.2041 23.5738Z" fill="white"/>
</svg>
