<svg width="27" height="40" viewBox="0 0 27 40" fill="none" xmlns="http://www.w3.org/2000/svg">
<path d="M6.66838 40C10.3484 40 13.335 37.0133 13.335 33.3333V26.6666H6.66838C2.98838 26.6666 0.00170898 29.6533 0.00170898 33.3333C0.00170898 37.0133 2.98838 40 6.66838 40Z" fill="#0ACF83"/>
<path d="M0.00170898 19.9999C0.00170898 16.3199 2.98838 13.3333 6.66838 13.3333H13.335V26.6666H6.66838C2.98838 26.6666 0.00170898 23.6799 0.00170898 19.9999Z" fill="#A259FF"/>
<path d="M0.00170898 6.66667C0.00170898 2.98667 2.98838 0 6.66838 0H13.335V13.3333H6.66838C2.98838 13.3333 0.00170898 10.3467 0.00170898 6.66667Z" fill="#F24E1E"/>
<path d="M13 0H19.6667C23.3467 0 26.3333 2.98667 26.3333 6.66667C26.3333 10.3467 23.3467 13.3333 19.6667 13.3333H13V0Z" fill="#FF7262"/>
<path d="M26.3333 20C26.3333 23.68 23.3467 26.6666 19.6667 26.6666C15.9867 26.6666 13 23.68 13 20C13 16.32 15.9867 13.3333 19.6667 13.3333C23.3467 13.3333 26.3333 16.32 26.3333 20Z" fill="#1ABCFE"/>
</svg>
