<svg width="54" height="42" viewBox="0 0 54 42" fill="none" xmlns="http://www.w3.org/2000/svg">
<path d="M25.2311 20.5C25.2311 20.5 15.7203 28.817 13.0252 31.2739C10.9389 33.1711 14.413 36.7902 16.3921 35.1407C21.6482 30.7488 26.6314 27.4923 26.6314 27.4923L27.2102 28.3218C25.1459 29.5676 19.8094 32.8289 17.0402 35.3205C14.9523 37.1971 18.2498 40.9235 20.3409 39.05C23.2141 36.4733 29.7949 31.8511 29.7949 31.8511L30.3752 32.4567C28.6721 33.5275 26.0038 35.516 22.5139 38.6984C20.4134 40.6144 23.4901 42.6172 25.2957 41.1175C30.2096 37.0394 30.3925 34.2056 35.8 31.8921C44.0524 28.3628 25.2311 20.5 25.2311 20.5Z" fill="#EF9645"/>
<path d="M45.6987 6.04853C47.0881 5.35781 48.3055 6.27561 49.0199 7.70909C49.7264 9.14572 53.0128 15.6177 53.6767 16.9644C54.3469 18.308 53.9779 20.2808 52.5429 20.9904C51.1062 21.7048 49.0199 22.6526 47.6668 24.9518C46.9335 26.2039 43.8884 29.5046 35.636 33.0402C30.2317 35.3457 25.9139 39.2503 24.1855 40.6097C22.7883 41.7104 19.9703 39.6051 22.0677 37.6923C25.5591 34.5068 28.2274 32.5182 29.9289 31.4506L29.3486 30.8418C29.3486 30.8418 22.4398 35.6611 19.5114 38.1748C17.5228 39.8858 14.8782 36.672 16.9677 34.7969C19.7385 32.3053 24.6981 28.5615 26.7623 27.3157L26.1852 26.4815C26.1852 26.4815 20.7761 29.9997 15.5169 34.3979C13.7617 35.8645 11.0272 32.5702 13.112 30.67C15.8086 28.2177 21.0647 23.8211 24.2975 21.9981L23.9884 21.0377C23.9884 21.0377 18.9137 23.8842 14.5328 28.1247C12.9653 29.6402 9.84289 26.8347 12.1279 24.5087C17.5875 18.9546 24.6776 15.6634 26.5636 14.3955C29.0963 12.6924 30.4288 11.6295 29.0963 11.0318C27.0872 10.1282 23.7408 6.96002 22.4572 4.3927C20.7966 1.07157 23.1511 -1.55253 25.7767 1.07157C27.4373 2.73213 30.7584 6.05168 34.0764 6.05168C38.5377 6.05168 39.2205 7.71224 42.3776 7.71224C44.0398 7.70909 45.6987 6.04853 45.6987 6.04853Z" fill="#FFCC4D"/>
<path d="M37.9227 16.0324C37.3959 16.034 35.6534 15.7958 33.69 14.8891C31.9979 14.11 30.6859 12.6971 29.5946 11.5112C29.6561 11.7651 29.4921 12.0694 29.1483 12.4258C30.2222 13.6748 31.8655 15.1004 33.3336 15.81C35.0399 16.638 36.9844 17.0559 37.8612 17.0196C38.7632 16.9817 38.4683 16.0387 37.9227 16.0324ZM41.34 29.5629C37.7697 27.9008 34.9343 26.513 39.804 28.5221C41.8178 29.35 44.8409 25.2735 41.8777 23.922C35.9136 21.2002 17.3462 11.0381 17.3462 11.0381C17.3462 11.0381 7.30396 22.7661 8.54662 23.5183C9.79086 24.2658 10.3097 29.5881 17.4802 34.2702C24.2581 38.6984 28.4797 40.6018 30.0661 41.395C33.3888 43.0556 35.5493 38.7488 32.9567 37.5913C28.4891 35.5949 28.6453 35.4734 35.1929 38.1937C37.6167 39.203 39.6542 34.6455 37.0932 33.4927C33.2737 31.7754 32.9299 31.5672 39.047 34.3238C41.31 35.3378 43.8931 30.7535 41.34 29.5629Z" fill="#EF9645"/>
<path d="M9.60321 6.7456C8.27539 5.94291 6.51233 6.34189 5.68441 7.71544C4.8565 9.08899 1.22471 15.1005 0.450407 16.3888C-0.325469 17.6757 -0.123615 19.6674 1.24836 20.4953C2.62033 21.3248 5.10724 22.8245 6.35147 23.5736C7.59571 24.3258 12.6768 30.6337 20.0113 35.0524C27.3411 39.4806 30.0504 40.2344 31.6999 40.8825C33.3557 41.5291 35.543 38.2285 32.9504 37.0726C28.4765 35.0729 25.3242 33.2279 23.7109 32.0183L24.2124 31.0958C24.2124 31.0958 28.6863 34.439 35.2308 37.164C37.6546 38.1733 39.6305 34.398 37.0711 33.2421C33.2501 31.5247 28.5365 28.6783 26.5826 27.2653L27.1282 26.3648C27.1282 26.3648 33.351 30.2978 39.4681 33.0544C41.7248 34.0716 43.6187 30.2379 41.0656 29.0457C37.5016 27.3836 32.4742 24.3857 29.4054 22.301L29.9384 21.5125C29.9384 21.5125 35.6392 25.5353 40.5121 27.5413C42.5259 28.3739 44.8961 24.6065 41.9298 23.2503C35.9704 20.53 29.213 15.7691 27.4405 14.3498C25.9928 13.1876 25.578 10.5445 29.0994 9.3697C34.0796 7.70914 35.7401 4.38959 35.7401 2.72902C35.7401 0.380897 33.5702 -0.655181 32.4221 1.06846C29.0994 6.04857 27.4294 4.35174 24.1225 6.04857C20.158 8.08446 15.5027 10.2465 12.8013 8.6159C11.6454 7.92045 9.60321 6.7456 9.60321 6.7456Z" fill="#FFDC5D"/>
<path d="M28.3031 10.5982L36.8598 6.32146C36.1076 6.16061 35.2197 6.05022 34.0796 6.05022C30.7616 6.05022 27.4405 2.73067 25.7799 1.07011C23.1543 -1.55399 20.7998 1.07011 22.4604 4.39123C23.5879 6.64316 26.2972 9.35557 28.3031 10.5982Z" fill="#FFCC4D"/>
</svg>
