<svg width="209" height="69" viewBox="0 0 209 69" fill="none" xmlns="http://www.w3.org/2000/svg">
<path d="M35.3359 50.9141H24.7656V58.0625C24.7656 58.7656 24.8594 59.3125 25.0469 59.7031C25.25 60.0938 25.4922 60.3906 25.7734 60.5938C26.0547 60.7969 26.3594 60.9375 26.6875 61.0156C27.0156 61.0938 27.3125 61.1797 27.5781 61.2734C27.8594 61.3672 28.0938 61.5 28.2812 61.6719C28.4688 61.8281 28.5625 62.0938 28.5625 62.4688C28.5625 64.4219 27.5547 65.8359 25.5391 66.7109C23.5234 67.5703 20.6094 68 16.7969 68C14.9531 68 13.3125 67.8984 11.875 67.6953C10.4531 67.4766 9.25 67.1484 8.26562 66.7109C7.29688 66.2578 6.55469 65.6797 6.03906 64.9766C5.53906 64.2734 5.28906 63.4375 5.28906 62.4688C5.28906 62.0938 5.38281 61.8281 5.57031 61.6719C5.75781 61.5 5.98438 61.375 6.25 61.2969C6.53125 61.2031 6.82812 61.1172 7.14062 61.0391C7.46875 60.9609 7.76562 60.8281 8.03125 60.6406C8.3125 60.4375 8.54688 60.1484 8.73438 59.7734C8.92188 59.3984 9.01562 58.8594 9.01562 58.1562V40.4844C9.01562 39.7969 8.92188 39.2656 8.73438 38.8906C8.54688 38.5 8.3125 38.2109 8.03125 38.0234C7.76562 37.8203 7.46875 37.6797 7.14062 37.6016C6.82812 37.5234 6.53125 37.4453 6.25 37.3672C5.98438 37.2734 5.75781 37.1484 5.57031 36.9922C5.38281 36.8203 5.28906 36.5469 5.28906 36.1719C5.28906 35.2031 5.53906 34.375 6.03906 33.6875C6.55469 32.9844 7.29688 32.4141 8.26562 31.9766C9.25 31.5234 10.4531 31.1953 11.875 30.9922C13.3125 30.7734 14.9531 30.6641 16.7969 30.6641C18.7031 30.6641 20.3906 30.7734 21.8594 30.9922C23.3281 31.1953 24.5547 31.5234 25.5391 31.9766C26.5391 32.4141 27.2891 32.9844 27.7891 33.6875C28.3047 34.375 28.5625 35.2031 28.5625 36.1719C28.5625 36.5469 28.4688 36.8203 28.2812 36.9922C28.0938 37.1484 27.8594 37.2734 27.5781 37.3672C27.3125 37.4453 27.0156 37.5234 26.6875 37.6016C26.3594 37.6797 26.0547 37.8203 25.7734 38.0234C25.5078 38.2109 25.2812 38.5 25.0938 38.8906C24.9062 39.2656 24.8125 39.7969 24.8125 40.4844V46.3906H35.3359V40.4844C35.3359 39.7969 35.2422 39.2656 35.0547 38.8906C34.8672 38.5 34.6328 38.2109 34.3516 38.0234C34.0859 37.8203 33.7891 37.6797 33.4609 37.6016C33.1328 37.5234 32.8281 37.4453 32.5469 37.3672C32.2812 37.2734 32.0547 37.1484 31.8672 36.9922C31.6797 36.8203 31.5859 36.5469 31.5859 36.1719C31.5859 34.2344 32.5859 32.8359 34.5859 31.9766C36.6016 31.1016 39.5234 30.6641 43.3516 30.6641C47.1172 30.6641 50 31.1016 52 31.9766C54 32.8359 55 34.2344 55 36.1719C55 36.5469 54.8984 36.8203 54.6953 36.9922C54.5078 37.1484 54.2656 37.2734 53.9688 37.3672C53.6875 37.4453 53.375 37.5234 53.0312 37.6016C52.6875 37.6797 52.3672 37.8203 52.0703 38.0234C51.7891 38.2109 51.5469 38.5 51.3438 38.8906C51.1562 39.2656 51.0625 39.7969 51.0625 40.4844V58.0625C51.0625 58.7656 51.1562 59.3125 51.3438 59.7031C51.5469 60.0938 51.7891 60.3906 52.0703 60.5938C52.3672 60.7969 52.6875 60.9375 53.0312 61.0156C53.375 61.0938 53.6875 61.1797 53.9688 61.2734C54.2656 61.3672 54.5078 61.5 54.6953 61.6719C54.8984 61.8281 55 62.0938 55 62.4688C55 63.4375 54.7422 64.2734 54.2266 64.9766C53.7266 65.6797 52.9844 66.2578 52 66.7109C51.0156 67.1484 49.7969 67.4766 48.3438 67.6953C46.8906 67.8984 45.2266 68 43.3516 68C41.4453 68 39.7578 67.8984 38.2891 67.6953C36.8203 67.4766 35.5859 67.1484 34.5859 66.7109C33.6016 66.2578 32.8516 65.6797 32.3359 64.9766C31.8359 64.2734 31.5859 63.4375 31.5859 62.4688C31.5859 62.0938 31.6797 61.8281 31.8672 61.6719C32.0547 61.5 32.2812 61.3672 32.5469 61.2734C32.8281 61.1797 33.1328 61.0938 33.4609 61.0156C33.7891 60.9375 34.0859 60.7969 34.3516 60.5938C34.6328 60.3906 34.8672 60.1016 35.0547 59.7266C35.2422 59.3359 35.3359 58.7812 35.3359 58.0625V50.9141ZM76.5016 42.9453C76.0016 42.9453 75.5328 43.0625 75.0953 43.2969C74.6578 43.5156 74.275 43.8594 73.9469 44.3281C73.6344 44.7969 73.3844 45.3984 73.1969 46.1328C73.025 46.8516 72.9391 47.7109 72.9391 48.7109H80.4156C80.4156 47.6172 80.3297 46.7031 80.1578 45.9688C79.9859 45.2188 79.7359 44.625 79.4078 44.1875C79.0797 43.7344 78.6656 43.4141 78.1656 43.2266C77.6813 43.0391 77.1266 42.9453 76.5016 42.9453ZM74.7672 36.9453C76.8609 36.9453 78.7438 37.2578 80.4156 37.8828C82.1031 38.5078 83.5328 39.3672 84.7047 40.4609C85.8922 41.5547 86.7984 42.8438 87.4234 44.3281C88.0641 45.7969 88.3844 47.3828 88.3844 49.0859C88.3844 49.7891 88.2828 50.3359 88.0797 50.7266C87.8922 51.1172 87.6188 51.4062 87.2594 51.5938C86.9 51.7812 86.4547 51.8984 85.9234 51.9453C85.3922 51.9922 84.7906 52.0156 84.1188 52.0156H72.8453C72.8453 53.7344 73.0172 55.1328 73.3609 56.2109C73.7203 57.2734 74.2125 58.1016 74.8375 58.6953C75.4625 59.2891 76.2125 59.6953 77.0875 59.9141C77.9625 60.1172 78.9313 60.2188 79.9938 60.2188C80.5563 60.2188 81.1344 60.1641 81.7281 60.0547C82.3375 59.9453 82.9156 59.8047 83.4625 59.6328C84.025 59.4609 84.5406 59.2812 85.0094 59.0938C85.4781 58.9062 85.8688 58.7266 86.1813 58.5547C86.4313 58.4141 86.6734 58.3438 86.9078 58.3438C87.2672 58.3438 87.5484 58.5 87.7516 58.8125C87.9547 59.1094 88.0563 59.4453 88.0563 59.8203C88.0563 59.9453 88.0484 60.0625 88.0328 60.1719C88.0172 60.2812 87.9859 60.3906 87.9391 60.5C87.4859 61.6562 86.8688 62.7266 86.0875 63.7109C85.3063 64.6953 84.3531 65.5547 83.2281 66.2891C82.1188 67.0078 80.8297 67.5703 79.3609 67.9766C77.8922 68.3828 76.2438 68.5859 74.4156 68.5859C72.6656 68.5859 71.0641 68.3828 69.6109 67.9766C68.1734 67.5547 66.8688 66.9766 65.6969 66.2422C64.5406 65.4922 63.525 64.6172 62.65 63.6172C61.775 62.6172 61.0484 61.5312 60.4703 60.3594C59.8922 59.1719 59.4547 57.9375 59.1578 56.6562C58.8766 55.3594 58.7359 54.0547 58.7359 52.7422C58.7359 51.4141 58.8844 50.1016 59.1813 48.8047C59.4781 47.4922 59.9234 46.25 60.5172 45.0781C61.1109 43.9062 61.8531 42.8281 62.7438 41.8438C63.6344 40.8438 64.6734 39.9844 65.8609 39.2656C67.0484 38.5312 68.3844 37.9609 69.8688 37.5547C71.3531 37.1484 72.9859 36.9453 74.7672 36.9453ZM110.425 58.9766C110.425 59.6172 110.511 60.1172 110.683 60.4766C110.855 60.8359 111.066 61.1094 111.316 61.2969C111.566 61.4688 111.839 61.5938 112.136 61.6719C112.448 61.7344 112.73 61.8047 112.98 61.8828C113.23 61.9609 113.441 62.0781 113.613 62.2344C113.784 62.375 113.87 62.6172 113.87 62.9609C113.87 64.7422 112.948 66.0312 111.105 66.8281C109.261 67.6094 106.597 68 103.113 68C101.441 68 99.9563 67.9062 98.6594 67.7188C97.3625 67.5312 96.2688 67.2344 95.3781 66.8281C94.4875 66.4062 93.8078 65.8828 93.3391 65.2578C92.8859 64.6172 92.6594 63.8516 92.6594 62.9609C92.6594 62.6172 92.7375 62.375 92.8938 62.2344C93.0656 62.0781 93.2766 61.9609 93.5266 61.8828C93.7922 61.8047 94.0656 61.7344 94.3469 61.6719C94.6438 61.6094 94.9172 61.4922 95.1672 61.3203C95.4328 61.1328 95.6438 60.875 95.8 60.5469C95.9719 60.2031 96.0578 59.7109 96.0578 59.0703V32.7266C96.0578 32.0859 95.9719 31.6016 95.8 31.2734C95.6438 30.9297 95.4328 30.6719 95.1672 30.5C94.9172 30.3125 94.6438 30.1875 94.3469 30.125C94.0656 30.0625 93.7922 29.9922 93.5266 29.9141C93.2766 29.8359 93.0656 29.7266 92.8938 29.5859C92.7375 29.4297 92.6594 29.1797 92.6594 28.8359C92.6594 27.9453 92.8859 27.1875 93.3391 26.5625C93.8078 25.9219 94.4875 25.3984 95.3781 24.9922C96.2688 24.5703 97.3625 24.2656 98.6594 24.0781C99.9563 23.8906 101.441 23.7969 103.113 23.7969C104.8 23.7969 106.128 23.8828 107.097 24.0547C108.066 24.2266 108.792 24.5234 109.277 24.9453C109.777 25.3516 110.089 25.9062 110.214 26.6094C110.355 27.3125 110.425 28.1953 110.425 29.2578V58.9766ZM136.497 58.9766C136.497 59.6172 136.583 60.1172 136.755 60.4766C136.927 60.8359 137.137 61.1094 137.387 61.2969C137.637 61.4688 137.911 61.5938 138.208 61.6719C138.52 61.7344 138.802 61.8047 139.052 61.8828C139.302 61.9609 139.512 62.0781 139.684 62.2344C139.856 62.375 139.942 62.6172 139.942 62.9609C139.942 64.7422 139.02 66.0312 137.177 66.8281C135.333 67.6094 132.669 68 129.184 68C127.512 68 126.028 67.9062 124.731 67.7188C123.434 67.5312 122.341 67.2344 121.45 66.8281C120.559 66.4062 119.88 65.8828 119.411 65.2578C118.958 64.6172 118.731 63.8516 118.731 62.9609C118.731 62.6172 118.809 62.375 118.966 62.2344C119.137 62.0781 119.348 61.9609 119.598 61.8828C119.864 61.8047 120.137 61.7344 120.419 61.6719C120.716 61.6094 120.989 61.4922 121.239 61.3203C121.505 61.1328 121.716 60.875 121.872 60.5469C122.044 60.2031 122.13 59.7109 122.13 59.0703V32.7266C122.13 32.0859 122.044 31.6016 121.872 31.2734C121.716 30.9297 121.505 30.6719 121.239 30.5C120.989 30.3125 120.716 30.1875 120.419 30.125C120.137 30.0625 119.864 29.9922 119.598 29.9141C119.348 29.8359 119.137 29.7266 118.966 29.5859C118.809 29.4297 118.731 29.1797 118.731 28.8359C118.731 27.9453 118.958 27.1875 119.411 26.5625C119.88 25.9219 120.559 25.3984 121.45 24.9922C122.341 24.5703 123.434 24.2656 124.731 24.0781C126.028 23.8906 127.512 23.7969 129.184 23.7969C130.872 23.7969 132.2 23.8828 133.169 24.0547C134.137 24.2266 134.864 24.5234 135.348 24.9453C135.848 25.3516 136.161 25.9062 136.286 26.6094C136.427 27.3125 136.497 28.1953 136.497 29.2578V58.9766ZM161.069 68.5859C159.209 68.5859 157.498 68.3672 155.936 67.9297C154.389 67.4922 152.991 66.8984 151.741 66.1484C150.506 65.3828 149.42 64.4844 148.483 63.4531C147.545 62.4219 146.764 61.3125 146.139 60.125C145.514 58.9219 145.045 57.6719 144.733 56.375C144.42 55.0781 144.264 53.7812 144.264 52.4844C144.264 51.1562 144.428 49.8516 144.756 48.5703C145.1 47.2734 145.608 46.0469 146.28 44.8906C146.967 43.7344 147.819 42.6719 148.834 41.7031C149.85 40.7344 151.038 39.8984 152.397 39.1953C153.772 38.4922 155.311 37.9453 157.014 37.5547C158.733 37.1484 160.623 36.9453 162.686 36.9453C164.498 36.9453 166.155 37.1484 167.655 37.5547C169.17 37.9609 170.538 38.5234 171.756 39.2422C172.975 39.9453 174.038 40.7812 174.944 41.75C175.866 42.7188 176.631 43.7734 177.241 44.9141C177.85 46.0547 178.303 47.2578 178.6 48.5234C178.913 49.7891 179.069 51.0625 179.069 52.3438C179.069 53.6719 178.905 55 178.577 56.3281C178.248 57.6562 177.748 58.9219 177.077 60.125C176.42 61.3281 175.592 62.4453 174.592 63.4766C173.592 64.5078 172.42 65.4062 171.077 66.1719C169.748 66.9219 168.248 67.5156 166.577 67.9531C164.905 68.375 163.069 68.5859 161.069 68.5859ZM162.123 62.5859C162.639 62.5859 163.069 62.4375 163.413 62.1406C163.772 61.8281 164.061 61.3828 164.28 60.8047C164.498 60.2266 164.655 59.5312 164.748 58.7188C164.842 57.8906 164.889 56.9688 164.889 55.9531C164.889 55.0625 164.881 54.125 164.866 53.1406C164.85 52.1406 164.811 51.1641 164.748 50.2109C164.686 49.2422 164.584 48.3203 164.444 47.4453C164.303 46.5703 164.1 45.7969 163.834 45.125C163.584 44.4531 163.264 43.9219 162.873 43.5312C162.483 43.1406 162.006 42.9453 161.444 42.9453C160.897 42.9453 160.428 43.1016 160.038 43.4141C159.663 43.7109 159.35 44.1328 159.1 44.6797C158.85 45.2266 158.663 45.8828 158.538 46.6484C158.428 47.4141 158.373 48.2578 158.373 49.1797C158.373 50.0391 158.389 50.9688 158.42 51.9688C158.452 52.9688 158.514 53.9688 158.608 54.9688C158.702 55.9531 158.834 56.9062 159.006 57.8281C159.194 58.75 159.42 59.5625 159.686 60.2656C159.967 60.9688 160.303 61.5312 160.694 61.9531C161.1 62.375 161.577 62.5859 162.123 62.5859ZM183.812 62.6797C183.812 61.8984 183.945 61.2188 184.211 60.6406C184.492 60.0469 184.844 59.5391 185.266 59.1172C185.703 58.6797 186.195 58.3203 186.742 58.0391C187.305 57.7422 187.867 57.5078 188.43 57.3359C189.008 57.1641 189.555 57.0469 190.07 56.9844C190.602 56.9062 191.062 56.8672 191.453 56.8672C191.859 56.8672 192.328 56.9062 192.859 56.9844C193.406 57.0469 193.961 57.1641 194.523 57.3359C195.086 57.5078 195.641 57.7422 196.188 58.0391C196.734 58.3203 197.219 58.6797 197.641 59.1172C198.078 59.5391 198.422 60.0469 198.672 60.6406C198.938 61.2188 199.07 61.8984 199.07 62.6797C199.07 63.4453 198.938 64.125 198.672 64.7188C198.422 65.3125 198.078 65.8203 197.641 66.2422C197.219 66.6641 196.734 67.0234 196.188 67.3203C195.641 67.6016 195.086 67.8281 194.523 68C193.961 68.1719 193.406 68.2891 192.859 68.3516C192.328 68.4297 191.859 68.4688 191.453 68.4688C191.062 68.4688 190.602 68.4297 190.07 68.3516C189.555 68.2891 189.008 68.1719 188.43 68C187.867 67.8281 187.305 67.6016 186.742 67.3203C186.195 67.0234 185.703 66.6641 185.266 66.2422C184.844 65.8203 184.492 65.3203 184.211 64.7422C183.945 64.1484 183.812 63.4609 183.812 62.6797ZM198.789 38.0469C198.383 40.125 198.039 41.9766 197.758 43.6016C197.477 45.2266 197.211 46.6562 196.961 47.8906C196.711 49.125 196.445 50.1797 196.164 51.0547C195.898 51.9141 195.562 52.6172 195.156 53.1641C194.75 53.6953 194.25 54.0859 193.656 54.3359C193.078 54.5859 192.359 54.7109 191.5 54.7109C190.719 54.7109 190.07 54.5859 189.555 54.3359C189.039 54.0859 188.594 53.6875 188.219 53.1406C187.859 52.5938 187.547 51.8906 187.281 51.0312C187.031 50.1562 186.773 49.1016 186.508 47.8672C186.242 46.6172 185.953 45.1797 185.641 43.5547C185.328 41.9141 184.938 40.0469 184.469 37.9531C184.344 37.4531 184.25 36.9609 184.188 36.4766C184.125 35.9922 184.094 35.5234 184.094 35.0703C184.094 34.2109 184.219 33.4141 184.469 32.6797C184.719 31.9297 185.133 31.2891 185.711 30.7578C186.289 30.2109 187.047 29.7891 187.984 29.4922C188.938 29.1797 190.109 29.0234 191.5 29.0234C192.953 29.0234 194.164 29.1797 195.133 29.4922C196.102 29.8047 196.875 30.2344 197.453 30.7812C198.047 31.3281 198.469 31.9844 198.719 32.75C198.969 33.5 199.094 34.3203 199.094 35.2109C199.094 35.6641 199.062 36.125 199 36.5938C198.953 37.0625 198.883 37.5469 198.789 38.0469Z" fill="white"/>
<path d="M31.3359 45.9141H31.8359V45.4141H31.3359V45.9141ZM20.7656 45.9141V45.4141H20.2656V45.9141H20.7656ZM21.0469 54.7031L20.5961 54.9195L20.5996 54.9267L20.6033 54.9338L21.0469 54.7031ZM23.5781 56.2734L23.4117 56.745L23.42 56.7478L23.5781 56.2734ZM24.2812 56.6719L23.9434 57.0405L23.9521 57.0484L23.9612 57.056L24.2812 56.6719ZM21.5391 61.7109L21.7352 62.1709L21.7382 62.1696L21.5391 61.7109ZM7.875 62.6953L7.79897 63.1895L7.80504 63.1904L7.875 62.6953ZM4.26562 61.7109L4.05374 62.1639L4.06256 62.1678L4.26562 61.7109ZM2.03906 59.9766L1.63154 60.2664L1.63586 60.2722L2.03906 59.9766ZM1.57031 56.6719L1.8904 57.056L1.89947 57.0484L1.90817 57.0405L1.57031 56.6719ZM2.25 56.2969L2.39108 56.7766L2.39965 56.774L2.40811 56.7712L2.25 56.2969ZM3.14062 56.0391L3.02481 55.5526L3.01936 55.554L3.14062 56.0391ZM4.03125 55.6406L4.31961 56.0491L4.324 56.046L4.03125 55.6406ZM4.73438 33.8906L4.28356 34.107L4.28716 34.1142L4.73438 33.8906ZM4.03125 33.0234L3.72752 33.4206L3.74041 33.4305L3.7539 33.4395L4.03125 33.0234ZM3.14062 32.6016L3.01935 33.0867L3.02481 33.088L3.14062 32.6016ZM2.25 32.3672L2.08359 32.8387L2.09971 32.8444L2.11618 32.8489L2.25 32.3672ZM1.57031 31.9922L1.23245 32.3608L1.24115 32.3687L1.25022 32.3763L1.57031 31.9922ZM2.03906 28.6875L1.63586 28.3918L1.63469 28.3934L2.03906 28.6875ZM4.26562 26.9766L4.47142 27.4323L4.4747 27.4308L4.26562 26.9766ZM7.875 25.9922L7.94571 26.4872L7.95022 26.4865L7.875 25.9922ZM17.8594 25.9922L17.7857 26.4868L17.7909 26.4875L17.8594 25.9922ZM21.5391 26.9766L21.33 27.4308L21.3387 27.4346L21.5391 26.9766ZM23.7891 28.6875L23.3815 28.9774L23.3891 28.9875L23.7891 28.6875ZM24.2812 31.9922L24.6013 32.3763L24.6104 32.3687L24.6191 32.3608L24.2812 31.9922ZM23.5781 32.3672L23.7192 32.8469L23.7278 32.8444L23.7362 32.8415L23.5781 32.3672ZM21.7734 33.0234L22.0618 33.4319L22.0662 33.4288L21.7734 33.0234ZM21.0938 33.8906L21.541 34.1143L21.5445 34.107L21.0938 33.8906ZM20.8125 41.3906H20.3125V41.8906H20.8125V41.3906ZM31.3359 41.3906V41.8906H31.8359V41.3906H31.3359ZM31.0547 33.8906L30.6039 34.107L30.6075 34.1142L31.0547 33.8906ZM30.3516 33.0234L30.0478 33.4206L30.0607 33.4305L30.0742 33.4395L30.3516 33.0234ZM28.5469 32.3672L28.3805 32.8387L28.3966 32.8444L28.4131 32.8489L28.5469 32.3672ZM27.8672 31.9922L27.5293 32.3608L27.538 32.3687L27.5471 32.3763L27.8672 31.9922ZM30.5859 26.9766L30.7833 27.436L30.785 27.4352L30.5859 26.9766ZM48 26.9766L47.7996 27.4347L47.8026 27.4359L48 26.9766ZM50.6953 31.9922L51.0154 32.3763L51.0183 32.3739L50.6953 31.9922ZM49.9688 32.3672L50.1026 32.8489L50.111 32.8466L50.1193 32.844L49.9688 32.3672ZM48.0703 33.0234L48.3477 33.4395L48.3527 33.4361L48.0703 33.0234ZM47.3438 33.8906L46.9001 33.6599L46.8965 33.667L47.3438 33.8906ZM47.3438 54.7031L46.893 54.9195L46.8965 54.9267L46.9001 54.9338L47.3438 54.7031ZM48.0703 55.5938L47.7775 55.9992L47.788 56.0064L48.0703 55.5938ZM49.9688 56.2734L49.8106 56.7478L49.8182 56.7502L49.9688 56.2734ZM50.6953 56.6719L50.3574 57.0405L50.3734 57.055L50.3905 57.0682L50.6953 56.6719ZM50.2266 59.9766L49.8233 59.6809L49.8191 59.6868L50.2266 59.9766ZM48 61.7109L48.2031 62.1679L48.2091 62.1651L48 61.7109ZM44.3438 62.6953L44.413 63.1905L44.4182 63.1897L44.3438 62.6953ZM34.2891 62.6953L34.2154 63.1899L34.2206 63.1906L34.2891 62.6953ZM30.5859 61.7109L30.3768 62.1652L30.3855 62.169L30.5859 61.7109ZM28.3359 59.9766L27.9284 60.2664L27.9327 60.2722L28.3359 59.9766ZM27.8672 56.6719L28.1873 57.056L28.1963 57.0484L28.205 57.0405L27.8672 56.6719ZM28.5469 56.2734L28.3887 55.799L28.3805 55.8019L28.5469 56.2734ZM30.3516 55.5938L30.0587 55.1883L30.0478 55.1966L30.3516 55.5938ZM31.0547 54.7266L31.502 54.9502L31.5054 54.9429L31.0547 54.7266ZM31.3359 45.4141H20.7656V46.4141H31.3359V45.4141ZM20.2656 45.9141V53.0625H21.2656V45.9141H20.2656ZM20.2656 53.0625C20.2656 53.7993 20.3621 54.432 20.5961 54.9195L21.4976 54.4868C21.3566 54.193 21.2656 53.732 21.2656 53.0625H20.2656ZM20.6033 54.9338C20.833 55.3755 21.1215 55.7397 21.4807 55.9991L22.0662 55.1884C21.8628 55.0416 21.667 54.812 21.4905 54.4725L20.6033 54.9338ZM21.4807 55.9991C21.8135 56.2394 22.178 56.4083 22.5717 56.502L22.8033 55.5292C22.5407 55.4667 22.2959 55.3543 22.0662 55.1884L21.4807 55.9991ZM22.5717 56.502C22.8859 56.5768 23.1655 56.658 23.4117 56.7449L23.7445 55.8019C23.4595 55.7013 23.1453 55.6107 22.8033 55.5292L22.5717 56.502ZM23.42 56.7478C23.6455 56.8229 23.8156 56.9233 23.9434 57.0405L24.6191 56.3033C24.3719 56.0767 24.0732 55.9114 23.7362 55.7991L23.42 56.7478ZM23.9612 57.056C23.9848 57.0757 24.0625 57.1619 24.0625 57.4688H25.0625C25.0625 57.0256 24.9527 56.5806 24.6013 56.2878L23.9612 57.056ZM24.0625 57.4688C24.0625 58.3548 23.8356 59.092 23.3995 59.7039C22.9606 60.3197 22.2863 60.8415 21.34 61.2523L21.7382 62.1696C22.8075 61.7054 23.6448 61.0826 24.2138 60.2843C24.7855 59.4822 25.0625 58.5358 25.0625 57.4688H24.0625ZM21.343 61.251C19.4192 62.0712 16.5845 62.5 12.7969 62.5V63.5C16.6342 63.5 19.6277 63.0694 21.7352 62.1709L21.343 61.251ZM12.7969 62.5C10.9706 62.5 9.35408 62.3993 7.94496 62.2002L7.80504 63.1904C9.27092 63.3975 10.9356 63.5 12.7969 63.5V62.5ZM7.95103 62.2011C6.5593 61.987 5.40162 61.6687 4.46869 61.254L4.06256 62.1678C5.09838 62.6282 6.34695 62.9661 7.79897 63.1895L7.95103 62.2011ZM4.47747 61.258C3.56765 60.8325 2.89825 60.3027 2.44227 59.6809L1.63586 60.2722C2.21112 61.0567 3.0261 61.6832 4.05378 62.1638L4.47747 61.258ZM2.44654 59.6868C2.014 59.0785 1.78906 58.347 1.78906 57.4688H0.789062C0.789062 58.528 1.06413 59.4683 1.63158 60.2663L2.44654 59.6868ZM1.78906 57.4688C1.78906 57.1619 1.86677 57.0757 1.8904 57.056L1.25022 56.2878C0.898856 56.5806 0.789062 57.0256 0.789062 57.4688H1.78906ZM1.90817 57.0405C2.03456 56.9246 2.19208 56.8351 2.39108 56.7766L2.10892 55.8172C1.77667 55.9149 1.48106 56.0754 1.23245 56.3033L1.90817 57.0405ZM2.40811 56.7712C2.67624 56.6818 2.96076 56.5994 3.26189 56.5241L3.01936 55.554C2.69549 55.635 2.38626 55.7244 2.09189 55.8225L2.40811 56.7712ZM3.25644 56.5255C3.64415 56.4332 4 56.2747 4.31959 56.0491L3.74291 55.2321C3.53125 55.3815 3.29335 55.4887 3.02481 55.5527L3.25644 56.5255ZM4.324 56.046C4.68293 55.7867 4.96547 55.4293 5.18159 54.997L4.28716 54.5498C4.12828 54.8676 3.94207 55.0883 3.7385 55.2353L4.324 56.046ZM5.18159 54.997C5.41975 54.5207 5.51562 53.891 5.51562 53.1562H4.51562C4.51562 53.8277 4.424 54.2762 4.28716 54.5498L5.18159 54.997ZM5.51562 53.1562V35.4844H4.51562V53.1562H5.51562ZM5.51562 35.4844C5.51562 34.7631 5.41918 34.1422 5.18159 33.667L4.28716 34.1142C4.42457 34.389 4.51562 34.8306 4.51562 35.4844H5.51562ZM5.18514 33.6743C4.96955 33.2251 4.68279 32.8569 4.3086 32.6074L3.7539 33.4395C3.94221 33.565 4.1242 33.7749 4.28361 34.107L5.18514 33.6743ZM4.33498 32.6263C4.01316 32.3802 3.65215 32.2094 3.25644 32.1152L3.02481 33.088C3.28535 33.15 3.51809 33.2605 3.72752 33.4206L4.33498 32.6263ZM3.26189 32.1165C2.95317 32.0393 2.6605 31.9623 2.38382 31.8854L2.11618 32.8489C2.402 32.9283 2.70308 33.0076 3.01936 33.0866L3.26189 32.1165ZM2.41641 31.8957C2.1983 31.8187 2.02583 31.7209 1.8904 31.6081L1.25022 32.3763C1.4898 32.5759 1.77045 32.7282 2.08359 32.8387L2.41641 31.8957ZM1.90817 31.6236C1.86479 31.5838 1.78906 31.4738 1.78906 31.1719H0.789062C0.789062 31.62 0.900839 32.0568 1.23245 32.3608L1.90817 31.6236ZM1.78906 31.1719C1.78906 30.2934 2.01404 29.572 2.44343 28.9816L1.63469 28.3934C1.06408 29.178 0.789062 30.1128 0.789062 31.1719H1.78906ZM2.44227 28.9832C2.89692 28.3632 3.56406 27.842 4.47142 27.4322L4.05983 26.5209C3.02969 26.9861 2.21246 27.6055 1.63586 28.3918L2.44227 28.9832ZM4.4747 27.4308C5.40356 27.0032 6.55713 26.6855 7.94571 26.4872L7.80429 25.4972C6.34912 25.7051 5.09644 26.0437 4.05655 26.5224L4.4747 27.4308ZM7.95022 26.4865C9.35727 26.2724 10.972 26.1641 12.7969 26.1641V25.1641C10.9343 25.1641 9.26773 25.2745 7.79978 25.4979L7.95022 26.4865ZM12.7969 26.1641C14.685 26.1641 16.3471 26.2725 17.7857 26.4867L17.933 25.4976C16.4342 25.2744 14.7212 25.1641 12.7969 25.1641V26.1641ZM17.7909 26.4875C19.2276 26.6862 20.4032 27.0041 21.33 27.4308L21.7481 26.5224C20.7062 26.0427 19.4287 25.7045 17.9279 25.4969L17.7909 26.4875ZM21.3387 27.4346C22.2774 27.8453 22.9463 28.3652 23.3816 28.9773L24.1965 28.3977C23.6318 27.6036 22.8007 26.9828 21.7395 26.5185L21.3387 27.4346ZM23.3891 28.9875C23.8316 29.5776 24.0625 30.2969 24.0625 31.1719H25.0625C25.0625 30.1094 24.7778 29.1724 24.1891 28.3875L23.3891 28.9875ZM24.0625 31.1719C24.0625 31.4738 23.9868 31.5838 23.9434 31.6236L24.6191 32.3608C24.9507 32.0568 25.0625 31.62 25.0625 31.1719H24.0625ZM23.9612 31.6081C23.8306 31.7169 23.6545 31.8147 23.42 31.8928L23.7362 32.8415C24.0643 32.7322 24.3569 32.58 24.6013 32.3763L23.9612 31.6081ZM23.437 31.8875C23.1813 31.9627 22.8931 32.0386 22.5717 32.1152L22.8033 33.088C23.1382 33.0082 23.4437 32.9279 23.7192 32.8469L23.437 31.8875ZM22.5717 32.1152C22.178 32.2089 21.8135 32.3777 21.4807 32.6181L22.0662 33.4288C22.2959 33.2629 22.5407 33.1505 22.8033 33.088L22.5717 32.1152ZM21.4851 32.615C21.1305 32.8653 20.8555 33.2314 20.643 33.6743L21.5445 34.107C21.707 33.7686 21.8851 33.5566 22.0618 33.4319L21.4851 32.615ZM20.6465 33.667C20.4089 34.1422 20.3125 34.7631 20.3125 35.4844H21.3125C21.3125 34.8306 21.4036 34.389 21.541 34.1142L20.6465 33.667ZM20.3125 35.4844V41.3906H21.3125V35.4844H20.3125ZM20.8125 41.8906H31.3359V40.8906H20.8125V41.8906ZM31.8359 41.3906V35.4844H30.8359V41.3906H31.8359ZM31.8359 35.4844C31.8359 34.7631 31.7395 34.1422 31.5019 33.667L30.6075 34.1142C30.7449 34.389 30.8359 34.8306 30.8359 35.4844H31.8359ZM31.5054 33.6743C31.2899 33.2251 31.0031 32.8569 30.6289 32.6074L30.0742 33.4395C30.2625 33.565 30.4445 33.7749 30.6039 34.107L31.5054 33.6743ZM30.6553 32.6263C30.3335 32.3802 29.9725 32.2094 29.5767 32.1152L29.3451 33.088C29.6057 33.15 29.8384 33.2605 30.0478 33.4206L30.6553 32.6263ZM29.5767 32.1152C29.2538 32.0383 28.9551 31.9617 28.6807 31.8854L28.4131 32.8489C28.7011 32.929 29.0119 33.0086 29.3451 33.088L29.5767 32.1152ZM28.7133 31.8957C28.4952 31.8187 28.3227 31.7209 28.1873 31.6081L27.5471 32.3763C27.7867 32.5759 28.0673 32.7282 28.3805 32.8387L28.7133 31.8957ZM28.205 31.6236C28.1617 31.5838 28.0859 31.4738 28.0859 31.1719H27.0859C27.0859 31.62 27.1977 32.0568 27.5293 32.3608L28.205 31.6236ZM28.0859 31.1719C28.0859 30.2936 28.3109 29.5646 28.7427 28.9608C29.1772 28.3531 29.8451 27.8391 30.7833 27.4359L30.3885 26.5172C29.3267 26.9734 28.4947 27.5883 27.9292 28.3791C27.361 29.1737 27.0859 30.1126 27.0859 31.1719H28.0859ZM30.785 27.4352C32.7075 26.6006 35.5486 26.1641 39.3516 26.1641V25.1641C35.4983 25.1641 32.4956 25.6025 30.3868 26.5179L30.785 27.4352ZM39.3516 26.1641C43.0911 26.1641 45.8928 26.6004 47.7996 27.4346L48.2004 26.5185C46.1072 25.6027 43.1433 25.1641 39.3516 25.1641V26.1641ZM47.8026 27.4359C48.7408 27.8391 49.4088 28.3531 49.8433 28.9608C50.2751 29.5646 50.5 30.2936 50.5 31.1719H51.5C51.5 30.1126 51.2249 29.1737 50.6567 28.3791C50.0912 27.5883 49.2592 26.9734 48.1974 26.5172L47.8026 27.4359ZM50.5 31.1719C50.5 31.4624 50.4229 31.5677 50.3723 31.6105L51.0183 32.3739C51.374 32.0729 51.5 31.6313 51.5 31.1719H50.5ZM50.3752 31.6081C50.2494 31.713 50.0694 31.8111 49.8182 31.8904L50.1193 32.844C50.4618 32.7358 50.7663 32.5839 51.0154 32.3763L50.3752 31.6081ZM49.8349 31.8854C49.5627 31.9611 49.258 32.0373 48.9204 32.114L49.1421 33.0891C49.492 33.0096 49.8123 32.9296 50.1026 32.8489L49.8349 31.8854ZM48.9204 32.114C48.514 32.2064 48.1357 32.3729 47.788 32.6108L48.3527 33.4361C48.5987 33.2678 48.861 33.153 49.1421 33.0891L48.9204 32.114ZM47.793 32.6074C47.4235 32.8537 47.1307 33.2165 46.9001 33.66L47.7874 34.1213C47.963 33.7835 48.1546 33.5681 48.3477 33.4395L47.793 32.6074ZM46.8965 33.667C46.6589 34.1422 46.5625 34.7631 46.5625 35.4844H47.5625C47.5625 34.8306 47.6536 34.389 47.791 34.1142L46.8965 33.667ZM46.5625 35.4844V53.0625H47.5625V35.4844H46.5625ZM46.5625 53.0625C46.5625 53.7993 46.659 54.432 46.893 54.9195L47.7945 54.4868C47.6535 54.193 47.5625 53.732 47.5625 53.0625H46.5625ZM46.9001 54.9338C47.1298 55.3755 47.4184 55.7397 47.7776 55.9991L48.3631 55.1884C48.1597 55.0416 47.9639 54.812 47.7874 54.4725L46.9001 54.9338ZM47.788 56.0064C48.1357 56.2443 48.514 56.4108 48.9204 56.5032L49.1421 55.5281C48.861 55.4642 48.5987 55.3494 48.3527 55.1811L47.788 56.0064ZM48.9204 56.5032C49.2511 56.5783 49.5475 56.6601 49.8106 56.7478L50.1269 55.7991C49.8275 55.6993 49.4989 55.6092 49.1421 55.5281L48.9204 56.5032ZM49.8182 56.7502C50.0607 56.8268 50.2344 56.9277 50.3574 57.0405L51.0332 56.3033C50.7812 56.0723 50.4705 55.9076 50.1193 55.7966L49.8182 56.7502ZM50.3905 57.0682C50.4213 57.0919 50.5 57.174 50.5 57.4688H51.5C51.5 57.0135 51.3756 56.5643 51.0002 56.2756L50.3905 57.0682ZM50.5 57.4688C50.5 58.3435 50.2691 59.073 49.8234 59.6809L50.6298 60.2722C51.2152 59.4739 51.5 58.5315 51.5 57.4688H50.5ZM49.8191 59.6868C49.3811 60.3027 48.716 60.8309 47.7909 61.2567L48.2091 62.1651C49.2528 61.6847 50.072 61.0567 50.634 60.2663L49.8191 59.6868ZM47.7969 61.254C46.8654 61.6681 45.693 61.9866 44.2693 62.2009L44.4182 63.1897C45.9008 62.9666 47.1659 62.6288 48.2031 62.1678L47.7969 61.254ZM44.2745 62.2001C42.8496 62.3993 41.2094 62.5 39.3516 62.5V63.5C41.2437 63.5 42.9316 63.3976 44.413 63.1905L44.2745 62.2001ZM39.3516 62.5C37.4621 62.5 35.7983 62.3993 34.3576 62.2L34.2206 63.1906C35.7174 63.3976 37.4285 63.5 39.3516 63.5V62.5ZM34.3627 62.2008C32.9231 61.9864 31.7343 61.6676 30.7863 61.2529L30.3855 62.169C31.4375 62.6293 32.7175 62.9668 34.2154 63.1899L34.3627 62.2008ZM30.795 61.2567C29.8693 60.8306 29.1938 60.3008 28.7391 59.6809L27.9327 60.2722C28.5094 61.0585 29.3338 61.685 30.3769 62.1651L30.795 61.2567ZM28.7434 59.6868C28.3109 59.0785 28.0859 58.347 28.0859 57.4688H27.0859C27.0859 58.528 27.361 59.4683 27.9285 60.2663L28.7434 59.6868ZM28.0859 57.4688C28.0859 57.1619 28.1636 57.0757 28.1873 57.056L27.5471 56.2878C27.1957 56.5806 27.0859 57.0256 27.0859 57.4688H28.0859ZM28.205 57.0405C28.3378 56.9187 28.5043 56.8187 28.7133 56.7449L28.3805 55.8019C28.0582 55.9157 27.7715 56.0813 27.5293 56.3033L28.205 57.0405ZM28.705 56.7478C28.9706 56.6592 29.261 56.5772 29.5767 56.502L29.3451 55.5292C29.0046 55.6103 28.6857 55.7001 28.3888 55.7991L28.705 56.7478ZM29.5767 56.502C29.9725 56.4078 30.3335 56.237 30.6553 55.9909L30.0478 55.1966C29.8384 55.3567 29.6057 55.4672 29.3451 55.5292L29.5767 56.502ZM30.6443 55.9991C31.0032 55.7399 31.2858 55.3824 31.5019 54.9502L30.6075 54.503C30.4486 54.8207 30.2624 55.0414 30.0588 55.1884L30.6443 55.9991ZM31.5054 54.9429C31.74 54.4544 31.8359 53.8129 31.8359 53.0625H30.8359C30.8359 53.7496 30.7444 54.2175 30.6039 54.5102L31.5054 54.9429ZM31.8359 53.0625V45.9141H30.8359V53.0625H31.8359ZM71.0953 38.2969L71.319 38.7443L71.3314 38.7376L71.0953 38.2969ZM69.9469 39.3281L69.5372 39.0413L69.5309 39.0508L69.9469 39.3281ZM69.1969 41.1328L68.7124 41.0091L68.7106 41.0165L69.1969 41.1328ZM68.9391 43.7109H68.4391V44.2109H68.9391V43.7109ZM76.4156 43.7109V44.2109H76.9156V43.7109H76.4156ZM76.1578 40.9688L75.6704 41.0804L75.671 41.0827L76.1578 40.9688ZM75.4078 39.1875L75.0028 39.4808L75.0078 39.4875L75.4078 39.1875ZM74.1656 38.2266L73.9851 38.6929L73.9901 38.6947L74.1656 38.2266ZM76.4156 32.8828L76.2405 33.3512L76.242 33.3517L76.4156 32.8828ZM80.7047 35.4609L80.3635 35.8265L80.366 35.8287L80.7047 35.4609ZM83.4234 39.3281L82.9626 39.5222L82.9651 39.528L83.4234 39.3281ZM84.0797 45.7266L83.6361 45.4959L83.6324 45.503L83.6289 45.5102L84.0797 45.7266ZM68.8453 47.0156V46.5156H68.3453V47.0156H68.8453ZM69.3609 51.2109L68.8845 51.3628L68.8873 51.3711L69.3609 51.2109ZM73.0875 54.9141L72.9662 55.3992L72.9744 55.4011L73.0875 54.9141ZM77.7281 55.0547L77.6398 54.5625L77.6375 54.563L77.7281 55.0547ZM79.4625 54.6328L79.3164 54.1546L79.3126 54.1558L79.4625 54.6328ZM82.1813 53.5547L82.4222 53.9928L82.4264 53.9905L82.1813 53.5547ZM83.7516 53.8125L83.3322 54.0851L83.3389 54.0948L83.7516 53.8125ZM83.9391 55.5L83.4795 55.303L83.4764 55.3103L83.4735 55.3176L83.9391 55.5ZM79.2281 61.2891L79.5 61.7087L79.5014 61.7078L79.2281 61.2891ZM65.6109 62.9766L65.4701 63.4564L65.4763 63.4581L65.6109 62.9766ZM61.6969 61.2422L61.4247 61.6617L61.4314 61.6659L61.6969 61.2422ZM56.4703 55.3594L56.0208 55.5782L56.0219 55.5806L56.4703 55.3594ZM55.1578 51.6562L54.6691 51.7622L54.6707 51.7691L55.1578 51.6562ZM55.1813 43.8047L55.6686 43.9163L55.6689 43.915L55.1813 43.8047ZM58.7438 36.8438L59.1145 37.1792L59.1171 37.1763L58.7438 36.8438ZM61.8609 34.2656L62.1199 34.6934L62.1239 34.6909L61.8609 34.2656ZM72.5016 37.4453C71.9198 37.4453 71.3699 37.5826 70.8592 37.8561L71.3314 38.7376C71.6957 38.5424 72.0833 38.4453 72.5016 38.4453V37.4453ZM70.8717 37.8497C70.3481 38.1115 69.905 38.5161 69.5373 39.0414L70.3565 39.6149C70.6451 39.2026 70.9675 38.9198 71.3189 38.7441L70.8717 37.8497ZM69.5309 39.0508C69.1783 39.5796 68.9094 40.2377 68.7124 41.0091L69.6813 41.2565C69.8594 40.5592 70.0905 40.0141 70.3629 39.6055L69.5309 39.0508ZM68.7106 41.0165C68.527 41.784 68.4391 42.6845 68.4391 43.7109H69.4391C69.4391 42.7373 69.523 41.9191 69.6832 41.2491L68.7106 41.0165ZM68.9391 44.2109H76.4156V43.2109H68.9391V44.2109ZM76.9156 43.7109C76.9156 42.5944 76.8282 41.6391 76.6447 40.8548L75.671 41.0827C75.8312 41.7671 75.9156 42.64 75.9156 43.7109H76.9156ZM76.6452 40.8571C76.4636 40.0647 76.1913 39.3989 75.8078 38.8875L75.0078 39.4875C75.2805 39.8511 75.5083 40.3728 75.6704 41.0804L76.6452 40.8571ZM75.8128 38.8942C75.4299 38.3655 74.9377 37.9821 74.3412 37.7584L73.9901 38.6947C74.3936 38.846 74.7294 39.1032 75.0028 39.4808L75.8128 38.8942ZM74.3461 37.7603C73.7938 37.5465 73.1761 37.4453 72.5016 37.4453V38.4453C73.0771 38.4453 73.5687 38.5317 73.9851 38.6928L74.3461 37.7603ZM70.7672 32.4453C72.8113 32.4453 74.6334 32.7504 76.2405 33.3512L76.5907 32.4145C74.8541 31.7653 72.9106 31.4453 70.7672 31.4453V32.4453ZM76.242 33.3517C77.8749 33.9565 79.2457 34.7831 80.3635 35.8265L81.0458 35.0954C79.8199 33.9512 78.3313 33.0591 76.5893 32.4139L76.242 33.3517ZM80.366 35.8287C81.5009 36.8741 82.3655 38.1039 82.9626 39.5222L83.8843 39.1341C83.2314 37.5836 82.2835 36.2353 81.0434 35.0932L80.366 35.8287ZM82.9651 39.528C83.5766 40.9298 83.8844 42.4472 83.8844 44.0859H84.8844C84.8844 42.3184 84.5516 40.6639 83.8817 39.1282L82.9651 39.528ZM83.8844 44.0859C83.8844 44.7517 83.7864 45.2067 83.6361 45.4959L84.5233 45.9572C84.7792 45.4651 84.8844 44.8264 84.8844 44.0859H83.8844ZM83.6289 45.5102C83.4847 45.8106 83.2849 46.0165 83.0281 46.1505L83.4907 47.037C83.9526 46.796 84.2996 46.4238 84.5304 45.9429L83.6289 45.5102ZM83.0281 46.1505C82.7422 46.2996 82.3649 46.4044 81.8795 46.4472L81.9674 47.4434C82.5445 47.3925 83.0578 47.2629 83.4907 47.037L83.0281 46.1505ZM81.8795 46.4472C81.366 46.4926 80.7795 46.5156 80.1188 46.5156V47.5156C80.8017 47.5156 81.4184 47.4918 81.9674 47.4434L81.8795 46.4472ZM80.1188 46.5156H68.8453V47.5156H80.1188V46.5156ZM68.3453 47.0156C68.3453 48.7621 68.5193 50.2171 68.8846 51.3628L69.8373 51.0591C69.5151 50.0485 69.3453 48.7067 69.3453 47.0156H68.3453ZM68.8873 51.3711C69.2651 52.4882 69.7942 53.3938 70.4931 54.0578L71.1819 53.3328C70.6308 52.8093 70.1755 52.0587 69.8346 51.0507L68.8873 51.3711ZM70.4931 54.0578C71.1836 54.7138 72.0116 55.1605 72.9662 55.3991L73.2088 54.429C72.4134 54.2302 71.7414 53.8643 71.1819 53.3328L70.4931 54.0578ZM72.9744 55.4011C73.8925 55.6142 74.8999 55.7188 75.9938 55.7188V54.7188C74.9626 54.7188 74.0325 54.6201 73.2006 54.427L72.9744 55.4011ZM75.9938 55.7188C76.5888 55.7188 77.1972 55.6609 77.8187 55.5464L77.6375 54.563C77.0715 54.6672 76.5237 54.7188 75.9938 54.7188V55.7188ZM77.8165 55.5468C78.445 55.434 79.0438 55.2885 79.6124 55.1098L79.3126 54.1558C78.7874 54.3209 78.23 54.4566 77.6398 54.5626L77.8165 55.5468ZM79.6086 55.111C80.1824 54.9357 80.7114 54.7514 81.1951 54.558L80.8237 53.6295C80.3698 53.8111 79.8676 53.9862 79.3164 54.1546L79.6086 55.111ZM81.1951 54.558C81.6757 54.3658 82.0862 54.1776 82.4222 53.9928L81.9403 53.1166C81.6513 53.2755 81.2806 53.4467 80.8237 53.6295L81.1951 54.558ZM82.4264 53.9905C82.6182 53.8826 82.7766 53.8438 82.9078 53.8438V52.8438C82.5703 52.8438 82.2443 52.9455 81.9361 53.1189L82.4264 53.9905ZM82.9078 53.8438C83.0905 53.8438 83.2173 53.908 83.3323 54.085L84.1708 53.54C83.8796 53.092 83.4439 52.8438 82.9078 52.8438V53.8438ZM83.3389 54.0948C83.4826 54.3049 83.5563 54.5415 83.5563 54.8203H84.5563C84.5563 54.3491 84.4268 53.9139 84.1642 53.5302L83.3389 54.0948ZM83.5563 54.8203C83.5563 54.9247 83.5497 55.018 83.5378 55.1012L84.5278 55.2426C84.5472 55.107 84.5563 54.966 84.5563 54.8203H83.5563ZM83.5378 55.1012C83.5289 55.1639 83.5104 55.2309 83.4795 55.303L84.3986 55.697C84.4615 55.5503 84.5055 55.3986 84.5278 55.2426L83.5378 55.1012ZM83.4735 55.3176C83.0387 56.427 82.4466 57.4542 81.6959 58.4001L82.4791 59.0218C83.2909 57.999 83.9331 56.8855 84.4046 55.6824L83.4735 55.3176ZM81.6959 58.4001C80.9502 59.3396 80.0379 60.1633 78.9548 60.8704L79.5014 61.7078C80.6683 60.946 81.6623 60.051 82.4791 59.0218L81.6959 58.4001ZM78.9563 60.8694C77.8956 61.5566 76.6546 62.1 75.2276 62.4947L75.4942 63.4585C77.0047 63.0407 78.3419 62.459 79.5 61.7087L78.9563 60.8694ZM75.2276 62.4947C73.8099 62.8868 72.2074 63.0859 70.4156 63.0859V64.0859C72.2801 64.0859 73.9744 63.8788 75.4942 63.4585L75.2276 62.4947ZM70.4156 63.0859C68.704 63.0859 67.1485 62.8873 65.7456 62.495L65.4763 63.4581C66.9796 63.8784 68.6272 64.0859 70.4156 64.0859V63.0859ZM65.7517 62.4968C64.3545 62.0868 63.0924 61.5266 61.9624 60.8185L61.4314 61.6659C62.6451 62.4265 63.9923 63.0226 65.4701 63.4563L65.7517 62.4968ZM61.969 60.8227C60.85 60.0969 59.8698 59.2519 59.0263 58.2879L58.2737 58.9464C59.1802 59.9825 60.2313 60.8875 61.4248 61.6617L61.969 60.8227ZM59.0263 58.2879C58.1794 57.3201 57.4773 56.2704 56.9187 55.1382L56.0219 55.5806C56.6196 56.7921 57.3706 57.9143 58.2737 58.9464L59.0263 58.2879ZM56.9199 55.1405C56.3581 53.9867 55.9333 52.7878 55.6449 51.5434L54.6707 51.7691C54.9761 53.0872 55.4262 54.3571 56.0208 55.5782L56.9199 55.1405ZM55.6465 51.5503C55.3727 50.2878 55.2359 49.0187 55.2359 47.7422H54.2359C54.2359 49.0907 54.3805 50.4309 54.6692 51.7622L55.6465 51.5503ZM55.2359 47.7422C55.2359 46.4517 55.3801 45.1766 55.6686 43.9163L54.6939 43.6931C54.3886 45.0265 54.2359 46.3764 54.2359 47.7422H55.2359ZM55.6689 43.915C55.957 42.6416 56.3885 41.4384 56.9632 40.3041L56.0712 39.8521C55.4584 41.0616 54.9993 42.3427 54.6936 43.6944L55.6689 43.915ZM56.9632 40.3041C57.5366 39.1723 58.2534 38.131 59.1145 37.1792L58.373 36.5083C57.4528 37.5253 56.6852 38.6402 56.0712 39.8521L56.9632 40.3041ZM59.1171 37.1763C59.9734 36.2149 60.9735 35.3872 62.1198 34.6934L61.602 33.8379C60.3734 34.5815 59.2954 35.4726 58.3704 36.5112L59.1171 37.1763ZM62.1239 34.6909C63.2668 33.9841 64.5579 33.4318 66.0007 33.037L65.7368 32.0724C64.2109 32.49 62.8301 33.0784 61.598 33.8404L62.1239 34.6909ZM66.0007 33.037C67.436 32.6441 69.0237 32.4453 70.7672 32.4453V31.4453C68.9482 31.4453 67.2703 31.6527 65.7368 32.0724L66.0007 33.037ZM107.316 56.2969L107.016 56.6969L107.024 56.7031L107.032 56.7089L107.316 56.2969ZM108.136 56.6719L108.009 57.1554L108.023 57.1592L108.038 57.1622L108.136 56.6719ZM109.613 57.2344L109.276 57.6043L109.286 57.6131L109.296 57.6214L109.613 57.2344ZM107.105 61.8281L107.3 62.2885L107.303 62.2871L107.105 61.8281ZM91.3781 61.8281L91.1641 62.28L91.1706 62.283L91.3781 61.8281ZM89.3391 60.2578L88.9307 60.5467L88.9391 60.5578L89.3391 60.2578ZM88.8938 57.2344L89.2282 57.606L89.2301 57.6043L88.8938 57.2344ZM89.5266 56.8828L89.3855 56.4031L89.3774 56.4056L89.5266 56.8828ZM90.3469 56.6719L90.2439 56.1826L90.2384 56.1838L90.3469 56.6719ZM91.1672 56.3203L91.4505 56.7324L91.4555 56.7288L91.1672 56.3203ZM91.8 55.5469L91.3527 55.3232L91.3486 55.3319L91.8 55.5469ZM91.8 26.2734L91.3448 26.4803L91.3506 26.4931L91.3571 26.5054L91.8 26.2734ZM91.1672 25.5L90.8672 25.9L90.881 25.9104L90.8956 25.9198L91.1672 25.5ZM90.3469 25.125L90.2384 25.6131L90.2439 25.6143L90.3469 25.125ZM89.5266 24.9141L89.3774 25.3914L89.3855 25.3937L89.5266 24.9141ZM88.8938 24.5859L88.5402 24.9395L88.5578 24.9571L88.5771 24.9729L88.8938 24.5859ZM89.3391 21.5625L88.9355 21.2672L88.9343 21.269L89.3391 21.5625ZM91.3781 19.9922L91.5857 20.4471L91.5922 20.4441L91.3781 19.9922ZM105.277 19.9453L104.948 20.3224L104.955 20.328L104.961 20.3334L105.277 19.9453ZM106.214 21.6094L105.722 21.6969L105.724 21.7074L106.214 21.6094ZM105.925 53.9766C105.925 54.6515 106.014 55.2368 106.232 55.6923L107.134 55.2608C107.008 54.9976 106.925 54.5828 106.925 53.9766H105.925ZM106.232 55.6923C106.429 56.1049 106.686 56.4496 107.016 56.6969L107.616 55.8969C107.445 55.7692 107.28 55.567 107.134 55.2608L106.232 55.6923ZM107.032 56.7089C107.33 56.9138 107.657 57.0628 108.009 57.1554L108.263 56.1883C108.021 56.1247 107.801 56.0237 107.599 55.8849L107.032 56.7089ZM108.038 57.1622C108.337 57.2219 108.6 57.2882 108.831 57.3601L109.129 56.4056C108.859 56.3212 108.56 56.2468 108.234 56.1816L108.038 57.1622ZM108.831 57.3601C109.02 57.4193 109.165 57.503 109.276 57.6043L109.949 56.8644C109.717 56.6533 109.439 56.5026 109.129 56.4056L108.831 57.3601ZM109.296 57.6214C109.3 57.6247 109.37 57.6843 109.37 57.9609H110.37C110.37 57.55 110.269 57.1253 109.929 56.8474L109.296 57.6214ZM109.37 57.9609C109.37 58.7607 109.165 59.4235 108.772 59.9728C108.377 60.5261 107.767 60.9973 106.906 61.3692L107.303 62.2871C108.286 61.8621 109.059 61.2903 109.586 60.5545C110.115 59.8148 110.37 58.9424 110.37 57.9609H109.37ZM106.91 61.3677C105.157 62.1103 102.572 62.5 99.1125 62.5V63.5C102.622 63.5 105.365 63.1085 107.3 62.2885L106.91 61.3677ZM99.1125 62.5C97.4584 62.5 95.9987 62.4072 94.7309 62.2239L94.5878 63.2136C95.9138 63.4053 97.4229 63.5 99.1125 63.5V62.5ZM94.7309 62.2239C93.4662 62.041 92.4213 61.7544 91.5856 61.3732L91.1706 62.283C92.1162 62.7144 93.2588 63.0215 94.5878 63.2136L94.7309 62.2239ZM91.5922 61.3763C90.7562 60.9803 90.148 60.503 89.7391 59.9578L88.9391 60.5578C89.4676 61.2626 90.2188 61.8322 91.1641 62.28L91.5922 61.3763ZM89.7473 59.9691C89.3617 59.424 89.1594 58.7626 89.1594 57.9609H88.1594C88.1594 58.9405 88.4101 59.8104 88.9309 60.5465L89.7473 59.9691ZM89.1594 57.9609C89.1594 57.8242 89.1753 57.7325 89.1938 57.675C89.2115 57.6202 89.2282 57.6061 89.2282 57.606L88.5593 56.8627C88.2467 57.144 88.1594 57.5627 88.1594 57.9609H89.1594ZM89.2301 57.6043C89.3416 57.503 89.4863 57.4193 89.6757 57.3601L89.3774 56.4056C89.0669 56.5026 88.7896 56.6533 88.5574 56.8644L89.2301 57.6043ZM89.6676 57.3625C89.9221 57.2877 90.1846 57.2201 90.4553 57.16L90.2384 56.1838C89.9466 56.2486 89.6623 56.3217 89.3855 56.4031L89.6676 57.3625ZM90.4499 57.1611C90.8114 57.085 91.1461 56.9416 91.4505 56.7323L90.8839 55.9083C90.6883 56.0428 90.4762 56.1337 90.2439 56.1826L90.4499 57.1611ZM91.4555 56.7288C91.7992 56.4862 92.0627 56.1581 92.2514 55.7618L91.3486 55.3319C91.2248 55.5919 91.0665 55.7794 90.8788 55.9118L91.4555 56.7288ZM92.2472 55.7705C92.4696 55.3257 92.5578 54.7432 92.5578 54.0703H91.5578C91.5578 54.6787 91.4742 55.0805 91.3528 55.3233L92.2472 55.7705ZM92.5578 54.0703V27.7266H91.5578V54.0703H92.5578ZM92.5578 27.7266C92.5578 27.0562 92.4704 26.4757 92.2429 26.0414L91.3571 26.5054C91.4734 26.7274 91.5578 27.1157 91.5578 27.7266H92.5578ZM92.2552 26.0665C92.0671 25.6528 91.7991 25.3134 91.4388 25.0802L90.8956 25.9198C91.0665 26.0304 91.2204 26.2066 91.3448 26.4803L92.2552 26.0665ZM91.4672 25.1C91.1606 24.8701 90.8203 24.7137 90.4499 24.6357L90.2439 25.6143C90.4672 25.6613 90.6738 25.7549 90.8672 25.9L91.4672 25.1ZM90.4553 24.6369C90.1846 24.5767 89.9221 24.5092 89.6676 24.4344L89.3855 25.3937C89.6623 25.4752 89.9466 25.5483 90.2384 25.6131L90.4553 24.6369ZM89.6757 24.4368C89.476 24.3744 89.3247 24.2925 89.2104 24.199L88.5771 24.9729C88.8066 25.1606 89.0771 25.2975 89.3774 25.3913L89.6757 24.4368ZM89.2473 24.2324C89.2256 24.2107 89.1594 24.1188 89.1594 23.8359H88.1594C88.1594 24.2406 88.2494 24.6487 88.5402 24.9395L89.2473 24.2324ZM89.1594 23.8359C89.1594 23.0339 89.3618 22.383 89.7439 21.856L88.9343 21.269C88.4101 21.992 88.1594 22.8567 88.1594 23.8359H89.1594ZM89.7426 21.8578C90.1502 21.3006 90.755 20.826 91.5856 20.4471L91.1706 19.5373C90.2201 19.9709 89.4654 20.5431 88.9355 21.2672L89.7426 21.8578ZM91.5922 20.4441C92.4257 20.0492 93.4682 19.7555 94.7309 19.573L94.5878 18.5833C93.2568 18.7757 92.1119 19.0914 91.1641 19.5403L91.5922 20.4441ZM94.7309 19.573C95.9987 19.3897 97.4584 19.2969 99.1125 19.2969V18.2969C97.4229 18.2969 95.9138 18.3916 94.5878 18.5833L94.7309 19.573ZM99.1125 19.2969C100.788 19.2969 102.083 19.3826 103.01 19.547L103.184 18.5624C102.173 18.383 100.812 18.2969 99.1125 18.2969V19.2969ZM103.01 19.547C103.933 19.7108 104.559 19.9837 104.948 20.3224L105.605 19.5683C105.025 19.0632 104.199 18.7423 103.184 18.5624L103.01 19.547ZM104.961 20.3334C105.358 20.6556 105.615 21.0982 105.722 21.6969L106.706 21.5219C106.563 20.7143 106.195 20.0476 105.592 19.5573L104.961 20.3334ZM105.724 21.7074C105.856 22.3669 105.925 23.2141 105.925 24.2578H106.925C106.925 23.1765 106.854 22.2581 106.704 21.5113L105.724 21.7074ZM105.925 24.2578V53.9766H106.925V24.2578H105.925ZM133.387 56.2969L133.087 56.6969L133.096 56.7031L133.104 56.7089L133.387 56.2969ZM134.208 56.6719L134.081 57.1554L134.095 57.1592L134.11 57.1622L134.208 56.6719ZM135.684 57.2344L135.348 57.6043L135.358 57.6131L135.368 57.6214L135.684 57.2344ZM133.177 61.8281L133.372 62.2885L133.375 62.2871L133.177 61.8281ZM117.45 61.8281L117.236 62.28L117.242 62.283L117.45 61.8281ZM115.411 60.2578L115.003 60.5467L115.011 60.5578L115.411 60.2578ZM114.966 57.2344L115.3 57.606L115.302 57.6043L114.966 57.2344ZM115.598 56.8828L115.457 56.4031L115.449 56.4056L115.598 56.8828ZM116.419 56.6719L116.316 56.1826L116.31 56.1838L116.419 56.6719ZM117.239 56.3203L117.522 56.7324L117.527 56.7288L117.239 56.3203ZM117.872 55.5469L117.425 55.3232L117.42 55.3319L117.872 55.5469ZM117.872 26.2734L117.417 26.4803L117.422 26.4931L117.429 26.5054L117.872 26.2734ZM117.239 25.5L116.939 25.9L116.953 25.9104L116.967 25.9198L117.239 25.5ZM116.419 25.125L116.31 25.6131L116.316 25.6143L116.419 25.125ZM115.598 24.9141L115.449 25.3914L115.457 25.3937L115.598 24.9141ZM114.966 24.5859L114.612 24.9395L114.63 24.9571L114.649 24.9729L114.966 24.5859ZM115.411 21.5625L115.007 21.2672L115.006 21.269L115.411 21.5625ZM117.45 19.9922L117.658 20.4471L117.664 20.4441L117.45 19.9922ZM131.348 19.9453L131.02 20.3224L131.026 20.328L131.033 20.3334L131.348 19.9453ZM132.286 21.6094L131.794 21.6969L131.796 21.7074L132.286 21.6094ZM131.997 53.9766C131.997 54.6515 132.086 55.2368 132.304 55.6923L133.206 55.2608C133.08 54.9976 132.997 54.5828 132.997 53.9766H131.997ZM132.304 55.6923C132.501 56.1049 132.758 56.4496 133.087 56.6969L133.688 55.8969C133.517 55.7692 133.352 55.567 133.206 55.2608L132.304 55.6923ZM133.104 56.7089C133.402 56.9138 133.729 57.0628 134.081 57.1554L134.335 56.1883C134.093 56.1247 133.873 56.0237 133.671 55.8849L133.104 56.7089ZM134.11 57.1622C134.409 57.2219 134.672 57.2882 134.902 57.3601L135.201 56.4056C134.931 56.3212 134.632 56.2468 134.306 56.1816L134.11 57.1622ZM134.902 57.3601C135.092 57.4193 135.236 57.503 135.348 57.6043L136.021 56.8644C135.788 56.6533 135.511 56.5026 135.201 56.4056L134.902 57.3601ZM135.368 57.6214C135.372 57.6247 135.442 57.6843 135.442 57.9609H136.442C136.442 57.55 136.341 57.1253 136.001 56.8474L135.368 57.6214ZM135.442 57.9609C135.442 58.7607 135.237 59.4235 134.844 59.9728C134.448 60.5261 133.839 60.9973 132.978 61.3692L133.375 62.2871C134.358 61.8621 135.131 61.2903 135.657 60.5545C136.186 59.8148 136.442 58.9424 136.442 57.9609H135.442ZM132.981 61.3677C131.229 62.1103 128.644 62.5 125.184 62.5V63.5C128.693 63.5 131.436 63.1085 133.372 62.2885L132.981 61.3677ZM125.184 62.5C123.53 62.5 122.071 62.4072 120.803 62.2239L120.66 63.2136C121.986 63.4053 123.495 63.5 125.184 63.5V62.5ZM120.803 62.2239C119.538 62.041 118.493 61.7544 117.658 61.3732L117.242 62.283C118.188 62.7144 119.331 63.0215 120.66 63.2136L120.803 62.2239ZM117.664 61.3763C116.828 60.9803 116.22 60.503 115.811 59.9578L115.011 60.5578C115.54 61.2626 116.291 61.8322 117.236 62.28L117.664 61.3763ZM115.819 59.9691C115.434 59.424 115.231 58.7626 115.231 57.9609H114.231C114.231 58.9405 114.482 59.8104 115.003 60.5465L115.819 59.9691ZM115.231 57.9609C115.231 57.8242 115.247 57.7325 115.266 57.675C115.283 57.6202 115.3 57.6061 115.3 57.606L114.631 56.8627C114.319 57.144 114.231 57.5627 114.231 57.9609H115.231ZM115.302 57.6043C115.413 57.503 115.558 57.4193 115.748 57.3601L115.449 56.4056C115.139 56.5026 114.862 56.6533 114.629 56.8644L115.302 57.6043ZM115.74 57.3625C115.994 57.2877 116.256 57.2201 116.527 57.16L116.31 56.1838C116.019 56.2486 115.734 56.3217 115.457 56.4031L115.74 57.3625ZM116.522 57.1611C116.883 57.085 117.218 56.9416 117.522 56.7323L116.956 55.9083C116.76 56.0428 116.548 56.1337 116.316 56.1826L116.522 57.1611ZM117.527 56.7288C117.871 56.4862 118.135 56.1581 118.323 55.7618L117.42 55.3319C117.297 55.5919 117.138 55.7794 116.951 55.9118L117.527 56.7288ZM118.319 55.7705C118.541 55.3257 118.63 54.7432 118.63 54.0703H117.63C117.63 54.6787 117.546 55.0805 117.425 55.3233L118.319 55.7705ZM118.63 54.0703V27.7266H117.63V54.0703H118.63ZM118.63 27.7266C118.63 27.0562 118.542 26.4757 118.315 26.0414L117.429 26.5054C117.545 26.7274 117.63 27.1157 117.63 27.7266H118.63ZM118.327 26.0665C118.139 25.6528 117.871 25.3134 117.511 25.0802L116.967 25.9198C117.138 26.0304 117.292 26.2066 117.417 26.4803L118.327 26.0665ZM117.539 25.1C117.232 24.8701 116.892 24.7137 116.522 24.6357L116.316 25.6143C116.539 25.6613 116.746 25.7549 116.939 25.9L117.539 25.1ZM116.527 24.6369C116.256 24.5767 115.994 24.5092 115.74 24.4344L115.457 25.3937C115.734 25.4752 116.019 25.5483 116.31 25.6131L116.527 24.6369ZM115.748 24.4368C115.548 24.3744 115.397 24.2925 115.282 24.199L114.649 24.9729C114.878 25.1606 115.149 25.2975 115.449 25.3913L115.748 24.4368ZM115.319 24.2324C115.297 24.2107 115.231 24.1188 115.231 23.8359H114.231C114.231 24.2406 114.321 24.6487 114.612 24.9395L115.319 24.2324ZM115.231 23.8359C115.231 23.0339 115.434 22.383 115.816 21.856L115.006 21.269C114.482 21.992 114.231 22.8567 114.231 23.8359H115.231ZM115.814 21.8578C116.222 21.3006 116.827 20.826 117.658 20.4471L117.242 19.5373C116.292 19.9709 115.537 20.5431 115.007 21.2672L115.814 21.8578ZM117.664 20.4441C118.498 20.0492 119.54 19.7555 120.803 19.573L120.66 18.5833C119.329 18.7757 118.184 19.0914 117.236 19.5403L117.664 20.4441ZM120.803 19.573C122.071 19.3897 123.53 19.2969 125.184 19.2969V18.2969C123.495 18.2969 121.986 18.3916 120.66 18.5833L120.803 19.573ZM125.184 19.2969C126.86 19.2969 128.155 19.3826 129.081 19.547L129.256 18.5624C128.245 18.383 126.884 18.2969 125.184 18.2969V19.2969ZM129.081 19.547C130.005 19.7108 130.631 19.9837 131.02 20.3224L131.677 19.5683C131.097 19.0632 130.27 18.7423 129.256 18.5624L129.081 19.547ZM131.033 20.3334C131.43 20.6556 131.687 21.0982 131.794 21.6969L132.778 21.5219C132.635 20.7143 132.267 20.0476 131.664 19.5573L131.033 20.3334ZM131.796 21.7074C131.928 22.3669 131.997 23.2141 131.997 24.2578H132.997C132.997 23.1765 132.926 22.2581 132.776 21.5113L131.796 21.7074ZM131.997 24.2578V53.9766H132.997V24.2578H131.997ZM151.936 62.9297L151.8 63.4108L151.801 63.4112L151.936 62.9297ZM147.741 61.1484L147.477 61.5734L147.483 61.5772L147.741 61.1484ZM142.139 55.125L141.695 55.3555L141.697 55.3579L142.139 55.125ZM140.756 43.5703L140.273 43.4422L140.272 43.4463L140.756 43.5703ZM142.28 39.8906L141.85 39.6351L141.847 39.6394L142.28 39.8906ZM148.397 34.1953L148.169 33.7501L148.167 33.7512L148.397 34.1953ZM153.014 32.5547L153.126 33.042L153.129 33.0413L153.014 32.5547ZM163.655 32.5547L163.524 33.0373L163.525 33.0376L163.655 32.5547ZM167.756 34.2422L167.502 34.6729L167.506 34.6753L167.756 34.2422ZM170.944 36.75L170.579 37.0916L170.582 37.0947L170.944 36.75ZM174.6 43.5234L174.113 43.6376L174.115 43.6433L174.6 43.5234ZM173.077 55.125L172.64 54.8812L172.638 54.8856L173.077 55.125ZM167.077 61.1719L167.322 61.6073L167.324 61.6063L167.077 61.1719ZM162.577 62.9531L162.699 63.4379L162.703 63.4368L162.577 62.9531ZM159.413 57.1406L159.739 57.519L159.741 57.5179L159.413 57.1406ZM160.748 53.7188L161.245 53.7761L161.245 53.775L160.748 53.7188ZM160.866 48.1406L160.366 48.1484V48.1486L160.866 48.1406ZM160.748 45.2109L160.249 45.2431L160.25 45.2437L160.748 45.2109ZM159.834 40.125L159.366 40.2994L159.369 40.3088L159.834 40.125ZM156.038 38.4141L156.348 38.8061L156.35 38.8045L156.038 38.4141ZM154.538 41.6484L154.044 41.5679L154.043 41.5777L154.538 41.6484ZM154.608 49.9688L154.11 50.0154L154.11 50.0162L154.608 49.9688ZM155.006 52.8281L154.515 52.9198L154.516 52.9278L155.006 52.8281ZM155.686 55.2656L155.218 55.4424L155.222 55.4513L155.686 55.2656ZM156.694 56.9531L156.327 57.2929L156.334 57.2999L156.694 56.9531ZM157.069 63.0859C155.248 63.0859 153.584 62.8718 152.071 62.4482L151.801 63.4112C153.413 63.8626 155.17 64.0859 157.069 64.0859V63.0859ZM152.072 62.4486C150.563 62.0219 149.206 61.4448 147.998 60.7197L147.483 61.5772C148.775 62.3521 150.215 62.9625 151.8 63.4108L152.072 62.4486ZM148.004 60.7235C146.808 59.9813 145.758 59.1123 144.853 58.1168L144.113 58.7895C145.083 59.8564 146.205 60.7843 147.477 61.5733L148.004 60.7235ZM144.853 58.1168C143.943 57.1156 143.186 56.0408 142.582 54.8921L141.697 55.3579C142.342 56.5842 143.148 57.7281 144.113 58.7895L144.853 58.1168ZM142.583 54.8945C141.976 53.7267 141.522 52.5147 141.219 51.2579L140.247 51.4921C140.569 52.829 141.052 54.117 141.695 55.3555L142.583 54.8945ZM141.219 51.2579C140.915 49.9983 140.764 48.7407 140.764 47.4844H139.764C139.764 48.8218 139.925 50.158 140.247 51.4921L141.219 51.2579ZM140.764 47.4844C140.764 46.1979 140.923 44.9349 141.241 43.6944L140.272 43.4463C139.933 44.7682 139.764 46.1146 139.764 47.4844H140.764ZM141.24 43.6984C141.572 42.4445 142.063 41.2594 142.712 40.1418L141.847 39.6394C141.153 40.8344 140.628 42.1023 140.273 43.4422L141.24 43.6984ZM142.709 40.1462C143.373 39.0307 144.195 38.0036 145.179 37.0649L144.489 36.3413C143.442 37.3401 142.562 38.4381 141.85 39.6351L142.709 40.1462ZM145.179 37.0649C146.158 36.1318 147.306 35.3227 148.627 34.6394L148.167 33.7512C146.769 34.4742 145.542 35.337 144.489 36.3413L145.179 37.0649ZM148.625 34.6405C149.958 33.9584 151.458 33.4246 153.126 33.042L152.902 32.0673C151.164 32.466 149.585 33.026 148.169 33.7501L148.625 34.6405ZM153.129 33.0413C154.804 32.6453 156.656 32.4453 158.686 32.4453V31.4453C156.591 31.4453 154.661 31.6516 152.899 32.0681L153.129 33.0413ZM158.686 32.4453C160.461 32.4453 162.073 32.6443 163.524 33.0373L163.785 32.0721C162.236 31.6526 160.535 31.4453 158.686 31.4453V32.4453ZM163.525 33.0376C165.002 33.4334 166.326 33.9794 167.502 34.6729L168.01 33.8115C166.749 33.0674 165.339 32.4884 163.784 32.0717L163.525 33.0376ZM167.506 34.6753C168.685 35.3553 169.708 36.161 170.579 37.0916L171.309 36.4084C170.367 35.4015 169.265 34.5354 168.006 33.8091L167.506 34.6753ZM170.582 37.0947C171.473 38.0319 172.212 39.0501 172.8 40.1497L173.682 39.6785C173.05 38.4967 172.258 37.4056 171.306 36.4053L170.582 37.0947ZM172.8 40.1497C173.388 41.2518 173.826 42.4141 174.113 43.6376L175.087 43.4093C174.78 42.1016 174.312 40.8576 173.682 39.6785L172.8 40.1497ZM174.115 43.6433C174.418 44.8704 174.569 46.1036 174.569 47.3438H175.569C175.569 46.0214 175.407 44.7077 175.085 43.4036L174.115 43.6433ZM174.569 47.3438C174.569 48.6303 174.41 49.9181 174.091 51.2082L175.062 51.448C175.4 50.0819 175.569 48.7135 175.569 47.3438H174.569ZM174.091 51.2082C173.774 52.4927 173.29 53.7167 172.64 54.8812L173.513 55.3688C174.207 54.127 174.723 52.8198 175.062 51.448L174.091 51.2082ZM172.638 54.8856C172.004 56.0472 171.203 57.1281 170.233 58.1285L170.951 58.8246C171.981 57.7625 172.837 56.6091 173.516 55.3644L172.638 54.8856ZM170.233 58.1285C169.269 59.1233 168.135 59.9934 166.829 60.7374L167.324 61.6063C168.706 60.8191 169.916 59.8923 170.951 58.8246L170.233 58.1285ZM166.831 60.7365C165.545 61.4627 164.086 62.0414 162.45 62.4694L162.703 63.4368C164.411 62.9899 165.952 62.381 167.322 61.6073L166.831 60.7365ZM162.454 62.4683C160.828 62.8786 159.034 63.0859 157.069 63.0859V64.0859C159.104 64.0859 160.981 63.8714 162.699 63.4379L162.454 62.4683ZM158.123 58.0859C158.742 58.0859 159.292 57.9049 159.739 57.519L159.086 56.7622C158.845 56.9701 158.536 57.0859 158.123 57.0859V58.0859ZM159.741 57.5179C160.178 57.1374 160.508 56.6147 160.747 55.9816L159.812 55.6277C159.614 56.1509 159.366 56.5188 159.084 56.7633L159.741 57.5179ZM160.747 55.9816C160.984 55.3549 161.148 54.6172 161.245 53.7761L160.252 53.6614C160.161 54.4453 160.012 55.0982 159.812 55.6277L160.747 55.9816ZM161.245 53.775C161.342 52.9247 161.389 51.9836 161.389 50.9531H160.389C160.389 51.9539 160.343 52.8566 160.252 53.6625L161.245 53.775ZM161.389 50.9531C161.389 50.0596 161.381 49.1194 161.366 48.1327L160.366 48.1486C160.381 49.1306 160.389 50.0654 160.389 50.9531H161.389ZM161.366 48.1328C161.35 47.1249 161.31 46.14 161.247 45.1782L160.25 45.2437C160.311 46.1881 160.35 47.1564 160.366 48.1484L161.366 48.1328ZM161.247 45.1787C161.184 44.1957 161.081 43.258 160.937 42.366L159.95 42.5247C160.088 43.3826 160.188 44.2887 160.249 45.2431L161.247 45.1787ZM160.937 42.366C160.792 41.4629 160.581 40.6533 160.299 39.9412L159.369 40.3088C159.619 40.9404 159.814 41.6777 159.95 42.5247L160.937 42.366ZM160.303 39.9506C160.035 39.2307 159.681 38.6318 159.227 38.1777L158.52 38.8848C158.847 39.2119 159.134 39.6756 159.366 40.2994L160.303 39.9506ZM159.227 38.1777C158.741 37.6914 158.136 37.4453 157.444 37.4453V38.4453C157.876 38.4453 158.225 38.5898 158.52 38.8848L159.227 38.1777ZM157.444 37.4453C156.795 37.4453 156.213 37.6335 155.725 38.0236L156.35 38.8045C156.643 38.5697 156.999 38.4453 157.444 38.4453V37.4453ZM155.727 38.022C155.276 38.379 154.92 38.8711 154.645 39.4718L155.555 39.8876C155.78 39.3946 156.049 39.0429 156.348 38.8061L155.727 38.022ZM154.645 39.4718C154.372 40.069 154.174 40.7703 154.044 41.5679L155.031 41.729C155.151 40.9953 155.328 40.3842 155.555 39.8876L154.645 39.4718ZM154.043 41.5777C153.929 42.3707 153.873 43.2385 153.873 44.1797H154.873C154.873 43.2771 154.927 42.4574 155.032 41.7191L154.043 41.5777ZM153.873 44.1797C153.873 45.045 153.889 45.98 153.921 46.9844L154.92 46.9531C154.889 45.9575 154.873 45.0331 154.873 44.1797H153.873ZM153.921 46.9844C153.952 47.9948 154.015 49.0051 154.11 50.0154L155.106 49.9221C155.013 48.9324 154.951 47.9427 154.92 46.9531L153.921 46.9844ZM154.11 50.0162C154.205 51.0146 154.34 51.9825 154.515 52.9198L155.498 52.7365C155.329 51.83 155.198 50.8917 155.106 49.9213L154.11 50.0162ZM154.516 52.9278C154.708 53.8697 154.941 54.7088 155.218 55.4423L156.154 55.0889C155.9 54.4162 155.68 53.6303 155.496 52.7285L154.516 52.9278ZM155.222 55.4513C155.519 56.1943 155.884 56.8143 156.327 57.2928L157.061 56.6134C156.723 56.2482 156.416 55.7432 156.15 55.0799L155.222 55.4513ZM156.334 57.2999C156.827 57.812 157.43 58.0859 158.123 58.0859V57.0859C157.723 57.0859 157.373 56.938 157.054 56.6063L156.334 57.2999ZM180.211 55.6406L179.759 55.4266L179.757 55.4319L180.211 55.6406ZM182.742 53.0391L182.971 53.4837L182.976 53.4813L182.742 53.0391ZM184.43 52.3359L184.287 51.8567L184.284 51.8578L184.43 52.3359ZM186.07 51.9844L186.13 52.4809L186.143 52.4791L186.07 51.9844ZM188.859 51.9844L188.787 52.4791L188.795 52.4802L188.803 52.4811L188.859 51.9844ZM192.188 53.0391L191.949 53.4786L191.959 53.4837L192.188 53.0391ZM193.641 54.1172L193.281 54.4643L193.287 54.4708L193.294 54.4771L193.641 54.1172ZM194.672 55.6406L194.211 55.8347L194.214 55.8421L194.218 55.8494L194.672 55.6406ZM194.672 59.7188L194.215 59.5145L194.211 59.5247L194.672 59.7188ZM193.641 61.2422L193.294 60.8822L193.287 60.8886L193.641 61.2422ZM192.188 62.3203L192.416 62.7651L192.426 62.7597L192.188 62.3203ZM188.859 63.3516L188.803 62.8548L188.795 62.8557L188.787 62.8569L188.859 63.3516ZM186.07 63.3516L186.143 62.8567L186.13 62.8552L186.07 63.3516ZM184.43 63L184.284 63.4782L184.287 63.4793L184.43 63ZM182.742 62.3203L182.504 62.7597L182.511 62.7638L182.519 62.7675L182.742 62.3203ZM181.266 61.2422L180.912 61.5958L180.919 61.6021L181.266 61.2422ZM180.211 59.7422L179.755 59.9464L179.758 59.9537L179.761 59.9609L180.211 59.7422ZM194.789 33.0469L195.28 33.1428L195.281 33.139L194.789 33.0469ZM192.164 46.0547L191.688 45.9017L191.686 45.907L192.164 46.0547ZM191.156 48.1641L191.553 48.4678L191.558 48.4622L191.156 48.1641ZM189.656 49.3359L189.462 48.8751L189.458 48.877L189.656 49.3359ZM184.219 48.1406L183.801 48.4153L183.806 48.4234L184.219 48.1406ZM183.281 46.0312L182.8 46.1686L182.804 46.1789L183.281 46.0312ZM182.508 42.8672L182.019 42.9711L182.019 42.9724L182.508 42.8672ZM181.641 38.5547L181.149 38.6482L181.15 38.6491L181.641 38.5547ZM180.469 32.9531L180.957 32.8439L180.954 32.8319L180.469 32.9531ZM180.469 27.6797L180.942 27.8408L180.943 27.8378L180.469 27.6797ZM181.711 25.7578L182.049 26.126L182.055 26.121L181.711 25.7578ZM183.984 24.4922L184.135 24.9689L184.14 24.9673L183.984 24.4922ZM193.453 25.7812L193.109 26.1445L193.114 26.149L193.453 25.7812ZM194.719 27.75L194.243 27.9052L194.244 27.9081L194.719 27.75ZM195 31.5938L194.504 31.5277L194.503 31.5358L194.502 31.544L195 31.5938ZM180.312 57.6797C180.312 56.9544 180.436 56.3489 180.665 55.8494L179.757 55.4319C179.455 56.0886 179.312 56.8424 179.312 57.6797H180.312ZM180.663 55.8547C180.922 55.3075 181.242 54.8482 181.619 54.4707L180.912 53.7636C180.446 54.2299 180.062 54.7863 179.759 55.4266L180.663 55.8547ZM181.619 54.4707C182.02 54.0697 182.47 53.7411 182.971 53.4837L182.514 52.5944C181.92 52.8995 181.386 53.2897 180.912 53.7636L181.619 54.4707ZM182.976 53.4813C183.512 53.1979 184.046 52.9761 184.576 52.8141L184.284 51.8578C183.689 52.0396 183.097 52.2865 182.509 52.5969L182.976 53.4813ZM184.572 52.8152C185.128 52.6501 185.647 52.5394 186.13 52.4807L186.01 51.488C185.463 51.5544 184.888 51.678 184.287 51.8567L184.572 52.8152ZM186.143 52.4791C186.658 52.4033 187.094 52.3672 187.453 52.3672V51.3672C187.031 51.3672 186.545 51.4092 185.998 51.4897L186.143 52.4791ZM187.453 52.3672C187.829 52.3672 188.272 52.4034 188.787 52.4791L188.932 51.4897C188.384 51.4091 187.89 51.3672 187.453 51.3672V52.3672ZM188.803 52.4811C189.317 52.54 189.842 52.6505 190.377 52.8141L190.67 51.8578C190.08 51.6776 189.495 51.5538 188.916 51.4876L188.803 52.4811ZM190.377 52.8141C190.906 52.9757 191.43 53.1967 191.949 53.4785L192.426 52.5996C191.851 52.2877 191.266 52.04 190.67 51.8578L190.377 52.8141ZM191.959 53.4837C192.457 53.7402 192.897 54.0667 193.281 54.4643L194.001 53.7701C193.54 53.2926 193.011 52.9005 192.416 52.5944L191.959 53.4837ZM193.294 54.4771C193.679 54.8492 193.986 55.2995 194.211 55.8347L195.133 55.4466C194.858 54.7942 194.477 54.2289 193.988 53.7573L193.294 54.4771ZM194.218 55.8494C194.447 56.3489 194.57 56.9544 194.57 57.6797H195.57C195.57 56.8424 195.428 56.0886 195.126 55.4319L194.218 55.8494ZM194.57 57.6797C194.57 58.3873 194.448 58.9954 194.215 59.5146L195.128 59.9229C195.427 59.2546 195.57 58.5034 195.57 57.6797H194.57ZM194.211 59.5247C193.986 60.0598 193.679 60.5102 193.294 60.8823L193.988 61.6021C194.477 61.1304 194.858 60.5652 195.133 59.9128L194.211 59.5247ZM193.287 60.8886C192.901 61.2751 192.455 61.606 191.949 61.8809L192.426 62.7597C193.013 62.4409 193.537 62.0531 193.994 61.5957L193.287 60.8886ZM191.959 61.8757C191.437 62.1439 190.91 62.359 190.377 62.5218L190.67 63.4782C191.262 63.2972 191.844 63.0592 192.416 62.765L191.959 61.8757ZM190.377 62.5218C189.842 62.6854 189.317 62.796 188.803 62.8548L188.916 63.8483C189.495 63.7821 190.08 63.6584 190.67 63.4782L190.377 62.5218ZM188.787 62.8569C188.272 62.9325 187.829 62.9688 187.453 62.9688V63.9688C187.89 63.9688 188.384 63.9269 188.932 63.8462L188.787 62.8569ZM187.453 62.9688C187.094 62.9688 186.658 62.9327 186.143 62.8569L185.998 63.8462C186.545 63.9267 187.031 63.9688 187.453 63.9688V62.9688ZM186.13 62.8552C185.647 62.7966 185.128 62.6859 184.572 62.5207L184.287 63.4793C184.888 63.6579 185.463 63.7816 186.01 63.8479L186.13 62.8552ZM184.576 62.5218C184.042 62.3586 183.505 62.1427 182.966 61.8731L182.519 62.7675C183.104 63.0604 183.693 63.2976 184.284 63.4782L184.576 62.5218ZM182.981 61.8809C182.473 61.605 182.017 61.2721 181.613 60.8823L180.919 61.6021C181.389 62.056 181.918 62.4419 182.504 62.7597L182.981 61.8809ZM181.619 60.8886C181.24 60.509 180.919 60.0555 180.661 59.5235L179.761 59.9609C180.065 60.5851 180.448 61.1316 180.912 61.5957L181.619 60.8886ZM180.667 59.538C180.436 59.0201 180.312 58.4045 180.312 57.6797H179.312C179.312 58.5174 179.455 59.2768 179.755 59.9464L180.667 59.538ZM194.298 32.9509C193.892 35.0317 193.547 36.8869 193.265 38.5163L194.25 38.6868C194.531 37.0662 194.874 35.2183 195.28 33.1428L194.298 32.9509ZM193.265 38.5163C192.984 40.138 192.72 41.5628 192.471 42.7914L193.451 42.9899C193.702 41.7497 193.969 40.3152 194.25 38.6868L193.265 38.5163ZM192.471 42.7914C192.223 44.0137 191.962 45.0494 191.688 45.9017L192.64 46.2077C192.929 45.31 193.199 44.2363 193.451 42.9899L192.471 42.7914ZM191.686 45.907C191.432 46.7286 191.118 47.3765 190.755 47.8659L191.558 48.4622C192.007 47.8579 192.364 47.0995 192.642 46.2023L191.686 45.907ZM190.759 47.8603C190.404 48.3252 189.973 48.6602 189.462 48.8751L189.85 49.7968C190.527 49.5117 191.096 49.0654 191.553 48.4678L190.759 47.8603ZM189.458 48.877C188.961 49.092 188.314 49.2109 187.5 49.2109V50.2109C188.404 50.2109 189.196 50.0799 189.855 49.7949L189.458 48.877ZM187.5 49.2109C186.768 49.2109 186.2 49.0933 185.773 48.886L185.337 49.7858C185.94 50.0785 186.669 50.2109 187.5 50.2109V49.2109ZM185.773 48.886C185.347 48.6795 184.965 48.3445 184.631 47.8579L183.806 48.4234C184.223 49.0305 184.731 49.4923 185.337 49.7858L185.773 48.886ZM184.637 47.866C184.311 47.37 184.015 46.7136 183.759 45.8836L182.804 46.1789C183.078 47.0677 183.408 47.8175 183.801 48.4152L184.637 47.866ZM183.762 45.8939C183.516 45.0327 183.261 43.9894 182.997 42.762L182.019 42.9724C182.286 44.2138 182.547 45.2798 182.8 46.1686L183.762 45.8939ZM182.997 42.7633C182.732 41.5172 182.444 40.083 182.132 38.4603L181.15 38.6491C181.463 40.2764 181.752 41.7172 182.019 42.9711L182.997 42.7633ZM182.132 38.4611C181.818 36.814 181.426 34.9415 180.957 32.8439L179.981 33.0624C180.449 35.1523 180.838 37.0141 181.149 38.6482L182.132 38.4611ZM180.954 32.8319C180.833 32.3497 180.743 31.8766 180.683 31.4126L179.692 31.5405C179.757 32.0452 179.854 32.5566 179.984 33.0744L180.954 32.8319ZM180.683 31.4126C180.623 30.9478 180.594 30.5005 180.594 30.0703H179.594C179.594 30.5464 179.627 31.0366 179.692 31.5405L180.683 31.4126ZM180.594 30.0703C180.594 29.2599 180.712 28.518 180.942 27.8408L179.995 27.5186C179.726 28.3101 179.594 29.162 179.594 30.0703H180.594ZM180.943 27.8378C181.166 27.1676 181.534 26.5995 182.049 26.126L181.373 25.3896C180.732 25.9787 180.271 26.6917 179.994 27.5216L180.943 27.8378ZM182.055 26.121C182.566 25.6368 183.253 25.2482 184.135 24.9689L183.833 24.0155C182.841 24.3299 182.012 24.7851 181.367 25.3946L182.055 26.121ZM184.14 24.9673C185.028 24.6763 186.143 24.5234 187.5 24.5234V23.5234C186.075 23.5234 184.847 23.6831 183.829 24.0171L184.14 24.9673ZM187.5 24.5234C188.921 24.5234 190.076 24.6768 190.979 24.968L191.286 24.0163C190.252 23.6826 188.985 23.5234 187.5 23.5234V24.5234ZM190.979 24.968C191.896 25.2638 192.599 25.6611 193.11 26.1445L193.797 25.418C193.151 24.8077 192.307 24.3456 191.286 24.0163L190.979 24.968ZM193.114 26.149C193.645 26.638 194.02 27.2211 194.243 27.9052L195.194 27.5948C194.917 26.7476 194.448 26.0182 193.792 25.4135L193.114 26.149ZM194.244 27.9081C194.475 28.6011 194.594 29.3673 194.594 30.2109H195.594C195.594 29.2733 195.462 28.3989 195.193 27.5919L194.244 27.9081ZM194.594 30.2109C194.594 30.641 194.564 31.0799 194.504 31.5277L195.496 31.6598C195.561 31.1701 195.594 30.6871 195.594 30.2109H194.594ZM194.502 31.544C194.457 31.9975 194.389 32.4677 194.298 32.9547L195.281 33.139C195.377 32.6261 195.449 32.1275 195.498 31.6435L194.502 31.544Z" fill="#272B32"/>
</svg>
