<svg width="32" height="45" viewBox="0 0 32 45" fill="none" xmlns="http://www.w3.org/2000/svg">
<path d="M31.8809 8.84363L28.9765 41.3807L15.921 45L2.90142 41.3857L0 8.84363H31.8809Z" fill="#E44D26"/>
<path d="M15.9405 42.2334L26.49 39.3087L28.9719 11.5043H15.9405V42.2334Z" fill="#F16529"/>
<path d="M10.2942 19.4868H15.9404V15.4956H5.93243L6.02791 16.5663L7.00892 27.5649H15.9404V23.5738H10.659L10.2942 19.4868Z" fill="#EBEBEB"/>
<path d="M11.1938 29.5605H7.18732L7.74643 35.8273L15.9221 38.0967L15.9404 38.0917V33.9392L15.9229 33.9438L11.478 32.7436L11.1938 29.5605Z" fill="#EBEBEB"/>
<path d="M2.96606 0H4.99432V2.00388H6.84974V0H8.87812V6.06826H6.84986V4.03626H4.99444V6.06826H2.96619V0H2.96606Z" fill="#272B32"/>
<path d="M11.5453 2.01238H9.75995V0H15.3603V2.01238H13.5739V6.06826H11.5456V2.01238H11.5455H11.5453Z" fill="#272B32"/>
<path d="M16.2492 0H18.3641L19.665 2.13223L20.9647 0H23.0804V6.06826H21.0604V3.0605L19.665 5.2181H19.63L18.2337 3.0605V6.06826H16.2492V0Z" fill="#272B32"/>
<path d="M24.0897 0H26.1186V4.06251H28.9709V6.06826H24.0896V0H24.0897Z" fill="#272B32"/>
<path d="M15.9267 27.5649H20.8414L20.378 32.7411L15.9266 33.9426V38.0948L24.1087 35.8272L24.1687 35.1529L25.1067 24.6455L25.2041 23.5737H15.9267V27.5649Z" fill="white"/>
<path d="M15.9267 19.477V19.4868H25.5672L25.6472 18.5897L25.8291 16.5663L25.9245 15.4956H15.9267V19.4771V19.477Z" fill="white"/>
</svg>
