<svg width="21" height="26" viewBox="0 0 21 26" fill="none" xmlns="http://www.w3.org/2000/svg">
<path d="M18.375 7.8H17.0625V6.5C17.0625 2.9159 14.1186 0 10.5 0C6.88144 0 3.9375 2.9159 3.9375 6.5V7.8H2.625C1.92881 7.8 1.26113 8.07393 0.768845 8.56152C0.276562 9.04912 0 9.71044 0 10.4V23.4C0 24.0896 0.276562 24.7509 0.768845 25.2385C1.26113 25.7261 1.92881 26 2.625 26H18.375C19.0712 26 19.7389 25.7261 20.2312 25.2385C20.7234 24.7509 21 24.0896 21 23.4V10.4C21 9.71044 20.7234 9.04912 20.2312 8.56152C19.7389 8.07393 19.0712 7.8 18.375 7.8ZM6.5625 6.5C6.5625 4.3498 8.32913 2.6 10.5 2.6C12.6709 2.6 14.4375 4.3498 14.4375 6.5V7.8H6.5625V6.5ZM11.8125 17.8399V20.8H9.1875V17.8399C8.40656 17.3901 7.875 16.5607 7.875 15.6C7.875 14.9104 8.15156 14.2491 8.64385 13.7615C9.13613 13.2739 9.80381 13 10.5 13C11.1962 13 11.8639 13.2739 12.3562 13.7615C12.8484 14.2491 13.125 14.9104 13.125 15.6C13.125 16.5594 12.5934 17.3888 11.8125 17.8399Z" fill="#2D4A91"/>
</svg>
