<svg width="290" height="336" viewBox="0 0 290 336" fill="none" xmlns="http://www.w3.org/2000/svg">
<path d="M252 166.859C252 174.078 251.531 181.391 250.594 188.797C249.75 196.203 248.25 203.375 246.094 210.312C243.938 217.25 241.078 223.766 237.516 229.859C233.953 235.953 229.5 241.297 224.156 245.891C218.906 250.391 212.625 253.953 205.312 256.578C198.094 259.203 189.75 260.516 180.281 260.516C169.594 260.516 160.359 259.391 152.578 257.141C144.891 254.891 138.328 252.172 132.891 248.984V281.75C132.891 285.688 133.406 288.688 134.438 290.75C135.469 292.906 136.734 294.5 138.234 295.531C139.734 296.656 141.375 297.406 143.156 297.781C145.031 298.25 146.719 298.719 148.219 299.188C149.719 299.656 150.984 300.312 152.016 301.156C153.047 302.094 153.562 303.594 153.562 305.656C153.562 316.344 148.031 324.031 136.969 328.719C125.906 333.5 109.922 335.891 89.0156 335.891C78.9844 335.891 70.0781 335.328 62.2969 334.203C54.5156 333.078 47.9531 331.25 42.6094 328.719C37.2656 326.281 33.1875 323.141 30.375 319.297C27.6562 315.547 26.2969 311 26.2969 305.656C26.2969 303.594 26.7656 302.094 27.7031 301.156C28.7344 300.312 30 299.656 31.5 299.188C33.0938 298.719 34.7344 298.297 36.4219 297.922C38.2031 297.547 39.8438 296.797 41.3438 295.672C42.9375 294.641 44.2031 293.094 45.1406 291.031C46.1719 289.062 46.6875 286.156 46.6875 282.312V128.328C46.6875 124.578 46.1719 121.672 45.1406 119.609C44.2031 117.547 42.9375 116 41.3438 114.969C39.8438 113.844 38.2031 113.094 36.4219 112.719C34.7344 112.344 33.0938 111.922 31.5 111.453C30 110.984 28.7344 110.328 27.7031 109.484C26.7656 108.547 26.2969 107.047 26.2969 104.984C26.2969 99.6406 27.6562 95.0938 30.375 91.3438C33.1875 87.5 37.2656 84.3594 42.6094 81.9219C47.9531 79.3906 54.5156 77.5625 62.2969 76.4375C70.0781 75.3125 78.9844 74.75 89.0156 74.75C99.9844 74.75 108.422 75.5469 114.328 77.1406C120.328 78.7344 124.688 81.5469 127.406 85.5781C130.031 83.6094 133.031 81.7344 136.406 79.9531C139.781 78.1719 143.578 76.625 147.797 75.3125C152.109 73.9062 156.844 72.7812 162 71.9375C167.25 71.0938 173.062 70.6719 179.438 70.6719C188.906 70.6719 197.297 72.0313 204.609 74.75C211.922 77.4687 218.25 81.1719 223.594 85.8594C229.031 90.4531 233.531 95.8906 237.094 102.172C240.75 108.453 243.656 115.156 245.812 122.281C248.062 129.406 249.656 136.766 250.594 144.359C251.531 151.953 252 159.453 252 166.859ZM132.891 221C134.859 221.75 136.875 222.312 138.938 222.688C141 223.062 143.109 223.25 145.266 223.25C150.516 223.25 154.547 222.453 157.359 220.859C160.172 219.172 162.234 216.219 163.547 212C164.859 207.781 165.609 202.062 165.797 194.844C166.078 187.625 166.219 178.484 166.219 167.422C166.219 155.797 165.797 146.094 164.953 138.312C164.109 130.438 162.75 124.203 160.875 119.609C159 114.922 156.562 111.594 153.562 109.625C150.562 107.656 146.906 106.672 142.594 106.672C140.906 106.672 139.219 106.812 137.531 107.094C135.844 107.375 134.297 107.797 132.891 108.359C133.078 111.266 133.172 114.359 133.172 117.641C133.172 120.922 133.172 124.484 133.172 128.328L132.891 221Z" fill="#F5CDC3"/>
<path d="M232.594 177.797L230.61 177.546L230.608 177.558L230.607 177.57L232.594 177.797ZM206.156 234.891L207.458 236.409L207.46 236.407L206.156 234.891ZM187.312 245.578L186.637 243.696L186.629 243.699L187.312 245.578ZM134.578 246.141L134.016 248.06L134.023 248.062L134.578 246.141ZM114.891 237.984L115.902 236.259L112.891 234.494V237.984H114.891ZM116.438 279.75L118.242 278.887L118.234 278.871L118.226 278.856L116.438 279.75ZM120.234 284.531L121.434 282.931L121.401 282.907L121.367 282.883L120.234 284.531ZM125.156 286.781L125.641 284.841L125.605 284.832L125.568 284.824L125.156 286.781ZM134.016 290.156L135.361 288.676L135.322 288.641L135.282 288.608L134.016 290.156ZM118.969 317.719L118.188 315.877L118.182 315.88L118.175 315.883L118.969 317.719ZM24.6094 317.719L25.4655 315.911L25.4525 315.905L25.4394 315.899L24.6094 317.719ZM12.375 308.297L10.7558 309.471L10.7609 309.478L12.375 308.297ZM9.70312 290.156L8.43665 288.608L8.35945 288.672L8.28891 288.742L9.70312 290.156ZM13.5 288.188L12.9357 286.269L12.9195 286.274L12.9035 286.279L13.5 288.188ZM18.4219 286.922L18.0099 284.965L17.9989 284.967L17.988 284.97L18.4219 286.922ZM23.3438 284.672L22.2572 282.993L22.1991 283.03L22.1438 283.072L23.3438 284.672ZM27.1406 280.031L25.369 279.103L25.343 279.153L25.3199 279.204L27.1406 280.031ZM27.1406 108.609L25.3199 109.437L25.3352 109.471L25.3518 109.504L27.1406 108.609ZM23.3438 103.969L22.1438 105.569L22.1991 105.61L22.2572 105.648L23.3438 103.969ZM18.4219 101.719L17.988 103.671L17.9989 103.674L18.0099 103.676L18.4219 101.719ZM13.5 100.453L12.9035 102.362L12.9195 102.367L12.9357 102.372L13.5 100.453ZM9.70312 98.4844L8.28891 99.8986L8.35945 99.9691L8.43665 100.032L9.70312 98.4844ZM12.375 80.3438L10.7609 79.1627L10.7558 79.1698L12.375 80.3438ZM24.6094 70.9219L25.4394 72.7415L25.4525 72.7355L25.4655 72.7294L24.6094 70.9219ZM96.3281 66.1406L95.8071 68.0716L95.8147 68.0736L96.3281 66.1406ZM109.406 74.5781L107.748 75.6964L108.924 77.4399L110.606 76.1781L109.406 74.5781ZM129.797 64.3125L130.391 66.2222L130.404 66.2182L130.417 66.214L129.797 64.3125ZM144 60.9375L143.683 58.9628L143.677 58.9638L144 60.9375ZM205.594 74.8594L204.275 76.3629L204.289 76.3752L204.303 76.3871L205.594 74.8594ZM219.094 91.1719L217.354 92.1586L217.36 92.1683L217.365 92.178L219.094 91.1719ZM227.812 111.281L225.898 111.861L225.902 111.872L225.905 111.884L227.812 111.281ZM114.891 210L112.891 209.994L112.886 211.377L114.179 211.869L114.891 210ZM139.359 209.859L140.345 211.599L140.367 211.587L140.388 211.574L139.359 209.859ZM147.797 183.844L145.798 183.766L145.798 183.779L145.798 183.792L147.797 183.844ZM146.953 127.312L144.965 127.526L144.965 127.528L146.953 127.312ZM142.875 108.609L141.018 109.352L141.023 109.365L142.875 108.609ZM114.891 97.3594L114.148 95.5024L112.801 96.041L112.895 97.4881L114.891 97.3594ZM115.172 117.328L117.172 117.334V117.328H115.172ZM232 155.859C232 162.991 231.537 170.22 230.61 177.546L234.578 178.048C235.526 170.561 236 163.165 236 155.859H232ZM230.607 177.57C229.777 184.855 228.302 191.904 226.184 198.719L230.004 199.906C232.198 192.846 233.723 185.551 234.581 178.023L230.607 177.57ZM226.184 198.719C224.071 205.516 221.273 211.891 217.789 217.85L221.242 219.869C224.884 213.64 227.804 206.984 230.004 199.906L226.184 198.719ZM217.789 217.85C214.338 223.753 210.028 228.925 204.852 233.374L207.46 236.407C212.972 231.669 217.568 226.154 221.242 219.869L217.789 217.85ZM204.855 233.372C199.811 237.695 193.748 241.143 186.637 243.696L187.988 247.461C195.502 244.763 202.002 241.086 207.458 236.409L204.855 233.372ZM186.629 243.699C179.674 246.228 171.569 247.516 162.281 247.516V251.516C171.931 251.516 180.514 250.178 187.996 247.458L186.629 243.699ZM162.281 247.516C151.726 247.516 142.687 246.404 135.134 244.219L134.023 248.062C142.031 250.378 151.462 251.516 162.281 251.516V247.516ZM135.14 244.221C127.569 242.005 121.166 239.345 115.902 236.259L113.879 239.71C119.49 242.999 126.212 245.776 134.016 248.06L135.14 244.221ZM112.891 237.984V270.75H116.891V237.984H112.891ZM112.891 270.75C112.891 274.807 113.413 278.173 114.649 280.644L118.226 278.856C117.4 277.202 116.891 274.568 116.891 270.75H112.891ZM114.633 280.613C115.77 282.989 117.236 284.897 119.101 286.179L121.367 282.883C120.233 282.103 119.168 280.823 118.242 278.887L114.633 280.613ZM119.034 286.131C120.761 287.426 122.669 288.301 124.744 288.738L125.568 284.824C124.081 284.511 122.708 283.887 121.434 282.931L119.034 286.131ZM124.671 288.722C126.517 289.183 128.166 289.641 129.622 290.096L130.815 286.279C129.271 285.796 127.546 285.317 125.641 284.841L124.671 288.722ZM129.622 290.096C130.921 290.502 131.948 291.049 132.749 291.704L135.282 288.608C134.021 287.576 132.517 286.81 130.815 286.279L129.622 290.096ZM132.67 291.636C133.118 292.043 133.562 292.885 133.562 294.656H137.562C137.562 292.303 136.975 290.144 135.361 288.676L132.67 291.636ZM133.562 294.656C133.562 299.637 132.281 303.809 129.791 307.269C127.289 310.746 123.472 313.639 118.188 315.877L119.749 319.56C125.528 317.111 130.007 313.817 133.038 309.606C136.079 305.379 137.562 300.363 137.562 294.656H133.562ZM118.175 315.883C107.483 320.504 91.8203 322.891 71.0156 322.891V326.891C92.0234 326.891 108.329 324.496 119.762 319.555L118.175 315.883ZM71.0156 322.891C61.0554 322.891 52.2479 322.332 44.5831 321.224L44.0107 325.183C51.9084 326.324 60.9133 326.891 71.0156 326.891V322.891ZM44.5831 321.224C36.9385 320.118 30.5807 318.334 25.4655 315.911L23.7532 319.526C29.3255 322.166 36.0928 324.038 44.0107 325.183L44.5831 321.224ZM25.4394 315.899C20.3354 313.571 16.5572 310.626 13.9891 307.116L10.7609 309.478C13.8178 313.656 18.1958 316.992 23.7794 319.538L25.4394 315.899ZM13.9942 307.123C11.5597 303.765 10.2969 299.646 10.2969 294.656H6.29688C6.29688 300.354 7.7528 305.329 10.7558 309.471L13.9942 307.123ZM10.2969 294.656C10.2969 292.837 10.7181 291.97 11.1173 291.57L8.28891 288.742C6.81314 290.218 6.29688 292.35 6.29688 294.656H10.2969ZM10.9696 291.704C11.7705 291.049 12.7978 290.502 14.0965 290.096L12.9035 286.279C11.2022 286.81 9.6982 287.576 8.43665 288.608L10.9696 291.704ZM14.0643 290.106C15.6133 289.651 17.2103 289.24 18.8557 288.874L17.988 284.97C16.2584 285.354 14.5742 285.787 12.9357 286.269L14.0643 290.106ZM18.8339 288.879C20.9094 288.442 22.8175 287.567 24.5437 286.272L22.1438 283.072C20.87 284.027 19.4968 284.652 18.0099 284.965L18.8339 288.879ZM24.4303 286.351C26.4027 285.075 27.8966 283.201 28.9614 280.859L25.3199 279.204C24.5097 280.986 23.4723 282.207 22.2572 282.993L24.4303 286.351ZM28.9123 280.959C30.166 278.566 30.6875 275.275 30.6875 271.312H26.6875C26.6875 275.037 26.1778 277.559 25.369 279.103L28.9123 280.959ZM30.6875 271.312V117.328H26.6875V271.312H30.6875ZM30.6875 117.328C30.6875 113.44 30.1602 110.176 28.9295 107.715L25.3518 109.504C26.1835 111.167 26.6875 113.716 26.6875 117.328H30.6875ZM28.9614 107.782C27.8966 105.439 26.4027 103.566 24.4303 102.29L22.2572 105.648C23.4723 106.434 24.5097 107.654 25.3199 109.437L28.9614 107.782ZM24.5437 102.369C22.8175 101.074 20.9094 100.199 18.8339 99.7617L18.0099 103.676C19.4968 103.989 20.87 104.613 22.1438 105.569L24.5437 102.369ZM18.8557 99.7664C17.2103 99.4007 15.6133 98.99 14.0643 98.5344L12.9357 102.372C14.5742 102.854 16.2584 103.287 17.988 103.671L18.8557 99.7664ZM14.0965 98.5442C12.7978 98.1383 11.7705 97.5918 10.9696 96.9365L8.43665 100.032C9.6982 101.064 11.2022 101.83 12.9035 102.362L14.0965 98.5442ZM11.1173 97.0702C10.7181 96.6709 10.2969 95.8034 10.2969 93.9844H6.29688C6.29688 96.2903 6.81314 98.4228 8.28891 99.8986L11.1173 97.0702ZM10.2969 93.9844C10.2969 88.9951 11.5597 84.8756 13.9942 81.5177L10.7558 79.1698C7.7528 83.3119 6.29688 88.2861 6.29688 93.9844H10.2969ZM13.9891 81.5248C16.5572 78.015 20.3354 75.0696 25.4394 72.7415L23.7794 69.1022C18.1958 71.6491 13.8178 74.985 10.7609 79.1627L13.9891 81.5248ZM25.4655 72.7294C30.5807 70.3064 36.9385 68.5222 44.5831 67.4169L44.0107 63.4581C36.0928 64.6028 29.3255 66.4749 23.7532 69.1144L25.4655 72.7294ZM44.5831 67.4169C52.2479 66.3088 61.0554 65.75 71.0156 65.75V61.75C60.9133 61.75 51.9084 62.3162 44.0107 63.4581L44.5831 67.4169ZM71.0156 65.75C81.9239 65.75 90.1545 66.5463 95.8071 68.0716L96.8492 64.2097C90.6892 62.5475 82.0448 61.75 71.0156 61.75V65.75ZM95.8147 68.0736C101.48 69.5785 105.368 72.1673 107.748 75.6964L111.064 73.4598C108.007 68.9265 103.176 65.8903 96.8416 64.2077L95.8147 68.0736ZM110.606 76.1781C113.135 74.2818 116.043 72.4617 119.34 70.7219L117.473 67.1844C114.019 69.007 110.928 70.937 108.206 72.9781L110.606 76.1781ZM119.34 70.7219C122.591 69.0061 126.272 67.5038 130.391 66.2222L129.203 62.4028C124.885 63.7462 120.972 65.3377 117.473 67.1844L119.34 70.7219ZM130.417 66.214C134.619 64.8437 139.253 63.7409 144.323 62.9112L143.677 58.9638C138.435 59.8216 133.6 60.9688 129.177 62.411L130.417 66.214ZM144.317 62.9122C149.444 62.0882 155.149 61.6719 161.438 61.6719V57.6719C154.976 57.6719 149.056 58.0993 143.683 58.9628L144.317 62.9122ZM161.438 61.6719C170.718 61.6719 178.865 63.0044 185.912 65.6246L187.306 61.8754C179.729 59.0581 171.095 57.6719 161.438 57.6719V61.6719ZM185.912 65.6246C193.019 68.2668 199.131 71.8509 204.275 76.3629L206.913 73.3559C201.369 68.4929 194.825 64.6707 187.306 61.8754L185.912 65.6246ZM204.303 76.3871C209.557 80.8262 213.906 86.0797 217.354 92.1586L220.833 90.1852C217.156 83.7015 212.505 78.08 206.884 73.3316L204.303 76.3871ZM217.365 92.178C220.941 98.3215 223.786 104.881 225.898 111.861L229.727 110.702C227.527 103.432 224.559 96.5848 220.822 90.1657L217.365 92.178ZM225.905 111.884C228.118 118.889 229.686 126.129 230.609 133.604L234.579 133.114C233.627 125.402 232.007 117.923 229.72 110.679L225.905 111.884ZM230.609 133.604C231.537 141.12 232 148.538 232 155.859H236C236 148.369 235.526 140.787 234.579 133.114L230.609 133.604ZM114.179 211.869C116.262 212.662 118.396 213.258 120.58 213.655L121.295 209.72C119.354 209.367 117.457 208.838 115.603 208.131L114.179 211.869ZM120.58 213.655C122.764 214.052 124.993 214.25 127.266 214.25V210.25C125.226 210.25 123.236 210.073 121.295 209.72L120.58 213.655ZM127.266 214.25C132.668 214.25 137.1 213.439 140.345 211.599L138.373 208.119C135.994 209.468 132.363 210.25 127.266 210.25V214.25ZM140.388 211.574C143.75 209.558 146.049 206.117 147.457 201.594L143.637 200.406C142.419 204.32 140.594 206.786 138.33 208.144L140.388 211.574ZM147.457 201.594C148.847 197.124 149.607 191.198 149.796 183.896L145.798 183.792C145.612 190.927 144.871 196.438 143.637 200.406L147.457 201.594ZM149.795 183.922C150.078 176.667 150.219 167.498 150.219 156.422H146.219C146.219 167.47 146.078 176.583 145.798 183.766L149.795 183.922ZM150.219 156.422C150.219 144.756 149.796 134.975 148.941 127.097L144.965 127.528C145.798 135.212 146.219 144.838 146.219 156.422H150.219ZM148.942 127.099C148.088 119.135 146.702 112.693 144.727 107.854L141.023 109.365C142.798 113.714 144.13 119.74 144.965 127.526L148.942 127.099ZM144.732 107.867C142.765 102.948 140.116 99.2209 136.66 96.9529L134.465 100.297C137.009 101.967 139.235 104.895 141.018 109.352L144.732 107.867ZM136.66 96.9529C133.273 94.7303 129.216 93.6719 124.594 93.6719V97.6719C128.596 97.6719 131.852 98.5822 134.465 100.297L136.66 96.9529ZM124.594 93.6719C122.795 93.6719 120.997 93.8219 119.202 94.121L119.86 98.0665C121.44 97.8031 123.018 97.6719 124.594 97.6719V93.6719ZM119.202 94.121C117.391 94.4229 115.703 94.8802 114.148 95.5024L115.633 99.2163C116.89 98.7136 118.296 98.3271 119.86 98.0665L119.202 94.121ZM112.895 97.4881C113.079 100.347 113.172 103.397 113.172 106.641H117.172C117.172 103.322 117.077 100.185 116.886 97.2306L112.895 97.4881ZM113.172 106.641C113.172 106.647 113.172 106.653 113.172 106.66C113.172 106.666 113.172 106.673 113.172 106.679C113.172 106.686 113.172 106.692 113.172 106.698C113.172 106.705 113.172 106.711 113.172 106.718C113.172 106.724 113.172 106.73 113.172 106.737C113.172 106.743 113.172 106.75 113.172 106.756C113.172 106.763 113.172 106.769 113.172 106.775C113.172 106.782 113.172 106.788 113.172 106.795C113.172 106.801 113.172 106.807 113.172 106.814C113.172 106.82 113.172 106.827 113.172 106.833C113.172 106.84 113.172 106.846 113.172 106.853C113.172 106.859 113.172 106.865 113.172 106.872C113.172 106.878 113.172 106.885 113.172 106.891C113.172 106.898 113.172 106.904 113.172 106.91C113.172 106.917 113.172 106.923 113.172 106.93C113.172 106.936 113.172 106.943 113.172 106.949C113.172 106.956 113.172 106.962 113.172 106.968C113.172 106.975 113.172 106.981 113.172 106.988C113.172 106.994 113.172 107.001 113.172 107.007C113.172 107.014 113.172 107.02 113.172 107.026C113.172 107.033 113.172 107.039 113.172 107.046C113.172 107.052 113.172 107.059 113.172 107.065C113.172 107.072 113.172 107.078 113.172 107.085C113.172 107.091 113.172 107.097 113.172 107.104C113.172 107.11 113.172 107.117 113.172 107.123C113.172 107.13 113.172 107.136 113.172 107.143C113.172 107.149 113.172 107.156 113.172 107.162C113.172 107.169 113.172 107.175 113.172 107.181C113.172 107.188 113.172 107.194 113.172 107.201C113.172 107.207 113.172 107.214 113.172 107.22C113.172 107.227 113.172 107.233 113.172 107.24C113.172 107.246 113.172 107.253 113.172 107.259C113.172 107.266 113.172 107.272 113.172 107.279C113.172 107.285 113.172 107.292 113.172 107.298C113.172 107.305 113.172 107.311 113.172 107.317C113.172 107.324 113.172 107.33 113.172 107.337C113.172 107.343 113.172 107.35 113.172 107.356C113.172 107.363 113.172 107.369 113.172 107.376C113.172 107.382 113.172 107.389 113.172 107.395C113.172 107.402 113.172 107.408 113.172 107.415C113.172 107.421 113.172 107.428 113.172 107.434C113.172 107.441 113.172 107.447 113.172 107.454C113.172 107.46 113.172 107.467 113.172 107.473C113.172 107.48 113.172 107.486 113.172 107.493C113.172 107.499 113.172 107.506 113.172 107.512C113.172 107.519 113.172 107.525 113.172 107.532C113.172 107.538 113.172 107.545 113.172 107.551C113.172 107.558 113.172 107.564 113.172 107.571C113.172 107.577 113.172 107.584 113.172 107.59C113.172 107.597 113.172 107.603 113.172 107.61C113.172 107.616 113.172 107.623 113.172 107.63C113.172 107.636 113.172 107.643 113.172 107.649C113.172 107.656 113.172 107.662 113.172 107.669C113.172 107.675 113.172 107.682 113.172 107.688C113.172 107.695 113.172 107.701 113.172 107.708C113.172 107.714 113.172 107.721 113.172 107.727C113.172 107.734 113.172 107.74 113.172 107.747C113.172 107.753 113.172 107.76 113.172 107.767C113.172 107.773 113.172 107.78 113.172 107.786C113.172 107.793 113.172 107.799 113.172 107.806C113.172 107.812 113.172 107.819 113.172 107.825C113.172 107.832 113.172 107.838 113.172 107.845C113.172 107.852 113.172 107.858 113.172 107.865C113.172 107.871 113.172 107.878 113.172 107.884C113.172 107.891 113.172 107.897 113.172 107.904C113.172 107.91 113.172 107.917 113.172 107.924C113.172 107.93 113.172 107.937 113.172 107.943C113.172 107.95 113.172 107.956 113.172 107.963C113.172 107.969 113.172 107.976 113.172 107.983C113.172 107.989 113.172 107.996 113.172 108.002C113.172 108.009 113.172 108.015 113.172 108.022C113.172 108.028 113.172 108.035 113.172 108.042C113.172 108.048 113.172 108.055 113.172 108.061C113.172 108.068 113.172 108.074 113.172 108.081C113.172 108.088 113.172 108.094 113.172 108.101C113.172 108.107 113.172 108.114 113.172 108.12C113.172 108.127 113.172 108.134 113.172 108.14C113.172 108.147 113.172 108.153 113.172 108.16C113.172 108.166 113.172 108.173 113.172 108.18C113.172 108.186 113.172 108.193 113.172 108.199C113.172 108.206 113.172 108.212 113.172 108.219C113.172 108.226 113.172 108.232 113.172 108.239C113.172 108.245 113.172 108.252 113.172 108.259C113.172 108.265 113.172 108.272 113.172 108.278C113.172 108.285 113.172 108.292 113.172 108.298C113.172 108.305 113.172 108.311 113.172 108.318C113.172 108.324 113.172 108.331 113.172 108.338C113.172 108.344 113.172 108.351 113.172 108.357C113.172 108.364 113.172 108.371 113.172 108.377C113.172 108.384 113.172 108.39 113.172 108.397C113.172 108.404 113.172 108.41 113.172 108.417C113.172 108.423 113.172 108.43 113.172 108.437C113.172 108.443 113.172 108.45 113.172 108.456C113.172 108.463 113.172 108.47 113.172 108.476C113.172 108.483 113.172 108.49 113.172 108.496C113.172 108.503 113.172 108.509 113.172 108.516C113.172 108.523 113.172 108.529 113.172 108.536C113.172 108.542 113.172 108.549 113.172 108.556C113.172 108.562 113.172 108.569 113.172 108.576C113.172 108.582 113.172 108.589 113.172 108.595C113.172 108.602 113.172 108.609 113.172 108.615C113.172 108.622 113.172 108.629 113.172 108.635C113.172 108.642 113.172 108.648 113.172 108.655C113.172 108.662 113.172 108.668 113.172 108.675C113.172 108.682 113.172 108.688 113.172 108.695C113.172 108.701 113.172 108.708 113.172 108.715C113.172 108.721 113.172 108.728 113.172 108.735C113.172 108.741 113.172 108.748 113.172 108.755C113.172 108.761 113.172 108.768 113.172 108.775C113.172 108.781 113.172 108.788 113.172 108.794C113.172 108.801 113.172 108.808 113.172 108.814C113.172 108.821 113.172 108.828 113.172 108.834C113.172 108.841 113.172 108.848 113.172 108.854C113.172 108.861 113.172 108.868 113.172 108.874C113.172 108.881 113.172 108.888 113.172 108.894C113.172 108.901 113.172 108.908 113.172 108.914C113.172 108.921 113.172 108.927 113.172 108.934C113.172 108.941 113.172 108.947 113.172 108.954C113.172 108.961 113.172 108.967 113.172 108.974C113.172 108.981 113.172 108.987 113.172 108.994C113.172 109.001 113.172 109.007 113.172 109.014C113.172 109.021 113.172 109.027 113.172 109.034C113.172 109.041 113.172 109.047 113.172 109.054C113.172 109.061 113.172 109.067 113.172 109.074C113.172 109.081 113.172 109.087 113.172 109.094C113.172 109.101 113.172 109.108 113.172 109.114C113.172 109.121 113.172 109.128 113.172 109.134C113.172 109.141 113.172 109.148 113.172 109.154C113.172 109.161 113.172 109.168 113.172 109.174C113.172 109.181 113.172 109.188 113.172 109.194C113.172 109.201 113.172 109.208 113.172 109.214C113.172 109.221 113.172 109.228 113.172 109.235C113.172 109.241 113.172 109.248 113.172 109.255C113.172 109.261 113.172 109.268 113.172 109.275C113.172 109.281 113.172 109.288 113.172 109.295C113.172 109.302 113.172 109.308 113.172 109.315C113.172 109.322 113.172 109.328 113.172 109.335C113.172 109.342 113.172 109.348 113.172 109.355C113.172 109.362 113.172 109.369 113.172 109.375C113.172 109.382 113.172 109.389 113.172 109.395C113.172 109.402 113.172 109.409 113.172 109.415C113.172 109.422 113.172 109.429 113.172 109.436C113.172 109.442 113.172 109.449 113.172 109.456C113.172 109.462 113.172 109.469 113.172 109.476C113.172 109.483 113.172 109.489 113.172 109.496C113.172 109.503 113.172 109.51 113.172 109.516C113.172 109.523 113.172 109.53 113.172 109.536C113.172 109.543 113.172 109.55 113.172 109.557C113.172 109.563 113.172 109.57 113.172 109.577C113.172 109.583 113.172 109.59 113.172 109.597C113.172 109.604 113.172 109.61 113.172 109.617C113.172 109.624 113.172 109.631 113.172 109.637C113.172 109.644 113.172 109.651 113.172 109.658C113.172 109.664 113.172 109.671 113.172 109.678C113.172 109.685 113.172 109.691 113.172 109.698C113.172 109.705 113.172 109.711 113.172 109.718C113.172 109.725 113.172 109.732 113.172 109.738C113.172 109.745 113.172 109.752 113.172 109.759C113.172 109.765 113.172 109.772 113.172 109.779C113.172 109.786 113.172 109.792 113.172 109.799C113.172 109.806 113.172 109.813 113.172 109.819C113.172 109.826 113.172 109.833 113.172 109.84C113.172 109.846 113.172 109.853 113.172 109.86C113.172 109.867 113.172 109.874 113.172 109.88C113.172 109.887 113.172 109.894 113.172 109.901C113.172 109.907 113.172 109.914 113.172 109.921C113.172 109.928 113.172 109.934 113.172 109.941C113.172 109.948 113.172 109.955 113.172 109.961C113.172 109.968 113.172 109.975 113.172 109.982C113.172 109.989 113.172 109.995 113.172 110.002C113.172 110.009 113.172 110.016 113.172 110.022C113.172 110.029 113.172 110.036 113.172 110.043C113.172 110.05 113.172 110.056 113.172 110.063C113.172 110.07 113.172 110.077 113.172 110.083C113.172 110.09 113.172 110.097 113.172 110.104C113.172 110.111 113.172 110.117 113.172 110.124C113.172 110.131 113.172 110.138 113.172 110.144C113.172 110.151 113.172 110.158 113.172 110.165C113.172 110.172 113.172 110.178 113.172 110.185C113.172 110.192 113.172 110.199 113.172 110.206C113.172 110.212 113.172 110.219 113.172 110.226C113.172 110.233 113.172 110.24 113.172 110.246C113.172 110.253 113.172 110.26 113.172 110.267C113.172 110.274 113.172 110.28 113.172 110.287C113.172 110.294 113.172 110.301 113.172 110.308C113.172 110.314 113.172 110.321 113.172 110.328C113.172 110.335 113.172 110.342 113.172 110.348C113.172 110.355 113.172 110.362 113.172 110.369C113.172 110.376 113.172 110.383 113.172 110.389C113.172 110.396 113.172 110.403 113.172 110.41C113.172 110.417 113.172 110.423 113.172 110.43C113.172 110.437 113.172 110.444 113.172 110.451C113.172 110.458 113.172 110.464 113.172 110.471C113.172 110.478 113.172 110.485 113.172 110.492C113.172 110.498 113.172 110.505 113.172 110.512C113.172 110.519 113.172 110.526 113.172 110.533C113.172 110.539 113.172 110.546 113.172 110.553C113.172 110.56 113.172 110.567 113.172 110.574C113.172 110.58 113.172 110.587 113.172 110.594C113.172 110.601 113.172 110.608 113.172 110.615C113.172 110.621 113.172 110.628 113.172 110.635C113.172 110.642 113.172 110.649 113.172 110.656C113.172 110.662 113.172 110.669 113.172 110.676C113.172 110.683 113.172 110.69 113.172 110.697C113.172 110.704 113.172 110.71 113.172 110.717C113.172 110.724 113.172 110.731 113.172 110.738C113.172 110.745 113.172 110.751 113.172 110.758C113.172 110.765 113.172 110.772 113.172 110.779C113.172 110.786 113.172 110.793 113.172 110.799C113.172 110.806 113.172 110.813 113.172 110.82C113.172 110.827 113.172 110.834 113.172 110.841C113.172 110.847 113.172 110.854 113.172 110.861C113.172 110.868 113.172 110.875 113.172 110.882C113.172 110.889 113.172 110.896 113.172 110.902C113.172 110.909 113.172 110.916 113.172 110.923C113.172 110.93 113.172 110.937 113.172 110.944C113.172 110.95 113.172 110.957 113.172 110.964C113.172 110.971 113.172 110.978 113.172 110.985C113.172 110.992 113.172 110.999 113.172 111.006C113.172 111.012 113.172 111.019 113.172 111.026C113.172 111.033 113.172 111.04 113.172 111.047C113.172 111.054 113.172 111.061 113.172 111.067C113.172 111.074 113.172 111.081 113.172 111.088C113.172 111.095 113.172 111.102 113.172 111.109C113.172 111.116 113.172 111.123 113.172 111.129C113.172 111.136 113.172 111.143 113.172 111.15C113.172 111.157 113.172 111.164 113.172 111.171C113.172 111.178 113.172 111.185 113.172 111.191C113.172 111.198 113.172 111.205 113.172 111.212C113.172 111.219 113.172 111.226 113.172 111.233C113.172 111.24 113.172 111.247 113.172 111.254C113.172 111.261 113.172 111.267 113.172 111.274C113.172 111.281 113.172 111.288 113.172 111.295C113.172 111.302 113.172 111.309 113.172 111.316C113.172 111.323 113.172 111.33 113.172 111.337C113.172 111.343 113.172 111.35 113.172 111.357C113.172 111.364 113.172 111.371 113.172 111.378C113.172 111.385 113.172 111.392 113.172 111.399C113.172 111.406 113.172 111.413 113.172 111.42C113.172 111.426 113.172 111.433 113.172 111.44C113.172 111.447 113.172 111.454 113.172 111.461C113.172 111.468 113.172 111.475 113.172 111.482C113.172 111.489 113.172 111.496 113.172 111.503C113.172 111.51 113.172 111.516 113.172 111.523C113.172 111.53 113.172 111.537 113.172 111.544C113.172 111.551 113.172 111.558 113.172 111.565C113.172 111.572 113.172 111.579 113.172 111.586C113.172 111.593 113.172 111.6 113.172 111.607C113.172 111.614 113.172 111.621 113.172 111.627C113.172 111.634 113.172 111.641 113.172 111.648C113.172 111.655 113.172 111.662 113.172 111.669C113.172 111.676 113.172 111.683 113.172 111.69C113.172 111.697 113.172 111.704 113.172 111.711C113.172 111.718 113.172 111.725 113.172 111.732C113.172 111.739 113.172 111.746 113.172 111.753C113.172 111.76 113.172 111.766 113.172 111.773C113.172 111.78 113.172 111.787 113.172 111.794C113.172 111.801 113.172 111.808 113.172 111.815C113.172 111.822 113.172 111.829 113.172 111.836C113.172 111.843 113.172 111.85 113.172 111.857C113.172 111.864 113.172 111.871 113.172 111.878C113.172 111.885 113.172 111.892 113.172 111.899C113.172 111.906 113.172 111.913 113.172 111.92C113.172 111.927 113.172 111.934 113.172 111.941C113.172 111.948 113.172 111.955 113.172 111.962C113.172 111.969 113.172 111.976 113.172 111.982C113.172 111.989 113.172 111.996 113.172 112.003C113.172 112.01 113.172 112.017 113.172 112.024C113.172 112.031 113.172 112.038 113.172 112.045C113.172 112.052 113.172 112.059 113.172 112.066C113.172 112.073 113.172 112.08 113.172 112.087C113.172 112.094 113.172 112.101 113.172 112.108C113.172 112.115 113.172 112.122 113.172 112.129C113.172 112.136 113.172 112.143 113.172 112.15C113.172 112.157 113.172 112.164 113.172 112.171C113.172 112.178 113.172 112.185 113.172 112.192C113.172 112.199 113.172 112.206 113.172 112.213C113.172 112.22 113.172 112.227 113.172 112.234C113.172 112.241 113.172 112.248 113.172 112.255C113.172 112.262 113.172 112.269 113.172 112.276C113.172 112.283 113.172 112.29 113.172 112.297C113.172 112.304 113.172 112.311 113.172 112.318C113.172 112.325 113.172 112.332 113.172 112.339C113.172 112.346 113.172 112.353 113.172 112.36C113.172 112.367 113.172 112.374 113.172 112.381C113.172 112.389 113.172 112.396 113.172 112.403C113.172 112.41 113.172 112.417 113.172 112.424C113.172 112.431 113.172 112.438 113.172 112.445C113.172 112.452 113.172 112.459 113.172 112.466C113.172 112.473 113.172 112.48 113.172 112.487C113.172 112.494 113.172 112.501 113.172 112.508C113.172 112.515 113.172 112.522 113.172 112.529C113.172 112.536 113.172 112.543 113.172 112.55C113.172 112.557 113.172 112.564 113.172 112.571C113.172 112.578 113.172 112.585 113.172 112.592C113.172 112.599 113.172 112.607 113.172 112.614C113.172 112.621 113.172 112.628 113.172 112.635C113.172 112.642 113.172 112.649 113.172 112.656C113.172 112.663 113.172 112.67 113.172 112.677C113.172 112.684 113.172 112.691 113.172 112.698C113.172 112.705 113.172 112.712 113.172 112.719C113.172 112.726 113.172 112.733 113.172 112.74C113.172 112.748 113.172 112.755 113.172 112.762C113.172 112.769 113.172 112.776 113.172 112.783C113.172 112.79 113.172 112.797 113.172 112.804C113.172 112.811 113.172 112.818 113.172 112.825C113.172 112.832 113.172 112.839 113.172 112.846C113.172 112.853 113.172 112.861 113.172 112.868C113.172 112.875 113.172 112.882 113.172 112.889C113.172 112.896 113.172 112.903 113.172 112.91C113.172 112.917 113.172 112.924 113.172 112.931C113.172 112.938 113.172 112.945 113.172 112.952C113.172 112.96 113.172 112.967 113.172 112.974C113.172 112.981 113.172 112.988 113.172 112.995C113.172 113.002 113.172 113.009 113.172 113.016C113.172 113.023 113.172 113.03 113.172 113.037C113.172 113.045 113.172 113.052 113.172 113.059C113.172 113.066 113.172 113.073 113.172 113.08C113.172 113.087 113.172 113.094 113.172 113.101C113.172 113.108 113.172 113.115 113.172 113.123C113.172 113.13 113.172 113.137 113.172 113.144C113.172 113.151 113.172 113.158 113.172 113.165C113.172 113.172 113.172 113.179 113.172 113.186C113.172 113.194 113.172 113.201 113.172 113.208C113.172 113.215 113.172 113.222 113.172 113.229C113.172 113.236 113.172 113.243 113.172 113.25C113.172 113.257 113.172 113.265 113.172 113.272C113.172 113.279 113.172 113.286 113.172 113.293C113.172 113.3 113.172 113.307 113.172 113.314C113.172 113.322 113.172 113.329 113.172 113.336C113.172 113.343 113.172 113.35 113.172 113.357C113.172 113.364 113.172 113.371 113.172 113.378C113.172 113.386 113.172 113.393 113.172 113.4C113.172 113.407 113.172 113.414 113.172 113.421C113.172 113.428 113.172 113.435 113.172 113.443C113.172 113.45 113.172 113.457 113.172 113.464C113.172 113.471 113.172 113.478 113.172 113.485C113.172 113.492 113.172 113.5 113.172 113.507C113.172 113.514 113.172 113.521 113.172 113.528C113.172 113.535 113.172 113.542 113.172 113.55C113.172 113.557 113.172 113.564 113.172 113.571C113.172 113.578 113.172 113.585 113.172 113.592C113.172 113.6 113.172 113.607 113.172 113.614C113.172 113.621 113.172 113.628 113.172 113.635C113.172 113.642 113.172 113.65 113.172 113.657C113.172 113.664 113.172 113.671 113.172 113.678C113.172 113.685 113.172 113.692 113.172 113.7C113.172 113.707 113.172 113.714 113.172 113.721C113.172 113.728 113.172 113.735 113.172 113.743C113.172 113.75 113.172 113.757 113.172 113.764C113.172 113.771 113.172 113.778 113.172 113.786C113.172 113.793 113.172 113.8 113.172 113.807C113.172 113.814 113.172 113.821 113.172 113.829C113.172 113.836 113.172 113.843 113.172 113.85C113.172 113.857 113.172 113.864 113.172 113.872C113.172 113.879 113.172 113.886 113.172 113.893C113.172 113.9 113.172 113.907 113.172 113.915C113.172 113.922 113.172 113.929 113.172 113.936C113.172 113.943 113.172 113.95 113.172 113.958C113.172 113.965 113.172 113.972 113.172 113.979C113.172 113.986 113.172 113.994 113.172 114.001C113.172 114.008 113.172 114.015 113.172 114.022C113.172 114.029 113.172 114.037 113.172 114.044C113.172 114.051 113.172 114.058 113.172 114.065C113.172 114.073 113.172 114.08 113.172 114.087C113.172 114.094 113.172 114.101 113.172 114.109C113.172 114.116 113.172 114.123 113.172 114.13C113.172 114.137 113.172 114.145 113.172 114.152C113.172 114.159 113.172 114.166 113.172 114.173C113.172 114.181 113.172 114.188 113.172 114.195C113.172 114.202 113.172 114.209 113.172 114.217C113.172 114.224 113.172 114.231 113.172 114.238C113.172 114.245 113.172 114.253 113.172 114.26C113.172 114.267 113.172 114.274 113.172 114.281C113.172 114.289 113.172 114.296 113.172 114.303C113.172 114.31 113.172 114.317 113.172 114.325C113.172 114.332 113.172 114.339 113.172 114.346C113.172 114.354 113.172 114.361 113.172 114.368C113.172 114.375 113.172 114.382 113.172 114.39C113.172 114.397 113.172 114.404 113.172 114.411C113.172 114.419 113.172 114.426 113.172 114.433C113.172 114.44 113.172 114.447 113.172 114.455C113.172 114.462 113.172 114.469 113.172 114.476C113.172 114.484 113.172 114.491 113.172 114.498C113.172 114.505 113.172 114.513 113.172 114.52C113.172 114.527 113.172 114.534 113.172 114.541C113.172 114.549 113.172 114.556 113.172 114.563C113.172 114.57 113.172 114.578 113.172 114.585C113.172 114.592 113.172 114.599 113.172 114.607C113.172 114.614 113.172 114.621 113.172 114.628C113.172 114.636 113.172 114.643 113.172 114.65C113.172 114.657 113.172 114.665 113.172 114.672C113.172 114.679 113.172 114.686 113.172 114.694C113.172 114.701 113.172 114.708 113.172 114.715C113.172 114.723 113.172 114.73 113.172 114.737C113.172 114.744 113.172 114.752 113.172 114.759C113.172 114.766 113.172 114.773 113.172 114.781C113.172 114.788 113.172 114.795 113.172 114.802C113.172 114.81 113.172 114.817 113.172 114.824C113.172 114.832 113.172 114.839 113.172 114.846C113.172 114.853 113.172 114.861 113.172 114.868C113.172 114.875 113.172 114.882 113.172 114.89C113.172 114.897 113.172 114.904 113.172 114.911C113.172 114.919 113.172 114.926 113.172 114.933C113.172 114.941 113.172 114.948 113.172 114.955C113.172 114.962 113.172 114.97 113.172 114.977C113.172 114.984 113.172 114.992 113.172 114.999C113.172 115.006 113.172 115.013 113.172 115.021C113.172 115.028 113.172 115.035 113.172 115.043C113.172 115.05 113.172 115.057 113.172 115.064C113.172 115.072 113.172 115.079 113.172 115.086C113.172 115.094 113.172 115.101 113.172 115.108C113.172 115.115 113.172 115.123 113.172 115.13C113.172 115.137 113.172 115.145 113.172 115.152C113.172 115.159 113.172 115.166 113.172 115.174C113.172 115.181 113.172 115.188 113.172 115.196C113.172 115.203 113.172 115.21 113.172 115.218C113.172 115.225 113.172 115.232 113.172 115.239C113.172 115.247 113.172 115.254 113.172 115.261C113.172 115.269 113.172 115.276 113.172 115.283C113.172 115.291 113.172 115.298 113.172 115.305C113.172 115.313 113.172 115.32 113.172 115.327C113.172 115.335 113.172 115.342 113.172 115.349C113.172 115.356 113.172 115.364 113.172 115.371C113.172 115.378 113.172 115.386 113.172 115.393C113.172 115.4 113.172 115.408 113.172 115.415C113.172 115.422 113.172 115.43 113.172 115.437C113.172 115.444 113.172 115.452 113.172 115.459C113.172 115.466 113.172 115.474 113.172 115.481C113.172 115.488 113.172 115.496 113.172 115.503C113.172 115.51 113.172 115.518 113.172 115.525C113.172 115.532 113.172 115.54 113.172 115.547C113.172 115.554 113.172 115.562 113.172 115.569C113.172 115.576 113.172 115.584 113.172 115.591C113.172 115.598 113.172 115.606 113.172 115.613C113.172 115.62 113.172 115.628 113.172 115.635C113.172 115.642 113.172 115.65 113.172 115.657C113.172 115.664 113.172 115.672 113.172 115.679C113.172 115.686 113.172 115.694 113.172 115.701C113.172 115.709 113.172 115.716 113.172 115.723C113.172 115.731 113.172 115.738 113.172 115.745C113.172 115.753 113.172 115.76 113.172 115.767C113.172 115.775 113.172 115.782 113.172 115.789C113.172 115.797 113.172 115.804 113.172 115.812C113.172 115.819 113.172 115.826 113.172 115.834C113.172 115.841 113.172 115.848 113.172 115.856C113.172 115.863 113.172 115.87 113.172 115.878C113.172 115.885 113.172 115.893 113.172 115.9C113.172 115.907 113.172 115.915 113.172 115.922C113.172 115.929 113.172 115.937 113.172 115.944C113.172 115.952 113.172 115.959 113.172 115.966C113.172 115.974 113.172 115.981 113.172 115.988C113.172 115.996 113.172 116.003 113.172 116.011C113.172 116.018 113.172 116.025 113.172 116.033C113.172 116.04 113.172 116.047 113.172 116.055C113.172 116.062 113.172 116.07 113.172 116.077C113.172 116.084 113.172 116.092 113.172 116.099C113.172 116.107 113.172 116.114 113.172 116.121C113.172 116.129 113.172 116.136 113.172 116.144C113.172 116.151 113.172 116.158 113.172 116.166C113.172 116.173 113.172 116.18 113.172 116.188C113.172 116.195 113.172 116.203 113.172 116.21C113.172 116.217 113.172 116.225 113.172 116.232C113.172 116.24 113.172 116.247 113.172 116.254C113.172 116.262 113.172 116.269 113.172 116.277C113.172 116.284 113.172 116.292 113.172 116.299C113.172 116.306 113.172 116.314 113.172 116.321C113.172 116.329 113.172 116.336 113.172 116.343C113.172 116.351 113.172 116.358 113.172 116.366C113.172 116.373 113.172 116.38 113.172 116.388C113.172 116.395 113.172 116.403 113.172 116.41C113.172 116.418 113.172 116.425 113.172 116.432C113.172 116.44 113.172 116.447 113.172 116.455C113.172 116.462 113.172 116.47 113.172 116.477C113.172 116.484 113.172 116.492 113.172 116.499C113.172 116.507 113.172 116.514 113.172 116.522C113.172 116.529 113.172 116.536 113.172 116.544C113.172 116.551 113.172 116.559 113.172 116.566C113.172 116.574 113.172 116.581 113.172 116.588C113.172 116.596 113.172 116.603 113.172 116.611C113.172 116.618 113.172 116.626 113.172 116.633C113.172 116.64 113.172 116.648 113.172 116.655C113.172 116.663 113.172 116.67 113.172 116.678C113.172 116.685 113.172 116.693 113.172 116.7C113.172 116.707 113.172 116.715 113.172 116.722C113.172 116.73 113.172 116.737 113.172 116.745C113.172 116.752 113.172 116.76 113.172 116.767C113.172 116.775 113.172 116.782 113.172 116.789C113.172 116.797 113.172 116.804 113.172 116.812C113.172 116.819 113.172 116.827 113.172 116.834C113.172 116.842 113.172 116.849 113.172 116.857C113.172 116.864 113.172 116.872 113.172 116.879C113.172 116.886 113.172 116.894 113.172 116.901C113.172 116.909 113.172 116.916 113.172 116.924C113.172 116.931 113.172 116.939 113.172 116.946C113.172 116.954 113.172 116.961 113.172 116.969C113.172 116.976 113.172 116.984 113.172 116.991C113.172 116.998 113.172 117.006 113.172 117.013C113.172 117.021 113.172 117.028 113.172 117.036C113.172 117.043 113.172 117.051 113.172 117.058C113.172 117.066 113.172 117.073 113.172 117.081C113.172 117.088 113.172 117.096 113.172 117.103C113.172 117.111 113.172 117.118 113.172 117.126C113.172 117.133 113.172 117.141 113.172 117.148C113.172 117.156 113.172 117.163 113.172 117.171C113.172 117.178 113.172 117.186 113.172 117.193C113.172 117.201 113.172 117.208 113.172 117.216C113.172 117.223 113.172 117.231 113.172 117.238C113.172 117.246 113.172 117.253 113.172 117.261C113.172 117.268 113.172 117.276 113.172 117.283C113.172 117.291 113.172 117.298 113.172 117.306C113.172 117.313 113.172 117.321 113.172 117.328H117.172C117.172 117.321 117.172 117.313 117.172 117.306C117.172 117.298 117.172 117.291 117.172 117.283C117.172 117.276 117.172 117.268 117.172 117.261C117.172 117.253 117.172 117.246 117.172 117.238C117.172 117.231 117.172 117.223 117.172 117.216C117.172 117.208 117.172 117.201 117.172 117.193C117.172 117.186 117.172 117.178 117.172 117.171C117.172 117.163 117.172 117.156 117.172 117.148C117.172 117.141 117.172 117.133 117.172 117.126C117.172 117.118 117.172 117.111 117.172 117.103C117.172 117.096 117.172 117.088 117.172 117.081C117.172 117.073 117.172 117.066 117.172 117.058C117.172 117.051 117.172 117.043 117.172 117.036C117.172 117.028 117.172 117.021 117.172 117.013C117.172 117.006 117.172 116.998 117.172 116.991C117.172 116.984 117.172 116.976 117.172 116.969C117.172 116.961 117.172 116.954 117.172 116.946C117.172 116.939 117.172 116.931 117.172 116.924C117.172 116.916 117.172 116.909 117.172 116.901C117.172 116.894 117.172 116.886 117.172 116.879C117.172 116.872 117.172 116.864 117.172 116.857C117.172 116.849 117.172 116.842 117.172 116.834C117.172 116.827 117.172 116.819 117.172 116.812C117.172 116.804 117.172 116.797 117.172 116.789C117.172 116.782 117.172 116.775 117.172 116.767C117.172 116.76 117.172 116.752 117.172 116.745C117.172 116.737 117.172 116.73 117.172 116.722C117.172 116.715 117.172 116.707 117.172 116.7C117.172 116.693 117.172 116.685 117.172 116.678C117.172 116.67 117.172 116.663 117.172 116.655C117.172 116.648 117.172 116.64 117.172 116.633C117.172 116.626 117.172 116.618 117.172 116.611C117.172 116.603 117.172 116.596 117.172 116.588C117.172 116.581 117.172 116.574 117.172 116.566C117.172 116.559 117.172 116.551 117.172 116.544C117.172 116.536 117.172 116.529 117.172 116.522C117.172 116.514 117.172 116.507 117.172 116.499C117.172 116.492 117.172 116.484 117.172 116.477C117.172 116.47 117.172 116.462 117.172 116.455C117.172 116.447 117.172 116.44 117.172 116.432C117.172 116.425 117.172 116.418 117.172 116.41C117.172 116.403 117.172 116.395 117.172 116.388C117.172 116.38 117.172 116.373 117.172 116.366C117.172 116.358 117.172 116.351 117.172 116.343C117.172 116.336 117.172 116.329 117.172 116.321C117.172 116.314 117.172 116.306 117.172 116.299C117.172 116.292 117.172 116.284 117.172 116.277C117.172 116.269 117.172 116.262 117.172 116.254C117.172 116.247 117.172 116.24 117.172 116.232C117.172 116.225 117.172 116.217 117.172 116.21C117.172 116.203 117.172 116.195 117.172 116.188C117.172 116.18 117.172 116.173 117.172 116.166C117.172 116.158 117.172 116.151 117.172 116.144C117.172 116.136 117.172 116.129 117.172 116.121C117.172 116.114 117.172 116.107 117.172 116.099C117.172 116.092 117.172 116.084 117.172 116.077C117.172 116.07 117.172 116.062 117.172 116.055C117.172 116.047 117.172 116.04 117.172 116.033C117.172 116.025 117.172 116.018 117.172 116.011C117.172 116.003 117.172 115.996 117.172 115.988C117.172 115.981 117.172 115.974 117.172 115.966C117.172 115.959 117.172 115.952 117.172 115.944C117.172 115.937 117.172 115.929 117.172 115.922C117.172 115.915 117.172 115.907 117.172 115.9C117.172 115.893 117.172 115.885 117.172 115.878C117.172 115.87 117.172 115.863 117.172 115.856C117.172 115.848 117.172 115.841 117.172 115.834C117.172 115.826 117.172 115.819 117.172 115.812C117.172 115.804 117.172 115.797 117.172 115.789C117.172 115.782 117.172 115.775 117.172 115.767C117.172 115.76 117.172 115.753 117.172 115.745C117.172 115.738 117.172 115.731 117.172 115.723C117.172 115.716 117.172 115.709 117.172 115.701C117.172 115.694 117.172 115.686 117.172 115.679C117.172 115.672 117.172 115.664 117.172 115.657C117.172 115.65 117.172 115.642 117.172 115.635C117.172 115.628 117.172 115.62 117.172 115.613C117.172 115.606 117.172 115.598 117.172 115.591C117.172 115.584 117.172 115.576 117.172 115.569C117.172 115.562 117.172 115.554 117.172 115.547C117.172 115.54 117.172 115.532 117.172 115.525C117.172 115.518 117.172 115.51 117.172 115.503C117.172 115.496 117.172 115.488 117.172 115.481C117.172 115.474 117.172 115.466 117.172 115.459C117.172 115.452 117.172 115.444 117.172 115.437C117.172 115.43 117.172 115.422 117.172 115.415C117.172 115.408 117.172 115.4 117.172 115.393C117.172 115.386 117.172 115.378 117.172 115.371C117.172 115.364 117.172 115.356 117.172 115.349C117.172 115.342 117.172 115.335 117.172 115.327C117.172 115.32 117.172 115.313 117.172 115.305C117.172 115.298 117.172 115.291 117.172 115.283C117.172 115.276 117.172 115.269 117.172 115.261C117.172 115.254 117.172 115.247 117.172 115.239C117.172 115.232 117.172 115.225 117.172 115.218C117.172 115.21 117.172 115.203 117.172 115.196C117.172 115.188 117.172 115.181 117.172 115.174C117.172 115.166 117.172 115.159 117.172 115.152C117.172 115.145 117.172 115.137 117.172 115.13C117.172 115.123 117.172 115.115 117.172 115.108C117.172 115.101 117.172 115.094 117.172 115.086C117.172 115.079 117.172 115.072 117.172 115.064C117.172 115.057 117.172 115.05 117.172 115.043C117.172 115.035 117.172 115.028 117.172 115.021C117.172 115.013 117.172 115.006 117.172 114.999C117.172 114.992 117.172 114.984 117.172 114.977C117.172 114.97 117.172 114.962 117.172 114.955C117.172 114.948 117.172 114.941 117.172 114.933C117.172 114.926 117.172 114.919 117.172 114.911C117.172 114.904 117.172 114.897 117.172 114.89C117.172 114.882 117.172 114.875 117.172 114.868C117.172 114.861 117.172 114.853 117.172 114.846C117.172 114.839 117.172 114.832 117.172 114.824C117.172 114.817 117.172 114.81 117.172 114.802C117.172 114.795 117.172 114.788 117.172 114.781C117.172 114.773 117.172 114.766 117.172 114.759C117.172 114.752 117.172 114.744 117.172 114.737C117.172 114.73 117.172 114.723 117.172 114.715C117.172 114.708 117.172 114.701 117.172 114.694C117.172 114.686 117.172 114.679 117.172 114.672C117.172 114.665 117.172 114.657 117.172 114.65C117.172 114.643 117.172 114.636 117.172 114.628C117.172 114.621 117.172 114.614 117.172 114.607C117.172 114.599 117.172 114.592 117.172 114.585C117.172 114.578 117.172 114.57 117.172 114.563C117.172 114.556 117.172 114.549 117.172 114.541C117.172 114.534 117.172 114.527 117.172 114.52C117.172 114.513 117.172 114.505 117.172 114.498C117.172 114.491 117.172 114.484 117.172 114.476C117.172 114.469 117.172 114.462 117.172 114.455C117.172 114.447 117.172 114.44 117.172 114.433C117.172 114.426 117.172 114.419 117.172 114.411C117.172 114.404 117.172 114.397 117.172 114.39C117.172 114.382 117.172 114.375 117.172 114.368C117.172 114.361 117.172 114.354 117.172 114.346C117.172 114.339 117.172 114.332 117.172 114.325C117.172 114.317 117.172 114.31 117.172 114.303C117.172 114.296 117.172 114.289 117.172 114.281C117.172 114.274 117.172 114.267 117.172 114.26C117.172 114.253 117.172 114.245 117.172 114.238C117.172 114.231 117.172 114.224 117.172 114.217C117.172 114.209 117.172 114.202 117.172 114.195C117.172 114.188 117.172 114.181 117.172 114.173C117.172 114.166 117.172 114.159 117.172 114.152C117.172 114.145 117.172 114.137 117.172 114.13C117.172 114.123 117.172 114.116 117.172 114.109C117.172 114.101 117.172 114.094 117.172 114.087C117.172 114.08 117.172 114.073 117.172 114.065C117.172 114.058 117.172 114.051 117.172 114.044C117.172 114.037 117.172 114.029 117.172 114.022C117.172 114.015 117.172 114.008 117.172 114.001C117.172 113.994 117.172 113.986 117.172 113.979C117.172 113.972 117.172 113.965 117.172 113.958C117.172 113.95 117.172 113.943 117.172 113.936C117.172 113.929 117.172 113.922 117.172 113.915C117.172 113.907 117.172 113.9 117.172 113.893C117.172 113.886 117.172 113.879 117.172 113.872C117.172 113.864 117.172 113.857 117.172 113.85C117.172 113.843 117.172 113.836 117.172 113.829C117.172 113.821 117.172 113.814 117.172 113.807C117.172 113.8 117.172 113.793 117.172 113.786C117.172 113.778 117.172 113.771 117.172 113.764C117.172 113.757 117.172 113.75 117.172 113.743C117.172 113.735 117.172 113.728 117.172 113.721C117.172 113.714 117.172 113.707 117.172 113.7C117.172 113.692 117.172 113.685 117.172 113.678C117.172 113.671 117.172 113.664 117.172 113.657C117.172 113.65 117.172 113.642 117.172 113.635C117.172 113.628 117.172 113.621 117.172 113.614C117.172 113.607 117.172 113.6 117.172 113.592C117.172 113.585 117.172 113.578 117.172 113.571C117.172 113.564 117.172 113.557 117.172 113.55C117.172 113.542 117.172 113.535 117.172 113.528C117.172 113.521 117.172 113.514 117.172 113.507C117.172 113.5 117.172 113.492 117.172 113.485C117.172 113.478 117.172 113.471 117.172 113.464C117.172 113.457 117.172 113.45 117.172 113.443C117.172 113.435 117.172 113.428 117.172 113.421C117.172 113.414 117.172 113.407 117.172 113.4C117.172 113.393 117.172 113.386 117.172 113.378C117.172 113.371 117.172 113.364 117.172 113.357C117.172 113.35 117.172 113.343 117.172 113.336C117.172 113.329 117.172 113.322 117.172 113.314C117.172 113.307 117.172 113.3 117.172 113.293C117.172 113.286 117.172 113.279 117.172 113.272C117.172 113.265 117.172 113.257 117.172 113.25C117.172 113.243 117.172 113.236 117.172 113.229C117.172 113.222 117.172 113.215 117.172 113.208C117.172 113.201 117.172 113.194 117.172 113.186C117.172 113.179 117.172 113.172 117.172 113.165C117.172 113.158 117.172 113.151 117.172 113.144C117.172 113.137 117.172 113.13 117.172 113.123C117.172 113.115 117.172 113.108 117.172 113.101C117.172 113.094 117.172 113.087 117.172 113.08C117.172 113.073 117.172 113.066 117.172 113.059C117.172 113.052 117.172 113.045 117.172 113.037C117.172 113.03 117.172 113.023 117.172 113.016C117.172 113.009 117.172 113.002 117.172 112.995C117.172 112.988 117.172 112.981 117.172 112.974C117.172 112.967 117.172 112.96 117.172 112.952C117.172 112.945 117.172 112.938 117.172 112.931C117.172 112.924 117.172 112.917 117.172 112.91C117.172 112.903 117.172 112.896 117.172 112.889C117.172 112.882 117.172 112.875 117.172 112.868C117.172 112.861 117.172 112.853 117.172 112.846C117.172 112.839 117.172 112.832 117.172 112.825C117.172 112.818 117.172 112.811 117.172 112.804C117.172 112.797 117.172 112.79 117.172 112.783C117.172 112.776 117.172 112.769 117.172 112.762C117.172 112.755 117.172 112.748 117.172 112.74C117.172 112.733 117.172 112.726 117.172 112.719C117.172 112.712 117.172 112.705 117.172 112.698C117.172 112.691 117.172 112.684 117.172 112.677C117.172 112.67 117.172 112.663 117.172 112.656C117.172 112.649 117.172 112.642 117.172 112.635C117.172 112.628 117.172 112.621 117.172 112.614C117.172 112.607 117.172 112.599 117.172 112.592C117.172 112.585 117.172 112.578 117.172 112.571C117.172 112.564 117.172 112.557 117.172 112.55C117.172 112.543 117.172 112.536 117.172 112.529C117.172 112.522 117.172 112.515 117.172 112.508C117.172 112.501 117.172 112.494 117.172 112.487C117.172 112.48 117.172 112.473 117.172 112.466C117.172 112.459 117.172 112.452 117.172 112.445C117.172 112.438 117.172 112.431 117.172 112.424C117.172 112.417 117.172 112.41 117.172 112.403C117.172 112.396 117.172 112.389 117.172 112.381C117.172 112.374 117.172 112.367 117.172 112.36C117.172 112.353 117.172 112.346 117.172 112.339C117.172 112.332 117.172 112.325 117.172 112.318C117.172 112.311 117.172 112.304 117.172 112.297C117.172 112.29 117.172 112.283 117.172 112.276C117.172 112.269 117.172 112.262 117.172 112.255C117.172 112.248 117.172 112.241 117.172 112.234C117.172 112.227 117.172 112.22 117.172 112.213C117.172 112.206 117.172 112.199 117.172 112.192C117.172 112.185 117.172 112.178 117.172 112.171C117.172 112.164 117.172 112.157 117.172 112.15C117.172 112.143 117.172 112.136 117.172 112.129C117.172 112.122 117.172 112.115 117.172 112.108C117.172 112.101 117.172 112.094 117.172 112.087C117.172 112.08 117.172 112.073 117.172 112.066C117.172 112.059 117.172 112.052 117.172 112.045C117.172 112.038 117.172 112.031 117.172 112.024C117.172 112.017 117.172 112.01 117.172 112.003C117.172 111.996 117.172 111.989 117.172 111.982C117.172 111.976 117.172 111.969 117.172 111.962C117.172 111.955 117.172 111.948 117.172 111.941C117.172 111.934 117.172 111.927 117.172 111.92C117.172 111.913 117.172 111.906 117.172 111.899C117.172 111.892 117.172 111.885 117.172 111.878C117.172 111.871 117.172 111.864 117.172 111.857C117.172 111.85 117.172 111.843 117.172 111.836C117.172 111.829 117.172 111.822 117.172 111.815C117.172 111.808 117.172 111.801 117.172 111.794C117.172 111.787 117.172 111.78 117.172 111.773C117.172 111.766 117.172 111.76 117.172 111.753C117.172 111.746 117.172 111.739 117.172 111.732C117.172 111.725 117.172 111.718 117.172 111.711C117.172 111.704 117.172 111.697 117.172 111.69C117.172 111.683 117.172 111.676 117.172 111.669C117.172 111.662 117.172 111.655 117.172 111.648C117.172 111.641 117.172 111.634 117.172 111.627C117.172 111.621 117.172 111.614 117.172 111.607C117.172 111.6 117.172 111.593 117.172 111.586C117.172 111.579 117.172 111.572 117.172 111.565C117.172 111.558 117.172 111.551 117.172 111.544C117.172 111.537 117.172 111.53 117.172 111.523C117.172 111.516 117.172 111.51 117.172 111.503C117.172 111.496 117.172 111.489 117.172 111.482C117.172 111.475 117.172 111.468 117.172 111.461C117.172 111.454 117.172 111.447 117.172 111.44C117.172 111.433 117.172 111.426 117.172 111.42C117.172 111.413 117.172 111.406 117.172 111.399C117.172 111.392 117.172 111.385 117.172 111.378C117.172 111.371 117.172 111.364 117.172 111.357C117.172 111.35 117.172 111.343 117.172 111.337C117.172 111.33 117.172 111.323 117.172 111.316C117.172 111.309 117.172 111.302 117.172 111.295C117.172 111.288 117.172 111.281 117.172 111.274C117.172 111.267 117.172 111.261 117.172 111.254C117.172 111.247 117.172 111.24 117.172 111.233C117.172 111.226 117.172 111.219 117.172 111.212C117.172 111.205 117.172 111.198 117.172 111.191C117.172 111.185 117.172 111.178 117.172 111.171C117.172 111.164 117.172 111.157 117.172 111.15C117.172 111.143 117.172 111.136 117.172 111.129C117.172 111.123 117.172 111.116 117.172 111.109C117.172 111.102 117.172 111.095 117.172 111.088C117.172 111.081 117.172 111.074 117.172 111.067C117.172 111.061 117.172 111.054 117.172 111.047C117.172 111.04 117.172 111.033 117.172 111.026C117.172 111.019 117.172 111.012 117.172 111.006C117.172 110.999 117.172 110.992 117.172 110.985C117.172 110.978 117.172 110.971 117.172 110.964C117.172 110.957 117.172 110.95 117.172 110.944C117.172 110.937 117.172 110.93 117.172 110.923C117.172 110.916 117.172 110.909 117.172 110.902C117.172 110.896 117.172 110.889 117.172 110.882C117.172 110.875 117.172 110.868 117.172 110.861C117.172 110.854 117.172 110.847 117.172 110.841C117.172 110.834 117.172 110.827 117.172 110.82C117.172 110.813 117.172 110.806 117.172 110.799C117.172 110.793 117.172 110.786 117.172 110.779C117.172 110.772 117.172 110.765 117.172 110.758C117.172 110.751 117.172 110.745 117.172 110.738C117.172 110.731 117.172 110.724 117.172 110.717C117.172 110.71 117.172 110.704 117.172 110.697C117.172 110.69 117.172 110.683 117.172 110.676C117.172 110.669 117.172 110.662 117.172 110.656C117.172 110.649 117.172 110.642 117.172 110.635C117.172 110.628 117.172 110.621 117.172 110.615C117.172 110.608 117.172 110.601 117.172 110.594C117.172 110.587 117.172 110.58 117.172 110.574C117.172 110.567 117.172 110.56 117.172 110.553C117.172 110.546 117.172 110.539 117.172 110.533C117.172 110.526 117.172 110.519 117.172 110.512C117.172 110.505 117.172 110.498 117.172 110.492C117.172 110.485 117.172 110.478 117.172 110.471C117.172 110.464 117.172 110.458 117.172 110.451C117.172 110.444 117.172 110.437 117.172 110.43C117.172 110.423 117.172 110.417 117.172 110.41C117.172 110.403 117.172 110.396 117.172 110.389C117.172 110.383 117.172 110.376 117.172 110.369C117.172 110.362 117.172 110.355 117.172 110.348C117.172 110.342 117.172 110.335 117.172 110.328C117.172 110.321 117.172 110.314 117.172 110.308C117.172 110.301 117.172 110.294 117.172 110.287C117.172 110.28 117.172 110.274 117.172 110.267C117.172 110.26 117.172 110.253 117.172 110.246C117.172 110.24 117.172 110.233 117.172 110.226C117.172 110.219 117.172 110.212 117.172 110.206C117.172 110.199 117.172 110.192 117.172 110.185C117.172 110.178 117.172 110.172 117.172 110.165C117.172 110.158 117.172 110.151 117.172 110.144C117.172 110.138 117.172 110.131 117.172 110.124C117.172 110.117 117.172 110.111 117.172 110.104C117.172 110.097 117.172 110.09 117.172 110.083C117.172 110.077 117.172 110.07 117.172 110.063C117.172 110.056 117.172 110.05 117.172 110.043C117.172 110.036 117.172 110.029 117.172 110.022C117.172 110.016 117.172 110.009 117.172 110.002C117.172 109.995 117.172 109.989 117.172 109.982C117.172 109.975 117.172 109.968 117.172 109.961C117.172 109.955 117.172 109.948 117.172 109.941C117.172 109.934 117.172 109.928 117.172 109.921C117.172 109.914 117.172 109.907 117.172 109.901C117.172 109.894 117.172 109.887 117.172 109.88C117.172 109.874 117.172 109.867 117.172 109.86C117.172 109.853 117.172 109.846 117.172 109.84C117.172 109.833 117.172 109.826 117.172 109.819C117.172 109.813 117.172 109.806 117.172 109.799C117.172 109.792 117.172 109.786 117.172 109.779C117.172 109.772 117.172 109.765 117.172 109.759C117.172 109.752 117.172 109.745 117.172 109.738C117.172 109.732 117.172 109.725 117.172 109.718C117.172 109.711 117.172 109.705 117.172 109.698C117.172 109.691 117.172 109.685 117.172 109.678C117.172 109.671 117.172 109.664 117.172 109.658C117.172 109.651 117.172 109.644 117.172 109.637C117.172 109.631 117.172 109.624 117.172 109.617C117.172 109.61 117.172 109.604 117.172 109.597C117.172 109.59 117.172 109.583 117.172 109.577C117.172 109.57 117.172 109.563 117.172 109.557C117.172 109.55 117.172 109.543 117.172 109.536C117.172 109.53 117.172 109.523 117.172 109.516C117.172 109.51 117.172 109.503 117.172 109.496C117.172 109.489 117.172 109.483 117.172 109.476C117.172 109.469 117.172 109.462 117.172 109.456C117.172 109.449 117.172 109.442 117.172 109.436C117.172 109.429 117.172 109.422 117.172 109.415C117.172 109.409 117.172 109.402 117.172 109.395C117.172 109.389 117.172 109.382 117.172 109.375C117.172 109.369 117.172 109.362 117.172 109.355C117.172 109.348 117.172 109.342 117.172 109.335C117.172 109.328 117.172 109.322 117.172 109.315C117.172 109.308 117.172 109.302 117.172 109.295C117.172 109.288 117.172 109.281 117.172 109.275C117.172 109.268 117.172 109.261 117.172 109.255C117.172 109.248 117.172 109.241 117.172 109.235C117.172 109.228 117.172 109.221 117.172 109.214C117.172 109.208 117.172 109.201 117.172 109.194C117.172 109.188 117.172 109.181 117.172 109.174C117.172 109.168 117.172 109.161 117.172 109.154C117.172 109.148 117.172 109.141 117.172 109.134C117.172 109.128 117.172 109.121 117.172 109.114C117.172 109.108 117.172 109.101 117.172 109.094C117.172 109.087 117.172 109.081 117.172 109.074C117.172 109.067 117.172 109.061 117.172 109.054C117.172 109.047 117.172 109.041 117.172 109.034C117.172 109.027 117.172 109.021 117.172 109.014C117.172 109.007 117.172 109.001 117.172 108.994C117.172 108.987 117.172 108.981 117.172 108.974C117.172 108.967 117.172 108.961 117.172 108.954C117.172 108.947 117.172 108.941 117.172 108.934C117.172 108.927 117.172 108.921 117.172 108.914C117.172 108.908 117.172 108.901 117.172 108.894C117.172 108.888 117.172 108.881 117.172 108.874C117.172 108.868 117.172 108.861 117.172 108.854C117.172 108.848 117.172 108.841 117.172 108.834C117.172 108.828 117.172 108.821 117.172 108.814C117.172 108.808 117.172 108.801 117.172 108.794C117.172 108.788 117.172 108.781 117.172 108.775C117.172 108.768 117.172 108.761 117.172 108.755C117.172 108.748 117.172 108.741 117.172 108.735C117.172 108.728 117.172 108.721 117.172 108.715C117.172 108.708 117.172 108.701 117.172 108.695C117.172 108.688 117.172 108.682 117.172 108.675C117.172 108.668 117.172 108.662 117.172 108.655C117.172 108.648 117.172 108.642 117.172 108.635C117.172 108.629 117.172 108.622 117.172 108.615C117.172 108.609 117.172 108.602 117.172 108.595C117.172 108.589 117.172 108.582 117.172 108.576C117.172 108.569 117.172 108.562 117.172 108.556C117.172 108.549 117.172 108.542 117.172 108.536C117.172 108.529 117.172 108.523 117.172 108.516C117.172 108.509 117.172 108.503 117.172 108.496C117.172 108.49 117.172 108.483 117.172 108.476C117.172 108.47 117.172 108.463 117.172 108.456C117.172 108.45 117.172 108.443 117.172 108.437C117.172 108.43 117.172 108.423 117.172 108.417C117.172 108.41 117.172 108.404 117.172 108.397C117.172 108.39 117.172 108.384 117.172 108.377C117.172 108.371 117.172 108.364 117.172 108.357C117.172 108.351 117.172 108.344 117.172 108.338C117.172 108.331 117.172 108.324 117.172 108.318C117.172 108.311 117.172 108.305 117.172 108.298C117.172 108.292 117.172 108.285 117.172 108.278C117.172 108.272 117.172 108.265 117.172 108.259C117.172 108.252 117.172 108.245 117.172 108.239C117.172 108.232 117.172 108.226 117.172 108.219C117.172 108.212 117.172 108.206 117.172 108.199C117.172 108.193 117.172 108.186 117.172 108.18C117.172 108.173 117.172 108.166 117.172 108.16C117.172 108.153 117.172 108.147 117.172 108.14C117.172 108.134 117.172 108.127 117.172 108.12C117.172 108.114 117.172 108.107 117.172 108.101C117.172 108.094 117.172 108.088 117.172 108.081C117.172 108.074 117.172 108.068 117.172 108.061C117.172 108.055 117.172 108.048 117.172 108.042C117.172 108.035 117.172 108.028 117.172 108.022C117.172 108.015 117.172 108.009 117.172 108.002C117.172 107.996 117.172 107.989 117.172 107.983C117.172 107.976 117.172 107.969 117.172 107.963C117.172 107.956 117.172 107.95 117.172 107.943C117.172 107.937 117.172 107.93 117.172 107.924C117.172 107.917 117.172 107.91 117.172 107.904C117.172 107.897 117.172 107.891 117.172 107.884C117.172 107.878 117.172 107.871 117.172 107.865C117.172 107.858 117.172 107.852 117.172 107.845C117.172 107.838 117.172 107.832 117.172 107.825C117.172 107.819 117.172 107.812 117.172 107.806C117.172 107.799 117.172 107.793 117.172 107.786C117.172 107.78 117.172 107.773 117.172 107.767C117.172 107.76 117.172 107.753 117.172 107.747C117.172 107.74 117.172 107.734 117.172 107.727C117.172 107.721 117.172 107.714 117.172 107.708C117.172 107.701 117.172 107.695 117.172 107.688C117.172 107.682 117.172 107.675 117.172 107.669C117.172 107.662 117.172 107.656 117.172 107.649C117.172 107.643 117.172 107.636 117.172 107.63C117.172 107.623 117.172 107.616 117.172 107.61C117.172 107.603 117.172 107.597 117.172 107.59C117.172 107.584 117.172 107.577 117.172 107.571C117.172 107.564 117.172 107.558 117.172 107.551C117.172 107.545 117.172 107.538 117.172 107.532C117.172 107.525 117.172 107.519 117.172 107.512C117.172 107.506 117.172 107.499 117.172 107.493C117.172 107.486 117.172 107.48 117.172 107.473C117.172 107.467 117.172 107.46 117.172 107.454C117.172 107.447 117.172 107.441 117.172 107.434C117.172 107.428 117.172 107.421 117.172 107.415C117.172 107.408 117.172 107.402 117.172 107.395C117.172 107.389 117.172 107.382 117.172 107.376C117.172 107.369 117.172 107.363 117.172 107.356C117.172 107.35 117.172 107.343 117.172 107.337C117.172 107.33 117.172 107.324 117.172 107.317C117.172 107.311 117.172 107.305 117.172 107.298C117.172 107.292 117.172 107.285 117.172 107.279C117.172 107.272 117.172 107.266 117.172 107.259C117.172 107.253 117.172 107.246 117.172 107.24C117.172 107.233 117.172 107.227 117.172 107.22C117.172 107.214 117.172 107.207 117.172 107.201C117.172 107.194 117.172 107.188 117.172 107.181C117.172 107.175 117.172 107.169 117.172 107.162C117.172 107.156 117.172 107.149 117.172 107.143C117.172 107.136 117.172 107.13 117.172 107.123C117.172 107.117 117.172 107.11 117.172 107.104C117.172 107.097 117.172 107.091 117.172 107.085C117.172 107.078 117.172 107.072 117.172 107.065C117.172 107.059 117.172 107.052 117.172 107.046C117.172 107.039 117.172 107.033 117.172 107.026C117.172 107.02 117.172 107.014 117.172 107.007C117.172 107.001 117.172 106.994 117.172 106.988C117.172 106.981 117.172 106.975 117.172 106.968C117.172 106.962 117.172 106.956 117.172 106.949C117.172 106.943 117.172 106.936 117.172 106.93C117.172 106.923 117.172 106.917 117.172 106.91C117.172 106.904 117.172 106.898 117.172 106.891C117.172 106.885 117.172 106.878 117.172 106.872C117.172 106.865 117.172 106.859 117.172 106.853C117.172 106.846 117.172 106.84 117.172 106.833C117.172 106.827 117.172 106.82 117.172 106.814C117.172 106.807 117.172 106.801 117.172 106.795C117.172 106.788 117.172 106.782 117.172 106.775C117.172 106.769 117.172 106.763 117.172 106.756C117.172 106.75 117.172 106.743 117.172 106.737C117.172 106.73 117.172 106.724 117.172 106.718C117.172 106.711 117.172 106.705 117.172 106.698C117.172 106.692 117.172 106.686 117.172 106.679C117.172 106.673 117.172 106.666 117.172 106.66C117.172 106.653 117.172 106.647 117.172 106.641H113.172ZM113.172 117.322L112.891 209.994L116.891 210.006L117.172 117.334L113.172 117.322Z" fill="#272B32"/>
</svg>
