<svg width="290" height="336" viewBox="0 0 290 336" fill="none" xmlns="http://www.w3.org/2000/svg">
<path d="M252 166.859C252 174.078 251.531 181.391 250.594 188.797C249.75 196.203 248.25 203.375 246.094 210.312C243.938 217.25 241.078 223.766 237.516 229.859C233.953 235.953 229.5 241.297 224.156 245.891C218.906 250.391 212.625 253.953 205.312 256.578C198.094 259.203 189.75 260.516 180.281 260.516C169.594 260.516 160.359 259.391 152.578 257.141C144.891 254.891 138.328 252.172 132.891 248.984V281.75C132.891 285.688 133.406 288.688 134.438 290.75C135.469 292.906 136.734 294.5 138.234 295.531C139.734 296.656 141.375 297.406 143.156 297.781C145.031 298.25 146.719 298.719 148.219 299.188C149.719 299.656 150.984 300.312 152.016 301.156C153.047 302.094 153.562 303.594 153.562 305.656C153.562 316.344 148.031 324.031 136.969 328.719C125.906 333.5 109.922 335.891 89.0156 335.891C78.9844 335.891 70.0781 335.328 62.2969 334.203C54.5156 333.078 47.9531 331.25 42.6094 328.719C37.2656 326.281 33.1875 323.141 30.375 319.297C27.6562 315.547 26.2969 311 26.2969 305.656C26.2969 303.594 26.7656 302.094 27.7031 301.156C28.7344 300.312 30 299.656 31.5 299.188C33.0938 298.719 34.7344 298.297 36.4219 297.922C38.2031 297.547 39.8438 296.797 41.3438 295.672C42.9375 294.641 44.2031 293.094 45.1406 291.031C46.1719 289.062 46.6875 286.156 46.6875 282.312V128.328C46.6875 124.578 46.1719 121.672 45.1406 119.609C44.2031 117.547 42.9375 116 41.3438 114.969C39.8438 113.844 38.2031 113.094 36.4219 112.719C34.7344 112.344 33.0938 111.922 31.5 111.453C30 110.984 28.7344 110.328 27.7031 109.484C26.7656 108.547 26.2969 107.047 26.2969 104.984C26.2969 99.6406 27.6562 95.0938 30.375 91.3438C33.1875 87.5 37.2656 84.3594 42.6094 81.9219C47.9531 79.3906 54.5156 77.5625 62.2969 76.4375C70.0781 75.3125 78.9844 74.75 89.0156 74.75C99.9844 74.75 108.422 75.5469 114.328 77.1406C120.328 78.7344 124.688 81.5469 127.406 85.5781C130.031 83.6094 133.031 81.7344 136.406 79.9531C139.781 78.1719 143.578 76.625 147.797 75.3125C152.109 73.9062 156.844 72.7812 162 71.9375C167.25 71.0938 173.062 70.6719 179.438 70.6719C188.906 70.6719 197.297 72.0313 204.609 74.75C211.922 77.4687 218.25 81.1719 223.594 85.8594C229.031 90.4531 233.531 95.8906 237.094 102.172C240.75 108.453 243.656 115.156 245.812 122.281C248.062 129.406 249.656 136.766 250.594 144.359C251.531 151.953 252 159.453 252 166.859ZM132.891 221C134.859 221.75 136.875 222.312 138.938 222.688C141 223.062 143.109 223.25 145.266 223.25C150.516 223.25 154.547 222.453 157.359 220.859C160.172 219.172 162.234 216.219 163.547 212C164.859 207.781 165.609 202.062 165.797 194.844C166.078 187.625 166.219 178.484 166.219 167.422C166.219 155.797 165.797 146.094 164.953 138.312C164.109 130.438 162.75 124.203 160.875 119.609C159 114.922 156.562 111.594 153.562 109.625C150.562 107.656 146.906 106.672 142.594 106.672C140.906 106.672 139.219 106.812 137.531 107.094C135.844 107.375 134.297 107.797 132.891 108.359C133.078 111.266 133.172 114.359 133.172 117.641C133.172 120.922 133.172 124.484 133.172 128.328L132.891 221Z" fill="#F5CDC3"/>
<path d="M232.594 177.797L225.649 176.918L225.644 176.961L225.639 177.005L232.594 177.797ZM206.156 234.891L210.712 240.205L210.719 240.199L206.156 234.891ZM187.312 245.578L184.947 238.99L184.934 238.995L184.92 239L187.312 245.578ZM134.578 246.141L132.612 252.859L132.623 252.862L132.634 252.865L134.578 246.141ZM114.891 237.984L118.431 231.945L107.891 225.767V237.984H114.891ZM116.438 279.75L122.752 276.73L122.726 276.674L122.698 276.62L116.438 279.75ZM120.234 284.531L124.434 278.931L124.319 278.845L124.2 278.763L120.234 284.531ZM125.156 286.781L126.854 279.99L126.727 279.958L126.598 279.931L125.156 286.781ZM134.016 290.156L138.724 284.977L138.589 284.854L138.448 284.739L134.016 290.156ZM118.969 317.719L116.238 311.273L116.215 311.283L116.192 311.293L118.969 317.719ZM24.6094 317.719L27.606 311.393L27.5603 311.371L27.5144 311.35L24.6094 317.719ZM12.375 308.297L6.70773 312.406L6.71673 312.418L6.72579 312.43L12.375 308.297ZM9.70312 290.156L5.27046 284.739L5.00025 284.96L4.75338 285.207L9.70312 290.156ZM13.5 288.188L11.5248 281.472L11.4683 281.489L11.4121 281.506L13.5 288.188ZM18.4219 286.922L16.9798 280.072L16.9415 280.08L16.9034 280.089L18.4219 286.922ZM23.3438 284.672L19.541 278.795L19.3376 278.927L19.1438 279.072L23.3438 284.672ZM27.1406 280.031L20.9398 276.783L20.849 276.957L20.7681 277.135L27.1406 280.031ZM27.1406 108.609L20.7681 111.506L20.8217 111.624L20.8796 111.74L27.1406 108.609ZM23.3438 103.969L19.1438 109.569L19.3376 109.714L19.541 109.846L23.3438 103.969ZM18.4219 101.719L16.9034 108.552L16.9415 108.561L16.9798 108.569L18.4219 101.719ZM13.5 100.453L11.4121 107.134L11.4683 107.152L11.5248 107.169L13.5 100.453ZM9.70312 98.4844L4.75338 103.434L5.00025 103.681L5.27046 103.902L9.70312 98.4844ZM12.375 80.3438L6.72579 76.2102L6.71673 76.2226L6.70773 76.235L12.375 80.3438ZM24.6094 70.9219L27.5144 77.2906L27.5603 77.2697L27.606 77.248L24.6094 70.9219ZM96.3281 66.1406L94.5045 72.8989L94.5178 72.9025L94.5311 72.906L96.3281 66.1406ZM109.406 74.5781L103.603 78.4921L107.718 84.5942L113.606 80.1781L109.406 74.5781ZM129.797 64.3125L131.876 70.9965L131.922 70.9824L131.967 70.9676L129.797 64.3125ZM144 60.9375L142.889 54.0262L142.879 54.0278L142.87 54.0294L144 60.9375ZM205.594 74.8594L200.978 80.1217L201.027 80.1646L201.076 80.2066L205.594 74.8594ZM219.094 91.1719L213.005 94.6253L213.024 94.6594L213.044 94.6934L219.094 91.1719ZM227.812 111.281L221.113 113.309L221.125 113.349L221.137 113.389L227.812 111.281ZM114.891 210L107.891 209.979L107.876 214.818L112.399 216.541L114.891 210ZM139.359 209.859L142.81 215.95L142.886 215.907L142.961 215.862L139.359 209.859ZM147.797 183.844L140.802 183.571L140.8 183.617L140.799 183.662L147.797 183.844ZM146.953 127.312L139.993 128.058L139.994 128.067L146.953 127.312ZM142.875 108.609L136.376 111.209L136.385 111.232L136.394 111.255L142.875 108.609ZM114.891 97.3594L112.291 90.86L107.578 92.745L107.905 97.8101L114.891 97.3594ZM115.172 117.328L122.172 117.349L122.172 117.339V117.328H115.172ZM227 155.859C227 162.774 226.551 169.793 225.649 176.918L239.538 178.676C240.511 170.988 241 163.382 241 155.859H227ZM225.639 177.005C224.843 183.986 223.432 190.727 221.409 197.235L234.778 201.39C237.068 194.023 238.657 186.42 239.549 178.589L225.639 177.005ZM221.409 197.235C219.406 203.679 216.759 209.705 213.473 215.326L225.559 222.392C229.397 215.826 232.469 208.821 234.778 201.39L221.409 197.235ZM213.473 215.326C210.301 220.752 206.348 225.495 201.593 229.582L210.719 240.199C216.652 235.099 221.605 229.155 225.559 222.392L213.473 215.326ZM201.601 229.576C197.072 233.457 191.557 236.617 184.947 238.99L189.678 252.166C197.693 249.289 204.74 245.324 210.712 240.205L201.601 229.576ZM184.92 239C178.623 241.289 171.117 242.516 162.281 242.516V256.516C172.383 256.516 181.564 255.117 189.705 252.157L184.92 239ZM162.281 242.516C152.055 242.516 143.507 241.436 136.523 239.416L132.634 252.865C141.211 255.345 151.132 256.516 162.281 256.516V242.516ZM136.544 239.422C129.267 237.292 123.261 234.777 118.431 231.945L111.351 244.023C117.395 247.567 124.515 250.489 132.612 252.859L136.544 239.422ZM107.891 237.984V270.75H121.891V237.984H107.891ZM107.891 270.75C107.891 275.107 108.43 279.387 110.177 282.88L122.698 276.62C122.383 275.988 121.891 274.268 121.891 270.75H107.891ZM110.123 282.77C111.522 285.696 113.49 288.389 116.269 290.3L124.2 278.763C123.979 278.611 123.416 278.117 122.752 276.73L110.123 282.77ZM116.034 290.131C118.326 291.85 120.903 293.039 123.714 293.631L126.598 279.931C125.847 279.773 125.143 279.462 124.434 278.931L116.034 290.131ZM123.459 293.572C125.231 294.015 126.785 294.448 128.131 294.869L132.307 281.506C130.652 280.989 128.832 280.485 126.854 279.99L123.459 293.572ZM128.131 294.869C128.926 295.117 129.358 295.39 129.583 295.574L138.448 284.739C136.611 283.235 134.511 282.195 132.307 281.506L128.131 294.869ZM129.307 295.336C129.086 295.135 128.912 294.92 128.782 294.716C128.655 294.515 128.588 294.352 128.556 294.26C128.499 294.095 128.562 294.179 128.562 294.656H142.562C142.562 291.576 141.797 287.77 138.724 284.977L129.307 295.336ZM128.562 294.656C128.562 298.729 127.533 301.847 125.732 304.349C123.892 306.906 120.901 309.297 116.238 311.273L121.7 324.164C128.099 321.453 133.405 317.656 137.096 312.526C140.827 307.341 142.562 301.271 142.562 294.656H128.562ZM116.192 311.293C106.426 315.514 91.5665 317.891 71.0156 317.891V331.891C92.2772 331.891 109.386 329.486 121.746 324.144L116.192 311.293ZM71.0156 317.891C61.233 317.891 52.6722 317.341 45.2985 316.275L43.2952 330.131C51.4841 331.315 60.7357 331.891 71.0156 331.891V317.891ZM45.2985 316.275C37.9956 315.219 32.1497 313.545 27.606 311.393L21.6128 324.045C27.7565 326.955 35.0357 328.937 43.2952 330.131L45.2985 316.275ZM27.5144 311.35C23.0099 309.295 19.9813 306.838 18.0242 304.163L6.72579 312.43C10.3937 317.443 15.5214 321.267 21.7043 324.087L27.5144 311.35ZM18.0423 304.188C16.3183 301.81 15.2969 298.759 15.2969 294.656H1.29688C1.29688 301.241 2.99418 307.284 6.70773 312.406L18.0423 304.188ZM15.2969 294.656C15.2969 294.125 15.3608 293.973 15.3298 294.072C15.2891 294.203 15.1199 294.639 14.6529 295.106L4.75338 285.207C1.93191 288.028 1.29688 291.742 1.29688 294.656H15.2969ZM14.1358 295.574C14.361 295.39 14.7924 295.117 15.5879 294.869L11.4121 281.506C9.20755 282.195 7.10777 283.235 5.27046 284.739L14.1358 295.574ZM15.4752 294.903C16.9121 294.48 18.4002 294.097 19.9404 293.755L16.9034 280.089C15.0685 280.496 13.2754 280.957 11.5248 281.472L15.4752 294.903ZM19.8639 293.772C22.6751 293.18 25.2519 291.991 27.5437 290.272L19.1438 279.072C18.4356 279.603 17.7311 279.914 16.9798 280.072L19.8639 293.772ZM27.1465 290.549C30.0658 288.66 32.1302 285.97 33.5132 282.928L20.7681 277.135C20.276 278.217 19.8092 278.621 19.541 278.795L27.1465 290.549ZM33.3414 283.279C35.1512 279.824 35.6875 275.573 35.6875 271.312H21.6875C21.6875 274.74 21.1925 276.301 20.9398 276.783L33.3414 283.279ZM35.6875 271.312V117.328H21.6875V271.312H35.6875ZM35.6875 117.328C35.6875 113.095 35.1312 108.938 33.4016 105.479L20.8796 111.74C21.2126 112.406 21.6875 114.062 21.6875 117.328H35.6875ZM33.5132 105.713C32.1302 102.67 30.0658 99.9807 27.1465 98.0918L19.541 109.846C19.8092 110.019 20.276 110.424 20.7681 111.506L33.5132 105.713ZM27.5437 98.3688C25.2519 96.6499 22.6751 95.4607 19.8639 94.8689L16.9798 108.569C17.7311 108.727 18.4356 109.038 19.1438 109.569L27.5437 98.3688ZM19.9404 94.8854C18.4002 94.5432 16.9121 94.1602 15.4752 93.7376L11.5248 107.169C13.2754 107.684 15.0685 108.144 16.9034 108.552L19.9404 94.8854ZM15.5879 93.7718C14.7924 93.5232 14.361 93.2509 14.1358 93.0667L5.27046 103.902C7.10777 105.405 9.20755 106.446 11.4121 107.134L15.5879 93.7718ZM14.6529 93.5346C15.1199 94.0016 15.2891 94.438 15.3298 94.5683C15.3608 94.6674 15.2969 94.5153 15.2969 93.9844H1.29688C1.29688 96.899 1.93191 100.613 4.75338 103.434L14.6529 93.5346ZM15.2969 93.9844C15.2969 89.8813 16.3183 86.8304 18.0423 84.4525L6.70773 76.235C2.99418 81.3571 1.29688 87.4 1.29688 93.9844H15.2969ZM18.0242 84.4773C19.9813 81.8026 23.0099 79.3453 27.5144 77.2906L21.7043 64.5531C15.5214 67.3734 10.3937 71.1974 6.72579 76.2102L18.0242 84.4773ZM27.606 77.248C32.1497 75.0957 37.9956 73.4213 45.2985 72.3655L43.2952 58.5095C35.0357 59.7037 27.7565 61.6855 21.6128 64.5957L27.606 77.248ZM45.2985 72.3655C52.6722 71.2994 61.233 70.75 71.0156 70.75V56.75C60.7357 56.75 51.4841 57.3256 43.2952 58.5095L45.2985 72.3655ZM71.0156 70.75C81.7728 70.75 89.4862 71.5448 94.5045 72.8989L98.1518 59.3824C91.3576 57.549 82.1959 56.75 71.0156 56.75V70.75ZM94.5311 72.906C99.3603 74.1888 102.069 76.2182 103.603 78.4921L115.21 70.6641C111.306 64.8755 105.296 61.28 98.1252 59.3752L94.5311 72.906ZM113.606 80.1781C115.893 78.4628 118.573 76.7801 121.674 75.1438L115.139 62.7624C111.489 64.6887 108.169 66.756 105.206 68.9781L113.606 80.1781ZM121.674 75.1438C124.615 73.5915 128.005 72.2008 131.876 70.9965L127.717 57.6285C123.151 59.0492 118.948 60.7522 115.139 62.7624L121.674 75.1438ZM131.967 70.9676C135.893 69.6872 140.275 68.6402 145.13 67.8456L142.87 54.0294C137.413 54.9223 132.325 56.1253 127.627 57.6574L131.967 70.9676ZM145.111 67.8488C149.93 67.0743 155.364 66.6719 161.438 66.6719V52.6719C154.761 52.6719 148.57 53.1132 142.889 54.0262L145.111 67.8488ZM161.438 66.6719C170.246 66.6719 177.785 67.9373 184.17 70.3112L189.049 57.1888C180.809 54.1252 171.566 52.6719 161.438 52.6719V66.6719ZM184.17 70.3112C190.762 72.762 196.334 76.0483 200.978 80.1217L210.21 69.5971C204.166 64.2954 197.082 60.1755 189.049 57.1888L184.17 70.3112ZM201.076 80.2066C205.873 84.259 209.844 89.0525 213.005 94.6253L225.183 87.7185C221.218 80.7287 216.189 74.6473 210.111 69.5122L201.076 80.2066ZM213.044 94.6934C216.42 100.492 219.11 106.693 221.113 113.309L234.512 109.254C232.202 101.62 229.08 94.4139 225.143 87.6504L213.044 94.6934ZM221.137 113.389C223.256 120.097 224.76 127.037 225.646 134.217L239.541 132.502C238.552 124.494 236.869 116.716 234.488 109.173L221.137 113.389ZM225.646 134.217C226.55 141.536 227 148.749 227 155.859H241C241 148.157 240.512 140.371 239.541 132.502L225.646 134.217ZM112.399 216.541C114.767 217.444 117.198 218.122 119.685 218.575L122.19 204.8C120.552 204.503 118.952 204.056 117.383 203.459L112.399 216.541ZM119.685 218.575C122.173 219.027 124.701 219.25 127.266 219.25V205.25C125.517 205.25 123.827 205.098 122.19 204.8L119.685 218.575ZM127.266 219.25C133.05 219.25 138.482 218.402 142.81 215.95L135.908 203.769C134.611 204.504 131.982 205.25 127.266 205.25V219.25ZM142.961 215.862C147.694 213.022 150.587 208.363 152.231 203.079L138.863 198.921C137.882 202.074 136.649 203.322 135.758 203.857L142.961 215.862ZM152.231 203.079C153.817 197.981 154.599 191.536 154.795 184.026L140.799 183.662C140.619 190.589 139.902 195.581 138.863 198.921L152.231 203.079ZM154.792 184.116C155.078 176.773 155.219 167.533 155.219 156.422H141.219C141.219 167.436 141.079 176.477 140.802 183.571L154.792 184.116ZM155.219 156.422C155.219 144.653 154.793 134.678 153.912 126.558L139.994 128.067C140.801 135.509 141.219 144.941 141.219 156.422H155.219ZM153.913 126.567C153.036 118.378 151.581 111.416 149.356 105.964L136.394 111.255C137.919 114.99 139.183 120.497 139.993 128.058L153.913 126.567ZM149.374 106.01C147.176 100.515 143.999 95.7889 139.403 92.7727L131.722 104.477C133.126 105.399 134.824 107.329 136.376 111.209L149.374 106.01ZM139.403 92.7727C135.049 89.9155 129.992 88.6719 124.594 88.6719V102.672C127.82 102.672 130.076 103.397 131.722 104.477L139.403 92.7727ZM124.594 88.6719C122.515 88.6719 120.443 88.8452 118.38 89.189L120.682 102.999C121.994 102.78 123.297 102.672 124.594 102.672V88.6719ZM118.38 89.189C116.26 89.5425 114.22 90.0885 112.291 90.86L117.49 103.859C118.374 103.505 119.428 103.208 120.682 102.999L118.38 89.189ZM107.905 97.8101C108.082 100.549 108.172 103.491 108.172 106.641H122.172C122.172 103.227 122.074 99.9823 121.876 96.9087L107.905 97.8101ZM108.172 106.641C108.172 106.647 108.172 106.653 108.172 106.66C108.172 106.666 108.172 106.673 108.172 106.679C108.172 106.686 108.172 106.692 108.172 106.698C108.172 106.705 108.172 106.711 108.172 106.718C108.172 106.724 108.172 106.73 108.172 106.737C108.172 106.743 108.172 106.75 108.172 106.756C108.172 106.763 108.172 106.769 108.172 106.775C108.172 106.782 108.172 106.788 108.172 106.795C108.172 106.801 108.172 106.807 108.172 106.814C108.172 106.82 108.172 106.827 108.172 106.833C108.172 106.84 108.172 106.846 108.172 106.853C108.172 106.859 108.172 106.865 108.172 106.872C108.172 106.878 108.172 106.885 108.172 106.891C108.172 106.898 108.172 106.904 108.172 106.91C108.172 106.917 108.172 106.923 108.172 106.93C108.172 106.936 108.172 106.943 108.172 106.949C108.172 106.956 108.172 106.962 108.172 106.968C108.172 106.975 108.172 106.981 108.172 106.988C108.172 106.994 108.172 107.001 108.172 107.007C108.172 107.014 108.172 107.02 108.172 107.026C108.172 107.033 108.172 107.039 108.172 107.046C108.172 107.052 108.172 107.059 108.172 107.065C108.172 107.072 108.172 107.078 108.172 107.085C108.172 107.091 108.172 107.097 108.172 107.104C108.172 107.11 108.172 107.117 108.172 107.123C108.172 107.13 108.172 107.136 108.172 107.143C108.172 107.149 108.172 107.156 108.172 107.162C108.172 107.169 108.172 107.175 108.172 107.181C108.172 107.188 108.172 107.194 108.172 107.201C108.172 107.207 108.172 107.214 108.172 107.22C108.172 107.227 108.172 107.233 108.172 107.24C108.172 107.246 108.172 107.253 108.172 107.259C108.172 107.266 108.172 107.272 108.172 107.279C108.172 107.285 108.172 107.292 108.172 107.298C108.172 107.305 108.172 107.311 108.172 107.317C108.172 107.324 108.172 107.33 108.172 107.337C108.172 107.343 108.172 107.35 108.172 107.356C108.172 107.363 108.172 107.369 108.172 107.376C108.172 107.382 108.172 107.389 108.172 107.395C108.172 107.402 108.172 107.408 108.172 107.415C108.172 107.421 108.172 107.428 108.172 107.434C108.172 107.441 108.172 107.447 108.172 107.454C108.172 107.46 108.172 107.467 108.172 107.473C108.172 107.48 108.172 107.486 108.172 107.493C108.172 107.499 108.172 107.506 108.172 107.512C108.172 107.519 108.172 107.525 108.172 107.532C108.172 107.538 108.172 107.545 108.172 107.551C108.172 107.558 108.172 107.564 108.172 107.571C108.172 107.577 108.172 107.584 108.172 107.59C108.172 107.597 108.172 107.603 108.172 107.61C108.172 107.616 108.172 107.623 108.172 107.63C108.172 107.636 108.172 107.643 108.172 107.649C108.172 107.656 108.172 107.662 108.172 107.669C108.172 107.675 108.172 107.682 108.172 107.688C108.172 107.695 108.172 107.701 108.172 107.708C108.172 107.714 108.172 107.721 108.172 107.727C108.172 107.734 108.172 107.74 108.172 107.747C108.172 107.753 108.172 107.76 108.172 107.767C108.172 107.773 108.172 107.78 108.172 107.786C108.172 107.793 108.172 107.799 108.172 107.806C108.172 107.812 108.172 107.819 108.172 107.825C108.172 107.832 108.172 107.838 108.172 107.845C108.172 107.852 108.172 107.858 108.172 107.865C108.172 107.871 108.172 107.878 108.172 107.884C108.172 107.891 108.172 107.897 108.172 107.904C108.172 107.91 108.172 107.917 108.172 107.924C108.172 107.93 108.172 107.937 108.172 107.943C108.172 107.95 108.172 107.956 108.172 107.963C108.172 107.969 108.172 107.976 108.172 107.983C108.172 107.989 108.172 107.996 108.172 108.002C108.172 108.009 108.172 108.015 108.172 108.022C108.172 108.028 108.172 108.035 108.172 108.042C108.172 108.048 108.172 108.055 108.172 108.061C108.172 108.068 108.172 108.074 108.172 108.081C108.172 108.088 108.172 108.094 108.172 108.101C108.172 108.107 108.172 108.114 108.172 108.12C108.172 108.127 108.172 108.134 108.172 108.14C108.172 108.147 108.172 108.153 108.172 108.16C108.172 108.166 108.172 108.173 108.172 108.18C108.172 108.186 108.172 108.193 108.172 108.199C108.172 108.206 108.172 108.212 108.172 108.219C108.172 108.226 108.172 108.232 108.172 108.239C108.172 108.245 108.172 108.252 108.172 108.259C108.172 108.265 108.172 108.272 108.172 108.278C108.172 108.285 108.172 108.292 108.172 108.298C108.172 108.305 108.172 108.311 108.172 108.318C108.172 108.324 108.172 108.331 108.172 108.338C108.172 108.344 108.172 108.351 108.172 108.357C108.172 108.364 108.172 108.371 108.172 108.377C108.172 108.384 108.172 108.39 108.172 108.397C108.172 108.404 108.172 108.41 108.172 108.417C108.172 108.423 108.172 108.43 108.172 108.437C108.172 108.443 108.172 108.45 108.172 108.456C108.172 108.463 108.172 108.47 108.172 108.476C108.172 108.483 108.172 108.49 108.172 108.496C108.172 108.503 108.172 108.509 108.172 108.516C108.172 108.523 108.172 108.529 108.172 108.536C108.172 108.542 108.172 108.549 108.172 108.556C108.172 108.562 108.172 108.569 108.172 108.576C108.172 108.582 108.172 108.589 108.172 108.595C108.172 108.602 108.172 108.609 108.172 108.615C108.172 108.622 108.172 108.629 108.172 108.635C108.172 108.642 108.172 108.648 108.172 108.655C108.172 108.662 108.172 108.668 108.172 108.675C108.172 108.682 108.172 108.688 108.172 108.695C108.172 108.701 108.172 108.708 108.172 108.715C108.172 108.721 108.172 108.728 108.172 108.735C108.172 108.741 108.172 108.748 108.172 108.755C108.172 108.761 108.172 108.768 108.172 108.775C108.172 108.781 108.172 108.788 108.172 108.794C108.172 108.801 108.172 108.808 108.172 108.814C108.172 108.821 108.172 108.828 108.172 108.834C108.172 108.841 108.172 108.848 108.172 108.854C108.172 108.861 108.172 108.868 108.172 108.874C108.172 108.881 108.172 108.888 108.172 108.894C108.172 108.901 108.172 108.908 108.172 108.914C108.172 108.921 108.172 108.927 108.172 108.934C108.172 108.941 108.172 108.947 108.172 108.954C108.172 108.961 108.172 108.967 108.172 108.974C108.172 108.981 108.172 108.987 108.172 108.994C108.172 109.001 108.172 109.007 108.172 109.014C108.172 109.021 108.172 109.027 108.172 109.034C108.172 109.041 108.172 109.047 108.172 109.054C108.172 109.061 108.172 109.067 108.172 109.074C108.172 109.081 108.172 109.087 108.172 109.094C108.172 109.101 108.172 109.108 108.172 109.114C108.172 109.121 108.172 109.128 108.172 109.134C108.172 109.141 108.172 109.148 108.172 109.154C108.172 109.161 108.172 109.168 108.172 109.174C108.172 109.181 108.172 109.188 108.172 109.194C108.172 109.201 108.172 109.208 108.172 109.214C108.172 109.221 108.172 109.228 108.172 109.235C108.172 109.241 108.172 109.248 108.172 109.255C108.172 109.261 108.172 109.268 108.172 109.275C108.172 109.281 108.172 109.288 108.172 109.295C108.172 109.302 108.172 109.308 108.172 109.315C108.172 109.322 108.172 109.328 108.172 109.335C108.172 109.342 108.172 109.348 108.172 109.355C108.172 109.362 108.172 109.369 108.172 109.375C108.172 109.382 108.172 109.389 108.172 109.395C108.172 109.402 108.172 109.409 108.172 109.415C108.172 109.422 108.172 109.429 108.172 109.436C108.172 109.442 108.172 109.449 108.172 109.456C108.172 109.462 108.172 109.469 108.172 109.476C108.172 109.483 108.172 109.489 108.172 109.496C108.172 109.503 108.172 109.51 108.172 109.516C108.172 109.523 108.172 109.53 108.172 109.536C108.172 109.543 108.172 109.55 108.172 109.557C108.172 109.563 108.172 109.57 108.172 109.577C108.172 109.583 108.172 109.59 108.172 109.597C108.172 109.604 108.172 109.61 108.172 109.617C108.172 109.624 108.172 109.631 108.172 109.637C108.172 109.644 108.172 109.651 108.172 109.658C108.172 109.664 108.172 109.671 108.172 109.678C108.172 109.685 108.172 109.691 108.172 109.698C108.172 109.705 108.172 109.711 108.172 109.718C108.172 109.725 108.172 109.732 108.172 109.738C108.172 109.745 108.172 109.752 108.172 109.759C108.172 109.765 108.172 109.772 108.172 109.779C108.172 109.786 108.172 109.792 108.172 109.799C108.172 109.806 108.172 109.813 108.172 109.819C108.172 109.826 108.172 109.833 108.172 109.84C108.172 109.846 108.172 109.853 108.172 109.86C108.172 109.867 108.172 109.874 108.172 109.88C108.172 109.887 108.172 109.894 108.172 109.901C108.172 109.907 108.172 109.914 108.172 109.921C108.172 109.928 108.172 109.934 108.172 109.941C108.172 109.948 108.172 109.955 108.172 109.961C108.172 109.968 108.172 109.975 108.172 109.982C108.172 109.989 108.172 109.995 108.172 110.002C108.172 110.009 108.172 110.016 108.172 110.022C108.172 110.029 108.172 110.036 108.172 110.043C108.172 110.05 108.172 110.056 108.172 110.063C108.172 110.07 108.172 110.077 108.172 110.083C108.172 110.09 108.172 110.097 108.172 110.104C108.172 110.111 108.172 110.117 108.172 110.124C108.172 110.131 108.172 110.138 108.172 110.144C108.172 110.151 108.172 110.158 108.172 110.165C108.172 110.172 108.172 110.178 108.172 110.185C108.172 110.192 108.172 110.199 108.172 110.206C108.172 110.212 108.172 110.219 108.172 110.226C108.172 110.233 108.172 110.24 108.172 110.246C108.172 110.253 108.172 110.26 108.172 110.267C108.172 110.274 108.172 110.28 108.172 110.287C108.172 110.294 108.172 110.301 108.172 110.308C108.172 110.314 108.172 110.321 108.172 110.328C108.172 110.335 108.172 110.342 108.172 110.348C108.172 110.355 108.172 110.362 108.172 110.369C108.172 110.376 108.172 110.383 108.172 110.389C108.172 110.396 108.172 110.403 108.172 110.41C108.172 110.417 108.172 110.423 108.172 110.43C108.172 110.437 108.172 110.444 108.172 110.451C108.172 110.458 108.172 110.464 108.172 110.471C108.172 110.478 108.172 110.485 108.172 110.492C108.172 110.498 108.172 110.505 108.172 110.512C108.172 110.519 108.172 110.526 108.172 110.533C108.172 110.539 108.172 110.546 108.172 110.553C108.172 110.56 108.172 110.567 108.172 110.574C108.172 110.58 108.172 110.587 108.172 110.594C108.172 110.601 108.172 110.608 108.172 110.615C108.172 110.621 108.172 110.628 108.172 110.635C108.172 110.642 108.172 110.649 108.172 110.656C108.172 110.662 108.172 110.669 108.172 110.676C108.172 110.683 108.172 110.69 108.172 110.697C108.172 110.704 108.172 110.71 108.172 110.717C108.172 110.724 108.172 110.731 108.172 110.738C108.172 110.745 108.172 110.751 108.172 110.758C108.172 110.765 108.172 110.772 108.172 110.779C108.172 110.786 108.172 110.793 108.172 110.799C108.172 110.806 108.172 110.813 108.172 110.82C108.172 110.827 108.172 110.834 108.172 110.841C108.172 110.847 108.172 110.854 108.172 110.861C108.172 110.868 108.172 110.875 108.172 110.882C108.172 110.889 108.172 110.896 108.172 110.902C108.172 110.909 108.172 110.916 108.172 110.923C108.172 110.93 108.172 110.937 108.172 110.944C108.172 110.95 108.172 110.957 108.172 110.964C108.172 110.971 108.172 110.978 108.172 110.985C108.172 110.992 108.172 110.999 108.172 111.006C108.172 111.012 108.172 111.019 108.172 111.026C108.172 111.033 108.172 111.04 108.172 111.047C108.172 111.054 108.172 111.061 108.172 111.067C108.172 111.074 108.172 111.081 108.172 111.088C108.172 111.095 108.172 111.102 108.172 111.109C108.172 111.116 108.172 111.123 108.172 111.129C108.172 111.136 108.172 111.143 108.172 111.15C108.172 111.157 108.172 111.164 108.172 111.171C108.172 111.178 108.172 111.185 108.172 111.191C108.172 111.198 108.172 111.205 108.172 111.212C108.172 111.219 108.172 111.226 108.172 111.233C108.172 111.24 108.172 111.247 108.172 111.254C108.172 111.261 108.172 111.267 108.172 111.274C108.172 111.281 108.172 111.288 108.172 111.295C108.172 111.302 108.172 111.309 108.172 111.316C108.172 111.323 108.172 111.33 108.172 111.337C108.172 111.343 108.172 111.35 108.172 111.357C108.172 111.364 108.172 111.371 108.172 111.378C108.172 111.385 108.172 111.392 108.172 111.399C108.172 111.406 108.172 111.413 108.172 111.42C108.172 111.426 108.172 111.433 108.172 111.44C108.172 111.447 108.172 111.454 108.172 111.461C108.172 111.468 108.172 111.475 108.172 111.482C108.172 111.489 108.172 111.496 108.172 111.503C108.172 111.51 108.172 111.516 108.172 111.523C108.172 111.53 108.172 111.537 108.172 111.544C108.172 111.551 108.172 111.558 108.172 111.565C108.172 111.572 108.172 111.579 108.172 111.586C108.172 111.593 108.172 111.6 108.172 111.607C108.172 111.614 108.172 111.621 108.172 111.627C108.172 111.634 108.172 111.641 108.172 111.648C108.172 111.655 108.172 111.662 108.172 111.669C108.172 111.676 108.172 111.683 108.172 111.69C108.172 111.697 108.172 111.704 108.172 111.711C108.172 111.718 108.172 111.725 108.172 111.732C108.172 111.739 108.172 111.746 108.172 111.753C108.172 111.76 108.172 111.766 108.172 111.773C108.172 111.78 108.172 111.787 108.172 111.794C108.172 111.801 108.172 111.808 108.172 111.815C108.172 111.822 108.172 111.829 108.172 111.836C108.172 111.843 108.172 111.85 108.172 111.857C108.172 111.864 108.172 111.871 108.172 111.878C108.172 111.885 108.172 111.892 108.172 111.899C108.172 111.906 108.172 111.913 108.172 111.92C108.172 111.927 108.172 111.934 108.172 111.941C108.172 111.948 108.172 111.955 108.172 111.962C108.172 111.969 108.172 111.976 108.172 111.982C108.172 111.989 108.172 111.996 108.172 112.003C108.172 112.01 108.172 112.017 108.172 112.024C108.172 112.031 108.172 112.038 108.172 112.045C108.172 112.052 108.172 112.059 108.172 112.066C108.172 112.073 108.172 112.08 108.172 112.087C108.172 112.094 108.172 112.101 108.172 112.108C108.172 112.115 108.172 112.122 108.172 112.129C108.172 112.136 108.172 112.143 108.172 112.15C108.172 112.157 108.172 112.164 108.172 112.171C108.172 112.178 108.172 112.185 108.172 112.192C108.172 112.199 108.172 112.206 108.172 112.213C108.172 112.22 108.172 112.227 108.172 112.234C108.172 112.241 108.172 112.248 108.172 112.255C108.172 112.262 108.172 112.269 108.172 112.276C108.172 112.283 108.172 112.29 108.172 112.297C108.172 112.304 108.172 112.311 108.172 112.318C108.172 112.325 108.172 112.332 108.172 112.339C108.172 112.346 108.172 112.353 108.172 112.36C108.172 112.367 108.172 112.374 108.172 112.381C108.172 112.389 108.172 112.396 108.172 112.403C108.172 112.41 108.172 112.417 108.172 112.424C108.172 112.431 108.172 112.438 108.172 112.445C108.172 112.452 108.172 112.459 108.172 112.466C108.172 112.473 108.172 112.48 108.172 112.487C108.172 112.494 108.172 112.501 108.172 112.508C108.172 112.515 108.172 112.522 108.172 112.529C108.172 112.536 108.172 112.543 108.172 112.55C108.172 112.557 108.172 112.564 108.172 112.571C108.172 112.578 108.172 112.585 108.172 112.592C108.172 112.599 108.172 112.607 108.172 112.614C108.172 112.621 108.172 112.628 108.172 112.635C108.172 112.642 108.172 112.649 108.172 112.656C108.172 112.663 108.172 112.67 108.172 112.677C108.172 112.684 108.172 112.691 108.172 112.698C108.172 112.705 108.172 112.712 108.172 112.719C108.172 112.726 108.172 112.733 108.172 112.74C108.172 112.748 108.172 112.755 108.172 112.762C108.172 112.769 108.172 112.776 108.172 112.783C108.172 112.79 108.172 112.797 108.172 112.804C108.172 112.811 108.172 112.818 108.172 112.825C108.172 112.832 108.172 112.839 108.172 112.846C108.172 112.853 108.172 112.861 108.172 112.868C108.172 112.875 108.172 112.882 108.172 112.889C108.172 112.896 108.172 112.903 108.172 112.91C108.172 112.917 108.172 112.924 108.172 112.931C108.172 112.938 108.172 112.945 108.172 112.952C108.172 112.96 108.172 112.967 108.172 112.974C108.172 112.981 108.172 112.988 108.172 112.995C108.172 113.002 108.172 113.009 108.172 113.016C108.172 113.023 108.172 113.03 108.172 113.037C108.172 113.045 108.172 113.052 108.172 113.059C108.172 113.066 108.172 113.073 108.172 113.08C108.172 113.087 108.172 113.094 108.172 113.101C108.172 113.108 108.172 113.115 108.172 113.123C108.172 113.13 108.172 113.137 108.172 113.144C108.172 113.151 108.172 113.158 108.172 113.165C108.172 113.172 108.172 113.179 108.172 113.186C108.172 113.194 108.172 113.201 108.172 113.208C108.172 113.215 108.172 113.222 108.172 113.229C108.172 113.236 108.172 113.243 108.172 113.25C108.172 113.257 108.172 113.265 108.172 113.272C108.172 113.279 108.172 113.286 108.172 113.293C108.172 113.3 108.172 113.307 108.172 113.314C108.172 113.322 108.172 113.329 108.172 113.336C108.172 113.343 108.172 113.35 108.172 113.357C108.172 113.364 108.172 113.371 108.172 113.378C108.172 113.386 108.172 113.393 108.172 113.4C108.172 113.407 108.172 113.414 108.172 113.421C108.172 113.428 108.172 113.435 108.172 113.443C108.172 113.45 108.172 113.457 108.172 113.464C108.172 113.471 108.172 113.478 108.172 113.485C108.172 113.492 108.172 113.5 108.172 113.507C108.172 113.514 108.172 113.521 108.172 113.528C108.172 113.535 108.172 113.542 108.172 113.55C108.172 113.557 108.172 113.564 108.172 113.571C108.172 113.578 108.172 113.585 108.172 113.592C108.172 113.6 108.172 113.607 108.172 113.614C108.172 113.621 108.172 113.628 108.172 113.635C108.172 113.642 108.172 113.65 108.172 113.657C108.172 113.664 108.172 113.671 108.172 113.678C108.172 113.685 108.172 113.692 108.172 113.7C108.172 113.707 108.172 113.714 108.172 113.721C108.172 113.728 108.172 113.735 108.172 113.743C108.172 113.75 108.172 113.757 108.172 113.764C108.172 113.771 108.172 113.778 108.172 113.786C108.172 113.793 108.172 113.8 108.172 113.807C108.172 113.814 108.172 113.821 108.172 113.829C108.172 113.836 108.172 113.843 108.172 113.85C108.172 113.857 108.172 113.864 108.172 113.872C108.172 113.879 108.172 113.886 108.172 113.893C108.172 113.9 108.172 113.907 108.172 113.915C108.172 113.922 108.172 113.929 108.172 113.936C108.172 113.943 108.172 113.95 108.172 113.958C108.172 113.965 108.172 113.972 108.172 113.979C108.172 113.986 108.172 113.994 108.172 114.001C108.172 114.008 108.172 114.015 108.172 114.022C108.172 114.029 108.172 114.037 108.172 114.044C108.172 114.051 108.172 114.058 108.172 114.065C108.172 114.073 108.172 114.08 108.172 114.087C108.172 114.094 108.172 114.101 108.172 114.109C108.172 114.116 108.172 114.123 108.172 114.13C108.172 114.137 108.172 114.145 108.172 114.152C108.172 114.159 108.172 114.166 108.172 114.173C108.172 114.181 108.172 114.188 108.172 114.195C108.172 114.202 108.172 114.209 108.172 114.217C108.172 114.224 108.172 114.231 108.172 114.238C108.172 114.245 108.172 114.253 108.172 114.26C108.172 114.267 108.172 114.274 108.172 114.281C108.172 114.289 108.172 114.296 108.172 114.303C108.172 114.31 108.172 114.317 108.172 114.325C108.172 114.332 108.172 114.339 108.172 114.346C108.172 114.354 108.172 114.361 108.172 114.368C108.172 114.375 108.172 114.382 108.172 114.39C108.172 114.397 108.172 114.404 108.172 114.411C108.172 114.419 108.172 114.426 108.172 114.433C108.172 114.44 108.172 114.447 108.172 114.455C108.172 114.462 108.172 114.469 108.172 114.476C108.172 114.484 108.172 114.491 108.172 114.498C108.172 114.505 108.172 114.513 108.172 114.52C108.172 114.527 108.172 114.534 108.172 114.541C108.172 114.549 108.172 114.556 108.172 114.563C108.172 114.57 108.172 114.578 108.172 114.585C108.172 114.592 108.172 114.599 108.172 114.607C108.172 114.614 108.172 114.621 108.172 114.628C108.172 114.636 108.172 114.643 108.172 114.65C108.172 114.657 108.172 114.665 108.172 114.672C108.172 114.679 108.172 114.686 108.172 114.694C108.172 114.701 108.172 114.708 108.172 114.715C108.172 114.723 108.172 114.73 108.172 114.737C108.172 114.744 108.172 114.752 108.172 114.759C108.172 114.766 108.172 114.773 108.172 114.781C108.172 114.788 108.172 114.795 108.172 114.802C108.172 114.81 108.172 114.817 108.172 114.824C108.172 114.832 108.172 114.839 108.172 114.846C108.172 114.853 108.172 114.861 108.172 114.868C108.172 114.875 108.172 114.882 108.172 114.89C108.172 114.897 108.172 114.904 108.172 114.911C108.172 114.919 108.172 114.926 108.172 114.933C108.172 114.941 108.172 114.948 108.172 114.955C108.172 114.962 108.172 114.97 108.172 114.977C108.172 114.984 108.172 114.992 108.172 114.999C108.172 115.006 108.172 115.013 108.172 115.021C108.172 115.028 108.172 115.035 108.172 115.043C108.172 115.05 108.172 115.057 108.172 115.064C108.172 115.072 108.172 115.079 108.172 115.086C108.172 115.094 108.172 115.101 108.172 115.108C108.172 115.115 108.172 115.123 108.172 115.13C108.172 115.137 108.172 115.145 108.172 115.152C108.172 115.159 108.172 115.166 108.172 115.174C108.172 115.181 108.172 115.188 108.172 115.196C108.172 115.203 108.172 115.21 108.172 115.218C108.172 115.225 108.172 115.232 108.172 115.239C108.172 115.247 108.172 115.254 108.172 115.261C108.172 115.269 108.172 115.276 108.172 115.283C108.172 115.291 108.172 115.298 108.172 115.305C108.172 115.313 108.172 115.32 108.172 115.327C108.172 115.335 108.172 115.342 108.172 115.349C108.172 115.356 108.172 115.364 108.172 115.371C108.172 115.378 108.172 115.386 108.172 115.393C108.172 115.4 108.172 115.408 108.172 115.415C108.172 115.422 108.172 115.43 108.172 115.437C108.172 115.444 108.172 115.452 108.172 115.459C108.172 115.466 108.172 115.474 108.172 115.481C108.172 115.488 108.172 115.496 108.172 115.503C108.172 115.51 108.172 115.518 108.172 115.525C108.172 115.532 108.172 115.54 108.172 115.547C108.172 115.554 108.172 115.562 108.172 115.569C108.172 115.576 108.172 115.584 108.172 115.591C108.172 115.598 108.172 115.606 108.172 115.613C108.172 115.62 108.172 115.628 108.172 115.635C108.172 115.642 108.172 115.65 108.172 115.657C108.172 115.664 108.172 115.672 108.172 115.679C108.172 115.686 108.172 115.694 108.172 115.701C108.172 115.709 108.172 115.716 108.172 115.723C108.172 115.731 108.172 115.738 108.172 115.745C108.172 115.753 108.172 115.76 108.172 115.767C108.172 115.775 108.172 115.782 108.172 115.789C108.172 115.797 108.172 115.804 108.172 115.812C108.172 115.819 108.172 115.826 108.172 115.834C108.172 115.841 108.172 115.848 108.172 115.856C108.172 115.863 108.172 115.87 108.172 115.878C108.172 115.885 108.172 115.893 108.172 115.9C108.172 115.907 108.172 115.915 108.172 115.922C108.172 115.929 108.172 115.937 108.172 115.944C108.172 115.952 108.172 115.959 108.172 115.966C108.172 115.974 108.172 115.981 108.172 115.988C108.172 115.996 108.172 116.003 108.172 116.011C108.172 116.018 108.172 116.025 108.172 116.033C108.172 116.04 108.172 116.047 108.172 116.055C108.172 116.062 108.172 116.07 108.172 116.077C108.172 116.084 108.172 116.092 108.172 116.099C108.172 116.107 108.172 116.114 108.172 116.121C108.172 116.129 108.172 116.136 108.172 116.144C108.172 116.151 108.172 116.158 108.172 116.166C108.172 116.173 108.172 116.18 108.172 116.188C108.172 116.195 108.172 116.203 108.172 116.21C108.172 116.217 108.172 116.225 108.172 116.232C108.172 116.24 108.172 116.247 108.172 116.254C108.172 116.262 108.172 116.269 108.172 116.277C108.172 116.284 108.172 116.292 108.172 116.299C108.172 116.306 108.172 116.314 108.172 116.321C108.172 116.329 108.172 116.336 108.172 116.343C108.172 116.351 108.172 116.358 108.172 116.366C108.172 116.373 108.172 116.38 108.172 116.388C108.172 116.395 108.172 116.403 108.172 116.41C108.172 116.418 108.172 116.425 108.172 116.432C108.172 116.44 108.172 116.447 108.172 116.455C108.172 116.462 108.172 116.47 108.172 116.477C108.172 116.484 108.172 116.492 108.172 116.499C108.172 116.507 108.172 116.514 108.172 116.522C108.172 116.529 108.172 116.536 108.172 116.544C108.172 116.551 108.172 116.559 108.172 116.566C108.172 116.574 108.172 116.581 108.172 116.588C108.172 116.596 108.172 116.603 108.172 116.611C108.172 116.618 108.172 116.626 108.172 116.633C108.172 116.64 108.172 116.648 108.172 116.655C108.172 116.663 108.172 116.67 108.172 116.678C108.172 116.685 108.172 116.693 108.172 116.7C108.172 116.707 108.172 116.715 108.172 116.722C108.172 116.73 108.172 116.737 108.172 116.745C108.172 116.752 108.172 116.76 108.172 116.767C108.172 116.775 108.172 116.782 108.172 116.789C108.172 116.797 108.172 116.804 108.172 116.812C108.172 116.819 108.172 116.827 108.172 116.834C108.172 116.842 108.172 116.849 108.172 116.857C108.172 116.864 108.172 116.872 108.172 116.879C108.172 116.886 108.172 116.894 108.172 116.901C108.172 116.909 108.172 116.916 108.172 116.924C108.172 116.931 108.172 116.939 108.172 116.946C108.172 116.954 108.172 116.961 108.172 116.969C108.172 116.976 108.172 116.984 108.172 116.991C108.172 116.998 108.172 117.006 108.172 117.013C108.172 117.021 108.172 117.028 108.172 117.036C108.172 117.043 108.172 117.051 108.172 117.058C108.172 117.066 108.172 117.073 108.172 117.081C108.172 117.088 108.172 117.096 108.172 117.103C108.172 117.111 108.172 117.118 108.172 117.126C108.172 117.133 108.172 117.141 108.172 117.148C108.172 117.156 108.172 117.163 108.172 117.171C108.172 117.178 108.172 117.186 108.172 117.193C108.172 117.201 108.172 117.208 108.172 117.216C108.172 117.223 108.172 117.231 108.172 117.238C108.172 117.246 108.172 117.253 108.172 117.261C108.172 117.268 108.172 117.276 108.172 117.283C108.172 117.291 108.172 117.298 108.172 117.306C108.172 117.313 108.172 117.321 108.172 117.328H122.172C122.172 117.321 122.172 117.313 122.172 117.306C122.172 117.298 122.172 117.291 122.172 117.283C122.172 117.276 122.172 117.268 122.172 117.261C122.172 117.253 122.172 117.246 122.172 117.238C122.172 117.231 122.172 117.223 122.172 117.216C122.172 117.208 122.172 117.201 122.172 117.193C122.172 117.186 122.172 117.178 122.172 117.171C122.172 117.163 122.172 117.156 122.172 117.148C122.172 117.141 122.172 117.133 122.172 117.126C122.172 117.118 122.172 117.111 122.172 117.103C122.172 117.096 122.172 117.088 122.172 117.081C122.172 117.073 122.172 117.066 122.172 117.058C122.172 117.051 122.172 117.043 122.172 117.036C122.172 117.028 122.172 117.021 122.172 117.013C122.172 117.006 122.172 116.998 122.172 116.991C122.172 116.984 122.172 116.976 122.172 116.969C122.172 116.961 122.172 116.954 122.172 116.946C122.172 116.939 122.172 116.931 122.172 116.924C122.172 116.916 122.172 116.909 122.172 116.901C122.172 116.894 122.172 116.886 122.172 116.879C122.172 116.872 122.172 116.864 122.172 116.857C122.172 116.849 122.172 116.842 122.172 116.834C122.172 116.827 122.172 116.819 122.172 116.812C122.172 116.804 122.172 116.797 122.172 116.789C122.172 116.782 122.172 116.775 122.172 116.767C122.172 116.76 122.172 116.752 122.172 116.745C122.172 116.737 122.172 116.73 122.172 116.722C122.172 116.715 122.172 116.707 122.172 116.7C122.172 116.693 122.172 116.685 122.172 116.678C122.172 116.67 122.172 116.663 122.172 116.655C122.172 116.648 122.172 116.64 122.172 116.633C122.172 116.626 122.172 116.618 122.172 116.611C122.172 116.603 122.172 116.596 122.172 116.588C122.172 116.581 122.172 116.574 122.172 116.566C122.172 116.559 122.172 116.551 122.172 116.544C122.172 116.536 122.172 116.529 122.172 116.522C122.172 116.514 122.172 116.507 122.172 116.499C122.172 116.492 122.172 116.484 122.172 116.477C122.172 116.47 122.172 116.462 122.172 116.455C122.172 116.447 122.172 116.44 122.172 116.432C122.172 116.425 122.172 116.418 122.172 116.41C122.172 116.403 122.172 116.395 122.172 116.388C122.172 116.38 122.172 116.373 122.172 116.366C122.172 116.358 122.172 116.351 122.172 116.343C122.172 116.336 122.172 116.329 122.172 116.321C122.172 116.314 122.172 116.306 122.172 116.299C122.172 116.292 122.172 116.284 122.172 116.277C122.172 116.269 122.172 116.262 122.172 116.254C122.172 116.247 122.172 116.24 122.172 116.232C122.172 116.225 122.172 116.217 122.172 116.21C122.172 116.203 122.172 116.195 122.172 116.188C122.172 116.18 122.172 116.173 122.172 116.166C122.172 116.158 122.172 116.151 122.172 116.144C122.172 116.136 122.172 116.129 122.172 116.121C122.172 116.114 122.172 116.107 122.172 116.099C122.172 116.092 122.172 116.084 122.172 116.077C122.172 116.07 122.172 116.062 122.172 116.055C122.172 116.047 122.172 116.04 122.172 116.033C122.172 116.025 122.172 116.018 122.172 116.011C122.172 116.003 122.172 115.996 122.172 115.988C122.172 115.981 122.172 115.974 122.172 115.966C122.172 115.959 122.172 115.952 122.172 115.944C122.172 115.937 122.172 115.929 122.172 115.922C122.172 115.915 122.172 115.907 122.172 115.9C122.172 115.893 122.172 115.885 122.172 115.878C122.172 115.87 122.172 115.863 122.172 115.856C122.172 115.848 122.172 115.841 122.172 115.834C122.172 115.826 122.172 115.819 122.172 115.812C122.172 115.804 122.172 115.797 122.172 115.789C122.172 115.782 122.172 115.775 122.172 115.767C122.172 115.76 122.172 115.753 122.172 115.745C122.172 115.738 122.172 115.731 122.172 115.723C122.172 115.716 122.172 115.709 122.172 115.701C122.172 115.694 122.172 115.686 122.172 115.679C122.172 115.672 122.172 115.664 122.172 115.657C122.172 115.65 122.172 115.642 122.172 115.635C122.172 115.628 122.172 115.62 122.172 115.613C122.172 115.606 122.172 115.598 122.172 115.591C122.172 115.584 122.172 115.576 122.172 115.569C122.172 115.562 122.172 115.554 122.172 115.547C122.172 115.54 122.172 115.532 122.172 115.525C122.172 115.518 122.172 115.51 122.172 115.503C122.172 115.496 122.172 115.488 122.172 115.481C122.172 115.474 122.172 115.466 122.172 115.459C122.172 115.452 122.172 115.444 122.172 115.437C122.172 115.43 122.172 115.422 122.172 115.415C122.172 115.408 122.172 115.4 122.172 115.393C122.172 115.386 122.172 115.378 122.172 115.371C122.172 115.364 122.172 115.356 122.172 115.349C122.172 115.342 122.172 115.335 122.172 115.327C122.172 115.32 122.172 115.313 122.172 115.305C122.172 115.298 122.172 115.291 122.172 115.283C122.172 115.276 122.172 115.269 122.172 115.261C122.172 115.254 122.172 115.247 122.172 115.239C122.172 115.232 122.172 115.225 122.172 115.218C122.172 115.21 122.172 115.203 122.172 115.196C122.172 115.188 122.172 115.181 122.172 115.174C122.172 115.166 122.172 115.159 122.172 115.152C122.172 115.145 122.172 115.137 122.172 115.13C122.172 115.123 122.172 115.115 122.172 115.108C122.172 115.101 122.172 115.094 122.172 115.086C122.172 115.079 122.172 115.072 122.172 115.064C122.172 115.057 122.172 115.05 122.172 115.043C122.172 115.035 122.172 115.028 122.172 115.021C122.172 115.013 122.172 115.006 122.172 114.999C122.172 114.992 122.172 114.984 122.172 114.977C122.172 114.97 122.172 114.962 122.172 114.955C122.172 114.948 122.172 114.941 122.172 114.933C122.172 114.926 122.172 114.919 122.172 114.911C122.172 114.904 122.172 114.897 122.172 114.89C122.172 114.882 122.172 114.875 122.172 114.868C122.172 114.861 122.172 114.853 122.172 114.846C122.172 114.839 122.172 114.832 122.172 114.824C122.172 114.817 122.172 114.81 122.172 114.802C122.172 114.795 122.172 114.788 122.172 114.781C122.172 114.773 122.172 114.766 122.172 114.759C122.172 114.752 122.172 114.744 122.172 114.737C122.172 114.73 122.172 114.723 122.172 114.715C122.172 114.708 122.172 114.701 122.172 114.694C122.172 114.686 122.172 114.679 122.172 114.672C122.172 114.665 122.172 114.657 122.172 114.65C122.172 114.643 122.172 114.636 122.172 114.628C122.172 114.621 122.172 114.614 122.172 114.607C122.172 114.599 122.172 114.592 122.172 114.585C122.172 114.578 122.172 114.57 122.172 114.563C122.172 114.556 122.172 114.549 122.172 114.541C122.172 114.534 122.172 114.527 122.172 114.52C122.172 114.513 122.172 114.505 122.172 114.498C122.172 114.491 122.172 114.484 122.172 114.476C122.172 114.469 122.172 114.462 122.172 114.455C122.172 114.447 122.172 114.44 122.172 114.433C122.172 114.426 122.172 114.419 122.172 114.411C122.172 114.404 122.172 114.397 122.172 114.39C122.172 114.382 122.172 114.375 122.172 114.368C122.172 114.361 122.172 114.354 122.172 114.346C122.172 114.339 122.172 114.332 122.172 114.325C122.172 114.317 122.172 114.31 122.172 114.303C122.172 114.296 122.172 114.289 122.172 114.281C122.172 114.274 122.172 114.267 122.172 114.26C122.172 114.253 122.172 114.245 122.172 114.238C122.172 114.231 122.172 114.224 122.172 114.217C122.172 114.209 122.172 114.202 122.172 114.195C122.172 114.188 122.172 114.181 122.172 114.173C122.172 114.166 122.172 114.159 122.172 114.152C122.172 114.145 122.172 114.137 122.172 114.13C122.172 114.123 122.172 114.116 122.172 114.109C122.172 114.101 122.172 114.094 122.172 114.087C122.172 114.08 122.172 114.073 122.172 114.065C122.172 114.058 122.172 114.051 122.172 114.044C122.172 114.037 122.172 114.029 122.172 114.022C122.172 114.015 122.172 114.008 122.172 114.001C122.172 113.994 122.172 113.986 122.172 113.979C122.172 113.972 122.172 113.965 122.172 113.958C122.172 113.95 122.172 113.943 122.172 113.936C122.172 113.929 122.172 113.922 122.172 113.915C122.172 113.907 122.172 113.9 122.172 113.893C122.172 113.886 122.172 113.879 122.172 113.872C122.172 113.864 122.172 113.857 122.172 113.85C122.172 113.843 122.172 113.836 122.172 113.829C122.172 113.821 122.172 113.814 122.172 113.807C122.172 113.8 122.172 113.793 122.172 113.786C122.172 113.778 122.172 113.771 122.172 113.764C122.172 113.757 122.172 113.75 122.172 113.743C122.172 113.735 122.172 113.728 122.172 113.721C122.172 113.714 122.172 113.707 122.172 113.7C122.172 113.692 122.172 113.685 122.172 113.678C122.172 113.671 122.172 113.664 122.172 113.657C122.172 113.65 122.172 113.642 122.172 113.635C122.172 113.628 122.172 113.621 122.172 113.614C122.172 113.607 122.172 113.6 122.172 113.592C122.172 113.585 122.172 113.578 122.172 113.571C122.172 113.564 122.172 113.557 122.172 113.55C122.172 113.542 122.172 113.535 122.172 113.528C122.172 113.521 122.172 113.514 122.172 113.507C122.172 113.5 122.172 113.492 122.172 113.485C122.172 113.478 122.172 113.471 122.172 113.464C122.172 113.457 122.172 113.45 122.172 113.443C122.172 113.435 122.172 113.428 122.172 113.421C122.172 113.414 122.172 113.407 122.172 113.4C122.172 113.393 122.172 113.386 122.172 113.378C122.172 113.371 122.172 113.364 122.172 113.357C122.172 113.35 122.172 113.343 122.172 113.336C122.172 113.329 122.172 113.322 122.172 113.314C122.172 113.307 122.172 113.3 122.172 113.293C122.172 113.286 122.172 113.279 122.172 113.272C122.172 113.265 122.172 113.257 122.172 113.25C122.172 113.243 122.172 113.236 122.172 113.229C122.172 113.222 122.172 113.215 122.172 113.208C122.172 113.201 122.172 113.194 122.172 113.186C122.172 113.179 122.172 113.172 122.172 113.165C122.172 113.158 122.172 113.151 122.172 113.144C122.172 113.137 122.172 113.13 122.172 113.123C122.172 113.115 122.172 113.108 122.172 113.101C122.172 113.094 122.172 113.087 122.172 113.08C122.172 113.073 122.172 113.066 122.172 113.059C122.172 113.052 122.172 113.045 122.172 113.037C122.172 113.03 122.172 113.023 122.172 113.016C122.172 113.009 122.172 113.002 122.172 112.995C122.172 112.988 122.172 112.981 122.172 112.974C122.172 112.967 122.172 112.96 122.172 112.952C122.172 112.945 122.172 112.938 122.172 112.931C122.172 112.924 122.172 112.917 122.172 112.91C122.172 112.903 122.172 112.896 122.172 112.889C122.172 112.882 122.172 112.875 122.172 112.868C122.172 112.861 122.172 112.853 122.172 112.846C122.172 112.839 122.172 112.832 122.172 112.825C122.172 112.818 122.172 112.811 122.172 112.804C122.172 112.797 122.172 112.79 122.172 112.783C122.172 112.776 122.172 112.769 122.172 112.762C122.172 112.755 122.172 112.748 122.172 112.74C122.172 112.733 122.172 112.726 122.172 112.719C122.172 112.712 122.172 112.705 122.172 112.698C122.172 112.691 122.172 112.684 122.172 112.677C122.172 112.67 122.172 112.663 122.172 112.656C122.172 112.649 122.172 112.642 122.172 112.635C122.172 112.628 122.172 112.621 122.172 112.614C122.172 112.607 122.172 112.599 122.172 112.592C122.172 112.585 122.172 112.578 122.172 112.571C122.172 112.564 122.172 112.557 122.172 112.55C122.172 112.543 122.172 112.536 122.172 112.529C122.172 112.522 122.172 112.515 122.172 112.508C122.172 112.501 122.172 112.494 122.172 112.487C122.172 112.48 122.172 112.473 122.172 112.466C122.172 112.459 122.172 112.452 122.172 112.445C122.172 112.438 122.172 112.431 122.172 112.424C122.172 112.417 122.172 112.41 122.172 112.403C122.172 112.396 122.172 112.389 122.172 112.381C122.172 112.374 122.172 112.367 122.172 112.36C122.172 112.353 122.172 112.346 122.172 112.339C122.172 112.332 122.172 112.325 122.172 112.318C122.172 112.311 122.172 112.304 122.172 112.297C122.172 112.29 122.172 112.283 122.172 112.276C122.172 112.269 122.172 112.262 122.172 112.255C122.172 112.248 122.172 112.241 122.172 112.234C122.172 112.227 122.172 112.22 122.172 112.213C122.172 112.206 122.172 112.199 122.172 112.192C122.172 112.185 122.172 112.178 122.172 112.171C122.172 112.164 122.172 112.157 122.172 112.15C122.172 112.143 122.172 112.136 122.172 112.129C122.172 112.122 122.172 112.115 122.172 112.108C122.172 112.101 122.172 112.094 122.172 112.087C122.172 112.08 122.172 112.073 122.172 112.066C122.172 112.059 122.172 112.052 122.172 112.045C122.172 112.038 122.172 112.031 122.172 112.024C122.172 112.017 122.172 112.01 122.172 112.003C122.172 111.996 122.172 111.989 122.172 111.982C122.172 111.976 122.172 111.969 122.172 111.962C122.172 111.955 122.172 111.948 122.172 111.941C122.172 111.934 122.172 111.927 122.172 111.92C122.172 111.913 122.172 111.906 122.172 111.899C122.172 111.892 122.172 111.885 122.172 111.878C122.172 111.871 122.172 111.864 122.172 111.857C122.172 111.85 122.172 111.843 122.172 111.836C122.172 111.829 122.172 111.822 122.172 111.815C122.172 111.808 122.172 111.801 122.172 111.794C122.172 111.787 122.172 111.78 122.172 111.773C122.172 111.766 122.172 111.76 122.172 111.753C122.172 111.746 122.172 111.739 122.172 111.732C122.172 111.725 122.172 111.718 122.172 111.711C122.172 111.704 122.172 111.697 122.172 111.69C122.172 111.683 122.172 111.676 122.172 111.669C122.172 111.662 122.172 111.655 122.172 111.648C122.172 111.641 122.172 111.634 122.172 111.627C122.172 111.621 122.172 111.614 122.172 111.607C122.172 111.6 122.172 111.593 122.172 111.586C122.172 111.579 122.172 111.572 122.172 111.565C122.172 111.558 122.172 111.551 122.172 111.544C122.172 111.537 122.172 111.53 122.172 111.523C122.172 111.516 122.172 111.51 122.172 111.503C122.172 111.496 122.172 111.489 122.172 111.482C122.172 111.475 122.172 111.468 122.172 111.461C122.172 111.454 122.172 111.447 122.172 111.44C122.172 111.433 122.172 111.426 122.172 111.42C122.172 111.413 122.172 111.406 122.172 111.399C122.172 111.392 122.172 111.385 122.172 111.378C122.172 111.371 122.172 111.364 122.172 111.357C122.172 111.35 122.172 111.343 122.172 111.337C122.172 111.33 122.172 111.323 122.172 111.316C122.172 111.309 122.172 111.302 122.172 111.295C122.172 111.288 122.172 111.281 122.172 111.274C122.172 111.267 122.172 111.261 122.172 111.254C122.172 111.247 122.172 111.24 122.172 111.233C122.172 111.226 122.172 111.219 122.172 111.212C122.172 111.205 122.172 111.198 122.172 111.191C122.172 111.185 122.172 111.178 122.172 111.171C122.172 111.164 122.172 111.157 122.172 111.15C122.172 111.143 122.172 111.136 122.172 111.129C122.172 111.123 122.172 111.116 122.172 111.109C122.172 111.102 122.172 111.095 122.172 111.088C122.172 111.081 122.172 111.074 122.172 111.067C122.172 111.061 122.172 111.054 122.172 111.047C122.172 111.04 122.172 111.033 122.172 111.026C122.172 111.019 122.172 111.012 122.172 111.006C122.172 110.999 122.172 110.992 122.172 110.985C122.172 110.978 122.172 110.971 122.172 110.964C122.172 110.957 122.172 110.95 122.172 110.944C122.172 110.937 122.172 110.93 122.172 110.923C122.172 110.916 122.172 110.909 122.172 110.902C122.172 110.896 122.172 110.889 122.172 110.882C122.172 110.875 122.172 110.868 122.172 110.861C122.172 110.854 122.172 110.847 122.172 110.841C122.172 110.834 122.172 110.827 122.172 110.82C122.172 110.813 122.172 110.806 122.172 110.799C122.172 110.793 122.172 110.786 122.172 110.779C122.172 110.772 122.172 110.765 122.172 110.758C122.172 110.751 122.172 110.745 122.172 110.738C122.172 110.731 122.172 110.724 122.172 110.717C122.172 110.71 122.172 110.704 122.172 110.697C122.172 110.69 122.172 110.683 122.172 110.676C122.172 110.669 122.172 110.662 122.172 110.656C122.172 110.649 122.172 110.642 122.172 110.635C122.172 110.628 122.172 110.621 122.172 110.615C122.172 110.608 122.172 110.601 122.172 110.594C122.172 110.587 122.172 110.58 122.172 110.574C122.172 110.567 122.172 110.56 122.172 110.553C122.172 110.546 122.172 110.539 122.172 110.533C122.172 110.526 122.172 110.519 122.172 110.512C122.172 110.505 122.172 110.498 122.172 110.492C122.172 110.485 122.172 110.478 122.172 110.471C122.172 110.464 122.172 110.458 122.172 110.451C122.172 110.444 122.172 110.437 122.172 110.43C122.172 110.423 122.172 110.417 122.172 110.41C122.172 110.403 122.172 110.396 122.172 110.389C122.172 110.383 122.172 110.376 122.172 110.369C122.172 110.362 122.172 110.355 122.172 110.348C122.172 110.342 122.172 110.335 122.172 110.328C122.172 110.321 122.172 110.314 122.172 110.308C122.172 110.301 122.172 110.294 122.172 110.287C122.172 110.28 122.172 110.274 122.172 110.267C122.172 110.26 122.172 110.253 122.172 110.246C122.172 110.24 122.172 110.233 122.172 110.226C122.172 110.219 122.172 110.212 122.172 110.206C122.172 110.199 122.172 110.192 122.172 110.185C122.172 110.178 122.172 110.172 122.172 110.165C122.172 110.158 122.172 110.151 122.172 110.144C122.172 110.138 122.172 110.131 122.172 110.124C122.172 110.117 122.172 110.111 122.172 110.104C122.172 110.097 122.172 110.09 122.172 110.083C122.172 110.077 122.172 110.07 122.172 110.063C122.172 110.056 122.172 110.05 122.172 110.043C122.172 110.036 122.172 110.029 122.172 110.022C122.172 110.016 122.172 110.009 122.172 110.002C122.172 109.995 122.172 109.989 122.172 109.982C122.172 109.975 122.172 109.968 122.172 109.961C122.172 109.955 122.172 109.948 122.172 109.941C122.172 109.934 122.172 109.928 122.172 109.921C122.172 109.914 122.172 109.907 122.172 109.901C122.172 109.894 122.172 109.887 122.172 109.88C122.172 109.874 122.172 109.867 122.172 109.86C122.172 109.853 122.172 109.846 122.172 109.84C122.172 109.833 122.172 109.826 122.172 109.819C122.172 109.813 122.172 109.806 122.172 109.799C122.172 109.792 122.172 109.786 122.172 109.779C122.172 109.772 122.172 109.765 122.172 109.759C122.172 109.752 122.172 109.745 122.172 109.738C122.172 109.732 122.172 109.725 122.172 109.718C122.172 109.711 122.172 109.705 122.172 109.698C122.172 109.691 122.172 109.685 122.172 109.678C122.172 109.671 122.172 109.664 122.172 109.658C122.172 109.651 122.172 109.644 122.172 109.637C122.172 109.631 122.172 109.624 122.172 109.617C122.172 109.61 122.172 109.604 122.172 109.597C122.172 109.59 122.172 109.583 122.172 109.577C122.172 109.57 122.172 109.563 122.172 109.557C122.172 109.55 122.172 109.543 122.172 109.536C122.172 109.53 122.172 109.523 122.172 109.516C122.172 109.51 122.172 109.503 122.172 109.496C122.172 109.489 122.172 109.483 122.172 109.476C122.172 109.469 122.172 109.462 122.172 109.456C122.172 109.449 122.172 109.442 122.172 109.436C122.172 109.429 122.172 109.422 122.172 109.415C122.172 109.409 122.172 109.402 122.172 109.395C122.172 109.389 122.172 109.382 122.172 109.375C122.172 109.369 122.172 109.362 122.172 109.355C122.172 109.348 122.172 109.342 122.172 109.335C122.172 109.328 122.172 109.322 122.172 109.315C122.172 109.308 122.172 109.302 122.172 109.295C122.172 109.288 122.172 109.281 122.172 109.275C122.172 109.268 122.172 109.261 122.172 109.255C122.172 109.248 122.172 109.241 122.172 109.235C122.172 109.228 122.172 109.221 122.172 109.214C122.172 109.208 122.172 109.201 122.172 109.194C122.172 109.188 122.172 109.181 122.172 109.174C122.172 109.168 122.172 109.161 122.172 109.154C122.172 109.148 122.172 109.141 122.172 109.134C122.172 109.128 122.172 109.121 122.172 109.114C122.172 109.108 122.172 109.101 122.172 109.094C122.172 109.087 122.172 109.081 122.172 109.074C122.172 109.067 122.172 109.061 122.172 109.054C122.172 109.047 122.172 109.041 122.172 109.034C122.172 109.027 122.172 109.021 122.172 109.014C122.172 109.007 122.172 109.001 122.172 108.994C122.172 108.987 122.172 108.981 122.172 108.974C122.172 108.967 122.172 108.961 122.172 108.954C122.172 108.947 122.172 108.941 122.172 108.934C122.172 108.927 122.172 108.921 122.172 108.914C122.172 108.908 122.172 108.901 122.172 108.894C122.172 108.888 122.172 108.881 122.172 108.874C122.172 108.868 122.172 108.861 122.172 108.854C122.172 108.848 122.172 108.841 122.172 108.834C122.172 108.828 122.172 108.821 122.172 108.814C122.172 108.808 122.172 108.801 122.172 108.794C122.172 108.788 122.172 108.781 122.172 108.775C122.172 108.768 122.172 108.761 122.172 108.755C122.172 108.748 122.172 108.741 122.172 108.735C122.172 108.728 122.172 108.721 122.172 108.715C122.172 108.708 122.172 108.701 122.172 108.695C122.172 108.688 122.172 108.682 122.172 108.675C122.172 108.668 122.172 108.662 122.172 108.655C122.172 108.648 122.172 108.642 122.172 108.635C122.172 108.629 122.172 108.622 122.172 108.615C122.172 108.609 122.172 108.602 122.172 108.595C122.172 108.589 122.172 108.582 122.172 108.576C122.172 108.569 122.172 108.562 122.172 108.556C122.172 108.549 122.172 108.542 122.172 108.536C122.172 108.529 122.172 108.523 122.172 108.516C122.172 108.509 122.172 108.503 122.172 108.496C122.172 108.49 122.172 108.483 122.172 108.476C122.172 108.47 122.172 108.463 122.172 108.456C122.172 108.45 122.172 108.443 122.172 108.437C122.172 108.43 122.172 108.423 122.172 108.417C122.172 108.41 122.172 108.404 122.172 108.397C122.172 108.39 122.172 108.384 122.172 108.377C122.172 108.371 122.172 108.364 122.172 108.357C122.172 108.351 122.172 108.344 122.172 108.338C122.172 108.331 122.172 108.324 122.172 108.318C122.172 108.311 122.172 108.305 122.172 108.298C122.172 108.292 122.172 108.285 122.172 108.278C122.172 108.272 122.172 108.265 122.172 108.259C122.172 108.252 122.172 108.245 122.172 108.239C122.172 108.232 122.172 108.226 122.172 108.219C122.172 108.212 122.172 108.206 122.172 108.199C122.172 108.193 122.172 108.186 122.172 108.18C122.172 108.173 122.172 108.166 122.172 108.16C122.172 108.153 122.172 108.147 122.172 108.14C122.172 108.134 122.172 108.127 122.172 108.12C122.172 108.114 122.172 108.107 122.172 108.101C122.172 108.094 122.172 108.088 122.172 108.081C122.172 108.074 122.172 108.068 122.172 108.061C122.172 108.055 122.172 108.048 122.172 108.042C122.172 108.035 122.172 108.028 122.172 108.022C122.172 108.015 122.172 108.009 122.172 108.002C122.172 107.996 122.172 107.989 122.172 107.983C122.172 107.976 122.172 107.969 122.172 107.963C122.172 107.956 122.172 107.95 122.172 107.943C122.172 107.937 122.172 107.93 122.172 107.924C122.172 107.917 122.172 107.91 122.172 107.904C122.172 107.897 122.172 107.891 122.172 107.884C122.172 107.878 122.172 107.871 122.172 107.865C122.172 107.858 122.172 107.852 122.172 107.845C122.172 107.838 122.172 107.832 122.172 107.825C122.172 107.819 122.172 107.812 122.172 107.806C122.172 107.799 122.172 107.793 122.172 107.786C122.172 107.78 122.172 107.773 122.172 107.767C122.172 107.76 122.172 107.753 122.172 107.747C122.172 107.74 122.172 107.734 122.172 107.727C122.172 107.721 122.172 107.714 122.172 107.708C122.172 107.701 122.172 107.695 122.172 107.688C122.172 107.682 122.172 107.675 122.172 107.669C122.172 107.662 122.172 107.656 122.172 107.649C122.172 107.643 122.172 107.636 122.172 107.63C122.172 107.623 122.172 107.616 122.172 107.61C122.172 107.603 122.172 107.597 122.172 107.59C122.172 107.584 122.172 107.577 122.172 107.571C122.172 107.564 122.172 107.558 122.172 107.551C122.172 107.545 122.172 107.538 122.172 107.532C122.172 107.525 122.172 107.519 122.172 107.512C122.172 107.506 122.172 107.499 122.172 107.493C122.172 107.486 122.172 107.48 122.172 107.473C122.172 107.467 122.172 107.46 122.172 107.454C122.172 107.447 122.172 107.441 122.172 107.434C122.172 107.428 122.172 107.421 122.172 107.415C122.172 107.408 122.172 107.402 122.172 107.395C122.172 107.389 122.172 107.382 122.172 107.376C122.172 107.369 122.172 107.363 122.172 107.356C122.172 107.35 122.172 107.343 122.172 107.337C122.172 107.33 122.172 107.324 122.172 107.317C122.172 107.311 122.172 107.305 122.172 107.298C122.172 107.292 122.172 107.285 122.172 107.279C122.172 107.272 122.172 107.266 122.172 107.259C122.172 107.253 122.172 107.246 122.172 107.24C122.172 107.233 122.172 107.227 122.172 107.22C122.172 107.214 122.172 107.207 122.172 107.201C122.172 107.194 122.172 107.188 122.172 107.181C122.172 107.175 122.172 107.169 122.172 107.162C122.172 107.156 122.172 107.149 122.172 107.143C122.172 107.136 122.172 107.13 122.172 107.123C122.172 107.117 122.172 107.11 122.172 107.104C122.172 107.097 122.172 107.091 122.172 107.085C122.172 107.078 122.172 107.072 122.172 107.065C122.172 107.059 122.172 107.052 122.172 107.046C122.172 107.039 122.172 107.033 122.172 107.026C122.172 107.02 122.172 107.014 122.172 107.007C122.172 107.001 122.172 106.994 122.172 106.988C122.172 106.981 122.172 106.975 122.172 106.968C122.172 106.962 122.172 106.956 122.172 106.949C122.172 106.943 122.172 106.936 122.172 106.93C122.172 106.923 122.172 106.917 122.172 106.91C122.172 106.904 122.172 106.898 122.172 106.891C122.172 106.885 122.172 106.878 122.172 106.872C122.172 106.865 122.172 106.859 122.172 106.853C122.172 106.846 122.172 106.84 122.172 106.833C122.172 106.827 122.172 106.82 122.172 106.814C122.172 106.807 122.172 106.801 122.172 106.795C122.172 106.788 122.172 106.782 122.172 106.775C122.172 106.769 122.172 106.763 122.172 106.756C122.172 106.75 122.172 106.743 122.172 106.737C122.172 106.73 122.172 106.724 122.172 106.718C122.172 106.711 122.172 106.705 122.172 106.698C122.172 106.692 122.172 106.686 122.172 106.679C122.172 106.673 122.172 106.666 122.172 106.66C122.172 106.653 122.172 106.647 122.172 106.641H108.172ZM108.172 117.307L107.891 209.979L121.891 210.021L122.172 117.349L108.172 117.307Z" fill="#272B32"/>
</svg>
